<?xml version="1.0" encoding="utf-8" standalone="no"?>
<!DOCTYPE svg PUBLIC "-//W3C//DTD SVG 1.1//EN"
  "http://www.w3.org/Graphics/SVG/1.1/DTD/svg11.dtd">
<svg xmlns:xlink="http://www.w3.org/1999/xlink" width="283.464567pt" height="198.425197pt" viewBox="0 0 283.464567 198.425197" xmlns="http://www.w3.org/2000/svg" version="1.1">
 <metadata>
  <rdf:RDF xmlns:dc="http://purl.org/dc/elements/1.1/" xmlns:cc="http://creativecommons.org/ns#" xmlns:rdf="http://www.w3.org/1999/02/22-rdf-syntax-ns#">
   <cc:Work>
    <dc:type rdf:resource="http://purl.org/dc/dcmitype/StillImage"/>
    <dc:date>2023-08-18T13:59:09.585830</dc:date>
    <dc:format>image/svg+xml</dc:format>
    <dc:creator>
     <cc:Agent>
      <dc:title>Matplotlib v3.7.1, https://matplotlib.org/</dc:title>
     </cc:Agent>
    </dc:creator>
   </cc:Work>
  </rdf:RDF>
 </metadata>
 <defs>
  <style type="text/css">*{stroke-linejoin: round; stroke-linecap: butt}</style>
 </defs>
 <g id="figure_1">
  <g id="patch_1">
   <path d="M 0 198.425197 
L 283.464567 198.425197 
L 283.464567 0 
L 0 0 
z
" style="fill: #ffffff"/>
  </g>
  <g id="axes_1">
   <g id="patch_2">
    <path d="M 24.152 173.085197 
L 273.837067 173.085197 
L 273.837067 5.12 
L 24.152 5.12 
z
" style="fill: #ffffff"/>
   </g>
   <g id="matplotlib.axis_1">
    <g id="xtick_1">
     <g id="line2d_1">
      <path d="M 24.152 173.085197 
L 24.152 5.12 
" clip-path="url(#paaadee3ea1)" style="fill: none; stroke-dasharray: 0.925,0.4; stroke-dashoffset: 0; stroke: #404040; stroke-opacity: 0.5; stroke-width: 0.25"/>
     </g>
     <g id="line2d_2">
      <defs>
       <path id="mb6e9f358f8" d="M 0 0 
L 0 -3.5 
" style="stroke: #000000; stroke-width: 0.5"/>
      </defs>
      <g>
       <use xlink:href="#mb6e9f358f8" x="24.152" y="173.085197" style="stroke: #000000; stroke-width: 0.5"/>
      </g>
     </g>
     <g id="text_1">
      <!-- 24 -->
      <g transform="translate(19.062 182.663947) scale(0.08 -0.08)">
       <defs>
        <path id="DejaVuSans-32" d="M 1228 531 
L 3431 531 
L 3431 0 
L 469 0 
L 469 531 
Q 828 903 1448 1529 
Q 2069 2156 2228 2338 
Q 2531 2678 2651 2914 
Q 2772 3150 2772 3378 
Q 2772 3750 2511 3984 
Q 2250 4219 1831 4219 
Q 1534 4219 1204 4116 
Q 875 4013 500 3803 
L 500 4441 
Q 881 4594 1212 4672 
Q 1544 4750 1819 4750 
Q 2544 4750 2975 4387 
Q 3406 4025 3406 3419 
Q 3406 3131 3298 2873 
Q 3191 2616 2906 2266 
Q 2828 2175 2409 1742 
Q 1991 1309 1228 531 
z
" transform="scale(0.015625)"/>
        <path id="DejaVuSans-34" d="M 2419 4116 
L 825 1625 
L 2419 1625 
L 2419 4116 
z
M 2253 4666 
L 3047 4666 
L 3047 1625 
L 3713 1625 
L 3713 1100 
L 3047 1100 
L 3047 0 
L 2419 0 
L 2419 1100 
L 313 1100 
L 313 1709 
L 2253 4666 
z
" transform="scale(0.015625)"/>
       </defs>
       <use xlink:href="#DejaVuSans-32"/>
       <use xlink:href="#DejaVuSans-34" x="63.623047"/>
      </g>
     </g>
    </g>
    <g id="xtick_2">
     <g id="line2d_3">
      <path d="M 59.821295 173.085197 
L 59.821295 5.12 
" clip-path="url(#paaadee3ea1)" style="fill: none; stroke-dasharray: 0.925,0.4; stroke-dashoffset: 0; stroke: #404040; stroke-opacity: 0.5; stroke-width: 0.25"/>
     </g>
     <g id="line2d_4">
      <g>
       <use xlink:href="#mb6e9f358f8" x="59.821295" y="173.085197" style="stroke: #000000; stroke-width: 0.5"/>
      </g>
     </g>
     <g id="text_2">
      <!-- 48 -->
      <g transform="translate(54.731295 182.663947) scale(0.08 -0.08)">
       <defs>
        <path id="DejaVuSans-38" d="M 2034 2216 
Q 1584 2216 1326 1975 
Q 1069 1734 1069 1313 
Q 1069 891 1326 650 
Q 1584 409 2034 409 
Q 2484 409 2743 651 
Q 3003 894 3003 1313 
Q 3003 1734 2745 1975 
Q 2488 2216 2034 2216 
z
M 1403 2484 
Q 997 2584 770 2862 
Q 544 3141 544 3541 
Q 544 4100 942 4425 
Q 1341 4750 2034 4750 
Q 2731 4750 3128 4425 
Q 3525 4100 3525 3541 
Q 3525 3141 3298 2862 
Q 3072 2584 2669 2484 
Q 3125 2378 3379 2068 
Q 3634 1759 3634 1313 
Q 3634 634 3220 271 
Q 2806 -91 2034 -91 
Q 1263 -91 848 271 
Q 434 634 434 1313 
Q 434 1759 690 2068 
Q 947 2378 1403 2484 
z
M 1172 3481 
Q 1172 3119 1398 2916 
Q 1625 2713 2034 2713 
Q 2441 2713 2670 2916 
Q 2900 3119 2900 3481 
Q 2900 3844 2670 4047 
Q 2441 4250 2034 4250 
Q 1625 4250 1398 4047 
Q 1172 3844 1172 3481 
z
" transform="scale(0.015625)"/>
       </defs>
       <use xlink:href="#DejaVuSans-34"/>
       <use xlink:href="#DejaVuSans-38" x="63.623047"/>
      </g>
     </g>
    </g>
    <g id="xtick_3">
     <g id="line2d_5">
      <path d="M 95.490591 173.085197 
L 95.490591 5.12 
" clip-path="url(#paaadee3ea1)" style="fill: none; stroke-dasharray: 0.925,0.4; stroke-dashoffset: 0; stroke: #404040; stroke-opacity: 0.5; stroke-width: 0.25"/>
     </g>
     <g id="line2d_6">
      <g>
       <use xlink:href="#mb6e9f358f8" x="95.490591" y="173.085197" style="stroke: #000000; stroke-width: 0.5"/>
      </g>
     </g>
     <g id="text_3">
      <!-- 72 -->
      <g transform="translate(90.400591 182.663947) scale(0.08 -0.08)">
       <defs>
        <path id="DejaVuSans-37" d="M 525 4666 
L 3525 4666 
L 3525 4397 
L 1831 0 
L 1172 0 
L 2766 4134 
L 525 4134 
L 525 4666 
z
" transform="scale(0.015625)"/>
       </defs>
       <use xlink:href="#DejaVuSans-37"/>
       <use xlink:href="#DejaVuSans-32" x="63.623047"/>
      </g>
     </g>
    </g>
    <g id="xtick_4">
     <g id="line2d_7">
      <path d="M 131.159886 173.085197 
L 131.159886 5.12 
" clip-path="url(#paaadee3ea1)" style="fill: none; stroke-dasharray: 0.925,0.4; stroke-dashoffset: 0; stroke: #404040; stroke-opacity: 0.5; stroke-width: 0.25"/>
     </g>
     <g id="line2d_8">
      <g>
       <use xlink:href="#mb6e9f358f8" x="131.159886" y="173.085197" style="stroke: #000000; stroke-width: 0.5"/>
      </g>
     </g>
     <g id="text_4">
      <!-- 96 -->
      <g transform="translate(126.069886 182.663947) scale(0.08 -0.08)">
       <defs>
        <path id="DejaVuSans-39" d="M 703 97 
L 703 672 
Q 941 559 1184 500 
Q 1428 441 1663 441 
Q 2288 441 2617 861 
Q 2947 1281 2994 2138 
Q 2813 1869 2534 1725 
Q 2256 1581 1919 1581 
Q 1219 1581 811 2004 
Q 403 2428 403 3163 
Q 403 3881 828 4315 
Q 1253 4750 1959 4750 
Q 2769 4750 3195 4129 
Q 3622 3509 3622 2328 
Q 3622 1225 3098 567 
Q 2575 -91 1691 -91 
Q 1453 -91 1209 -44 
Q 966 3 703 97 
z
M 1959 2075 
Q 2384 2075 2632 2365 
Q 2881 2656 2881 3163 
Q 2881 3666 2632 3958 
Q 2384 4250 1959 4250 
Q 1534 4250 1286 3958 
Q 1038 3666 1038 3163 
Q 1038 2656 1286 2365 
Q 1534 2075 1959 2075 
z
" transform="scale(0.015625)"/>
        <path id="DejaVuSans-36" d="M 2113 2584 
Q 1688 2584 1439 2293 
Q 1191 2003 1191 1497 
Q 1191 994 1439 701 
Q 1688 409 2113 409 
Q 2538 409 2786 701 
Q 3034 994 3034 1497 
Q 3034 2003 2786 2293 
Q 2538 2584 2113 2584 
z
M 3366 4563 
L 3366 3988 
Q 3128 4100 2886 4159 
Q 2644 4219 2406 4219 
Q 1781 4219 1451 3797 
Q 1122 3375 1075 2522 
Q 1259 2794 1537 2939 
Q 1816 3084 2150 3084 
Q 2853 3084 3261 2657 
Q 3669 2231 3669 1497 
Q 3669 778 3244 343 
Q 2819 -91 2113 -91 
Q 1303 -91 875 529 
Q 447 1150 447 2328 
Q 447 3434 972 4092 
Q 1497 4750 2381 4750 
Q 2619 4750 2861 4703 
Q 3103 4656 3366 4563 
z
" transform="scale(0.015625)"/>
       </defs>
       <use xlink:href="#DejaVuSans-39"/>
       <use xlink:href="#DejaVuSans-36" x="63.623047"/>
      </g>
     </g>
    </g>
    <g id="xtick_5">
     <g id="line2d_9">
      <path d="M 166.829181 173.085197 
L 166.829181 5.12 
" clip-path="url(#paaadee3ea1)" style="fill: none; stroke-dasharray: 0.925,0.4; stroke-dashoffset: 0; stroke: #404040; stroke-opacity: 0.5; stroke-width: 0.25"/>
     </g>
     <g id="line2d_10">
      <g>
       <use xlink:href="#mb6e9f358f8" x="166.829181" y="173.085197" style="stroke: #000000; stroke-width: 0.5"/>
      </g>
     </g>
     <g id="text_5">
      <!-- 120 -->
      <g transform="translate(159.194181 182.663947) scale(0.08 -0.08)">
       <defs>
        <path id="DejaVuSans-31" d="M 794 531 
L 1825 531 
L 1825 4091 
L 703 3866 
L 703 4441 
L 1819 4666 
L 2450 4666 
L 2450 531 
L 3481 531 
L 3481 0 
L 794 0 
L 794 531 
z
" transform="scale(0.015625)"/>
        <path id="DejaVuSans-30" d="M 2034 4250 
Q 1547 4250 1301 3770 
Q 1056 3291 1056 2328 
Q 1056 1369 1301 889 
Q 1547 409 2034 409 
Q 2525 409 2770 889 
Q 3016 1369 3016 2328 
Q 3016 3291 2770 3770 
Q 2525 4250 2034 4250 
z
M 2034 4750 
Q 2819 4750 3233 4129 
Q 3647 3509 3647 2328 
Q 3647 1150 3233 529 
Q 2819 -91 2034 -91 
Q 1250 -91 836 529 
Q 422 1150 422 2328 
Q 422 3509 836 4129 
Q 1250 4750 2034 4750 
z
" transform="scale(0.015625)"/>
       </defs>
       <use xlink:href="#DejaVuSans-31"/>
       <use xlink:href="#DejaVuSans-32" x="63.623047"/>
       <use xlink:href="#DejaVuSans-30" x="127.246094"/>
      </g>
     </g>
    </g>
    <g id="xtick_6">
     <g id="line2d_11">
      <path d="M 202.498476 173.085197 
L 202.498476 5.12 
" clip-path="url(#paaadee3ea1)" style="fill: none; stroke-dasharray: 0.925,0.4; stroke-dashoffset: 0; stroke: #404040; stroke-opacity: 0.5; stroke-width: 0.25"/>
     </g>
     <g id="line2d_12">
      <g>
       <use xlink:href="#mb6e9f358f8" x="202.498476" y="173.085197" style="stroke: #000000; stroke-width: 0.5"/>
      </g>
     </g>
     <g id="text_6">
      <!-- 144 -->
      <g transform="translate(194.863476 182.663947) scale(0.08 -0.08)">
       <use xlink:href="#DejaVuSans-31"/>
       <use xlink:href="#DejaVuSans-34" x="63.623047"/>
       <use xlink:href="#DejaVuSans-34" x="127.246094"/>
      </g>
     </g>
    </g>
    <g id="xtick_7">
     <g id="line2d_13">
      <path d="M 238.167772 173.085197 
L 238.167772 5.12 
" clip-path="url(#paaadee3ea1)" style="fill: none; stroke-dasharray: 0.925,0.4; stroke-dashoffset: 0; stroke: #404040; stroke-opacity: 0.5; stroke-width: 0.25"/>
     </g>
     <g id="line2d_14">
      <g>
       <use xlink:href="#mb6e9f358f8" x="238.167772" y="173.085197" style="stroke: #000000; stroke-width: 0.5"/>
      </g>
     </g>
     <g id="text_7">
      <!-- 168 -->
      <g transform="translate(230.532772 182.663947) scale(0.08 -0.08)">
       <use xlink:href="#DejaVuSans-31"/>
       <use xlink:href="#DejaVuSans-36" x="63.623047"/>
       <use xlink:href="#DejaVuSans-38" x="127.246094"/>
      </g>
     </g>
    </g>
    <g id="xtick_8">
     <g id="line2d_15">
      <path d="M 273.837067 173.085197 
L 273.837067 5.12 
" clip-path="url(#paaadee3ea1)" style="fill: none; stroke-dasharray: 0.925,0.4; stroke-dashoffset: 0; stroke: #404040; stroke-opacity: 0.5; stroke-width: 0.25"/>
     </g>
     <g id="line2d_16">
      <g>
       <use xlink:href="#mb6e9f358f8" x="273.837067" y="173.085197" style="stroke: #000000; stroke-width: 0.5"/>
      </g>
     </g>
     <g id="text_8">
      <!-- 192 -->
      <g transform="translate(266.202067 182.663947) scale(0.08 -0.08)">
       <use xlink:href="#DejaVuSans-31"/>
       <use xlink:href="#DejaVuSans-39" x="63.623047"/>
       <use xlink:href="#DejaVuSans-32" x="127.246094"/>
      </g>
     </g>
    </g>
    <g id="xtick_9">
     <g id="line2d_17">
      <defs>
       <path id="m6b27573ea2" d="M 0 0 
L 0 -2 
" style="stroke: #000000; stroke-width: 0.35"/>
      </defs>
      <g>
       <use xlink:href="#m6b27573ea2" x="41.986648" y="173.085197" style="stroke: #000000; stroke-width: 0.35"/>
      </g>
     </g>
    </g>
    <g id="xtick_10">
     <g id="line2d_18">
      <g>
       <use xlink:href="#m6b27573ea2" x="77.655943" y="173.085197" style="stroke: #000000; stroke-width: 0.35"/>
      </g>
     </g>
    </g>
    <g id="xtick_11">
     <g id="line2d_19">
      <g>
       <use xlink:href="#m6b27573ea2" x="113.325238" y="173.085197" style="stroke: #000000; stroke-width: 0.35"/>
      </g>
     </g>
    </g>
    <g id="xtick_12">
     <g id="line2d_20">
      <g>
       <use xlink:href="#m6b27573ea2" x="148.994533" y="173.085197" style="stroke: #000000; stroke-width: 0.35"/>
      </g>
     </g>
    </g>
    <g id="xtick_13">
     <g id="line2d_21">
      <g>
       <use xlink:href="#m6b27573ea2" x="184.663829" y="173.085197" style="stroke: #000000; stroke-width: 0.35"/>
      </g>
     </g>
    </g>
    <g id="xtick_14">
     <g id="line2d_22">
      <g>
       <use xlink:href="#m6b27573ea2" x="220.333124" y="173.085197" style="stroke: #000000; stroke-width: 0.35"/>
      </g>
     </g>
    </g>
    <g id="xtick_15">
     <g id="line2d_23">
      <g>
       <use xlink:href="#m6b27573ea2" x="256.002419" y="173.085197" style="stroke: #000000; stroke-width: 0.35"/>
      </g>
     </g>
    </g>
    <g id="text_9">
     <!-- Hour [h] -->
     <g transform="translate(132.432033 194.406447) scale(0.08 -0.08)">
      <defs>
       <path id="DejaVuSans-48" d="M 628 4666 
L 1259 4666 
L 1259 2753 
L 3553 2753 
L 3553 4666 
L 4184 4666 
L 4184 0 
L 3553 0 
L 3553 2222 
L 1259 2222 
L 1259 0 
L 628 0 
L 628 4666 
z
" transform="scale(0.015625)"/>
       <path id="DejaVuSans-6f" d="M 1959 3097 
Q 1497 3097 1228 2736 
Q 959 2375 959 1747 
Q 959 1119 1226 758 
Q 1494 397 1959 397 
Q 2419 397 2687 759 
Q 2956 1122 2956 1747 
Q 2956 2369 2687 2733 
Q 2419 3097 1959 3097 
z
M 1959 3584 
Q 2709 3584 3137 3096 
Q 3566 2609 3566 1747 
Q 3566 888 3137 398 
Q 2709 -91 1959 -91 
Q 1206 -91 779 398 
Q 353 888 353 1747 
Q 353 2609 779 3096 
Q 1206 3584 1959 3584 
z
" transform="scale(0.015625)"/>
       <path id="DejaVuSans-75" d="M 544 1381 
L 544 3500 
L 1119 3500 
L 1119 1403 
Q 1119 906 1312 657 
Q 1506 409 1894 409 
Q 2359 409 2629 706 
Q 2900 1003 2900 1516 
L 2900 3500 
L 3475 3500 
L 3475 0 
L 2900 0 
L 2900 538 
Q 2691 219 2414 64 
Q 2138 -91 1772 -91 
Q 1169 -91 856 284 
Q 544 659 544 1381 
z
M 1991 3584 
L 1991 3584 
z
" transform="scale(0.015625)"/>
       <path id="DejaVuSans-72" d="M 2631 2963 
Q 2534 3019 2420 3045 
Q 2306 3072 2169 3072 
Q 1681 3072 1420 2755 
Q 1159 2438 1159 1844 
L 1159 0 
L 581 0 
L 581 3500 
L 1159 3500 
L 1159 2956 
Q 1341 3275 1631 3429 
Q 1922 3584 2338 3584 
Q 2397 3584 2469 3576 
Q 2541 3569 2628 3553 
L 2631 2963 
z
" transform="scale(0.015625)"/>
       <path id="DejaVuSans-20" transform="scale(0.015625)"/>
       <path id="DejaVuSans-5b" d="M 550 4863 
L 1875 4863 
L 1875 4416 
L 1125 4416 
L 1125 -397 
L 1875 -397 
L 1875 -844 
L 550 -844 
L 550 4863 
z
" transform="scale(0.015625)"/>
       <path id="DejaVuSans-68" d="M 3513 2113 
L 3513 0 
L 2938 0 
L 2938 2094 
Q 2938 2591 2744 2837 
Q 2550 3084 2163 3084 
Q 1697 3084 1428 2787 
Q 1159 2491 1159 1978 
L 1159 0 
L 581 0 
L 581 4863 
L 1159 4863 
L 1159 2956 
Q 1366 3272 1645 3428 
Q 1925 3584 2291 3584 
Q 2894 3584 3203 3211 
Q 3513 2838 3513 2113 
z
" transform="scale(0.015625)"/>
       <path id="DejaVuSans-5d" d="M 1947 4863 
L 1947 -844 
L 622 -844 
L 622 -397 
L 1369 -397 
L 1369 4416 
L 622 4416 
L 622 4863 
L 1947 4863 
z
" transform="scale(0.015625)"/>
      </defs>
      <use xlink:href="#DejaVuSans-48"/>
      <use xlink:href="#DejaVuSans-6f" x="75.195312"/>
      <use xlink:href="#DejaVuSans-75" x="136.376953"/>
      <use xlink:href="#DejaVuSans-72" x="199.755859"/>
      <use xlink:href="#DejaVuSans-20" x="240.869141"/>
      <use xlink:href="#DejaVuSans-5b" x="272.65625"/>
      <use xlink:href="#DejaVuSans-68" x="311.669922"/>
      <use xlink:href="#DejaVuSans-5d" x="375.048828"/>
     </g>
    </g>
   </g>
   <g id="matplotlib.axis_2">
    <g id="ytick_1">
     <g id="line2d_24">
      <path d="M 24.152 173.085197 
L 273.837067 173.085197 
" clip-path="url(#paaadee3ea1)" style="fill: none; stroke-dasharray: 0.925,0.4; stroke-dashoffset: 0; stroke: #404040; stroke-opacity: 0.5; stroke-width: 0.25"/>
     </g>
     <g id="line2d_25">
      <defs>
       <path id="m9b225c0bfa" d="M 0 0 
L 3.5 0 
" style="stroke: #000000; stroke-width: 0.5"/>
      </defs>
      <g>
       <use xlink:href="#m9b225c0bfa" x="24.152" y="173.085197" style="stroke: #000000; stroke-width: 0.5"/>
      </g>
     </g>
     <g id="text_10">
      <!-- 0 -->
      <g transform="translate(15.562 176.124572) scale(0.08 -0.08)">
       <use xlink:href="#DejaVuSans-30"/>
      </g>
     </g>
    </g>
    <g id="ytick_2">
     <g id="line2d_26">
      <path d="M 24.152 131.093898 
L 273.837067 131.093898 
" clip-path="url(#paaadee3ea1)" style="fill: none; stroke-dasharray: 0.925,0.4; stroke-dashoffset: 0; stroke: #404040; stroke-opacity: 0.5; stroke-width: 0.25"/>
     </g>
     <g id="line2d_27">
      <g>
       <use xlink:href="#m9b225c0bfa" x="24.152" y="131.093898" style="stroke: #000000; stroke-width: 0.5"/>
      </g>
     </g>
     <g id="text_11">
      <!-- 1 -->
      <g transform="translate(15.562 134.133273) scale(0.08 -0.08)">
       <use xlink:href="#DejaVuSans-31"/>
      </g>
     </g>
    </g>
    <g id="ytick_3">
     <g id="line2d_28">
      <path d="M 24.152 89.102598 
L 273.837067 89.102598 
" clip-path="url(#paaadee3ea1)" style="fill: none; stroke-dasharray: 0.925,0.4; stroke-dashoffset: 0; stroke: #404040; stroke-opacity: 0.5; stroke-width: 0.25"/>
     </g>
     <g id="line2d_29">
      <g>
       <use xlink:href="#m9b225c0bfa" x="24.152" y="89.102598" style="stroke: #000000; stroke-width: 0.5"/>
      </g>
     </g>
     <g id="text_12">
      <!-- 2 -->
      <g transform="translate(15.562 92.141973) scale(0.08 -0.08)">
       <use xlink:href="#DejaVuSans-32"/>
      </g>
     </g>
    </g>
    <g id="ytick_4">
     <g id="line2d_30">
      <path d="M 24.152 47.111299 
L 273.837067 47.111299 
" clip-path="url(#paaadee3ea1)" style="fill: none; stroke-dasharray: 0.925,0.4; stroke-dashoffset: 0; stroke: #404040; stroke-opacity: 0.5; stroke-width: 0.25"/>
     </g>
     <g id="line2d_31">
      <g>
       <use xlink:href="#m9b225c0bfa" x="24.152" y="47.111299" style="stroke: #000000; stroke-width: 0.5"/>
      </g>
     </g>
     <g id="text_13">
      <!-- 3 -->
      <g transform="translate(15.562 50.150674) scale(0.08 -0.08)">
       <defs>
        <path id="DejaVuSans-33" d="M 2597 2516 
Q 3050 2419 3304 2112 
Q 3559 1806 3559 1356 
Q 3559 666 3084 287 
Q 2609 -91 1734 -91 
Q 1441 -91 1130 -33 
Q 819 25 488 141 
L 488 750 
Q 750 597 1062 519 
Q 1375 441 1716 441 
Q 2309 441 2620 675 
Q 2931 909 2931 1356 
Q 2931 1769 2642 2001 
Q 2353 2234 1838 2234 
L 1294 2234 
L 1294 2753 
L 1863 2753 
Q 2328 2753 2575 2939 
Q 2822 3125 2822 3475 
Q 2822 3834 2567 4026 
Q 2313 4219 1838 4219 
Q 1578 4219 1281 4162 
Q 984 4106 628 3988 
L 628 4550 
Q 988 4650 1302 4700 
Q 1616 4750 1894 4750 
Q 2613 4750 3031 4423 
Q 3450 4097 3450 3541 
Q 3450 3153 3228 2886 
Q 3006 2619 2597 2516 
z
" transform="scale(0.015625)"/>
       </defs>
       <use xlink:href="#DejaVuSans-33"/>
      </g>
     </g>
    </g>
    <g id="ytick_5">
     <g id="line2d_32">
      <path d="M 24.152 5.12 
L 273.837067 5.12 
" clip-path="url(#paaadee3ea1)" style="fill: none; stroke-dasharray: 0.925,0.4; stroke-dashoffset: 0; stroke: #404040; stroke-opacity: 0.5; stroke-width: 0.25"/>
     </g>
     <g id="line2d_33">
      <g>
       <use xlink:href="#m9b225c0bfa" x="24.152" y="5.12" style="stroke: #000000; stroke-width: 0.5"/>
      </g>
     </g>
     <g id="text_14">
      <!-- 4 -->
      <g transform="translate(15.562 8.159375) scale(0.08 -0.08)">
       <use xlink:href="#DejaVuSans-34"/>
      </g>
     </g>
    </g>
    <g id="ytick_6">
     <g id="line2d_34">
      <defs>
       <path id="m10987e3de3" d="M 0 0 
L 2 0 
" style="stroke: #000000; stroke-width: 0.35"/>
      </defs>
      <g>
       <use xlink:href="#m10987e3de3" x="24.152" y="164.686937" style="stroke: #000000; stroke-width: 0.35"/>
      </g>
     </g>
    </g>
    <g id="ytick_7">
     <g id="line2d_35">
      <g>
       <use xlink:href="#m10987e3de3" x="24.152" y="156.288677" style="stroke: #000000; stroke-width: 0.35"/>
      </g>
     </g>
    </g>
    <g id="ytick_8">
     <g id="line2d_36">
      <g>
       <use xlink:href="#m10987e3de3" x="24.152" y="147.890417" style="stroke: #000000; stroke-width: 0.35"/>
      </g>
     </g>
    </g>
    <g id="ytick_9">
     <g id="line2d_37">
      <g>
       <use xlink:href="#m10987e3de3" x="24.152" y="139.492157" style="stroke: #000000; stroke-width: 0.35"/>
      </g>
     </g>
    </g>
    <g id="ytick_10">
     <g id="line2d_38">
      <g>
       <use xlink:href="#m10987e3de3" x="24.152" y="122.695638" style="stroke: #000000; stroke-width: 0.35"/>
      </g>
     </g>
    </g>
    <g id="ytick_11">
     <g id="line2d_39">
      <g>
       <use xlink:href="#m10987e3de3" x="24.152" y="114.297378" style="stroke: #000000; stroke-width: 0.35"/>
      </g>
     </g>
    </g>
    <g id="ytick_12">
     <g id="line2d_40">
      <g>
       <use xlink:href="#m10987e3de3" x="24.152" y="105.899118" style="stroke: #000000; stroke-width: 0.35"/>
      </g>
     </g>
    </g>
    <g id="ytick_13">
     <g id="line2d_41">
      <g>
       <use xlink:href="#m10987e3de3" x="24.152" y="97.500858" style="stroke: #000000; stroke-width: 0.35"/>
      </g>
     </g>
    </g>
    <g id="ytick_14">
     <g id="line2d_42">
      <g>
       <use xlink:href="#m10987e3de3" x="24.152" y="80.704339" style="stroke: #000000; stroke-width: 0.35"/>
      </g>
     </g>
    </g>
    <g id="ytick_15">
     <g id="line2d_43">
      <g>
       <use xlink:href="#m10987e3de3" x="24.152" y="72.306079" style="stroke: #000000; stroke-width: 0.35"/>
      </g>
     </g>
    </g>
    <g id="ytick_16">
     <g id="line2d_44">
      <g>
       <use xlink:href="#m10987e3de3" x="24.152" y="63.907819" style="stroke: #000000; stroke-width: 0.35"/>
      </g>
     </g>
    </g>
    <g id="ytick_17">
     <g id="line2d_45">
      <g>
       <use xlink:href="#m10987e3de3" x="24.152" y="55.509559" style="stroke: #000000; stroke-width: 0.35"/>
      </g>
     </g>
    </g>
    <g id="ytick_18">
     <g id="line2d_46">
      <g>
       <use xlink:href="#m10987e3de3" x="24.152" y="38.713039" style="stroke: #000000; stroke-width: 0.35"/>
      </g>
     </g>
    </g>
    <g id="ytick_19">
     <g id="line2d_47">
      <g>
       <use xlink:href="#m10987e3de3" x="24.152" y="30.31478" style="stroke: #000000; stroke-width: 0.35"/>
      </g>
     </g>
    </g>
    <g id="ytick_20">
     <g id="line2d_48">
      <g>
       <use xlink:href="#m10987e3de3" x="24.152" y="21.91652" style="stroke: #000000; stroke-width: 0.35"/>
      </g>
     </g>
    </g>
    <g id="ytick_21">
     <g id="line2d_49">
      <g>
       <use xlink:href="#m10987e3de3" x="24.152" y="13.51826" style="stroke: #000000; stroke-width: 0.35"/>
      </g>
     </g>
    </g>
    <g id="text_15">
     <!-- Exergy consumption $~\mathrm{[W/m^2]}$ -->
     <g transform="translate(9.882 147.022598) rotate(-90) scale(0.08 -0.08)">
      <defs>
       <path id="DejaVuSans-45" d="M 628 4666 
L 3578 4666 
L 3578 4134 
L 1259 4134 
L 1259 2753 
L 3481 2753 
L 3481 2222 
L 1259 2222 
L 1259 531 
L 3634 531 
L 3634 0 
L 628 0 
L 628 4666 
z
" transform="scale(0.015625)"/>
       <path id="DejaVuSans-78" d="M 3513 3500 
L 2247 1797 
L 3578 0 
L 2900 0 
L 1881 1375 
L 863 0 
L 184 0 
L 1544 1831 
L 300 3500 
L 978 3500 
L 1906 2253 
L 2834 3500 
L 3513 3500 
z
" transform="scale(0.015625)"/>
       <path id="DejaVuSans-65" d="M 3597 1894 
L 3597 1613 
L 953 1613 
Q 991 1019 1311 708 
Q 1631 397 2203 397 
Q 2534 397 2845 478 
Q 3156 559 3463 722 
L 3463 178 
Q 3153 47 2828 -22 
Q 2503 -91 2169 -91 
Q 1331 -91 842 396 
Q 353 884 353 1716 
Q 353 2575 817 3079 
Q 1281 3584 2069 3584 
Q 2775 3584 3186 3129 
Q 3597 2675 3597 1894 
z
M 3022 2063 
Q 3016 2534 2758 2815 
Q 2500 3097 2075 3097 
Q 1594 3097 1305 2825 
Q 1016 2553 972 2059 
L 3022 2063 
z
" transform="scale(0.015625)"/>
       <path id="DejaVuSans-67" d="M 2906 1791 
Q 2906 2416 2648 2759 
Q 2391 3103 1925 3103 
Q 1463 3103 1205 2759 
Q 947 2416 947 1791 
Q 947 1169 1205 825 
Q 1463 481 1925 481 
Q 2391 481 2648 825 
Q 2906 1169 2906 1791 
z
M 3481 434 
Q 3481 -459 3084 -895 
Q 2688 -1331 1869 -1331 
Q 1566 -1331 1297 -1286 
Q 1028 -1241 775 -1147 
L 775 -588 
Q 1028 -725 1275 -790 
Q 1522 -856 1778 -856 
Q 2344 -856 2625 -561 
Q 2906 -266 2906 331 
L 2906 616 
Q 2728 306 2450 153 
Q 2172 0 1784 0 
Q 1141 0 747 490 
Q 353 981 353 1791 
Q 353 2603 747 3093 
Q 1141 3584 1784 3584 
Q 2172 3584 2450 3431 
Q 2728 3278 2906 2969 
L 2906 3500 
L 3481 3500 
L 3481 434 
z
" transform="scale(0.015625)"/>
       <path id="DejaVuSans-79" d="M 2059 -325 
Q 1816 -950 1584 -1140 
Q 1353 -1331 966 -1331 
L 506 -1331 
L 506 -850 
L 844 -850 
Q 1081 -850 1212 -737 
Q 1344 -625 1503 -206 
L 1606 56 
L 191 3500 
L 800 3500 
L 1894 763 
L 2988 3500 
L 3597 3500 
L 2059 -325 
z
" transform="scale(0.015625)"/>
       <path id="DejaVuSans-63" d="M 3122 3366 
L 3122 2828 
Q 2878 2963 2633 3030 
Q 2388 3097 2138 3097 
Q 1578 3097 1268 2742 
Q 959 2388 959 1747 
Q 959 1106 1268 751 
Q 1578 397 2138 397 
Q 2388 397 2633 464 
Q 2878 531 3122 666 
L 3122 134 
Q 2881 22 2623 -34 
Q 2366 -91 2075 -91 
Q 1284 -91 818 406 
Q 353 903 353 1747 
Q 353 2603 823 3093 
Q 1294 3584 2113 3584 
Q 2378 3584 2631 3529 
Q 2884 3475 3122 3366 
z
" transform="scale(0.015625)"/>
       <path id="DejaVuSans-6e" d="M 3513 2113 
L 3513 0 
L 2938 0 
L 2938 2094 
Q 2938 2591 2744 2837 
Q 2550 3084 2163 3084 
Q 1697 3084 1428 2787 
Q 1159 2491 1159 1978 
L 1159 0 
L 581 0 
L 581 3500 
L 1159 3500 
L 1159 2956 
Q 1366 3272 1645 3428 
Q 1925 3584 2291 3584 
Q 2894 3584 3203 3211 
Q 3513 2838 3513 2113 
z
" transform="scale(0.015625)"/>
       <path id="DejaVuSans-73" d="M 2834 3397 
L 2834 2853 
Q 2591 2978 2328 3040 
Q 2066 3103 1784 3103 
Q 1356 3103 1142 2972 
Q 928 2841 928 2578 
Q 928 2378 1081 2264 
Q 1234 2150 1697 2047 
L 1894 2003 
Q 2506 1872 2764 1633 
Q 3022 1394 3022 966 
Q 3022 478 2636 193 
Q 2250 -91 1575 -91 
Q 1294 -91 989 -36 
Q 684 19 347 128 
L 347 722 
Q 666 556 975 473 
Q 1284 391 1588 391 
Q 1994 391 2212 530 
Q 2431 669 2431 922 
Q 2431 1156 2273 1281 
Q 2116 1406 1581 1522 
L 1381 1569 
Q 847 1681 609 1914 
Q 372 2147 372 2553 
Q 372 3047 722 3315 
Q 1072 3584 1716 3584 
Q 2034 3584 2315 3537 
Q 2597 3491 2834 3397 
z
" transform="scale(0.015625)"/>
       <path id="DejaVuSans-6d" d="M 3328 2828 
Q 3544 3216 3844 3400 
Q 4144 3584 4550 3584 
Q 5097 3584 5394 3201 
Q 5691 2819 5691 2113 
L 5691 0 
L 5113 0 
L 5113 2094 
Q 5113 2597 4934 2840 
Q 4756 3084 4391 3084 
Q 3944 3084 3684 2787 
Q 3425 2491 3425 1978 
L 3425 0 
L 2847 0 
L 2847 2094 
Q 2847 2600 2669 2842 
Q 2491 3084 2119 3084 
Q 1678 3084 1418 2786 
Q 1159 2488 1159 1978 
L 1159 0 
L 581 0 
L 581 3500 
L 1159 3500 
L 1159 2956 
Q 1356 3278 1631 3431 
Q 1906 3584 2284 3584 
Q 2666 3584 2933 3390 
Q 3200 3197 3328 2828 
z
" transform="scale(0.015625)"/>
       <path id="DejaVuSans-70" d="M 1159 525 
L 1159 -1331 
L 581 -1331 
L 581 3500 
L 1159 3500 
L 1159 2969 
Q 1341 3281 1617 3432 
Q 1894 3584 2278 3584 
Q 2916 3584 3314 3078 
Q 3713 2572 3713 1747 
Q 3713 922 3314 415 
Q 2916 -91 2278 -91 
Q 1894 -91 1617 61 
Q 1341 213 1159 525 
z
M 3116 1747 
Q 3116 2381 2855 2742 
Q 2594 3103 2138 3103 
Q 1681 3103 1420 2742 
Q 1159 2381 1159 1747 
Q 1159 1113 1420 752 
Q 1681 391 2138 391 
Q 2594 391 2855 752 
Q 3116 1113 3116 1747 
z
" transform="scale(0.015625)"/>
       <path id="DejaVuSans-74" d="M 1172 4494 
L 1172 3500 
L 2356 3500 
L 2356 3053 
L 1172 3053 
L 1172 1153 
Q 1172 725 1289 603 
Q 1406 481 1766 481 
L 2356 481 
L 2356 0 
L 1766 0 
Q 1100 0 847 248 
Q 594 497 594 1153 
L 594 3053 
L 172 3053 
L 172 3500 
L 594 3500 
L 594 4494 
L 1172 4494 
z
" transform="scale(0.015625)"/>
       <path id="DejaVuSans-69" d="M 603 3500 
L 1178 3500 
L 1178 0 
L 603 0 
L 603 3500 
z
M 603 4863 
L 1178 4863 
L 1178 4134 
L 603 4134 
L 603 4863 
z
" transform="scale(0.015625)"/>
       <path id="DejaVuSans-57" d="M 213 4666 
L 850 4666 
L 1831 722 
L 2809 4666 
L 3519 4666 
L 4500 722 
L 5478 4666 
L 6119 4666 
L 4947 0 
L 4153 0 
L 3169 4050 
L 2175 0 
L 1381 0 
L 213 4666 
z
" transform="scale(0.015625)"/>
       <path id="DejaVuSans-2f" d="M 1625 4666 
L 2156 4666 
L 531 -594 
L 0 -594 
L 1625 4666 
z
" transform="scale(0.015625)"/>
      </defs>
      <use xlink:href="#DejaVuSans-45" transform="translate(0 0.765625)"/>
      <use xlink:href="#DejaVuSans-78" transform="translate(63.183594 0.765625)"/>
      <use xlink:href="#DejaVuSans-65" transform="translate(122.363281 0.765625)"/>
      <use xlink:href="#DejaVuSans-72" transform="translate(183.886719 0.765625)"/>
      <use xlink:href="#DejaVuSans-67" transform="translate(225 0.765625)"/>
      <use xlink:href="#DejaVuSans-79" transform="translate(288.476562 0.765625)"/>
      <use xlink:href="#DejaVuSans-20" transform="translate(347.65625 0.765625)"/>
      <use xlink:href="#DejaVuSans-63" transform="translate(379.443359 0.765625)"/>
      <use xlink:href="#DejaVuSans-6f" transform="translate(434.423828 0.765625)"/>
      <use xlink:href="#DejaVuSans-6e" transform="translate(495.605469 0.765625)"/>
      <use xlink:href="#DejaVuSans-73" transform="translate(558.984375 0.765625)"/>
      <use xlink:href="#DejaVuSans-75" transform="translate(611.083984 0.765625)"/>
      <use xlink:href="#DejaVuSans-6d" transform="translate(674.462891 0.765625)"/>
      <use xlink:href="#DejaVuSans-70" transform="translate(771.875 0.765625)"/>
      <use xlink:href="#DejaVuSans-74" transform="translate(835.351562 0.765625)"/>
      <use xlink:href="#DejaVuSans-69" transform="translate(874.560547 0.765625)"/>
      <use xlink:href="#DejaVuSans-6f" transform="translate(902.34375 0.765625)"/>
      <use xlink:href="#DejaVuSans-6e" transform="translate(963.525391 0.765625)"/>
      <use xlink:href="#DejaVuSans-20" transform="translate(1026.904297 0.765625)"/>
      <use xlink:href="#DejaVuSans-5b" transform="translate(1091.161785 0.765625)"/>
      <use xlink:href="#DejaVuSans-57" transform="translate(1130.175457 0.765625)"/>
      <use xlink:href="#DejaVuSans-2f" transform="translate(1229.05241 0.765625)"/>
      <use xlink:href="#DejaVuSans-6d" transform="translate(1262.743816 0.765625)"/>
      <use xlink:href="#DejaVuSans-32" transform="translate(1361.112957 39.046875) scale(0.7)"/>
      <use xlink:href="#DejaVuSans-5d" transform="translate(1408.383464 0.765625)"/>
     </g>
    </g>
   </g>
   <g id="line2d_50">
    <path d="M 23.904297 164.542726 
L 24.152 164.773279 
L 25.638221 168.283601 
L 26.629034 170.154931 
L 27.372145 171.140795 
L 28.362958 172.023313 
L 28.610662 172.076103 
L 29.353772 171.659355 
L 30.344586 170.83441 
L 32.07851 169.028741 
L 33.069324 168.391881 
L 33.812434 168.643743 
L 34.555544 169.04573 
L 35.298655 169.696847 
L 35.546358 172.378718 
L 35.794062 172.498263 
L 37.280282 155.364702 
L 37.775689 144.725529 
L 38.766503 117.950341 
L 39.757317 95.56522 
L 40.500427 88.804116 
L 40.995834 84.526868 
L 41.243537 83.389051 
L 41.491241 83.347282 
L 41.738944 83.686508 
L 41.986648 87.134073 
L 43.225165 118.990779 
L 45.454496 165.774969 
L 45.949903 171.298409 
L 46.197606 172.708916 
L 46.44531 173.084699 
L 46.693013 172.908017 
L 46.940716 172.405974 
L 47.18842 171.317549 
L 47.683827 166.421288 
L 50.160861 134.162758 
L 51.151675 142.952155 
L 52.142489 147.260834 
L 53.133302 150.532238 
L 54.37182 153.763302 
L 57.096557 159.743762 
L 58.335075 161.652161 
L 59.573592 163.139935 
L 60.068999 163.47188 
L 62.29833 164.34479 
L 63.289143 164.576862 
L 64.032254 164.661038 
L 64.279957 164.837488 
L 65.766178 166.887127 
L 67.004695 167.850949 
L 68.490916 169.118799 
L 69.481729 170.285876 
L 70.22484 171.001001 
L 70.96795 171.422679 
L 71.215653 173.081473 
L 71.463357 168.191075 
L 72.701874 128.723484 
L 73.197281 116.421319 
L 75.178909 48.544067 
L 75.426612 43.500416 
L 75.922019 39.448658 
L 76.665129 34.895545 
L 76.912833 36.003454 
L 77.408239 44.564942 
L 78.399053 66.217051 
L 79.885274 109.109973 
L 80.628384 137.380367 
L 81.371495 157.496181 
L 81.866901 167.825898 
L 82.362308 172.7071 
L 82.610012 173.044053 
L 82.857715 171.92534 
L 83.105419 168.623569 
L 83.600825 156.947999 
L 84.591639 129.45769 
L 85.087046 117.863894 
L 85.582453 104.281707 
L 85.830156 101.905287 
L 86.325563 107.14928 
L 87.068674 114.127525 
L 88.059487 121.379858 
L 89.050301 126.983857 
L 90.536522 133.799847 
L 90.784225 134.761666 
L 91.279632 138.574412 
L 92.270446 146.653182 
L 93.013556 151.170444 
L 94.00437 155.821177 
L 94.995184 159.548465 
L 96.233701 163.134362 
L 97.967625 167.102538 
L 98.710735 168.322732 
L 99.701549 169.453825 
L 100.444659 169.91736 
L 101.93088 170.498732 
L 104.160211 171.110237 
L 104.655618 170.972717 
L 106.637245 169.933805 
L 107.380356 172.987449 
L 107.628059 173.078765 
L 107.875763 172.954859 
L 108.123466 172.629895 
L 108.371169 171.645895 
L 108.866576 167.791943 
L 109.361983 161.698177 
L 110.352797 145.62277 
L 110.6005 140.663377 
L 111.095907 125.672942 
L 111.839018 116.062442 
L 112.334424 110.259639 
L 112.582128 108.986722 
L 112.829831 109.706446 
L 113.077535 110.85478 
L 113.325238 113.477141 
L 114.068349 127.088056 
L 115.059162 147.521538 
L 116.049976 162.851778 
L 116.545383 167.63865 
L 116.793086 169.350955 
L 118.031604 172.679647 
L 118.52701 173.084528 
L 118.774714 172.66719 
L 119.022417 171.452103 
L 119.517824 166.880763 
L 121.004045 146.341733 
L 121.251748 141.40496 
L 121.499452 139.621876 
L 122.490265 145.531054 
L 123.481079 147.644087 
L 124.471893 149.156196 
L 125.958114 150.915605 
L 126.45352 151.404153 
L 126.701224 152.39105 
L 127.939741 160.744785 
L 128.930555 165.543399 
L 129.673665 168.169011 
L 130.416776 170.096468 
L 130.912182 171.090849 
L 131.159886 171.301709 
L 131.655293 171.111011 
L 133.141513 170.293019 
L 134.132327 169.890993 
L 135.866251 168.514866 
L 137.600175 167.016393 
L 138.590989 166.102989 
L 139.829506 165.456936 
L 140.324913 165.508919 
L 141.811134 165.993567 
L 142.306541 166.078311 
L 142.801947 173.008314 
L 143.049651 172.051057 
L 143.297354 167.883207 
L 144.040465 147.42885 
L 144.783575 124.410082 
L 145.278982 113.04679 
L 145.774389 107.551184 
L 146.269796 104.000141 
L 146.517499 102.714395 
L 146.765203 102.057502 
L 147.012906 102.107385 
L 147.508313 102.73101 
L 148.00372 103.204944 
L 148.251423 105.264255 
L 148.74683 113.646493 
L 149.48994 132.608627 
L 149.985347 148.705238 
L 150.480754 161.794742 
L 150.976161 168.462925 
L 151.471568 172.392983 
L 151.719271 173.059182 
L 151.966975 172.860465 
L 152.214678 171.937169 
L 152.710085 168.25174 
L 153.700899 156.324943 
L 154.444009 145.702378 
L 155.682526 136.351028 
L 155.93023 136.318176 
L 156.177933 136.529211 
L 156.67334 136.214457 
L 156.921044 136.640178 
L 157.168747 137.690437 
L 158.902671 149.729517 
L 159.645781 153.384913 
L 160.636595 156.927369 
L 161.875112 160.586263 
L 162.122816 161.19319 
L 162.370519 161.444053 
L 162.865926 161.057411 
L 163.85674 159.986076 
L 165.590664 157.3529 
L 166.581478 156.540212 
L 166.829181 156.832507 
L 168.563105 162.413671 
L 169.553919 164.986681 
L 170.297029 166.196531 
L 171.04014 167.119677 
L 171.287843 167.288364 
L 172.278657 167.325057 
L 175.498801 167.191584 
L 175.746505 167.418684 
L 176.985022 169.751688 
L 177.975836 171.141029 
L 178.223539 172.975311 
L 178.471243 171.20259 
L 178.96665 158.721048 
L 180.205167 123.878366 
L 180.948277 113.299958 
L 182.186794 103.897231 
L 182.434498 102.6968 
L 182.682201 102.253313 
L 182.929905 102.089268 
L 183.177608 102.320247 
L 183.425312 102.974305 
L 183.673015 102.677063 
L 183.920718 106.277673 
L 184.416125 121.39459 
L 184.663829 125.869876 
L 185.159236 129.316822 
L 185.406939 132.878831 
L 186.645456 160.318471 
L 187.140863 166.158706 
L 187.63627 170.084044 
L 188.131677 172.642605 
L 188.37938 173.083942 
L 188.627084 172.944252 
L 188.874787 172.550137 
L 189.122491 171.743245 
L 189.617898 168.310563 
L 190.608711 158.348918 
L 191.599525 147.054807 
L 192.342635 144.052588 
L 192.590339 143.09133 
L 192.838042 142.928123 
L 193.333449 144.892728 
L 195.56278 156.137491 
L 196.801297 160.009926 
L 197.792111 162.576835 
L 198.039814 162.828161 
L 198.535221 162.497757 
L 199.773739 161.543833 
L 201.507663 160.612462 
L 202.250773 160.139128 
L 202.498476 160.208532 
L 204.480104 162.660672 
L 205.718621 163.709069 
L 206.709435 164.382745 
L 207.204842 164.466191 
L 208.691062 164.287549 
L 209.92958 163.947399 
L 211.168097 164.01342 
L 211.4158 164.322263 
L 212.654317 167.22968 
L 213.397428 168.455641 
L 213.645131 168.797922 
L 213.892835 172.45443 
L 214.140538 171.693886 
L 214.635945 160.429582 
L 215.626759 136.407847 
L 216.369869 109.272384 
L 217.112979 84.427923 
L 218.103793 52.679592 
L 218.5992 47.787219 
L 218.846903 46.42998 
L 219.094607 45.767258 
L 219.34231 45.46508 
L 219.590014 47.634405 
L 220.333124 68.759119 
L 221.076234 98.428574 
L 221.819345 115.706346 
L 222.562455 127.890408 
L 222.810158 129.595961 
L 223.305565 130.741732 
L 223.800972 135.337929 
L 224.296379 146.398846 
L 225.039489 162.918444 
L 225.7826 173.048646 
L 226.030303 171.808983 
L 226.278007 167.405447 
L 226.773413 151.353263 
L 228.507338 89.082247 
L 228.755041 90.423249 
L 229.250448 97.324142 
L 230.241262 114.808884 
L 231.232075 128.110462 
L 232.222889 138.055594 
L 233.213703 145.310546 
L 233.956813 149.358563 
L 234.947627 153.358242 
L 235.938441 156.517127 
L 236.929254 158.972078 
L 237.920068 160.86137 
L 238.167772 161.106448 
L 238.910882 161.104229 
L 240.644806 160.99089 
L 241.63562 160.842548 
L 242.37873 160.658792 
L 242.626434 160.944789 
L 244.112654 164.788779 
L 245.103468 166.284527 
L 246.094282 167.749003 
L 247.332799 169.450419 
L 248.571316 170.820572 
L 249.314426 171.595354 
L 249.56213 172.766438 
L 250.057537 160.718483 
L 250.30524 158.093711 
L 251.048351 155.041798 
L 252.534571 142.869042 
L 252.782275 140.135696 
L 254.516199 106.28024 
L 255.259309 81.024366 
L 255.754716 76.114292 
L 256.002419 75.643579 
L 256.250123 76.924051 
L 256.497826 78.821102 
L 256.74553 82.60769 
L 257.240936 99.061946 
L 258.479454 142.512593 
L 258.974861 155.878906 
L 259.470267 164.73483 
L 259.965674 170.54291 
L 260.213378 172.178373 
L 260.461081 172.910025 
L 260.708785 173.077191 
L 260.956488 172.750352 
L 261.204192 171.777071 
L 261.451895 169.497874 
L 261.947302 161.717652 
L 262.938116 141.899236 
L 263.433522 134.033416 
L 263.928929 124.873485 
L 264.176633 123.630592 
L 264.67204 129.125927 
L 265.167447 133.671943 
L 266.15826 139.844572 
L 267.149074 144.493713 
L 268.139888 148.150215 
L 270.864626 156.747113 
L 271.855439 159.144148 
L 273.093957 161.468954 
L 273.837067 162.707974 
L 274.08477 163.31647 
L 274.08477 163.31647 
" clip-path="url(#paaadee3ea1)" style="fill: none; stroke: #180f0d; stroke-width: 0.75; stroke-linecap: square"/>
   </g>
   <g id="line2d_51">
    <path d="M 23.904297 166.598326 
L 24.152 166.507448 
L 24.399703 166.535343 
L 24.89511 167.005231 
L 28.115255 170.905186 
L 28.858365 171.414604 
L 29.353772 171.402069 
L 30.096883 171.159779 
L 30.839993 170.7262 
L 33.069324 169.218179 
L 33.564731 169.071848 
L 34.307841 169.116568 
L 35.050951 169.346354 
L 35.546358 169.59861 
L 36.289469 173.081008 
L 36.537172 172.827167 
L 37.032579 171.146392 
L 37.527986 168.785321 
L 38.023393 164.845982 
L 39.014206 152.667167 
L 40.252724 137.275972 
L 41.243537 129.66486 
L 41.738944 127.29024 
L 41.986648 126.630326 
L 42.234351 127.015868 
L 42.729758 131.168494 
L 44.463682 150.139761 
L 45.454496 162.67851 
L 46.197606 169.384235 
L 46.693013 172.129238 
L 46.940716 172.739824 
L 47.18842 173.031201 
L 47.436123 173.063873 
L 47.683827 172.757602 
L 47.93153 172.063695 
L 48.426937 169.645508 
L 49.913158 159.528223 
L 50.408565 155.968541 
L 50.656268 155.657763 
L 51.151675 156.332897 
L 54.619523 161.343094 
L 57.591964 164.517767 
L 59.078185 165.673777 
L 60.316702 166.355482 
L 61.555219 166.636658 
L 63.536847 166.914704 
L 64.527661 166.985863 
L 65.270771 167.442683 
L 66.756992 168.398232 
L 68.986323 169.585797 
L 70.96795 170.960393 
L 71.215653 171.07719 
L 71.71106 173.072301 
L 71.958764 172.06861 
L 72.454171 166.741902 
L 73.692688 148.842845 
L 75.922019 108.446075 
L 76.665129 101.808255 
L 76.912833 100.061558 
L 77.160536 99.146122 
L 77.408239 99.346315 
L 77.655943 100.264033 
L 78.15135 103.442004 
L 78.646757 107.895358 
L 79.63757 120.700982 
L 80.132977 128.246026 
L 81.619198 156.301039 
L 82.362308 167.203575 
L 82.857715 171.534811 
L 83.105419 172.688653 
L 83.353122 173.081883 
L 83.600825 172.50011 
L 83.848529 171.031369 
L 84.343936 165.919702 
L 86.07786 143.705674 
L 86.325563 142.588954 
L 86.573267 142.272967 
L 86.82097 142.340933 
L 87.316377 142.971386 
L 88.059487 144.61699 
L 89.545708 148.054424 
L 91.527336 152.379979 
L 93.26126 158.649914 
L 94.252073 161.332888 
L 95.242887 163.519089 
L 96.481404 165.683482 
L 98.215328 168.12623 
L 99.206142 169.194644 
L 100.196956 169.949955 
L 101.18777 170.375211 
L 102.921694 170.831908 
L 104.655618 171.131912 
L 105.646432 170.892079 
L 106.884949 170.486711 
L 107.132652 170.891134 
L 107.628059 172.199489 
L 108.123466 172.875854 
L 108.618873 173.077857 
L 108.866576 172.886903 
L 109.11428 172.440401 
L 109.609687 170.658722 
L 110.105093 167.834643 
L 110.848204 161.85169 
L 111.839018 150.594969 
L 112.829831 142.784918 
L 113.077535 141.953264 
L 113.325238 141.532708 
L 113.572942 141.761415 
L 114.068349 144.103284 
L 114.563755 148.105043 
L 116.545383 165.987001 
L 117.04079 168.864226 
L 117.7839 171.077948 
L 118.279307 172.145354 
L 119.022417 173.060917 
L 119.270121 173.030149 
L 119.517824 172.67424 
L 119.765528 171.9726 
L 120.260934 169.6455 
L 121.004045 165.111121 
L 121.747155 159.129194 
L 121.994859 158.49357 
L 122.242562 158.402715 
L 123.728783 158.850162 
L 125.71041 159.70616 
L 126.701224 160.046682 
L 126.948927 160.343706 
L 127.444334 161.706184 
L 129.178258 166.933466 
L 130.169072 169.178545 
L 131.159886 170.823618 
L 131.655293 171.177191 
L 132.1507 171.199276 
L 133.63692 170.853659 
L 134.875437 170.453339 
L 137.104768 169.296652 
L 140.324913 167.582716 
L 141.315727 167.592605 
L 142.554244 167.692495 
L 142.801947 169.142732 
L 143.297354 172.732642 
L 143.545058 173.051907 
L 143.792761 172.210758 
L 144.288168 167.927543 
L 146.269796 143.334514 
L 147.012906 138.799915 
L 147.508313 137.319723 
L 148.00372 136.43456 
L 148.251423 136.126881 
L 148.499127 136.379851 
L 148.994533 138.834674 
L 149.48994 143.58257 
L 149.985347 149.752061 
L 150.728458 161.763166 
L 151.223864 166.996563 
L 151.719271 170.728251 
L 152.214678 172.744257 
L 152.462382 173.068741 
L 152.710085 172.988076 
L 152.957788 172.532476 
L 153.453195 170.576454 
L 154.196306 166.071247 
L 154.939416 160.973915 
L 155.93023 155.702266 
L 156.425637 154.532475 
L 156.921044 153.697283 
L 157.168747 153.521622 
L 157.41645 153.606773 
L 157.911857 154.568411 
L 158.902671 157.489905 
L 159.893485 160.223166 
L 160.884299 162.272799 
L 162.122816 164.357345 
L 162.618223 164.953569 
L 163.11363 165.012017 
L 163.85674 164.736503 
L 164.59985 164.152028 
L 166.333774 162.568161 
L 166.829181 162.215401 
L 167.076885 162.196272 
L 167.572291 162.711681 
L 168.810809 164.617755 
L 170.049326 166.532876 
L 171.04014 167.553814 
L 171.535546 167.926073 
L 172.278657 168.122096 
L 173.764877 168.176178 
L 175.994208 168.14504 
L 176.737319 168.854778 
L 178.223539 170.46717 
L 178.718946 172.943829 
L 178.96665 172.919557 
L 179.214353 171.724137 
L 179.70976 167.025067 
L 181.443684 147.323526 
L 182.434498 140.831124 
L 182.929905 138.624157 
L 183.425312 137.343676 
L 183.920718 136.588285 
L 184.168422 137.235184 
L 185.159236 145.741238 
L 185.654642 148.460214 
L 186.397753 155.907302 
L 187.140863 164.134482 
L 187.883973 169.203111 
L 188.627084 172.413051 
L 188.874787 172.863587 
L 189.122491 173.060392 
L 189.370194 173.057002 
L 189.617898 172.808864 
L 190.113304 171.537122 
L 190.608711 169.494861 
L 191.351822 165.417557 
L 192.094932 161.25969 
L 192.838042 158.625166 
L 193.085746 158.076923 
L 193.333449 157.920516 
L 193.581153 157.97094 
L 193.828856 158.211816 
L 194.324263 159.134791 
L 196.30589 163.258141 
L 197.792111 165.576874 
L 198.287518 166.132223 
L 198.782925 166.197183 
L 199.526035 165.967329 
L 202.74618 164.621722 
L 203.241587 164.758815 
L 207.204842 166.52945 
L 208.195655 166.551922 
L 209.186469 166.417779 
L 210.920393 166.129172 
L 211.663504 166.186347 
L 212.406614 167.012829 
L 213.892835 168.745052 
L 214.388241 172.668835 
L 214.635945 173.051313 
L 214.883648 172.181953 
L 215.379055 168.558358 
L 215.874462 163.074669 
L 216.369869 155.637873 
L 218.5992 115.427306 
L 219.094607 110.452427 
L 219.590014 107.266709 
L 219.837717 106.758728 
L 220.085421 107.782373 
L 220.333124 109.592031 
L 220.580827 112.235585 
L 222.314752 137.472256 
L 222.810158 142.283447 
L 223.305565 144.811622 
L 223.800972 146.623749 
L 224.048676 147.861753 
L 224.544082 152.637471 
L 226.030303 170.67747 
L 226.278007 172.548785 
L 226.52571 173.074061 
L 226.773413 172.204874 
L 227.26882 166.877196 
L 228.011931 154.436275 
L 228.755041 140.130977 
L 229.002744 137.842928 
L 229.250448 136.735361 
L 229.498151 136.551123 
L 229.745855 137.136199 
L 230.241262 139.414734 
L 232.718296 152.877303 
L 233.70911 156.609655 
L 234.45222 158.709549 
L 235.443034 160.854243 
L 236.433848 162.534648 
L 237.424661 163.846955 
L 238.415475 164.820615 
L 238.910882 164.964415 
L 239.901696 164.950285 
L 241.883323 164.681299 
L 242.874137 164.549464 
L 243.369544 165.040341 
L 245.103468 167.101734 
L 249.314426 170.855371 
L 249.56213 171.051245 
L 249.809833 172.585447 
L 250.057537 172.952327 
L 251.048351 168.790146 
L 252.039164 164.597074 
L 253.029978 159.743097 
L 253.773088 153.127057 
L 254.763902 143.168573 
L 255.754716 128.150001 
L 256.250123 124.132084 
L 256.497826 123.242898 
L 256.74553 122.88386 
L 256.993233 123.368692 
L 257.240936 125.252511 
L 257.736343 131.96033 
L 259.717971 163.475707 
L 260.461081 170.162511 
L 260.956488 172.317453 
L 261.204192 172.848959 
L 261.451895 173.079698 
L 261.699598 172.915104 
L 261.947302 172.234553 
L 262.442709 169.296507 
L 264.424336 151.370548 
L 264.67204 150.847727 
L 264.919743 151.023448 
L 265.662853 152.414848 
L 267.892184 157.193372 
L 269.130702 159.202011 
L 270.121515 160.732506 
L 271.607736 163.004421 
L 272.846253 164.460547 
L 274.08477 165.630962 
L 274.08477 165.630962 
" clip-path="url(#paaadee3ea1)" style="fill: none; stroke: #7a1514; stroke-width: 0.75; stroke-linecap: square"/>
   </g>
   <g id="line2d_52">
    <path d="M 23.904297 167.718676 
L 24.399703 167.597995 
L 24.89511 167.72802 
L 25.638221 168.26688 
L 28.858365 170.973651 
L 29.353772 171.096194 
L 30.096883 171.012725 
L 31.087696 170.630582 
L 33.564731 169.431449 
L 34.307841 169.366063 
L 35.298655 169.527183 
L 35.546358 169.607764 
L 35.794062 170.036754 
L 36.537172 172.780957 
L 36.784875 173.064911 
L 37.032579 173.034947 
L 37.280282 172.784258 
L 37.775689 171.794234 
L 38.271096 169.90537 
L 39.014206 165.374306 
L 40.995834 151.667575 
L 41.738944 148.16081 
L 42.234351 146.854284 
L 42.482055 146.923264 
L 42.729758 147.549758 
L 43.225165 149.709621 
L 44.215979 155.256399 
L 44.959089 160.502883 
L 45.949903 167.384811 
L 46.693013 171.248315 
L 47.18842 172.562509 
L 47.683827 173.070187 
L 47.93153 173.044546 
L 48.179234 172.803143 
L 48.674641 171.69944 
L 49.665454 168.208586 
L 50.656268 164.189036 
L 50.903971 163.816338 
L 51.399378 163.698685 
L 51.894785 163.865892 
L 53.133302 164.643664 
L 54.867226 165.65133 
L 59.078185 167.679721 
L 60.564406 168.109119 
L 62.29833 168.251266 
L 65.270771 168.442172 
L 70.472543 170.573976 
L 71.215653 170.904288 
L 71.463357 171.358749 
L 71.958764 172.998909 
L 72.206467 172.992672 
L 72.454171 172.3089 
L 72.949578 169.559875 
L 73.692688 163.834403 
L 74.435798 155.997286 
L 76.169722 136.794536 
L 76.912833 131.572752 
L 77.408239 129.433445 
L 77.655943 129.111928 
L 77.903646 129.201613 
L 78.15135 129.597562 
L 78.646757 131.126106 
L 79.142164 133.720807 
L 79.885274 138.917022 
L 80.380681 143.415447 
L 82.610012 167.672322 
L 83.105419 171.031853 
L 83.600825 172.895777 
L 83.848529 173.078039 
L 84.096232 172.734673 
L 84.343936 171.910097 
L 84.839343 169.23993 
L 85.582453 164.13672 
L 86.325563 158.918043 
L 86.82097 157.448375 
L 87.316377 157.003496 
L 87.811784 157.061576 
L 88.554894 157.567578 
L 91.527336 160.023185 
L 92.270446 161.323548 
L 93.756666 164.01501 
L 94.995184 165.758669 
L 96.233701 167.147982 
L 97.967625 168.723522 
L 99.206142 169.683972 
L 100.444659 170.34559 
L 101.683177 170.708956 
L 103.912507 171.085187 
L 105.151025 171.162322 
L 106.637245 170.84672 
L 106.884949 170.78865 
L 107.132652 170.852496 
L 107.628059 171.574789 
L 108.371169 172.592593 
L 108.866576 173.014332 
L 109.11428 173.085143 
L 109.361983 173.015564 
L 109.609687 172.78481 
L 110.105093 171.816864 
L 110.6005 170.216676 
L 111.095907 167.902763 
L 112.582128 158.995827 
L 113.077535 156.769589 
L 113.572942 155.636124 
L 113.820645 155.580274 
L 114.068349 155.864022 
L 114.563755 157.279418 
L 115.306866 160.818456 
L 116.793086 168.289199 
L 117.288493 170.006356 
L 118.031604 171.553859 
L 118.774714 172.548651 
L 119.270121 173.016538 
L 119.517824 173.084786 
L 119.765528 172.983264 
L 120.013231 172.691185 
L 120.508638 171.58228 
L 121.251748 169.031372 
L 121.994859 165.864204 
L 122.490265 165.037808 
L 122.985672 164.73743 
L 123.728783 164.60242 
L 126.701224 164.666873 
L 126.948927 164.711681 
L 127.444334 165.173363 
L 128.435148 166.829576 
L 129.921369 169.302265 
L 130.912182 170.5733 
L 131.655293 171.236689 
L 132.1507 171.372353 
L 132.89381 171.335758 
L 134.875437 170.950076 
L 136.857065 170.227674 
L 140.82032 168.701034 
L 142.306541 168.670545 
L 142.554244 168.670831 
L 142.801947 169.028117 
L 143.792761 173.001489 
L 144.040465 173.022763 
L 144.288168 172.490562 
L 144.783575 169.995973 
L 146.765203 156.584528 
L 147.260609 154.593004 
L 147.756016 153.255828 
L 148.251423 152.301139 
L 148.499127 152.01878 
L 148.74683 152.044012 
L 148.994533 152.396061 
L 149.242237 153.06353 
L 149.737644 155.415342 
L 150.233051 158.914576 
L 151.223864 167.204797 
L 151.966975 171.17379 
L 152.462382 172.638087 
L 152.710085 172.981929 
L 152.957788 173.08484 
L 153.205492 172.959668 
L 153.700899 172.086465 
L 154.196306 170.616347 
L 155.93023 164.146802 
L 156.425637 162.931187 
L 157.168747 161.799114 
L 157.41645 161.611334 
L 157.664154 161.573811 
L 158.159561 161.871738 
L 158.902671 162.840409 
L 160.388892 164.944044 
L 161.627409 166.251489 
L 162.618223 167.106105 
L 163.11363 167.261197 
L 163.85674 167.145363 
L 164.59985 166.790917 
L 167.324588 165.143077 
L 167.819995 165.350281 
L 168.810809 166.168645 
L 170.792436 167.986541 
L 171.78325 168.543992 
L 172.774064 168.715999 
L 174.507988 168.704142 
L 176.241912 168.688872 
L 176.985022 169.131513 
L 178.223539 170.114596 
L 178.471243 170.621591 
L 178.96665 172.572183 
L 179.214353 173.051579 
L 179.462057 172.959774 
L 179.70976 172.338726 
L 180.205167 169.930896 
L 181.691387 160.642866 
L 182.682201 156.239855 
L 183.425312 153.989941 
L 183.920718 153.035955 
L 184.168422 152.800788 
L 184.416125 153.156442 
L 186.150049 159.675246 
L 186.89316 164.170812 
L 187.63627 168.287153 
L 188.37938 171.091453 
L 188.874787 172.402037 
L 189.370194 172.990688 
L 189.617898 173.083194 
L 189.865601 173.032955 
L 190.361008 172.489966 
L 190.856415 171.446256 
L 191.599525 169.178698 
L 192.342635 166.771845 
L 193.085746 165.003252 
L 193.581153 164.419948 
L 193.828856 164.333072 
L 194.324263 164.495622 
L 195.067373 165.184399 
L 196.801297 166.926732 
L 198.287518 168.128286 
L 198.782925 168.272042 
L 199.526035 168.177798 
L 201.755366 167.427786 
L 202.993883 166.984658 
L 203.736994 167.033968 
L 207.947952 167.831312 
L 209.434173 167.666523 
L 211.4158 167.349836 
L 211.911207 167.408656 
L 212.654317 167.880825 
L 213.892835 168.864335 
L 214.140538 169.514537 
L 214.635945 172.213685 
L 214.883648 172.945911 
L 215.131352 173.058719 
L 215.379055 172.668329 
L 215.874462 170.76837 
L 216.369869 167.573803 
L 217.112979 160.586401 
L 219.34231 138.175794 
L 219.837717 135.610988 
L 220.085421 135.084214 
L 220.333124 135.185316 
L 220.580827 135.813499 
L 220.828531 137.050976 
L 223.057862 152.732605 
L 223.553269 154.232441 
L 224.048676 155.432917 
L 224.296379 156.264558 
L 224.791786 159.074749 
L 226.030303 168.699868 
L 226.52571 172.143956 
L 226.773413 172.956642 
L 227.021117 173.017401 
L 227.26882 172.340514 
L 227.764227 169.324376 
L 228.507338 162.07168 
L 229.002744 157.113981 
L 229.498151 154.476743 
L 229.745855 153.964698 
L 229.993558 153.872826 
L 230.241262 154.076203 
L 230.736668 155.015701 
L 231.975186 158.353509 
L 233.213703 161.347802 
L 234.204517 163.163997 
L 235.19533 164.483255 
L 236.433848 165.71021 
L 237.672365 166.622741 
L 238.663179 167.127074 
L 239.406289 167.197831 
L 240.892509 167.020565 
L 243.12184 166.651903 
L 243.864951 167.056685 
L 245.846578 168.416252 
L 249.56213 170.759046 
L 249.809833 171.38354 
L 250.057537 172.45942 
L 250.30524 173.036452 
L 250.552944 173.027632 
L 251.048351 172.286596 
L 252.039164 170.154945 
L 253.029978 167.549668 
L 253.525385 165.581538 
L 254.516199 160.273028 
L 255.011606 156.895206 
L 256.250123 146.553659 
L 256.74553 144.428428 
L 256.993233 143.940739 
L 257.240936 144.036059 
L 257.48864 144.824898 
L 257.984047 147.988302 
L 258.727157 154.763444 
L 259.717971 164.177541 
L 260.461081 169.273718 
L 260.956488 171.437574 
L 261.451895 172.653422 
L 261.699598 172.982123 
L 261.947302 173.083207 
L 262.195005 172.90422 
L 262.442709 172.423963 
L 262.938116 170.609443 
L 263.928929 165.578406 
L 264.67204 161.865443 
L 264.919743 161.344504 
L 265.167447 161.13339 
L 265.662853 161.162807 
L 266.15826 161.487133 
L 269.626108 164.398632 
L 273.589363 167.197227 
L 274.08477 167.44717 
L 274.08477 167.44717 
" clip-path="url(#paaadee3ea1)" style="fill: none; stroke: #ac2a1a; stroke-width: 0.75; stroke-linecap: square"/>
   </g>
   <g id="line2d_53">
    <path d="M 23.904297 168.65775 
L 24.89511 168.529808 
L 25.638221 168.77384 
L 26.876738 169.481665 
L 28.858365 170.62075 
L 29.601476 170.809961 
L 30.592289 170.715435 
L 31.830807 170.31137 
L 33.564731 169.718692 
L 34.555544 169.611184 
L 35.546358 169.709011 
L 35.794062 169.851362 
L 36.041765 170.285226 
L 36.784875 172.332703 
L 37.280282 172.979709 
L 37.775689 173.06674 
L 38.271096 172.728064 
L 38.766503 171.877227 
L 39.509613 169.782222 
L 41.738944 162.258091 
L 42.234351 161.096771 
L 42.482055 160.749878 
L 42.729758 160.650136 
L 42.977461 160.784104 
L 43.472868 161.501216 
L 44.215979 163.141803 
L 44.959089 165.370293 
L 46.44531 170.49564 
L 46.940716 171.7979 
L 47.436123 172.600323 
L 47.93153 173.016561 
L 48.426937 173.04471 
L 48.922344 172.646776 
L 49.665454 171.5198 
L 51.151675 168.889125 
L 51.647082 168.679866 
L 52.390192 168.637077 
L 55.610337 168.963367 
L 58.087371 169.314756 
L 60.812109 169.576666 
L 63.536847 169.480473 
L 65.270771 169.423858 
L 67.995509 169.924339 
L 69.977136 170.415209 
L 71.463357 171.00087 
L 71.958764 172.151198 
L 72.454171 173.054782 
L 72.701874 173.034399 
L 72.949578 172.727573 
L 73.444984 171.535964 
L 73.940391 169.774088 
L 74.683502 166.06802 
L 76.912833 153.486969 
L 77.408239 151.587089 
L 77.903646 150.520172 
L 78.15135 150.290741 
L 78.399053 150.221719 
L 78.646757 150.296486 
L 78.89446 150.519883 
L 79.389867 151.408793 
L 80.132977 153.56218 
L 80.628384 155.730718 
L 81.866901 163.038983 
L 83.105419 170.005975 
L 83.600825 171.906241 
L 84.096232 172.956069 
L 84.343936 173.085194 
L 84.591639 172.961666 
L 85.087046 172.12877 
L 85.582453 170.812494 
L 86.573267 167.672924 
L 87.068674 166.809438 
L 87.56408 166.374917 
L 88.307191 166.128038 
L 89.545708 166.078447 
L 91.527336 166.143293 
L 92.270446 166.491127 
L 95.490591 168.589241 
L 97.719922 169.638661 
L 99.949252 170.550758 
L 101.435473 170.898503 
L 104.160211 171.197719 
L 105.398728 171.234754 
L 107.380356 171.091703 
L 108.123466 171.84524 
L 109.11428 172.792208 
L 109.609687 173.059804 
L 110.105093 173.019303 
L 110.6005 172.624586 
L 111.095907 171.859372 
L 111.591314 170.628201 
L 113.325238 165.816614 
L 113.820645 165.090426 
L 114.068349 164.961825 
L 114.316052 164.99022 
L 114.811459 165.480537 
L 115.554569 166.954057 
L 117.288493 170.897929 
L 118.031604 171.855307 
L 118.774714 172.509106 
L 119.517824 172.998804 
L 120.013231 173.071905 
L 120.508638 172.784349 
L 121.004045 172.177776 
L 121.499452 171.289809 
L 122.242562 169.792224 
L 122.737969 169.279004 
L 123.481079 168.916647 
L 124.9673 168.577441 
L 127.196631 168.217806 
L 127.692038 168.389415 
L 128.682851 169.140172 
L 130.912182 170.961008 
L 131.902996 171.505812 
L 132.646106 171.590817 
L 134.380031 171.40522 
L 136.113955 171.038304 
L 139.086396 170.138369 
L 140.82032 169.680726 
L 142.554244 169.546067 
L 142.801947 169.61986 
L 143.049651 169.96966 
L 144.288168 173.046379 
L 144.535872 173.054972 
L 144.783575 172.798262 
L 145.278982 171.645954 
L 147.260609 165.508688 
L 148.00372 164.062585 
L 148.74683 163.103431 
L 148.994533 163.007416 
L 149.242237 163.067594 
L 149.48994 163.294131 
L 149.985347 164.246484 
L 150.480754 165.900151 
L 151.471568 169.828098 
L 152.214678 171.900359 
L 152.710085 172.73094 
L 153.205492 173.072753 
L 153.700899 172.955945 
L 154.196306 172.453638 
L 154.939416 171.170262 
L 156.425637 168.45911 
L 157.168747 167.591138 
L 157.664154 167.23066 
L 158.159561 167.128526 
L 158.654968 167.23373 
L 159.645781 167.733847 
L 161.132002 168.469778 
L 162.865926 169.114083 
L 163.609036 169.113536 
L 164.59985 168.823592 
L 166.333774 167.936425 
L 167.324588 167.494514 
L 167.819995 167.470507 
L 168.563105 167.67592 
L 169.801622 168.284109 
L 171.287843 168.960255 
L 172.278657 169.208765 
L 173.764877 169.240953 
L 176.737319 169.227703 
L 177.728132 169.684605 
L 178.471243 170.184091 
L 178.718946 170.674448 
L 179.462057 172.730665 
L 179.70976 173.035485 
L 179.957463 173.066421 
L 180.205167 172.856371 
L 180.700574 171.884953 
L 183.177608 165.649266 
L 183.920718 164.383448 
L 184.416125 163.8949 
L 184.663829 163.972209 
L 185.902346 165.437571 
L 186.397753 166.37655 
L 187.140863 168.448103 
L 187.883973 170.421337 
L 188.627084 171.889555 
L 189.122491 172.593966 
L 189.617898 172.974861 
L 190.113304 173.082752 
L 190.608711 172.896511 
L 191.104118 172.4419 
L 191.847228 171.361048 
L 193.085746 169.462713 
L 193.581153 168.953377 
L 194.076559 168.70253 
L 194.571966 168.674649 
L 195.56278 168.955646 
L 198.535221 169.953686 
L 199.278332 169.955143 
L 200.516849 169.663695 
L 203.984697 168.799244 
L 209.186469 168.820411 
L 212.158911 168.444325 
L 212.902021 168.699666 
L 213.892835 169.171702 
L 214.140538 169.411683 
L 214.388241 170.014355 
L 215.131352 172.555103 
L 215.379055 172.955555 
L 215.626759 173.084987 
L 215.874462 172.986982 
L 216.122166 172.689081 
L 216.617572 171.531852 
L 217.112979 169.664365 
L 217.85609 166.016042 
L 219.590014 156.817209 
L 220.085421 155.165741 
L 220.333124 154.705213 
L 220.580827 154.525878 
L 220.828531 154.635747 
L 221.076234 155.051304 
L 221.819345 157.327516 
L 222.810158 160.341264 
L 223.305565 161.426399 
L 223.800972 162.02902 
L 224.296379 162.559248 
L 224.791786 163.623039 
L 225.534896 166.385652 
L 227.021117 172.748462 
L 227.26882 173.06325 
L 227.516524 173.011156 
L 227.764227 172.637263 
L 228.259634 171.128209 
L 229.745855 165.255675 
L 230.241262 164.712841 
L 230.736668 164.724808 
L 231.232075 165.019573 
L 234.699924 167.767125 
L 236.186144 168.39572 
L 237.920068 168.892169 
L 239.158585 169.05432 
L 240.397103 168.903942 
L 243.617247 168.388189 
L 244.608061 168.716135 
L 249.56213 170.616994 
L 249.809833 170.861583 
L 250.800647 173.005032 
L 251.296054 173.049355 
L 251.791461 172.799947 
L 252.534571 172.169816 
L 253.277681 171.27859 
L 253.773088 170.35448 
L 254.516199 168.470746 
L 255.259309 165.887433 
L 256.497826 160.389275 
L 256.993233 159.017756 
L 257.240936 158.642343 
L 257.48864 158.563441 
L 257.736343 158.804884 
L 258.23175 160.072479 
L 258.974861 163.188353 
L 260.213378 168.82951 
L 260.956488 171.244751 
L 261.451895 172.258408 
L 261.947302 172.892179 
L 262.195005 173.052738 
L 262.442709 173.077092 
L 262.690412 172.951017 
L 263.185819 172.268775 
L 263.928929 170.621469 
L 264.919743 168.173741 
L 265.41515 167.661803 
L 265.910557 167.499387 
L 266.653667 167.527716 
L 270.616922 168.286101 
L 274.08477 169.119398 
L 274.08477 169.119398 
" clip-path="url(#paaadee3ea1)" style="fill: none; stroke: #c46d1c; stroke-width: 0.75; stroke-linecap: square"/>
   </g>
   <g id="line2d_54">
    <path d="M 23.904297 169.768029 
L 25.390517 169.616645 
L 26.876738 169.81172 
L 30.096883 170.411209 
L 31.583103 170.303434 
L 35.050951 169.921812 
L 35.794062 169.962977 
L 36.041765 170.084349 
L 36.537172 170.690767 
L 37.280282 171.708495 
L 38.023393 172.387521 
L 38.766503 172.870688 
L 39.509613 173.08072 
L 40.252724 172.984447 
L 41.243537 172.505705 
L 43.225165 171.265426 
L 44.215979 171.109348 
L 44.959089 171.203705 
L 45.949903 171.661578 
L 48.179234 172.87833 
L 48.922344 173.064056 
L 49.665454 173.061831 
L 50.656268 172.81964 
L 51.894785 172.494946 
L 56.105744 171.781393 
L 60.068999 171.303156 
L 67.500102 170.627274 
L 69.977136 170.705065 
L 71.463357 170.892654 
L 71.71106 171.0351 
L 72.206467 171.689063 
L 72.949578 172.651232 
L 73.444984 172.972786 
L 73.940391 173.084077 
L 74.435798 173.011077 
L 74.931205 172.750905 
L 75.674315 172.042033 
L 76.912833 170.358094 
L 78.15135 168.656793 
L 78.89446 167.927159 
L 79.63757 167.477326 
L 80.380681 167.327387 
L 80.876088 167.490277 
L 81.619198 168.113023 
L 82.362308 169.067675 
L 84.591639 172.439985 
L 85.087046 172.839529 
L 85.830156 173.078669 
L 86.573267 173.005667 
L 90.536522 171.942671 
L 92.518149 171.444701 
L 94.74748 171.224988 
L 97.719922 171.139592 
L 107.875763 171.401801 
L 109.361983 172.214351 
L 110.6005 172.88845 
L 111.343611 173.073674 
L 112.086721 173.02127 
L 113.077535 172.644501 
L 114.316052 172.094291 
L 115.059162 171.96661 
L 116.049976 172.058455 
L 121.004045 173.071288 
L 121.994859 172.836488 
L 123.481079 172.417902 
L 128.187445 171.442699 
L 129.673665 171.540235 
L 133.141513 171.860215 
L 136.361658 171.559874 
L 140.324913 170.90283 
L 142.554244 170.62297 
L 143.049651 170.67114 
L 143.545058 171.124497 
L 144.783575 172.677498 
L 145.278982 172.985917 
L 145.774389 173.084874 
L 146.517499 172.958802 
L 147.756016 172.408935 
L 149.48994 171.566014 
L 150.233051 171.515014 
L 150.976161 171.814005 
L 152.957788 172.856894 
L 153.948602 173.079145 
L 154.691713 173.037243 
L 155.682526 172.760144 
L 158.654968 171.711485 
L 160.636595 171.452084 
L 164.59985 170.943238 
L 168.810809 169.87922 
L 170.792436 169.933088 
L 173.269471 169.938191 
L 177.232726 169.783192 
L 178.471243 170.03336 
L 178.718946 170.191055 
L 179.214353 170.873446 
L 180.205167 172.367678 
L 180.700574 172.798847 
L 181.195981 173.020133 
L 181.939091 173.075834 
L 182.929905 172.851441 
L 185.654642 171.925967 
L 186.397753 171.870058 
L 187.140863 172.024644 
L 190.113304 173.007668 
L 191.104118 173.081376 
L 192.094932 172.923823 
L 195.315077 172.106554 
L 198.535221 171.833341 
L 200.269145 171.568481 
L 205.718621 170.555937 
L 210.67269 169.89852 
L 212.654317 169.681825 
L 214.140538 169.837319 
L 214.388241 169.995923 
L 214.883648 170.744293 
L 215.626759 171.971582 
L 216.369869 172.731433 
L 216.865276 173.005809 
L 217.360683 173.083991 
L 217.85609 172.968796 
L 218.351497 172.67303 
L 219.34231 171.688695 
L 220.828531 170.131842 
L 221.323938 169.887699 
L 222.314752 169.76251 
L 223.800972 169.629044 
L 224.544082 169.489662 
L 225.039489 169.60418 
L 225.534896 169.926323 
L 226.030303 170.426357 
L 228.011931 172.96746 
L 228.507338 173.085191 
L 229.002744 172.985946 
L 231.232075 172.162106 
L 233.461406 171.801022 
L 241.63562 170.646028 
L 244.112654 170.223914 
L 246.589689 170.260586 
L 249.066723 170.51172 
L 249.809833 170.66291 
L 250.057537 170.853511 
L 251.296054 172.367038 
L 252.039164 172.760055 
L 253.029978 173.026244 
L 254.020792 173.069858 
L 254.763902 172.896304 
L 255.507012 172.472698 
L 256.74553 171.264482 
L 257.48864 170.617795 
L 257.984047 170.400337 
L 258.479454 170.383909 
L 258.974861 170.538364 
L 259.965674 171.186038 
L 261.947302 172.575761 
L 262.938116 173.02292 
L 263.681226 173.073405 
L 264.424336 172.898128 
L 266.15826 172.347711 
L 269.873812 171.607093 
L 272.59855 171.23395 
L 274.08477 171.082526 
L 274.08477 171.082526 
" clip-path="url(#paaadee3ea1)" style="fill: none; stroke: #ffe100; stroke-width: 0.75; stroke-linecap: square"/>
   </g>
   <g id="patch_3">
    <path d="M 24.152 173.085197 
L 24.152 5.12 
" style="fill: none; stroke: #000000; stroke-width: 0.8; stroke-linejoin: miter; stroke-linecap: square"/>
   </g>
   <g id="patch_4">
    <path d="M 273.837067 173.085197 
L 273.837067 5.12 
" style="fill: none; stroke: #000000; stroke-width: 0.8; stroke-linejoin: miter; stroke-linecap: square"/>
   </g>
   <g id="patch_5">
    <path d="M 24.152 173.085197 
L 273.837067 173.085197 
" style="fill: none; stroke: #000000; stroke-width: 0.8; stroke-linejoin: miter; stroke-linecap: square"/>
   </g>
   <g id="patch_6">
    <path d="M 24.152 5.12 
L 273.837067 5.12 
" style="fill: none; stroke: #000000; stroke-width: 0.8; stroke-linejoin: miter; stroke-linecap: square"/>
   </g>
   <g id="legend_1">
    <g id="line2d_55">
     <path d="M 147.518966 14.658714 
L 159.518966 14.658714 
L 171.518966 14.658714 
" style="fill: none; stroke: #180f0d; stroke-width: 0.75; stroke-linecap: square"/>
    </g>
    <g id="text_16">
     <!-- x = 1 cm -->
     <g transform="translate(176.318966 16.758714) scale(0.06 -0.06)">
      <defs>
       <path id="DejaVuSans-3d" d="M 678 2906 
L 4684 2906 
L 4684 2381 
L 678 2381 
L 678 2906 
z
M 678 1631 
L 4684 1631 
L 4684 1100 
L 678 1100 
L 678 1631 
z
" transform="scale(0.015625)"/>
      </defs>
      <use xlink:href="#DejaVuSans-78"/>
      <use xlink:href="#DejaVuSans-20" x="59.179688"/>
      <use xlink:href="#DejaVuSans-3d" x="90.966797"/>
      <use xlink:href="#DejaVuSans-20" x="174.755859"/>
      <use xlink:href="#DejaVuSans-31" x="206.542969"/>
      <use xlink:href="#DejaVuSans-20" x="270.166016"/>
      <use xlink:href="#DejaVuSans-63" x="301.953125"/>
      <use xlink:href="#DejaVuSans-6d" x="356.933594"/>
     </g>
    </g>
    <g id="line2d_56">
     <path d="M 147.518966 25.265589 
L 159.518966 25.265589 
L 171.518966 25.265589 
" style="fill: none; stroke: #7a1514; stroke-width: 0.75; stroke-linecap: square"/>
    </g>
    <g id="text_17">
     <!-- x = 3 cm -->
     <g transform="translate(176.318966 27.365589) scale(0.06 -0.06)">
      <use xlink:href="#DejaVuSans-78"/>
      <use xlink:href="#DejaVuSans-20" x="59.179688"/>
      <use xlink:href="#DejaVuSans-3d" x="90.966797"/>
      <use xlink:href="#DejaVuSans-20" x="174.755859"/>
      <use xlink:href="#DejaVuSans-33" x="206.542969"/>
      <use xlink:href="#DejaVuSans-20" x="270.166016"/>
      <use xlink:href="#DejaVuSans-63" x="301.953125"/>
      <use xlink:href="#DejaVuSans-6d" x="356.933594"/>
     </g>
    </g>
    <g id="line2d_57">
     <path d="M 147.518966 35.872464 
L 159.518966 35.872464 
L 171.518966 35.872464 
" style="fill: none; stroke: #ac2a1a; stroke-width: 0.75; stroke-linecap: square"/>
    </g>
    <g id="text_18">
     <!-- x = 5 cm -->
     <g transform="translate(176.318966 37.972464) scale(0.06 -0.06)">
      <defs>
       <path id="DejaVuSans-35" d="M 691 4666 
L 3169 4666 
L 3169 4134 
L 1269 4134 
L 1269 2991 
Q 1406 3038 1543 3061 
Q 1681 3084 1819 3084 
Q 2600 3084 3056 2656 
Q 3513 2228 3513 1497 
Q 3513 744 3044 326 
Q 2575 -91 1722 -91 
Q 1428 -91 1123 -41 
Q 819 9 494 109 
L 494 744 
Q 775 591 1075 516 
Q 1375 441 1709 441 
Q 2250 441 2565 725 
Q 2881 1009 2881 1497 
Q 2881 1984 2565 2268 
Q 2250 2553 1709 2553 
Q 1456 2553 1204 2497 
Q 953 2441 691 2322 
L 691 4666 
z
" transform="scale(0.015625)"/>
      </defs>
      <use xlink:href="#DejaVuSans-78"/>
      <use xlink:href="#DejaVuSans-20" x="59.179688"/>
      <use xlink:href="#DejaVuSans-3d" x="90.966797"/>
      <use xlink:href="#DejaVuSans-20" x="174.755859"/>
      <use xlink:href="#DejaVuSans-35" x="206.542969"/>
      <use xlink:href="#DejaVuSans-20" x="270.166016"/>
      <use xlink:href="#DejaVuSans-63" x="301.953125"/>
      <use xlink:href="#DejaVuSans-6d" x="356.933594"/>
     </g>
    </g>
    <g id="line2d_58">
     <path d="M 209.879591 14.658714 
L 221.879591 14.658714 
L 233.879591 14.658714 
" style="fill: none; stroke: #c46d1c; stroke-width: 0.75; stroke-linecap: square"/>
    </g>
    <g id="text_19">
     <!-- x = 7 cm -->
     <g transform="translate(238.679591 16.758714) scale(0.06 -0.06)">
      <use xlink:href="#DejaVuSans-78"/>
      <use xlink:href="#DejaVuSans-20" x="59.179688"/>
      <use xlink:href="#DejaVuSans-3d" x="90.966797"/>
      <use xlink:href="#DejaVuSans-20" x="174.755859"/>
      <use xlink:href="#DejaVuSans-37" x="206.542969"/>
      <use xlink:href="#DejaVuSans-20" x="270.166016"/>
      <use xlink:href="#DejaVuSans-63" x="301.953125"/>
      <use xlink:href="#DejaVuSans-6d" x="356.933594"/>
     </g>
    </g>
    <g id="line2d_59">
     <path d="M 209.879591 25.265589 
L 221.879591 25.265589 
L 233.879591 25.265589 
" style="fill: none; stroke: #ffe100; stroke-width: 0.75; stroke-linecap: square"/>
    </g>
    <g id="text_20">
     <!-- x = 9 cm -->
     <g transform="translate(238.679591 27.365589) scale(0.06 -0.06)">
      <use xlink:href="#DejaVuSans-78"/>
      <use xlink:href="#DejaVuSans-20" x="59.179688"/>
      <use xlink:href="#DejaVuSans-3d" x="90.966797"/>
      <use xlink:href="#DejaVuSans-20" x="174.755859"/>
      <use xlink:href="#DejaVuSans-39" x="206.542969"/>
      <use xlink:href="#DejaVuSans-20" x="270.166016"/>
      <use xlink:href="#DejaVuSans-63" x="301.953125"/>
      <use xlink:href="#DejaVuSans-6d" x="356.933594"/>
     </g>
    </g>
   </g>
  </g>
 </g>
 <defs>
  <clipPath id="paaadee3ea1">
   <rect x="24.152" y="5.12" width="249.685067" height="167.965197"/>
  </clipPath>
 </defs>
</svg>
