<?xml version="1.0" encoding="utf-8" standalone="no"?>
<!DOCTYPE svg PUBLIC "-//W3C//DTD SVG 1.1//EN"
  "http://www.w3.org/Graphics/SVG/1.1/DTD/svg11.dtd">
<svg xmlns:xlink="http://www.w3.org/1999/xlink" width="283.464567pt" height="198.425197pt" viewBox="0 0 283.464567 198.425197" xmlns="http://www.w3.org/2000/svg" version="1.1">
 <metadata>
  <rdf:RDF xmlns:dc="http://purl.org/dc/elements/1.1/" xmlns:cc="http://creativecommons.org/ns#" xmlns:rdf="http://www.w3.org/1999/02/22-rdf-syntax-ns#">
   <cc:Work>
    <dc:type rdf:resource="http://purl.org/dc/dcmitype/StillImage"/>
    <dc:date>2023-08-18T14:02:33.219661</dc:date>
    <dc:format>image/svg+xml</dc:format>
    <dc:creator>
     <cc:Agent>
      <dc:title>Matplotlib v3.7.1, https://matplotlib.org/</dc:title>
     </cc:Agent>
    </dc:creator>
   </cc:Work>
  </rdf:RDF>
 </metadata>
 <defs>
  <style type="text/css">*{stroke-linejoin: round; stroke-linecap: butt}</style>
 </defs>
 <g id="figure_1">
  <g id="patch_1">
   <path d="M 0 198.425197 
L 283.464567 198.425197 
L 283.464567 0 
L 0 0 
z
" style="fill: #ffffff"/>
  </g>
  <g id="axes_1">
   <g id="patch_2">
    <path d="M 31.787 173.085197 
L 273.837067 173.085197 
L 273.837067 5.12 
L 31.787 5.12 
z
" style="fill: #ffffff"/>
   </g>
   <g id="matplotlib.axis_1">
    <g id="xtick_1">
     <g id="line2d_1">
      <path d="M 31.787 173.085197 
L 31.787 5.12 
" clip-path="url(#p07720d22e3)" style="fill: none; stroke-dasharray: 0.925,0.4; stroke-dashoffset: 0; stroke: #404040; stroke-opacity: 0.5; stroke-width: 0.25"/>
     </g>
     <g id="line2d_2">
      <defs>
       <path id="mdad920ee5a" d="M 0 0 
L 0 -3.5 
" style="stroke: #000000; stroke-width: 0.5"/>
      </defs>
      <g>
       <use xlink:href="#mdad920ee5a" x="31.787" y="173.085197" style="stroke: #000000; stroke-width: 0.5"/>
      </g>
     </g>
     <g id="text_1">
      <!-- 24 -->
      <g transform="translate(26.697 182.663947) scale(0.08 -0.08)">
       <defs>
        <path id="DejaVuSans-32" d="M 1228 531 
L 3431 531 
L 3431 0 
L 469 0 
L 469 531 
Q 828 903 1448 1529 
Q 2069 2156 2228 2338 
Q 2531 2678 2651 2914 
Q 2772 3150 2772 3378 
Q 2772 3750 2511 3984 
Q 2250 4219 1831 4219 
Q 1534 4219 1204 4116 
Q 875 4013 500 3803 
L 500 4441 
Q 881 4594 1212 4672 
Q 1544 4750 1819 4750 
Q 2544 4750 2975 4387 
Q 3406 4025 3406 3419 
Q 3406 3131 3298 2873 
Q 3191 2616 2906 2266 
Q 2828 2175 2409 1742 
Q 1991 1309 1228 531 
z
" transform="scale(0.015625)"/>
        <path id="DejaVuSans-34" d="M 2419 4116 
L 825 1625 
L 2419 1625 
L 2419 4116 
z
M 2253 4666 
L 3047 4666 
L 3047 1625 
L 3713 1625 
L 3713 1100 
L 3047 1100 
L 3047 0 
L 2419 0 
L 2419 1100 
L 313 1100 
L 313 1709 
L 2253 4666 
z
" transform="scale(0.015625)"/>
       </defs>
       <use xlink:href="#DejaVuSans-32"/>
       <use xlink:href="#DejaVuSans-34" x="63.623047"/>
      </g>
     </g>
    </g>
    <g id="xtick_2">
     <g id="line2d_3">
      <path d="M 66.365581 173.085197 
L 66.365581 5.12 
" clip-path="url(#p07720d22e3)" style="fill: none; stroke-dasharray: 0.925,0.4; stroke-dashoffset: 0; stroke: #404040; stroke-opacity: 0.5; stroke-width: 0.25"/>
     </g>
     <g id="line2d_4">
      <g>
       <use xlink:href="#mdad920ee5a" x="66.365581" y="173.085197" style="stroke: #000000; stroke-width: 0.5"/>
      </g>
     </g>
     <g id="text_2">
      <!-- 48 -->
      <g transform="translate(61.275581 182.663947) scale(0.08 -0.08)">
       <defs>
        <path id="DejaVuSans-38" d="M 2034 2216 
Q 1584 2216 1326 1975 
Q 1069 1734 1069 1313 
Q 1069 891 1326 650 
Q 1584 409 2034 409 
Q 2484 409 2743 651 
Q 3003 894 3003 1313 
Q 3003 1734 2745 1975 
Q 2488 2216 2034 2216 
z
M 1403 2484 
Q 997 2584 770 2862 
Q 544 3141 544 3541 
Q 544 4100 942 4425 
Q 1341 4750 2034 4750 
Q 2731 4750 3128 4425 
Q 3525 4100 3525 3541 
Q 3525 3141 3298 2862 
Q 3072 2584 2669 2484 
Q 3125 2378 3379 2068 
Q 3634 1759 3634 1313 
Q 3634 634 3220 271 
Q 2806 -91 2034 -91 
Q 1263 -91 848 271 
Q 434 634 434 1313 
Q 434 1759 690 2068 
Q 947 2378 1403 2484 
z
M 1172 3481 
Q 1172 3119 1398 2916 
Q 1625 2713 2034 2713 
Q 2441 2713 2670 2916 
Q 2900 3119 2900 3481 
Q 2900 3844 2670 4047 
Q 2441 4250 2034 4250 
Q 1625 4250 1398 4047 
Q 1172 3844 1172 3481 
z
" transform="scale(0.015625)"/>
       </defs>
       <use xlink:href="#DejaVuSans-34"/>
       <use xlink:href="#DejaVuSans-38" x="63.623047"/>
      </g>
     </g>
    </g>
    <g id="xtick_3">
     <g id="line2d_5">
      <path d="M 100.944162 173.085197 
L 100.944162 5.12 
" clip-path="url(#p07720d22e3)" style="fill: none; stroke-dasharray: 0.925,0.4; stroke-dashoffset: 0; stroke: #404040; stroke-opacity: 0.5; stroke-width: 0.25"/>
     </g>
     <g id="line2d_6">
      <g>
       <use xlink:href="#mdad920ee5a" x="100.944162" y="173.085197" style="stroke: #000000; stroke-width: 0.5"/>
      </g>
     </g>
     <g id="text_3">
      <!-- 72 -->
      <g transform="translate(95.854162 182.663947) scale(0.08 -0.08)">
       <defs>
        <path id="DejaVuSans-37" d="M 525 4666 
L 3525 4666 
L 3525 4397 
L 1831 0 
L 1172 0 
L 2766 4134 
L 525 4134 
L 525 4666 
z
" transform="scale(0.015625)"/>
       </defs>
       <use xlink:href="#DejaVuSans-37"/>
       <use xlink:href="#DejaVuSans-32" x="63.623047"/>
      </g>
     </g>
    </g>
    <g id="xtick_4">
     <g id="line2d_7">
      <path d="M 135.522743 173.085197 
L 135.522743 5.12 
" clip-path="url(#p07720d22e3)" style="fill: none; stroke-dasharray: 0.925,0.4; stroke-dashoffset: 0; stroke: #404040; stroke-opacity: 0.5; stroke-width: 0.25"/>
     </g>
     <g id="line2d_8">
      <g>
       <use xlink:href="#mdad920ee5a" x="135.522743" y="173.085197" style="stroke: #000000; stroke-width: 0.5"/>
      </g>
     </g>
     <g id="text_4">
      <!-- 96 -->
      <g transform="translate(130.432743 182.663947) scale(0.08 -0.08)">
       <defs>
        <path id="DejaVuSans-39" d="M 703 97 
L 703 672 
Q 941 559 1184 500 
Q 1428 441 1663 441 
Q 2288 441 2617 861 
Q 2947 1281 2994 2138 
Q 2813 1869 2534 1725 
Q 2256 1581 1919 1581 
Q 1219 1581 811 2004 
Q 403 2428 403 3163 
Q 403 3881 828 4315 
Q 1253 4750 1959 4750 
Q 2769 4750 3195 4129 
Q 3622 3509 3622 2328 
Q 3622 1225 3098 567 
Q 2575 -91 1691 -91 
Q 1453 -91 1209 -44 
Q 966 3 703 97 
z
M 1959 2075 
Q 2384 2075 2632 2365 
Q 2881 2656 2881 3163 
Q 2881 3666 2632 3958 
Q 2384 4250 1959 4250 
Q 1534 4250 1286 3958 
Q 1038 3666 1038 3163 
Q 1038 2656 1286 2365 
Q 1534 2075 1959 2075 
z
" transform="scale(0.015625)"/>
        <path id="DejaVuSans-36" d="M 2113 2584 
Q 1688 2584 1439 2293 
Q 1191 2003 1191 1497 
Q 1191 994 1439 701 
Q 1688 409 2113 409 
Q 2538 409 2786 701 
Q 3034 994 3034 1497 
Q 3034 2003 2786 2293 
Q 2538 2584 2113 2584 
z
M 3366 4563 
L 3366 3988 
Q 3128 4100 2886 4159 
Q 2644 4219 2406 4219 
Q 1781 4219 1451 3797 
Q 1122 3375 1075 2522 
Q 1259 2794 1537 2939 
Q 1816 3084 2150 3084 
Q 2853 3084 3261 2657 
Q 3669 2231 3669 1497 
Q 3669 778 3244 343 
Q 2819 -91 2113 -91 
Q 1303 -91 875 529 
Q 447 1150 447 2328 
Q 447 3434 972 4092 
Q 1497 4750 2381 4750 
Q 2619 4750 2861 4703 
Q 3103 4656 3366 4563 
z
" transform="scale(0.015625)"/>
       </defs>
       <use xlink:href="#DejaVuSans-39"/>
       <use xlink:href="#DejaVuSans-36" x="63.623047"/>
      </g>
     </g>
    </g>
    <g id="xtick_5">
     <g id="line2d_9">
      <path d="M 170.101324 173.085197 
L 170.101324 5.12 
" clip-path="url(#p07720d22e3)" style="fill: none; stroke-dasharray: 0.925,0.4; stroke-dashoffset: 0; stroke: #404040; stroke-opacity: 0.5; stroke-width: 0.25"/>
     </g>
     <g id="line2d_10">
      <g>
       <use xlink:href="#mdad920ee5a" x="170.101324" y="173.085197" style="stroke: #000000; stroke-width: 0.5"/>
      </g>
     </g>
     <g id="text_5">
      <!-- 120 -->
      <g transform="translate(162.466324 182.663947) scale(0.08 -0.08)">
       <defs>
        <path id="DejaVuSans-31" d="M 794 531 
L 1825 531 
L 1825 4091 
L 703 3866 
L 703 4441 
L 1819 4666 
L 2450 4666 
L 2450 531 
L 3481 531 
L 3481 0 
L 794 0 
L 794 531 
z
" transform="scale(0.015625)"/>
        <path id="DejaVuSans-30" d="M 2034 4250 
Q 1547 4250 1301 3770 
Q 1056 3291 1056 2328 
Q 1056 1369 1301 889 
Q 1547 409 2034 409 
Q 2525 409 2770 889 
Q 3016 1369 3016 2328 
Q 3016 3291 2770 3770 
Q 2525 4250 2034 4250 
z
M 2034 4750 
Q 2819 4750 3233 4129 
Q 3647 3509 3647 2328 
Q 3647 1150 3233 529 
Q 2819 -91 2034 -91 
Q 1250 -91 836 529 
Q 422 1150 422 2328 
Q 422 3509 836 4129 
Q 1250 4750 2034 4750 
z
" transform="scale(0.015625)"/>
       </defs>
       <use xlink:href="#DejaVuSans-31"/>
       <use xlink:href="#DejaVuSans-32" x="63.623047"/>
       <use xlink:href="#DejaVuSans-30" x="127.246094"/>
      </g>
     </g>
    </g>
    <g id="xtick_6">
     <g id="line2d_11">
      <path d="M 204.679905 173.085197 
L 204.679905 5.12 
" clip-path="url(#p07720d22e3)" style="fill: none; stroke-dasharray: 0.925,0.4; stroke-dashoffset: 0; stroke: #404040; stroke-opacity: 0.5; stroke-width: 0.25"/>
     </g>
     <g id="line2d_12">
      <g>
       <use xlink:href="#mdad920ee5a" x="204.679905" y="173.085197" style="stroke: #000000; stroke-width: 0.5"/>
      </g>
     </g>
     <g id="text_6">
      <!-- 144 -->
      <g transform="translate(197.044905 182.663947) scale(0.08 -0.08)">
       <use xlink:href="#DejaVuSans-31"/>
       <use xlink:href="#DejaVuSans-34" x="63.623047"/>
       <use xlink:href="#DejaVuSans-34" x="127.246094"/>
      </g>
     </g>
    </g>
    <g id="xtick_7">
     <g id="line2d_13">
      <path d="M 239.258486 173.085197 
L 239.258486 5.12 
" clip-path="url(#p07720d22e3)" style="fill: none; stroke-dasharray: 0.925,0.4; stroke-dashoffset: 0; stroke: #404040; stroke-opacity: 0.5; stroke-width: 0.25"/>
     </g>
     <g id="line2d_14">
      <g>
       <use xlink:href="#mdad920ee5a" x="239.258486" y="173.085197" style="stroke: #000000; stroke-width: 0.5"/>
      </g>
     </g>
     <g id="text_7">
      <!-- 168 -->
      <g transform="translate(231.623486 182.663947) scale(0.08 -0.08)">
       <use xlink:href="#DejaVuSans-31"/>
       <use xlink:href="#DejaVuSans-36" x="63.623047"/>
       <use xlink:href="#DejaVuSans-38" x="127.246094"/>
      </g>
     </g>
    </g>
    <g id="xtick_8">
     <g id="line2d_15">
      <path d="M 273.837067 173.085197 
L 273.837067 5.12 
" clip-path="url(#p07720d22e3)" style="fill: none; stroke-dasharray: 0.925,0.4; stroke-dashoffset: 0; stroke: #404040; stroke-opacity: 0.5; stroke-width: 0.25"/>
     </g>
     <g id="line2d_16">
      <g>
       <use xlink:href="#mdad920ee5a" x="273.837067" y="173.085197" style="stroke: #000000; stroke-width: 0.5"/>
      </g>
     </g>
     <g id="text_8">
      <!-- 192 -->
      <g transform="translate(266.202067 182.663947) scale(0.08 -0.08)">
       <use xlink:href="#DejaVuSans-31"/>
       <use xlink:href="#DejaVuSans-39" x="63.623047"/>
       <use xlink:href="#DejaVuSans-32" x="127.246094"/>
      </g>
     </g>
    </g>
    <g id="xtick_9">
     <g id="line2d_17">
      <defs>
       <path id="ma4b2f4e016" d="M 0 0 
L 0 -2 
" style="stroke: #000000; stroke-width: 0.35"/>
      </defs>
      <g>
       <use xlink:href="#ma4b2f4e016" x="49.07629" y="173.085197" style="stroke: #000000; stroke-width: 0.35"/>
      </g>
     </g>
    </g>
    <g id="xtick_10">
     <g id="line2d_18">
      <g>
       <use xlink:href="#ma4b2f4e016" x="83.654871" y="173.085197" style="stroke: #000000; stroke-width: 0.35"/>
      </g>
     </g>
    </g>
    <g id="xtick_11">
     <g id="line2d_19">
      <g>
       <use xlink:href="#ma4b2f4e016" x="118.233452" y="173.085197" style="stroke: #000000; stroke-width: 0.35"/>
      </g>
     </g>
    </g>
    <g id="xtick_12">
     <g id="line2d_20">
      <g>
       <use xlink:href="#ma4b2f4e016" x="152.812033" y="173.085197" style="stroke: #000000; stroke-width: 0.35"/>
      </g>
     </g>
    </g>
    <g id="xtick_13">
     <g id="line2d_21">
      <g>
       <use xlink:href="#ma4b2f4e016" x="187.390614" y="173.085197" style="stroke: #000000; stroke-width: 0.35"/>
      </g>
     </g>
    </g>
    <g id="xtick_14">
     <g id="line2d_22">
      <g>
       <use xlink:href="#ma4b2f4e016" x="221.969195" y="173.085197" style="stroke: #000000; stroke-width: 0.35"/>
      </g>
     </g>
    </g>
    <g id="xtick_15">
     <g id="line2d_23">
      <g>
       <use xlink:href="#ma4b2f4e016" x="256.547776" y="173.085197" style="stroke: #000000; stroke-width: 0.35"/>
      </g>
     </g>
    </g>
    <g id="text_9">
     <!-- Hour [h] -->
     <g transform="translate(136.249533 194.406447) scale(0.08 -0.08)">
      <defs>
       <path id="DejaVuSans-48" d="M 628 4666 
L 1259 4666 
L 1259 2753 
L 3553 2753 
L 3553 4666 
L 4184 4666 
L 4184 0 
L 3553 0 
L 3553 2222 
L 1259 2222 
L 1259 0 
L 628 0 
L 628 4666 
z
" transform="scale(0.015625)"/>
       <path id="DejaVuSans-6f" d="M 1959 3097 
Q 1497 3097 1228 2736 
Q 959 2375 959 1747 
Q 959 1119 1226 758 
Q 1494 397 1959 397 
Q 2419 397 2687 759 
Q 2956 1122 2956 1747 
Q 2956 2369 2687 2733 
Q 2419 3097 1959 3097 
z
M 1959 3584 
Q 2709 3584 3137 3096 
Q 3566 2609 3566 1747 
Q 3566 888 3137 398 
Q 2709 -91 1959 -91 
Q 1206 -91 779 398 
Q 353 888 353 1747 
Q 353 2609 779 3096 
Q 1206 3584 1959 3584 
z
" transform="scale(0.015625)"/>
       <path id="DejaVuSans-75" d="M 544 1381 
L 544 3500 
L 1119 3500 
L 1119 1403 
Q 1119 906 1312 657 
Q 1506 409 1894 409 
Q 2359 409 2629 706 
Q 2900 1003 2900 1516 
L 2900 3500 
L 3475 3500 
L 3475 0 
L 2900 0 
L 2900 538 
Q 2691 219 2414 64 
Q 2138 -91 1772 -91 
Q 1169 -91 856 284 
Q 544 659 544 1381 
z
M 1991 3584 
L 1991 3584 
z
" transform="scale(0.015625)"/>
       <path id="DejaVuSans-72" d="M 2631 2963 
Q 2534 3019 2420 3045 
Q 2306 3072 2169 3072 
Q 1681 3072 1420 2755 
Q 1159 2438 1159 1844 
L 1159 0 
L 581 0 
L 581 3500 
L 1159 3500 
L 1159 2956 
Q 1341 3275 1631 3429 
Q 1922 3584 2338 3584 
Q 2397 3584 2469 3576 
Q 2541 3569 2628 3553 
L 2631 2963 
z
" transform="scale(0.015625)"/>
       <path id="DejaVuSans-20" transform="scale(0.015625)"/>
       <path id="DejaVuSans-5b" d="M 550 4863 
L 1875 4863 
L 1875 4416 
L 1125 4416 
L 1125 -397 
L 1875 -397 
L 1875 -844 
L 550 -844 
L 550 4863 
z
" transform="scale(0.015625)"/>
       <path id="DejaVuSans-68" d="M 3513 2113 
L 3513 0 
L 2938 0 
L 2938 2094 
Q 2938 2591 2744 2837 
Q 2550 3084 2163 3084 
Q 1697 3084 1428 2787 
Q 1159 2491 1159 1978 
L 1159 0 
L 581 0 
L 581 4863 
L 1159 4863 
L 1159 2956 
Q 1366 3272 1645 3428 
Q 1925 3584 2291 3584 
Q 2894 3584 3203 3211 
Q 3513 2838 3513 2113 
z
" transform="scale(0.015625)"/>
       <path id="DejaVuSans-5d" d="M 1947 4863 
L 1947 -844 
L 622 -844 
L 622 -397 
L 1369 -397 
L 1369 4416 
L 622 4416 
L 622 4863 
L 1947 4863 
z
" transform="scale(0.015625)"/>
      </defs>
      <use xlink:href="#DejaVuSans-48"/>
      <use xlink:href="#DejaVuSans-6f" x="75.195312"/>
      <use xlink:href="#DejaVuSans-75" x="136.376953"/>
      <use xlink:href="#DejaVuSans-72" x="199.755859"/>
      <use xlink:href="#DejaVuSans-20" x="240.869141"/>
      <use xlink:href="#DejaVuSans-5b" x="272.65625"/>
      <use xlink:href="#DejaVuSans-68" x="311.669922"/>
      <use xlink:href="#DejaVuSans-5d" x="375.048828"/>
     </g>
    </g>
   </g>
   <g id="matplotlib.axis_2">
    <g id="ytick_1">
     <g id="line2d_24">
      <path d="M 31.787 173.085197 
L 273.837067 173.085197 
" clip-path="url(#p07720d22e3)" style="fill: none; stroke-dasharray: 0.925,0.4; stroke-dashoffset: 0; stroke: #404040; stroke-opacity: 0.5; stroke-width: 0.25"/>
     </g>
     <g id="line2d_25">
      <defs>
       <path id="maa5f32b608" d="M 0 0 
L 3.5 0 
" style="stroke: #000000; stroke-width: 0.5"/>
      </defs>
      <g>
       <use xlink:href="#maa5f32b608" x="31.787" y="173.085197" style="stroke: #000000; stroke-width: 0.5"/>
      </g>
     </g>
     <g id="text_10">
      <!-- 0.0 -->
      <g transform="translate(15.5645 176.124572) scale(0.08 -0.08)">
       <defs>
        <path id="DejaVuSans-2e" d="M 684 794 
L 1344 794 
L 1344 0 
L 684 0 
L 684 794 
z
" transform="scale(0.015625)"/>
       </defs>
       <use xlink:href="#DejaVuSans-30"/>
       <use xlink:href="#DejaVuSans-2e" x="63.623047"/>
       <use xlink:href="#DejaVuSans-30" x="95.410156"/>
      </g>
     </g>
    </g>
    <g id="ytick_2">
     <g id="line2d_26">
      <path d="M 31.787 117.096798 
L 273.837067 117.096798 
" clip-path="url(#p07720d22e3)" style="fill: none; stroke-dasharray: 0.925,0.4; stroke-dashoffset: 0; stroke: #404040; stroke-opacity: 0.5; stroke-width: 0.25"/>
     </g>
     <g id="line2d_27">
      <g>
       <use xlink:href="#maa5f32b608" x="31.787" y="117.096798" style="stroke: #000000; stroke-width: 0.5"/>
      </g>
     </g>
     <g id="text_11">
      <!-- 0.5 -->
      <g transform="translate(15.5645 120.136173) scale(0.08 -0.08)">
       <defs>
        <path id="DejaVuSans-35" d="M 691 4666 
L 3169 4666 
L 3169 4134 
L 1269 4134 
L 1269 2991 
Q 1406 3038 1543 3061 
Q 1681 3084 1819 3084 
Q 2600 3084 3056 2656 
Q 3513 2228 3513 1497 
Q 3513 744 3044 326 
Q 2575 -91 1722 -91 
Q 1428 -91 1123 -41 
Q 819 9 494 109 
L 494 744 
Q 775 591 1075 516 
Q 1375 441 1709 441 
Q 2250 441 2565 725 
Q 2881 1009 2881 1497 
Q 2881 1984 2565 2268 
Q 2250 2553 1709 2553 
Q 1456 2553 1204 2497 
Q 953 2441 691 2322 
L 691 4666 
z
" transform="scale(0.015625)"/>
       </defs>
       <use xlink:href="#DejaVuSans-30"/>
       <use xlink:href="#DejaVuSans-2e" x="63.623047"/>
       <use xlink:href="#DejaVuSans-35" x="95.410156"/>
      </g>
     </g>
    </g>
    <g id="ytick_3">
     <g id="line2d_28">
      <path d="M 31.787 61.108399 
L 273.837067 61.108399 
" clip-path="url(#p07720d22e3)" style="fill: none; stroke-dasharray: 0.925,0.4; stroke-dashoffset: 0; stroke: #404040; stroke-opacity: 0.5; stroke-width: 0.25"/>
     </g>
     <g id="line2d_29">
      <g>
       <use xlink:href="#maa5f32b608" x="31.787" y="61.108399" style="stroke: #000000; stroke-width: 0.5"/>
      </g>
     </g>
     <g id="text_12">
      <!-- 1.0 -->
      <g transform="translate(15.5645 64.147774) scale(0.08 -0.08)">
       <use xlink:href="#DejaVuSans-31"/>
       <use xlink:href="#DejaVuSans-2e" x="63.623047"/>
       <use xlink:href="#DejaVuSans-30" x="95.410156"/>
      </g>
     </g>
    </g>
    <g id="ytick_4">
     <g id="line2d_30">
      <path d="M 31.787 5.12 
L 273.837067 5.12 
" clip-path="url(#p07720d22e3)" style="fill: none; stroke-dasharray: 0.925,0.4; stroke-dashoffset: 0; stroke: #404040; stroke-opacity: 0.5; stroke-width: 0.25"/>
     </g>
     <g id="line2d_31">
      <g>
       <use xlink:href="#maa5f32b608" x="31.787" y="5.12" style="stroke: #000000; stroke-width: 0.5"/>
      </g>
     </g>
     <g id="text_13">
      <!-- 1.5 -->
      <g transform="translate(15.5645 8.159375) scale(0.08 -0.08)">
       <use xlink:href="#DejaVuSans-31"/>
       <use xlink:href="#DejaVuSans-2e" x="63.623047"/>
       <use xlink:href="#DejaVuSans-35" x="95.410156"/>
      </g>
     </g>
    </g>
    <g id="ytick_5">
     <g id="line2d_32">
      <defs>
       <path id="me9ec6b0749" d="M 0 0 
L 2 0 
" style="stroke: #000000; stroke-width: 0.35"/>
      </defs>
      <g>
       <use xlink:href="#me9ec6b0749" x="31.787" y="161.887517" style="stroke: #000000; stroke-width: 0.35"/>
      </g>
     </g>
    </g>
    <g id="ytick_6">
     <g id="line2d_33">
      <g>
       <use xlink:href="#me9ec6b0749" x="31.787" y="150.689837" style="stroke: #000000; stroke-width: 0.35"/>
      </g>
     </g>
    </g>
    <g id="ytick_7">
     <g id="line2d_34">
      <g>
       <use xlink:href="#me9ec6b0749" x="31.787" y="139.492157" style="stroke: #000000; stroke-width: 0.35"/>
      </g>
     </g>
    </g>
    <g id="ytick_8">
     <g id="line2d_35">
      <g>
       <use xlink:href="#me9ec6b0749" x="31.787" y="128.294478" style="stroke: #000000; stroke-width: 0.35"/>
      </g>
     </g>
    </g>
    <g id="ytick_9">
     <g id="line2d_36">
      <g>
       <use xlink:href="#me9ec6b0749" x="31.787" y="105.899118" style="stroke: #000000; stroke-width: 0.35"/>
      </g>
     </g>
    </g>
    <g id="ytick_10">
     <g id="line2d_37">
      <g>
       <use xlink:href="#me9ec6b0749" x="31.787" y="94.701438" style="stroke: #000000; stroke-width: 0.35"/>
      </g>
     </g>
    </g>
    <g id="ytick_11">
     <g id="line2d_38">
      <g>
       <use xlink:href="#me9ec6b0749" x="31.787" y="83.503759" style="stroke: #000000; stroke-width: 0.35"/>
      </g>
     </g>
    </g>
    <g id="ytick_12">
     <g id="line2d_39">
      <g>
       <use xlink:href="#me9ec6b0749" x="31.787" y="72.306079" style="stroke: #000000; stroke-width: 0.35"/>
      </g>
     </g>
    </g>
    <g id="ytick_13">
     <g id="line2d_40">
      <g>
       <use xlink:href="#me9ec6b0749" x="31.787" y="49.910719" style="stroke: #000000; stroke-width: 0.35"/>
      </g>
     </g>
    </g>
    <g id="ytick_14">
     <g id="line2d_41">
      <g>
       <use xlink:href="#me9ec6b0749" x="31.787" y="38.713039" style="stroke: #000000; stroke-width: 0.35"/>
      </g>
     </g>
    </g>
    <g id="ytick_15">
     <g id="line2d_42">
      <g>
       <use xlink:href="#me9ec6b0749" x="31.787" y="27.51536" style="stroke: #000000; stroke-width: 0.35"/>
      </g>
     </g>
    </g>
    <g id="ytick_16">
     <g id="line2d_43">
      <g>
       <use xlink:href="#me9ec6b0749" x="31.787" y="16.31768" style="stroke: #000000; stroke-width: 0.35"/>
      </g>
     </g>
    </g>
    <g id="text_14">
     <!-- Exergy consumption $~\mathrm{[W/m^2]}$ -->
     <g transform="translate(9.8845 147.022598) rotate(-90) scale(0.08 -0.08)">
      <defs>
       <path id="DejaVuSans-45" d="M 628 4666 
L 3578 4666 
L 3578 4134 
L 1259 4134 
L 1259 2753 
L 3481 2753 
L 3481 2222 
L 1259 2222 
L 1259 531 
L 3634 531 
L 3634 0 
L 628 0 
L 628 4666 
z
" transform="scale(0.015625)"/>
       <path id="DejaVuSans-78" d="M 3513 3500 
L 2247 1797 
L 3578 0 
L 2900 0 
L 1881 1375 
L 863 0 
L 184 0 
L 1544 1831 
L 300 3500 
L 978 3500 
L 1906 2253 
L 2834 3500 
L 3513 3500 
z
" transform="scale(0.015625)"/>
       <path id="DejaVuSans-65" d="M 3597 1894 
L 3597 1613 
L 953 1613 
Q 991 1019 1311 708 
Q 1631 397 2203 397 
Q 2534 397 2845 478 
Q 3156 559 3463 722 
L 3463 178 
Q 3153 47 2828 -22 
Q 2503 -91 2169 -91 
Q 1331 -91 842 396 
Q 353 884 353 1716 
Q 353 2575 817 3079 
Q 1281 3584 2069 3584 
Q 2775 3584 3186 3129 
Q 3597 2675 3597 1894 
z
M 3022 2063 
Q 3016 2534 2758 2815 
Q 2500 3097 2075 3097 
Q 1594 3097 1305 2825 
Q 1016 2553 972 2059 
L 3022 2063 
z
" transform="scale(0.015625)"/>
       <path id="DejaVuSans-67" d="M 2906 1791 
Q 2906 2416 2648 2759 
Q 2391 3103 1925 3103 
Q 1463 3103 1205 2759 
Q 947 2416 947 1791 
Q 947 1169 1205 825 
Q 1463 481 1925 481 
Q 2391 481 2648 825 
Q 2906 1169 2906 1791 
z
M 3481 434 
Q 3481 -459 3084 -895 
Q 2688 -1331 1869 -1331 
Q 1566 -1331 1297 -1286 
Q 1028 -1241 775 -1147 
L 775 -588 
Q 1028 -725 1275 -790 
Q 1522 -856 1778 -856 
Q 2344 -856 2625 -561 
Q 2906 -266 2906 331 
L 2906 616 
Q 2728 306 2450 153 
Q 2172 0 1784 0 
Q 1141 0 747 490 
Q 353 981 353 1791 
Q 353 2603 747 3093 
Q 1141 3584 1784 3584 
Q 2172 3584 2450 3431 
Q 2728 3278 2906 2969 
L 2906 3500 
L 3481 3500 
L 3481 434 
z
" transform="scale(0.015625)"/>
       <path id="DejaVuSans-79" d="M 2059 -325 
Q 1816 -950 1584 -1140 
Q 1353 -1331 966 -1331 
L 506 -1331 
L 506 -850 
L 844 -850 
Q 1081 -850 1212 -737 
Q 1344 -625 1503 -206 
L 1606 56 
L 191 3500 
L 800 3500 
L 1894 763 
L 2988 3500 
L 3597 3500 
L 2059 -325 
z
" transform="scale(0.015625)"/>
       <path id="DejaVuSans-63" d="M 3122 3366 
L 3122 2828 
Q 2878 2963 2633 3030 
Q 2388 3097 2138 3097 
Q 1578 3097 1268 2742 
Q 959 2388 959 1747 
Q 959 1106 1268 751 
Q 1578 397 2138 397 
Q 2388 397 2633 464 
Q 2878 531 3122 666 
L 3122 134 
Q 2881 22 2623 -34 
Q 2366 -91 2075 -91 
Q 1284 -91 818 406 
Q 353 903 353 1747 
Q 353 2603 823 3093 
Q 1294 3584 2113 3584 
Q 2378 3584 2631 3529 
Q 2884 3475 3122 3366 
z
" transform="scale(0.015625)"/>
       <path id="DejaVuSans-6e" d="M 3513 2113 
L 3513 0 
L 2938 0 
L 2938 2094 
Q 2938 2591 2744 2837 
Q 2550 3084 2163 3084 
Q 1697 3084 1428 2787 
Q 1159 2491 1159 1978 
L 1159 0 
L 581 0 
L 581 3500 
L 1159 3500 
L 1159 2956 
Q 1366 3272 1645 3428 
Q 1925 3584 2291 3584 
Q 2894 3584 3203 3211 
Q 3513 2838 3513 2113 
z
" transform="scale(0.015625)"/>
       <path id="DejaVuSans-73" d="M 2834 3397 
L 2834 2853 
Q 2591 2978 2328 3040 
Q 2066 3103 1784 3103 
Q 1356 3103 1142 2972 
Q 928 2841 928 2578 
Q 928 2378 1081 2264 
Q 1234 2150 1697 2047 
L 1894 2003 
Q 2506 1872 2764 1633 
Q 3022 1394 3022 966 
Q 3022 478 2636 193 
Q 2250 -91 1575 -91 
Q 1294 -91 989 -36 
Q 684 19 347 128 
L 347 722 
Q 666 556 975 473 
Q 1284 391 1588 391 
Q 1994 391 2212 530 
Q 2431 669 2431 922 
Q 2431 1156 2273 1281 
Q 2116 1406 1581 1522 
L 1381 1569 
Q 847 1681 609 1914 
Q 372 2147 372 2553 
Q 372 3047 722 3315 
Q 1072 3584 1716 3584 
Q 2034 3584 2315 3537 
Q 2597 3491 2834 3397 
z
" transform="scale(0.015625)"/>
       <path id="DejaVuSans-6d" d="M 3328 2828 
Q 3544 3216 3844 3400 
Q 4144 3584 4550 3584 
Q 5097 3584 5394 3201 
Q 5691 2819 5691 2113 
L 5691 0 
L 5113 0 
L 5113 2094 
Q 5113 2597 4934 2840 
Q 4756 3084 4391 3084 
Q 3944 3084 3684 2787 
Q 3425 2491 3425 1978 
L 3425 0 
L 2847 0 
L 2847 2094 
Q 2847 2600 2669 2842 
Q 2491 3084 2119 3084 
Q 1678 3084 1418 2786 
Q 1159 2488 1159 1978 
L 1159 0 
L 581 0 
L 581 3500 
L 1159 3500 
L 1159 2956 
Q 1356 3278 1631 3431 
Q 1906 3584 2284 3584 
Q 2666 3584 2933 3390 
Q 3200 3197 3328 2828 
z
" transform="scale(0.015625)"/>
       <path id="DejaVuSans-70" d="M 1159 525 
L 1159 -1331 
L 581 -1331 
L 581 3500 
L 1159 3500 
L 1159 2969 
Q 1341 3281 1617 3432 
Q 1894 3584 2278 3584 
Q 2916 3584 3314 3078 
Q 3713 2572 3713 1747 
Q 3713 922 3314 415 
Q 2916 -91 2278 -91 
Q 1894 -91 1617 61 
Q 1341 213 1159 525 
z
M 3116 1747 
Q 3116 2381 2855 2742 
Q 2594 3103 2138 3103 
Q 1681 3103 1420 2742 
Q 1159 2381 1159 1747 
Q 1159 1113 1420 752 
Q 1681 391 2138 391 
Q 2594 391 2855 752 
Q 3116 1113 3116 1747 
z
" transform="scale(0.015625)"/>
       <path id="DejaVuSans-74" d="M 1172 4494 
L 1172 3500 
L 2356 3500 
L 2356 3053 
L 1172 3053 
L 1172 1153 
Q 1172 725 1289 603 
Q 1406 481 1766 481 
L 2356 481 
L 2356 0 
L 1766 0 
Q 1100 0 847 248 
Q 594 497 594 1153 
L 594 3053 
L 172 3053 
L 172 3500 
L 594 3500 
L 594 4494 
L 1172 4494 
z
" transform="scale(0.015625)"/>
       <path id="DejaVuSans-69" d="M 603 3500 
L 1178 3500 
L 1178 0 
L 603 0 
L 603 3500 
z
M 603 4863 
L 1178 4863 
L 1178 4134 
L 603 4134 
L 603 4863 
z
" transform="scale(0.015625)"/>
       <path id="DejaVuSans-57" d="M 213 4666 
L 850 4666 
L 1831 722 
L 2809 4666 
L 3519 4666 
L 4500 722 
L 5478 4666 
L 6119 4666 
L 4947 0 
L 4153 0 
L 3169 4050 
L 2175 0 
L 1381 0 
L 213 4666 
z
" transform="scale(0.015625)"/>
       <path id="DejaVuSans-2f" d="M 1625 4666 
L 2156 4666 
L 531 -594 
L 0 -594 
L 1625 4666 
z
" transform="scale(0.015625)"/>
      </defs>
      <use xlink:href="#DejaVuSans-45" transform="translate(0 0.765625)"/>
      <use xlink:href="#DejaVuSans-78" transform="translate(63.183594 0.765625)"/>
      <use xlink:href="#DejaVuSans-65" transform="translate(122.363281 0.765625)"/>
      <use xlink:href="#DejaVuSans-72" transform="translate(183.886719 0.765625)"/>
      <use xlink:href="#DejaVuSans-67" transform="translate(225 0.765625)"/>
      <use xlink:href="#DejaVuSans-79" transform="translate(288.476562 0.765625)"/>
      <use xlink:href="#DejaVuSans-20" transform="translate(347.65625 0.765625)"/>
      <use xlink:href="#DejaVuSans-63" transform="translate(379.443359 0.765625)"/>
      <use xlink:href="#DejaVuSans-6f" transform="translate(434.423828 0.765625)"/>
      <use xlink:href="#DejaVuSans-6e" transform="translate(495.605469 0.765625)"/>
      <use xlink:href="#DejaVuSans-73" transform="translate(558.984375 0.765625)"/>
      <use xlink:href="#DejaVuSans-75" transform="translate(611.083984 0.765625)"/>
      <use xlink:href="#DejaVuSans-6d" transform="translate(674.462891 0.765625)"/>
      <use xlink:href="#DejaVuSans-70" transform="translate(771.875 0.765625)"/>
      <use xlink:href="#DejaVuSans-74" transform="translate(835.351562 0.765625)"/>
      <use xlink:href="#DejaVuSans-69" transform="translate(874.560547 0.765625)"/>
      <use xlink:href="#DejaVuSans-6f" transform="translate(902.34375 0.765625)"/>
      <use xlink:href="#DejaVuSans-6e" transform="translate(963.525391 0.765625)"/>
      <use xlink:href="#DejaVuSans-20" transform="translate(1026.904297 0.765625)"/>
      <use xlink:href="#DejaVuSans-5b" transform="translate(1091.161785 0.765625)"/>
      <use xlink:href="#DejaVuSans-57" transform="translate(1130.175457 0.765625)"/>
      <use xlink:href="#DejaVuSans-2f" transform="translate(1229.05241 0.765625)"/>
      <use xlink:href="#DejaVuSans-6d" transform="translate(1262.743816 0.765625)"/>
      <use xlink:href="#DejaVuSans-32" transform="translate(1361.112957 39.046875) scale(0.7)"/>
      <use xlink:href="#DejaVuSans-5d" transform="translate(1408.383464 0.765625)"/>
     </g>
    </g>
   </g>
   <g id="line2d_44">
    <path d="M 31.546871 87.930144 
L 33.467903 79.995043 
L 34.18829 78.024405 
L 34.668548 77.214141 
L 35.148806 76.829132 
L 35.629065 76.858786 
L 36.109323 77.273106 
L 36.589581 78.032628 
L 38.510613 81.753776 
L 38.990871 82.253748 
L 39.471129 82.470563 
L 39.951387 82.422065 
L 40.431645 82.106007 
L 41.152032 81.11732 
L 43.073065 78.091279 
L 43.313194 78.089241 
L 43.553323 78.561966 
L 43.793452 79.548179 
L 44.27371 83.372377 
L 44.994097 92.550814 
L 45.714484 104.487973 
L 46.915129 128.895506 
L 48.115774 152.523673 
L 48.836161 163.209947 
L 49.31642 168.288583 
L 49.796678 171.545975 
L 50.276936 172.980548 
L 50.517065 173.072098 
L 50.757194 172.798018 
L 51.237452 171.331172 
L 51.957839 167.541943 
L 53.158484 160.453589 
L 53.638742 158.45854 
L 54.119 157.34896 
L 54.359129 157.140476 
L 54.599258 157.152231 
L 54.839387 157.378465 
L 55.319645 158.460244 
L 55.799903 160.295653 
L 56.76042 165.256692 
L 57.720936 170.019995 
L 58.201194 171.698253 
L 58.681452 172.710191 
L 59.16171 173.080644 
L 59.401839 173.046838 
L 59.882097 172.590621 
L 60.362355 171.680818 
L 61.082742 169.618403 
L 62.043258 165.875211 
L 63.243904 160.127798 
L 70.447775 123.570395 
L 72.608936 113.875864 
L 73.809581 109.611958 
L 75.010226 106.266276 
L 75.970742 104.17866 
L 76.691129 103.170912 
L 77.171388 102.801289 
L 77.651646 102.675056 
L 77.891775 102.839299 
L 78.131904 103.400428 
L 78.372033 104.557443 
L 78.852291 109.026995 
L 79.572678 120.054441 
L 82.214097 166.817916 
L 82.694355 171.139428 
L 82.934484 172.397305 
L 83.174613 173.018112 
L 83.414742 172.986404 
L 83.654871 172.296962 
L 84.13513 168.995034 
L 84.615388 163.324666 
L 85.335775 151.162396 
L 86.53642 125.176563 
L 87.737065 100.623635 
L 88.217323 93.737542 
L 88.697581 89.40169 
L 88.93771 88.298675 
L 89.177839 87.945389 
L 89.417968 88.367581 
L 89.658097 89.586352 
L 90.138355 94.367614 
L 90.618613 101.873539 
L 91.57913 121.641123 
L 92.779775 146.79128 
L 93.500162 158.185869 
L 94.220549 166.073093 
L 94.700807 169.548273 
L 95.181065 171.769773 
L 95.661323 172.886272 
L 95.901452 173.073645 
L 96.141581 173.035335 
L 96.38171 172.786563 
L 96.861968 171.713935 
L 97.342226 169.965857 
L 98.062614 166.359294 
L 99.263259 158.844988 
L 102.144807 140.273863 
L 103.345452 134.000888 
L 104.305968 129.969978 
L 105.266485 126.877735 
L 106.227001 124.548522 
L 107.187517 122.84201 
L 108.148033 121.576092 
L 109.108549 120.653854 
L 110.069065 120.047044 
L 111.50984 119.239462 
L 112.950614 118.121957 
L 113.190743 118.262849 
L 113.430872 118.611839 
L 113.91113 119.951296 
L 114.391388 122.241609 
L 114.871646 125.627339 
L 115.592033 132.638571 
L 116.792678 147.691024 
L 117.993323 162.508042 
L 118.713711 168.803172 
L 119.193969 171.433575 
L 119.674227 172.79766 
L 119.914356 173.051905 
L 120.154485 173.061407 
L 120.394614 172.862359 
L 120.874872 171.991506 
L 123.036033 166.688677 
L 123.516291 166.069308 
L 123.996549 165.780489 
L 124.236678 165.790258 
L 124.476807 165.921278 
L 124.957065 166.562837 
L 125.437324 167.653834 
L 127.358356 172.673701 
L 127.838614 173.068591 
L 128.078743 173.069605 
L 128.559001 172.696798 
L 129.039259 171.859715 
L 129.519517 170.603697 
L 130.239904 168.026875 
L 131.20042 163.494676 
L 132.641195 155.104222 
L 133.84184 148.455281 
L 134.802356 144.329468 
L 135.522743 142.122705 
L 136.24313 140.700308 
L 137.203646 139.48093 
L 138.64442 137.639733 
L 139.845066 135.714348 
L 140.805582 133.712266 
L 142.006227 130.592007 
L 143.206872 126.754261 
L 144.647646 121.287445 
L 147.289066 110.961383 
L 147.529195 110.652275 
L 147.769324 110.896132 
L 148.009453 111.780634 
L 148.489711 115.518412 
L 148.969969 121.559752 
L 149.930485 137.717538 
L 151.13113 157.41085 
L 151.851517 165.91125 
L 152.331775 169.770128 
L 152.812033 172.140122 
L 153.052162 172.775403 
L 153.292292 173.062347 
L 153.532421 173.027098 
L 153.77255 172.704749 
L 154.252808 171.381621 
L 155.933711 165.526951 
L 156.413969 164.873386 
L 156.654098 164.814565 
L 156.894227 164.931734 
L 157.374485 165.654428 
L 157.854743 166.896378 
L 159.775775 172.537913 
L 160.256034 173.049579 
L 160.496163 173.076677 
L 160.736292 172.94467 
L 161.21655 172.202474 
L 161.696808 170.853937 
L 162.417195 167.886788 
L 163.377711 162.765288 
L 168.420421 132.701353 
L 169.861195 122.804866 
L 172.982872 99.847003 
L 173.943389 94.802305 
L 174.903905 90.937774 
L 176.10455 87.218087 
L 178.265711 81.463203 
L 180.186743 76.730004 
L 180.667001 76.056934 
L 181.14726 75.740776 
L 181.387389 75.740575 
L 181.627518 75.936101 
L 181.867647 76.513375 
L 182.107776 77.689184 
L 182.588034 82.297887 
L 183.068292 89.789955 
L 183.788679 104.740705 
L 185.709711 146.962737 
L 186.430098 158.608305 
L 187.150485 166.85061 
L 187.630743 170.359876 
L 188.111002 172.350024 
L 188.351131 172.852409 
L 188.59126 173.070446 
L 188.831389 173.034692 
L 189.071518 172.778314 
L 189.551776 171.7586 
L 191.472808 166.679418 
L 191.953066 166.240065 
L 192.193195 166.210068 
L 192.433324 166.301937 
L 192.913582 166.837208 
L 193.39384 167.776477 
L 195.555002 172.785767 
L 196.03526 173.083109 
L 196.275389 173.042004 
L 196.755647 172.581324 
L 197.235905 171.659405 
L 197.956292 169.587644 
L 198.916808 165.969695 
L 201.077969 156.529683 
L 202.999002 147.563098 
L 204.679905 138.461009 
L 209.482486 110.861535 
L 214.525195 85.905109 
L 215.485712 82.124487 
L 215.96597 80.743267 
L 216.206099 80.313475 
L 216.446228 80.309995 
L 216.686357 80.967664 
L 216.926486 82.422896 
L 217.406744 87.69739 
L 218.127131 100.164493 
L 219.327776 127.653681 
L 220.528421 154.370803 
L 221.248808 165.839493 
L 221.729066 170.613095 
L 222.209324 172.876536 
L 222.449454 173.077161 
L 222.689583 172.696968 
L 222.929712 171.786678 
L 223.40997 168.632214 
L 224.130357 161.517499 
L 225.331002 146.420009 
L 227.252034 121.542811 
L 227.732292 117.981799 
L 227.972421 117.09069 
L 228.21255 116.923025 
L 228.452679 117.530256 
L 228.692808 118.917456 
L 229.173066 123.823364 
L 229.893454 134.971016 
L 231.334228 159.300405 
L 232.054615 167.241252 
L 232.534873 170.514217 
L 233.015131 172.379241 
L 233.25526 172.856168 
L 233.495389 173.06823 
L 233.735518 173.043219 
L 233.975647 172.80733 
L 234.455905 171.798293 
L 234.936163 170.211934 
L 235.65655 167.047699 
L 236.857196 160.504287 
L 243.10055 122.951675 
L 245.982099 105.604686 
L 246.942615 101.334644 
L 247.903131 98.023369 
L 248.623518 96.176848 
L 249.343905 94.952298 
L 249.824163 94.476988 
L 250.304422 94.284781 
L 250.544551 94.325437 
L 250.78468 94.596944 
L 251.024809 95.333806 
L 251.264938 96.723558 
L 251.745196 101.403567 
L 252.705712 114.791093 
L 255.58726 157.653758 
L 256.307647 165.788713 
L 256.787905 169.83352 
L 257.268164 172.337239 
L 257.508293 172.934012 
L 257.748422 173.077598 
L 257.988551 172.772562 
L 258.22868 172.040016 
L 258.708938 169.462637 
L 259.429325 163.748984 
L 260.62997 153.993727 
L 261.110228 151.357408 
L 261.590486 149.825528 
L 261.830615 149.484702 
L 262.070744 149.424037 
L 262.310873 149.645614 
L 262.551002 150.156297 
L 263.03126 152.04232 
L 263.751647 156.676311 
L 265.432551 168.96301 
L 265.912809 171.198213 
L 266.393067 172.546526 
L 266.873325 173.07059 
L 267.113454 173.054776 
L 267.353583 172.871798 
L 267.833841 172.057135 
L 268.314099 170.725657 
L 269.034486 167.947811 
L 269.995002 163.154311 
L 271.435777 154.610912 
L 274.077196 138.499799 
L 274.077196 138.499799 
" clip-path="url(#p07720d22e3)" style="fill: none; stroke: #ffd966; stroke-linecap: square"/>
   </g>
   <g id="line2d_45">
    <path d="M 31.546871 51.339415 
L 33.467903 39.868508 
L 34.18829 37.017267 
L 34.668548 35.844645 
L 35.148806 35.287399 
L 35.388936 35.236279 
L 35.629065 35.33032 
L 36.109323 35.929986 
L 36.589581 37.029167 
L 38.510613 42.411935 
L 38.990871 43.134821 
L 39.471129 43.44834 
L 39.951387 43.378212 
L 40.431645 42.921739 
L 41.152032 41.495314 
L 43.073065 37.127687 
L 43.313194 37.123601 
L 43.553323 37.804025 
L 43.793452 39.2273 
L 44.27371 44.751111 
L 44.994097 58.008516 
L 45.714484 75.222812 
L 47.155258 117.508327 
L 48.115774 144.000973 
L 48.836161 159.160475 
L 49.31642 166.336113 
L 49.796678 170.924038 
L 50.276936 172.938566 
L 50.517065 173.066861 
L 50.757194 172.683584 
L 51.237452 170.636565 
L 51.957839 165.364614 
L 53.158484 155.539215 
L 53.638742 152.780344 
L 54.119 151.247076 
L 54.359129 150.959092 
L 54.599258 150.975374 
L 54.839387 151.28796 
L 55.319645 152.782944 
L 55.799903 155.321003 
L 56.76042 162.192724 
L 57.720936 168.810283 
L 58.201194 171.148391 
L 58.681452 172.560852 
L 58.921581 172.926292 
L 59.16171 173.078823 
L 59.401839 173.031465 
L 59.641968 172.797853 
L 60.122226 171.825984 
L 60.602484 170.26627 
L 61.322871 167.022946 
L 62.283387 161.412183 
L 63.724162 151.261479 
L 69.007 112.450935 
L 72.128678 91.569927 
L 73.329323 84.879032 
L 74.529968 79.556694 
L 75.730613 75.422484 
L 76.451 73.720237 
L 76.931259 73.014943 
L 77.411517 72.649802 
L 77.651646 72.610927 
L 77.891775 72.8476 
L 78.131904 73.655598 
L 78.372033 75.321605 
L 78.852291 81.754173 
L 79.572678 97.600987 
L 82.214097 164.260581 
L 82.694355 170.352284 
L 82.934484 172.120249 
L 83.174613 172.991213 
L 83.414742 172.946968 
L 83.654871 171.983732 
L 84.13513 167.384149 
L 84.615388 159.514 
L 85.335775 142.709315 
L 86.53642 107.034939 
L 87.737065 73.538014 
L 88.217323 64.175208 
L 88.697581 58.287247 
L 88.93771 56.790567 
L 89.177839 56.311804 
L 89.417968 56.885681 
L 89.658097 58.541062 
L 90.138355 65.037103 
L 90.618613 75.245813 
L 91.57913 102.205237 
L 93.019904 142.464445 
L 93.740291 156.563735 
L 94.460678 165.969088 
L 94.940936 169.905139 
L 95.421194 172.207517 
L 95.661323 172.806951 
L 95.901452 173.069027 
L 96.141581 173.015348 
L 96.38171 172.666547 
L 96.861968 171.160142 
L 97.342226 168.700218 
L 98.062614 163.612691 
L 99.263259 152.9764 
L 102.144807 126.546962 
L 103.345452 117.5838 
L 104.305968 111.815935 
L 105.266485 107.387072 
L 106.227001 104.049472 
L 107.187517 101.603113 
L 108.148033 99.787864 
L 109.108549 98.465233 
L 109.828936 97.773064 
L 111.50984 96.43564 
L 112.950614 94.8323 
L 113.190743 95.034916 
L 113.430872 95.536236 
L 113.91113 97.459405 
L 114.391388 100.746069 
L 114.871646 105.60072 
L 115.592033 115.639854 
L 116.792678 137.125847 
L 117.993323 158.167445 
L 118.713711 167.061897 
L 119.193969 170.766015 
L 119.674227 172.682117 
L 119.914356 173.038564 
L 120.154485 173.051899 
L 120.394614 172.773517 
L 120.874872 171.557427 
L 123.036033 164.179465 
L 123.516291 163.319768 
L 123.996549 162.919015 
L 124.236678 162.932582 
L 124.476807 163.114397 
L 124.957065 164.004855 
L 125.437324 165.519963 
L 127.358356 172.509865 
L 127.838614 173.061953 
L 128.078743 173.063359 
L 128.318872 172.887368 
L 128.79913 172.030583 
L 129.279388 170.551816 
L 129.999775 167.29918 
L 130.720162 162.968784 
L 131.680678 155.791079 
L 134.081969 136.575006 
L 135.042485 131.159079 
L 135.762872 128.395549 
L 136.483259 126.667159 
L 139.364808 121.223922 
L 140.325324 118.678412 
L 141.28584 115.505669 
L 142.486485 110.635307 
L 143.68713 104.720963 
L 145.608162 93.748377 
L 147.289066 84.540613 
L 147.529195 84.096946 
L 147.769324 84.448425 
L 148.009453 85.720948 
L 148.489711 91.093824 
L 148.969969 99.767259 
L 149.930485 122.899432 
L 151.13113 150.94321 
L 151.851517 162.980198 
L 152.331775 168.424659 
L 152.812033 171.759067 
L 153.052162 172.650896 
L 153.292292 173.053192 
L 153.532421 173.003893 
L 153.77255 172.553243 
L 154.252808 170.706868 
L 155.933711 162.567309 
L 156.413969 161.660807 
L 156.654098 161.579244 
L 156.894227 161.741732 
L 157.374485 162.744201 
L 157.854743 164.467982 
L 159.775775 172.320182 
L 160.256034 173.035348 
L 160.496163 173.073265 
L 160.736292 172.888272 
L 160.976421 172.478578 
L 161.456679 170.999803 
L 161.936937 168.715953 
L 162.657324 164.098684 
L 163.857969 154.517614 
L 169.380937 106.519595 
L 170.821711 90.882283 
L 172.502614 72.884268 
L 173.46313 64.674505 
L 174.423647 58.284383 
L 175.384163 53.400175 
L 176.824937 47.451087 
L 179.946614 35.815118 
L 180.426872 34.60134 
L 180.907131 33.879962 
L 181.14726 33.718542 
L 181.387389 33.718441 
L 181.627518 34.001711 
L 181.867647 34.837565 
L 182.107776 36.539503 
L 182.588034 43.206501 
L 183.068292 54.033083 
L 183.788679 75.593377 
L 185.709711 136.08742 
L 186.430098 152.641527 
L 187.150485 164.306817 
L 187.630743 169.25518 
L 188.111002 172.053859 
L 188.351131 172.758905 
L 188.59126 173.064538 
L 188.831389 173.014517 
L 189.071518 172.656044 
L 189.551776 171.232534 
L 191.232679 164.736737 
L 191.712937 163.771566 
L 191.953066 163.556854 
L 192.193195 163.515236 
L 192.433324 163.642756 
L 192.913582 164.385845 
L 193.39384 165.69041 
L 195.555002 172.666462 
L 196.03526 173.082273 
L 196.275389 173.024692 
L 196.515518 172.788221 
L 196.995776 171.805915 
L 197.476034 170.226113 
L 198.196421 166.995531 
L 199.397066 160.199716 
L 202.278615 141.949985 
L 203.959518 129.750086 
L 205.640421 115.728385 
L 208.28184 93.484386 
L 210.202873 79.230215 
L 215.245582 44.157051 
L 215.96597 40.967864 
L 216.206099 40.346867 
L 216.446228 40.342357 
L 216.686357 41.293968 
L 216.926486 43.398566 
L 217.406744 51.021205 
L 218.127131 69.008681 
L 219.327776 108.505179 
L 220.528421 146.626902 
L 221.248808 162.878732 
L 221.729066 169.611659 
L 222.209324 172.79274 
L 222.449454 173.073948 
L 222.689583 172.542372 
L 222.929712 171.271694 
L 223.40997 166.879679 
L 224.130357 157.011322 
L 225.331002 136.178164 
L 227.011905 105.416807 
L 227.492163 99.282449 
L 227.972421 95.987192 
L 228.21255 95.758709 
L 228.452679 96.588218 
L 228.692808 98.483059 
L 229.173066 105.188367 
L 229.893454 120.453833 
L 231.334228 153.944663 
L 232.054615 164.947093 
L 232.534873 169.498372 
L 233.015131 172.098612 
L 233.25526 172.764864 
L 233.495389 173.061447 
L 233.735518 173.026394 
L 233.975647 172.695678 
L 234.455905 171.27872 
L 234.936163 169.046791 
L 235.65655 164.584845 
L 236.857196 155.328668 
L 242.380163 108.131322 
L 246.222228 75.169244 
L 247.182744 69.354217 
L 248.14326 64.921864 
L 248.863647 62.55642 
L 249.584034 61.086228 
L 250.064292 60.603089 
L 250.304422 60.516855 
L 250.544551 60.575722 
L 250.78468 60.967612 
L 251.024809 62.030755 
L 251.264938 64.035354 
L 251.745196 70.781683 
L 252.705712 90.046301 
L 255.58726 151.287642 
L 256.307647 162.807007 
L 256.787905 168.513925 
L 257.268164 172.035908 
L 257.508293 172.873329 
L 257.748422 173.074559 
L 257.988551 172.648006 
L 258.22868 171.625122 
L 258.708938 168.034591 
L 259.429325 160.102065 
L 260.62997 146.614012 
L 261.110228 142.978424 
L 261.590486 140.867644 
L 261.830615 140.398231 
L 262.070744 140.314765 
L 262.310873 140.620075 
L 262.551002 141.323703 
L 263.03126 143.923241 
L 263.751647 150.317951 
L 265.432551 167.339739 
L 265.912809 170.451261 
L 266.393067 172.332215 
L 266.633196 172.834021 
L 266.873325 173.064751 
L 267.113454 173.042586 
L 267.353583 172.786094 
L 267.833841 171.64246 
L 268.314099 169.770026 
L 269.034486 165.855236 
L 269.995002 159.081328 
L 271.435777 146.966564 
L 274.077196 124.013939 
L 274.077196 124.013939 
" clip-path="url(#p07720d22e3)" style="fill: none; stroke-dasharray: 3,1,1,1; stroke-dashoffset: 0; stroke: #f7a4a4"/>
   </g>
   <g id="patch_3">
    <path d="M 31.787 173.085197 
L 31.787 5.12 
" style="fill: none; stroke: #000000; stroke-width: 0.8; stroke-linejoin: miter; stroke-linecap: square"/>
   </g>
   <g id="patch_4">
    <path d="M 273.837067 173.085197 
L 273.837067 5.12 
" style="fill: none; stroke: #000000; stroke-width: 0.8; stroke-linejoin: miter; stroke-linecap: square"/>
   </g>
   <g id="patch_5">
    <path d="M 31.787 173.085197 
L 273.837067 173.085197 
" style="fill: none; stroke: #000000; stroke-width: 0.8; stroke-linejoin: miter; stroke-linecap: square"/>
   </g>
   <g id="patch_6">
    <path d="M 31.787 5.12 
L 273.837067 5.12 
" style="fill: none; stroke: #000000; stroke-width: 0.8; stroke-linejoin: miter; stroke-linecap: square"/>
   </g>
   <g id="legend_1">
    <g id="line2d_46">
     <path d="M 121.036879 15.968558 
L 135.036879 15.968558 
L 149.036879 15.968558 
" style="fill: none; stroke: #ffd966; stroke-linecap: square"/>
    </g>
    <g id="text_15">
     <!-- radiation -->
     <g transform="translate(154.636879 18.418558) scale(0.07 -0.07)">
      <defs>
       <path id="DejaVuSans-61" d="M 2194 1759 
Q 1497 1759 1228 1600 
Q 959 1441 959 1056 
Q 959 750 1161 570 
Q 1363 391 1709 391 
Q 2188 391 2477 730 
Q 2766 1069 2766 1631 
L 2766 1759 
L 2194 1759 
z
M 3341 1997 
L 3341 0 
L 2766 0 
L 2766 531 
Q 2569 213 2275 61 
Q 1981 -91 1556 -91 
Q 1019 -91 701 211 
Q 384 513 384 1019 
Q 384 1609 779 1909 
Q 1175 2209 1959 2209 
L 2766 2209 
L 2766 2266 
Q 2766 2663 2505 2880 
Q 2244 3097 1772 3097 
Q 1472 3097 1187 3025 
Q 903 2953 641 2809 
L 641 3341 
Q 956 3463 1253 3523 
Q 1550 3584 1831 3584 
Q 2591 3584 2966 3190 
Q 3341 2797 3341 1997 
z
" transform="scale(0.015625)"/>
       <path id="DejaVuSans-64" d="M 2906 2969 
L 2906 4863 
L 3481 4863 
L 3481 0 
L 2906 0 
L 2906 525 
Q 2725 213 2448 61 
Q 2172 -91 1784 -91 
Q 1150 -91 751 415 
Q 353 922 353 1747 
Q 353 2572 751 3078 
Q 1150 3584 1784 3584 
Q 2172 3584 2448 3432 
Q 2725 3281 2906 2969 
z
M 947 1747 
Q 947 1113 1208 752 
Q 1469 391 1925 391 
Q 2381 391 2643 752 
Q 2906 1113 2906 1747 
Q 2906 2381 2643 2742 
Q 2381 3103 1925 3103 
Q 1469 3103 1208 2742 
Q 947 2381 947 1747 
z
" transform="scale(0.015625)"/>
      </defs>
      <use xlink:href="#DejaVuSans-72"/>
      <use xlink:href="#DejaVuSans-61" x="41.113281"/>
      <use xlink:href="#DejaVuSans-64" x="102.392578"/>
      <use xlink:href="#DejaVuSans-69" x="165.869141"/>
      <use xlink:href="#DejaVuSans-61" x="193.652344"/>
      <use xlink:href="#DejaVuSans-74" x="254.931641"/>
      <use xlink:href="#DejaVuSans-69" x="294.140625"/>
      <use xlink:href="#DejaVuSans-6f" x="321.923828"/>
      <use xlink:href="#DejaVuSans-6e" x="383.105469"/>
     </g>
    </g>
    <g id="line2d_47">
     <path d="M 193.240785 15.968558 
L 207.240785 15.968558 
L 221.240785 15.968558 
" style="fill: none; stroke-dasharray: 3,1,1,1; stroke-dashoffset: 0; stroke: #f7a4a4"/>
    </g>
    <g id="text_16">
     <!-- convection -->
     <g transform="translate(226.840785 18.418558) scale(0.07 -0.07)">
      <defs>
       <path id="DejaVuSans-76" d="M 191 3500 
L 800 3500 
L 1894 563 
L 2988 3500 
L 3597 3500 
L 2284 0 
L 1503 0 
L 191 3500 
z
" transform="scale(0.015625)"/>
      </defs>
      <use xlink:href="#DejaVuSans-63"/>
      <use xlink:href="#DejaVuSans-6f" x="54.980469"/>
      <use xlink:href="#DejaVuSans-6e" x="116.162109"/>
      <use xlink:href="#DejaVuSans-76" x="179.541016"/>
      <use xlink:href="#DejaVuSans-65" x="238.720703"/>
      <use xlink:href="#DejaVuSans-63" x="300.244141"/>
      <use xlink:href="#DejaVuSans-74" x="355.224609"/>
      <use xlink:href="#DejaVuSans-69" x="394.433594"/>
      <use xlink:href="#DejaVuSans-6f" x="422.216797"/>
      <use xlink:href="#DejaVuSans-6e" x="483.398438"/>
     </g>
    </g>
   </g>
  </g>
 </g>
 <defs>
  <clipPath id="p07720d22e3">
   <rect x="31.787" y="5.12" width="242.050067" height="167.965197"/>
  </clipPath>
 </defs>
</svg>
