<?xml version="1.0" encoding="utf-8" standalone="no"?>
<!DOCTYPE svg PUBLIC "-//W3C//DTD SVG 1.1//EN"
  "http://www.w3.org/Graphics/SVG/1.1/DTD/svg11.dtd">
<svg xmlns:xlink="http://www.w3.org/1999/xlink" width="283.464567pt" height="198.425197pt" viewBox="0 0 283.464567 198.425197" xmlns="http://www.w3.org/2000/svg" version="1.1">
 <metadata>
  <rdf:RDF xmlns:dc="http://purl.org/dc/elements/1.1/" xmlns:cc="http://creativecommons.org/ns#" xmlns:rdf="http://www.w3.org/1999/02/22-rdf-syntax-ns#">
   <cc:Work>
    <dc:type rdf:resource="http://purl.org/dc/dcmitype/StillImage"/>
    <dc:date>2023-06-21T01:00:34.141117</dc:date>
    <dc:format>image/svg+xml</dc:format>
    <dc:creator>
     <cc:Agent>
      <dc:title>Matplotlib v3.7.1, https://matplotlib.org/</dc:title>
     </cc:Agent>
    </dc:creator>
   </cc:Work>
  </rdf:RDF>
 </metadata>
 <defs>
  <style type="text/css">*{stroke-linejoin: round; stroke-linecap: butt}</style>
 </defs>
 <g id="figure_1">
  <g id="patch_1">
   <path d="M 0 198.425197 
L 283.464567 198.425197 
L 283.464567 0 
L 0 0 
z
" style="fill: #ffffff"/>
  </g>
  <g id="axes_1">
   <g id="patch_2">
    <path d="M 31.787 173.085197 
L 273.837067 173.085197 
L 273.837067 5.12 
L 31.787 5.12 
z
" style="fill: #ffffff"/>
   </g>
   <g id="matplotlib.axis_1">
    <g id="xtick_1">
     <g id="line2d_1">
      <path d="M 31.787 173.085197 
L 31.787 5.12 
" clip-path="url(#p128ec3c321)" style="fill: none; stroke-dasharray: 0.925,0.4; stroke-dashoffset: 0; stroke: #404040; stroke-opacity: 0.5; stroke-width: 0.25"/>
     </g>
     <g id="line2d_2">
      <defs>
       <path id="ma4ece15850" d="M 0 0 
L 0 -3.5 
" style="stroke: #000000; stroke-width: 0.5"/>
      </defs>
      <g>
       <use xlink:href="#ma4ece15850" x="31.787" y="173.085197" style="stroke: #000000; stroke-width: 0.5"/>
      </g>
     </g>
     <g id="text_1">
      <!-- 120 -->
      <g transform="translate(24.152 182.663947) scale(0.08 -0.08)">
       <defs>
        <path id="DejaVuSans-31" d="M 794 531 
L 1825 531 
L 1825 4091 
L 703 3866 
L 703 4441 
L 1819 4666 
L 2450 4666 
L 2450 531 
L 3481 531 
L 3481 0 
L 794 0 
L 794 531 
z
" transform="scale(0.015625)"/>
        <path id="DejaVuSans-32" d="M 1228 531 
L 3431 531 
L 3431 0 
L 469 0 
L 469 531 
Q 828 903 1448 1529 
Q 2069 2156 2228 2338 
Q 2531 2678 2651 2914 
Q 2772 3150 2772 3378 
Q 2772 3750 2511 3984 
Q 2250 4219 1831 4219 
Q 1534 4219 1204 4116 
Q 875 4013 500 3803 
L 500 4441 
Q 881 4594 1212 4672 
Q 1544 4750 1819 4750 
Q 2544 4750 2975 4387 
Q 3406 4025 3406 3419 
Q 3406 3131 3298 2873 
Q 3191 2616 2906 2266 
Q 2828 2175 2409 1742 
Q 1991 1309 1228 531 
z
" transform="scale(0.015625)"/>
        <path id="DejaVuSans-30" d="M 2034 4250 
Q 1547 4250 1301 3770 
Q 1056 3291 1056 2328 
Q 1056 1369 1301 889 
Q 1547 409 2034 409 
Q 2525 409 2770 889 
Q 3016 1369 3016 2328 
Q 3016 3291 2770 3770 
Q 2525 4250 2034 4250 
z
M 2034 4750 
Q 2819 4750 3233 4129 
Q 3647 3509 3647 2328 
Q 3647 1150 3233 529 
Q 2819 -91 2034 -91 
Q 1250 -91 836 529 
Q 422 1150 422 2328 
Q 422 3509 836 4129 
Q 1250 4750 2034 4750 
z
" transform="scale(0.015625)"/>
       </defs>
       <use xlink:href="#DejaVuSans-31"/>
       <use xlink:href="#DejaVuSans-32" x="63.623047"/>
       <use xlink:href="#DejaVuSans-30" x="127.246094"/>
      </g>
     </g>
    </g>
    <g id="xtick_2">
     <g id="line2d_3">
      <path d="M 92.299517 173.085197 
L 92.299517 5.12 
" clip-path="url(#p128ec3c321)" style="fill: none; stroke-dasharray: 0.925,0.4; stroke-dashoffset: 0; stroke: #404040; stroke-opacity: 0.5; stroke-width: 0.25"/>
     </g>
     <g id="line2d_4">
      <g>
       <use xlink:href="#ma4ece15850" x="92.299517" y="173.085197" style="stroke: #000000; stroke-width: 0.5"/>
      </g>
     </g>
     <g id="text_2">
      <!-- 132 -->
      <g transform="translate(84.664517 182.663947) scale(0.08 -0.08)">
       <defs>
        <path id="DejaVuSans-33" d="M 2597 2516 
Q 3050 2419 3304 2112 
Q 3559 1806 3559 1356 
Q 3559 666 3084 287 
Q 2609 -91 1734 -91 
Q 1441 -91 1130 -33 
Q 819 25 488 141 
L 488 750 
Q 750 597 1062 519 
Q 1375 441 1716 441 
Q 2309 441 2620 675 
Q 2931 909 2931 1356 
Q 2931 1769 2642 2001 
Q 2353 2234 1838 2234 
L 1294 2234 
L 1294 2753 
L 1863 2753 
Q 2328 2753 2575 2939 
Q 2822 3125 2822 3475 
Q 2822 3834 2567 4026 
Q 2313 4219 1838 4219 
Q 1578 4219 1281 4162 
Q 984 4106 628 3988 
L 628 4550 
Q 988 4650 1302 4700 
Q 1616 4750 1894 4750 
Q 2613 4750 3031 4423 
Q 3450 4097 3450 3541 
Q 3450 3153 3228 2886 
Q 3006 2619 2597 2516 
z
" transform="scale(0.015625)"/>
       </defs>
       <use xlink:href="#DejaVuSans-31"/>
       <use xlink:href="#DejaVuSans-33" x="63.623047"/>
       <use xlink:href="#DejaVuSans-32" x="127.246094"/>
      </g>
     </g>
    </g>
    <g id="xtick_3">
     <g id="line2d_5">
      <path d="M 152.812033 173.085197 
L 152.812033 5.12 
" clip-path="url(#p128ec3c321)" style="fill: none; stroke-dasharray: 0.925,0.4; stroke-dashoffset: 0; stroke: #404040; stroke-opacity: 0.5; stroke-width: 0.25"/>
     </g>
     <g id="line2d_6">
      <g>
       <use xlink:href="#ma4ece15850" x="152.812033" y="173.085197" style="stroke: #000000; stroke-width: 0.5"/>
      </g>
     </g>
     <g id="text_3">
      <!-- 144 -->
      <g transform="translate(145.177033 182.663947) scale(0.08 -0.08)">
       <defs>
        <path id="DejaVuSans-34" d="M 2419 4116 
L 825 1625 
L 2419 1625 
L 2419 4116 
z
M 2253 4666 
L 3047 4666 
L 3047 1625 
L 3713 1625 
L 3713 1100 
L 3047 1100 
L 3047 0 
L 2419 0 
L 2419 1100 
L 313 1100 
L 313 1709 
L 2253 4666 
z
" transform="scale(0.015625)"/>
       </defs>
       <use xlink:href="#DejaVuSans-31"/>
       <use xlink:href="#DejaVuSans-34" x="63.623047"/>
       <use xlink:href="#DejaVuSans-34" x="127.246094"/>
      </g>
     </g>
    </g>
    <g id="xtick_4">
     <g id="line2d_7">
      <path d="M 213.32455 173.085197 
L 213.32455 5.12 
" clip-path="url(#p128ec3c321)" style="fill: none; stroke-dasharray: 0.925,0.4; stroke-dashoffset: 0; stroke: #404040; stroke-opacity: 0.5; stroke-width: 0.25"/>
     </g>
     <g id="line2d_8">
      <g>
       <use xlink:href="#ma4ece15850" x="213.32455" y="173.085197" style="stroke: #000000; stroke-width: 0.5"/>
      </g>
     </g>
     <g id="text_4">
      <!-- 156 -->
      <g transform="translate(205.68955 182.663947) scale(0.08 -0.08)">
       <defs>
        <path id="DejaVuSans-35" d="M 691 4666 
L 3169 4666 
L 3169 4134 
L 1269 4134 
L 1269 2991 
Q 1406 3038 1543 3061 
Q 1681 3084 1819 3084 
Q 2600 3084 3056 2656 
Q 3513 2228 3513 1497 
Q 3513 744 3044 326 
Q 2575 -91 1722 -91 
Q 1428 -91 1123 -41 
Q 819 9 494 109 
L 494 744 
Q 775 591 1075 516 
Q 1375 441 1709 441 
Q 2250 441 2565 725 
Q 2881 1009 2881 1497 
Q 2881 1984 2565 2268 
Q 2250 2553 1709 2553 
Q 1456 2553 1204 2497 
Q 953 2441 691 2322 
L 691 4666 
z
" transform="scale(0.015625)"/>
        <path id="DejaVuSans-36" d="M 2113 2584 
Q 1688 2584 1439 2293 
Q 1191 2003 1191 1497 
Q 1191 994 1439 701 
Q 1688 409 2113 409 
Q 2538 409 2786 701 
Q 3034 994 3034 1497 
Q 3034 2003 2786 2293 
Q 2538 2584 2113 2584 
z
M 3366 4563 
L 3366 3988 
Q 3128 4100 2886 4159 
Q 2644 4219 2406 4219 
Q 1781 4219 1451 3797 
Q 1122 3375 1075 2522 
Q 1259 2794 1537 2939 
Q 1816 3084 2150 3084 
Q 2853 3084 3261 2657 
Q 3669 2231 3669 1497 
Q 3669 778 3244 343 
Q 2819 -91 2113 -91 
Q 1303 -91 875 529 
Q 447 1150 447 2328 
Q 447 3434 972 4092 
Q 1497 4750 2381 4750 
Q 2619 4750 2861 4703 
Q 3103 4656 3366 4563 
z
" transform="scale(0.015625)"/>
       </defs>
       <use xlink:href="#DejaVuSans-31"/>
       <use xlink:href="#DejaVuSans-35" x="63.623047"/>
       <use xlink:href="#DejaVuSans-36" x="127.246094"/>
      </g>
     </g>
    </g>
    <g id="xtick_5">
     <g id="line2d_9">
      <path d="M 273.837067 173.085197 
L 273.837067 5.12 
" clip-path="url(#p128ec3c321)" style="fill: none; stroke-dasharray: 0.925,0.4; stroke-dashoffset: 0; stroke: #404040; stroke-opacity: 0.5; stroke-width: 0.25"/>
     </g>
     <g id="line2d_10">
      <g>
       <use xlink:href="#ma4ece15850" x="273.837067" y="173.085197" style="stroke: #000000; stroke-width: 0.5"/>
      </g>
     </g>
     <g id="text_5">
      <!-- 168 -->
      <g transform="translate(266.202067 182.663947) scale(0.08 -0.08)">
       <defs>
        <path id="DejaVuSans-38" d="M 2034 2216 
Q 1584 2216 1326 1975 
Q 1069 1734 1069 1313 
Q 1069 891 1326 650 
Q 1584 409 2034 409 
Q 2484 409 2743 651 
Q 3003 894 3003 1313 
Q 3003 1734 2745 1975 
Q 2488 2216 2034 2216 
z
M 1403 2484 
Q 997 2584 770 2862 
Q 544 3141 544 3541 
Q 544 4100 942 4425 
Q 1341 4750 2034 4750 
Q 2731 4750 3128 4425 
Q 3525 4100 3525 3541 
Q 3525 3141 3298 2862 
Q 3072 2584 2669 2484 
Q 3125 2378 3379 2068 
Q 3634 1759 3634 1313 
Q 3634 634 3220 271 
Q 2806 -91 2034 -91 
Q 1263 -91 848 271 
Q 434 634 434 1313 
Q 434 1759 690 2068 
Q 947 2378 1403 2484 
z
M 1172 3481 
Q 1172 3119 1398 2916 
Q 1625 2713 2034 2713 
Q 2441 2713 2670 2916 
Q 2900 3119 2900 3481 
Q 2900 3844 2670 4047 
Q 2441 4250 2034 4250 
Q 1625 4250 1398 4047 
Q 1172 3844 1172 3481 
z
" transform="scale(0.015625)"/>
       </defs>
       <use xlink:href="#DejaVuSans-31"/>
       <use xlink:href="#DejaVuSans-36" x="63.623047"/>
       <use xlink:href="#DejaVuSans-38" x="127.246094"/>
      </g>
     </g>
    </g>
    <g id="xtick_6">
     <g id="line2d_11">
      <defs>
       <path id="m4ed47842ac" d="M 0 0 
L 0 -2 
" style="stroke: #000000; stroke-width: 0.35"/>
      </defs>
      <g>
       <use xlink:href="#m4ed47842ac" x="62.043258" y="173.085197" style="stroke: #000000; stroke-width: 0.35"/>
      </g>
     </g>
    </g>
    <g id="xtick_7">
     <g id="line2d_12">
      <g>
       <use xlink:href="#m4ed47842ac" x="122.555775" y="173.085197" style="stroke: #000000; stroke-width: 0.35"/>
      </g>
     </g>
    </g>
    <g id="xtick_8">
     <g id="line2d_13">
      <g>
       <use xlink:href="#m4ed47842ac" x="183.068292" y="173.085197" style="stroke: #000000; stroke-width: 0.35"/>
      </g>
     </g>
    </g>
    <g id="xtick_9">
     <g id="line2d_14">
      <g>
       <use xlink:href="#m4ed47842ac" x="243.580809" y="173.085197" style="stroke: #000000; stroke-width: 0.35"/>
      </g>
     </g>
    </g>
    <g id="text_6">
     <!-- Hour [h] -->
     <g transform="translate(136.249533 194.406447) scale(0.08 -0.08)">
      <defs>
       <path id="DejaVuSans-48" d="M 628 4666 
L 1259 4666 
L 1259 2753 
L 3553 2753 
L 3553 4666 
L 4184 4666 
L 4184 0 
L 3553 0 
L 3553 2222 
L 1259 2222 
L 1259 0 
L 628 0 
L 628 4666 
z
" transform="scale(0.015625)"/>
       <path id="DejaVuSans-6f" d="M 1959 3097 
Q 1497 3097 1228 2736 
Q 959 2375 959 1747 
Q 959 1119 1226 758 
Q 1494 397 1959 397 
Q 2419 397 2687 759 
Q 2956 1122 2956 1747 
Q 2956 2369 2687 2733 
Q 2419 3097 1959 3097 
z
M 1959 3584 
Q 2709 3584 3137 3096 
Q 3566 2609 3566 1747 
Q 3566 888 3137 398 
Q 2709 -91 1959 -91 
Q 1206 -91 779 398 
Q 353 888 353 1747 
Q 353 2609 779 3096 
Q 1206 3584 1959 3584 
z
" transform="scale(0.015625)"/>
       <path id="DejaVuSans-75" d="M 544 1381 
L 544 3500 
L 1119 3500 
L 1119 1403 
Q 1119 906 1312 657 
Q 1506 409 1894 409 
Q 2359 409 2629 706 
Q 2900 1003 2900 1516 
L 2900 3500 
L 3475 3500 
L 3475 0 
L 2900 0 
L 2900 538 
Q 2691 219 2414 64 
Q 2138 -91 1772 -91 
Q 1169 -91 856 284 
Q 544 659 544 1381 
z
M 1991 3584 
L 1991 3584 
z
" transform="scale(0.015625)"/>
       <path id="DejaVuSans-72" d="M 2631 2963 
Q 2534 3019 2420 3045 
Q 2306 3072 2169 3072 
Q 1681 3072 1420 2755 
Q 1159 2438 1159 1844 
L 1159 0 
L 581 0 
L 581 3500 
L 1159 3500 
L 1159 2956 
Q 1341 3275 1631 3429 
Q 1922 3584 2338 3584 
Q 2397 3584 2469 3576 
Q 2541 3569 2628 3553 
L 2631 2963 
z
" transform="scale(0.015625)"/>
       <path id="DejaVuSans-20" transform="scale(0.015625)"/>
       <path id="DejaVuSans-5b" d="M 550 4863 
L 1875 4863 
L 1875 4416 
L 1125 4416 
L 1125 -397 
L 1875 -397 
L 1875 -844 
L 550 -844 
L 550 4863 
z
" transform="scale(0.015625)"/>
       <path id="DejaVuSans-68" d="M 3513 2113 
L 3513 0 
L 2938 0 
L 2938 2094 
Q 2938 2591 2744 2837 
Q 2550 3084 2163 3084 
Q 1697 3084 1428 2787 
Q 1159 2491 1159 1978 
L 1159 0 
L 581 0 
L 581 4863 
L 1159 4863 
L 1159 2956 
Q 1366 3272 1645 3428 
Q 1925 3584 2291 3584 
Q 2894 3584 3203 3211 
Q 3513 2838 3513 2113 
z
" transform="scale(0.015625)"/>
       <path id="DejaVuSans-5d" d="M 1947 4863 
L 1947 -844 
L 622 -844 
L 622 -397 
L 1369 -397 
L 1369 4416 
L 622 4416 
L 622 4863 
L 1947 4863 
z
" transform="scale(0.015625)"/>
      </defs>
      <use xlink:href="#DejaVuSans-48"/>
      <use xlink:href="#DejaVuSans-6f" x="75.195312"/>
      <use xlink:href="#DejaVuSans-75" x="136.376953"/>
      <use xlink:href="#DejaVuSans-72" x="199.755859"/>
      <use xlink:href="#DejaVuSans-20" x="240.869141"/>
      <use xlink:href="#DejaVuSans-5b" x="272.65625"/>
      <use xlink:href="#DejaVuSans-68" x="311.669922"/>
      <use xlink:href="#DejaVuSans-5d" x="375.048828"/>
     </g>
    </g>
   </g>
   <g id="matplotlib.axis_2">
    <g id="ytick_1">
     <g id="line2d_15">
      <path d="M 31.787 168.457306 
L 273.837067 168.457306 
" clip-path="url(#p128ec3c321)" style="fill: none; stroke-dasharray: 0.925,0.4; stroke-dashoffset: 0; stroke: #404040; stroke-opacity: 0.5; stroke-width: 0.25"/>
     </g>
     <g id="line2d_16">
      <defs>
       <path id="m3c66116784" d="M 0 0 
L 3.5 0 
" style="stroke: #000000; stroke-width: 0.5"/>
      </defs>
      <g>
       <use xlink:href="#m3c66116784" x="31.787" y="168.457306" style="stroke: #000000; stroke-width: 0.5"/>
      </g>
     </g>
     <g id="text_7">
      <!-- 0.0 -->
      <g transform="translate(15.5645 171.496681) scale(0.08 -0.08)">
       <defs>
        <path id="DejaVuSans-2e" d="M 684 794 
L 1344 794 
L 1344 0 
L 684 0 
L 684 794 
z
" transform="scale(0.015625)"/>
       </defs>
       <use xlink:href="#DejaVuSans-30"/>
       <use xlink:href="#DejaVuSans-2e" x="63.623047"/>
       <use xlink:href="#DejaVuSans-30" x="95.410156"/>
      </g>
     </g>
    </g>
    <g id="ytick_2">
     <g id="line2d_17">
      <path d="M 31.787 141.234422 
L 273.837067 141.234422 
" clip-path="url(#p128ec3c321)" style="fill: none; stroke-dasharray: 0.925,0.4; stroke-dashoffset: 0; stroke: #404040; stroke-opacity: 0.5; stroke-width: 0.25"/>
     </g>
     <g id="line2d_18">
      <g>
       <use xlink:href="#m3c66116784" x="31.787" y="141.234422" style="stroke: #000000; stroke-width: 0.5"/>
      </g>
     </g>
     <g id="text_8">
      <!-- 0.5 -->
      <g transform="translate(15.5645 144.273797) scale(0.08 -0.08)">
       <use xlink:href="#DejaVuSans-30"/>
       <use xlink:href="#DejaVuSans-2e" x="63.623047"/>
       <use xlink:href="#DejaVuSans-35" x="95.410156"/>
      </g>
     </g>
    </g>
    <g id="ytick_3">
     <g id="line2d_19">
      <path d="M 31.787 114.011538 
L 273.837067 114.011538 
" clip-path="url(#p128ec3c321)" style="fill: none; stroke-dasharray: 0.925,0.4; stroke-dashoffset: 0; stroke: #404040; stroke-opacity: 0.5; stroke-width: 0.25"/>
     </g>
     <g id="line2d_20">
      <g>
       <use xlink:href="#m3c66116784" x="31.787" y="114.011538" style="stroke: #000000; stroke-width: 0.5"/>
      </g>
     </g>
     <g id="text_9">
      <!-- 1.0 -->
      <g transform="translate(15.5645 117.050913) scale(0.08 -0.08)">
       <use xlink:href="#DejaVuSans-31"/>
       <use xlink:href="#DejaVuSans-2e" x="63.623047"/>
       <use xlink:href="#DejaVuSans-30" x="95.410156"/>
      </g>
     </g>
    </g>
    <g id="ytick_4">
     <g id="line2d_21">
      <path d="M 31.787 86.788653 
L 273.837067 86.788653 
" clip-path="url(#p128ec3c321)" style="fill: none; stroke-dasharray: 0.925,0.4; stroke-dashoffset: 0; stroke: #404040; stroke-opacity: 0.5; stroke-width: 0.25"/>
     </g>
     <g id="line2d_22">
      <g>
       <use xlink:href="#m3c66116784" x="31.787" y="86.788653" style="stroke: #000000; stroke-width: 0.5"/>
      </g>
     </g>
     <g id="text_10">
      <!-- 1.5 -->
      <g transform="translate(15.5645 89.828028) scale(0.08 -0.08)">
       <use xlink:href="#DejaVuSans-31"/>
       <use xlink:href="#DejaVuSans-2e" x="63.623047"/>
       <use xlink:href="#DejaVuSans-35" x="95.410156"/>
      </g>
     </g>
    </g>
    <g id="ytick_5">
     <g id="line2d_23">
      <path d="M 31.787 59.565769 
L 273.837067 59.565769 
" clip-path="url(#p128ec3c321)" style="fill: none; stroke-dasharray: 0.925,0.4; stroke-dashoffset: 0; stroke: #404040; stroke-opacity: 0.5; stroke-width: 0.25"/>
     </g>
     <g id="line2d_24">
      <g>
       <use xlink:href="#m3c66116784" x="31.787" y="59.565769" style="stroke: #000000; stroke-width: 0.5"/>
      </g>
     </g>
     <g id="text_11">
      <!-- 2.0 -->
      <g transform="translate(15.5645 62.605144) scale(0.08 -0.08)">
       <use xlink:href="#DejaVuSans-32"/>
       <use xlink:href="#DejaVuSans-2e" x="63.623047"/>
       <use xlink:href="#DejaVuSans-30" x="95.410156"/>
      </g>
     </g>
    </g>
    <g id="ytick_6">
     <g id="line2d_25">
      <path d="M 31.787 32.342884 
L 273.837067 32.342884 
" clip-path="url(#p128ec3c321)" style="fill: none; stroke-dasharray: 0.925,0.4; stroke-dashoffset: 0; stroke: #404040; stroke-opacity: 0.5; stroke-width: 0.25"/>
     </g>
     <g id="line2d_26">
      <g>
       <use xlink:href="#m3c66116784" x="31.787" y="32.342884" style="stroke: #000000; stroke-width: 0.5"/>
      </g>
     </g>
     <g id="text_12">
      <!-- 2.5 -->
      <g transform="translate(15.5645 35.382259) scale(0.08 -0.08)">
       <use xlink:href="#DejaVuSans-32"/>
       <use xlink:href="#DejaVuSans-2e" x="63.623047"/>
       <use xlink:href="#DejaVuSans-35" x="95.410156"/>
      </g>
     </g>
    </g>
    <g id="ytick_7">
     <g id="line2d_27">
      <path d="M 31.787 5.12 
L 273.837067 5.12 
" clip-path="url(#p128ec3c321)" style="fill: none; stroke-dasharray: 0.925,0.4; stroke-dashoffset: 0; stroke: #404040; stroke-opacity: 0.5; stroke-width: 0.25"/>
     </g>
     <g id="line2d_28">
      <g>
       <use xlink:href="#m3c66116784" x="31.787" y="5.12" style="stroke: #000000; stroke-width: 0.5"/>
      </g>
     </g>
     <g id="text_13">
      <!-- 3.0 -->
      <g transform="translate(15.5645 8.159375) scale(0.08 -0.08)">
       <use xlink:href="#DejaVuSans-33"/>
       <use xlink:href="#DejaVuSans-2e" x="63.623047"/>
       <use xlink:href="#DejaVuSans-30" x="95.410156"/>
      </g>
     </g>
    </g>
    <g id="ytick_8">
     <g id="line2d_29">
      <defs>
       <path id="m28c9b2198a" d="M 0 0 
L 2 0 
" style="stroke: #000000; stroke-width: 0.35"/>
      </defs>
      <g>
       <use xlink:href="#m28c9b2198a" x="31.787" y="163.01273" style="stroke: #000000; stroke-width: 0.35"/>
      </g>
     </g>
    </g>
    <g id="ytick_9">
     <g id="line2d_30">
      <g>
       <use xlink:href="#m28c9b2198a" x="31.787" y="157.568153" style="stroke: #000000; stroke-width: 0.35"/>
      </g>
     </g>
    </g>
    <g id="ytick_10">
     <g id="line2d_31">
      <g>
       <use xlink:href="#m28c9b2198a" x="31.787" y="152.123576" style="stroke: #000000; stroke-width: 0.35"/>
      </g>
     </g>
    </g>
    <g id="ytick_11">
     <g id="line2d_32">
      <g>
       <use xlink:href="#m28c9b2198a" x="31.787" y="146.678999" style="stroke: #000000; stroke-width: 0.35"/>
      </g>
     </g>
    </g>
    <g id="ytick_12">
     <g id="line2d_33">
      <g>
       <use xlink:href="#m28c9b2198a" x="31.787" y="135.789845" style="stroke: #000000; stroke-width: 0.35"/>
      </g>
     </g>
    </g>
    <g id="ytick_13">
     <g id="line2d_34">
      <g>
       <use xlink:href="#m28c9b2198a" x="31.787" y="130.345268" style="stroke: #000000; stroke-width: 0.35"/>
      </g>
     </g>
    </g>
    <g id="ytick_14">
     <g id="line2d_35">
      <g>
       <use xlink:href="#m28c9b2198a" x="31.787" y="124.900691" style="stroke: #000000; stroke-width: 0.35"/>
      </g>
     </g>
    </g>
    <g id="ytick_15">
     <g id="line2d_36">
      <g>
       <use xlink:href="#m28c9b2198a" x="31.787" y="119.456115" style="stroke: #000000; stroke-width: 0.35"/>
      </g>
     </g>
    </g>
    <g id="ytick_16">
     <g id="line2d_37">
      <g>
       <use xlink:href="#m28c9b2198a" x="31.787" y="108.566961" style="stroke: #000000; stroke-width: 0.35"/>
      </g>
     </g>
    </g>
    <g id="ytick_17">
     <g id="line2d_38">
      <g>
       <use xlink:href="#m28c9b2198a" x="31.787" y="103.122384" style="stroke: #000000; stroke-width: 0.35"/>
      </g>
     </g>
    </g>
    <g id="ytick_18">
     <g id="line2d_39">
      <g>
       <use xlink:href="#m28c9b2198a" x="31.787" y="97.677807" style="stroke: #000000; stroke-width: 0.35"/>
      </g>
     </g>
    </g>
    <g id="ytick_19">
     <g id="line2d_40">
      <g>
       <use xlink:href="#m28c9b2198a" x="31.787" y="92.23323" style="stroke: #000000; stroke-width: 0.35"/>
      </g>
     </g>
    </g>
    <g id="ytick_20">
     <g id="line2d_41">
      <g>
       <use xlink:href="#m28c9b2198a" x="31.787" y="81.344076" style="stroke: #000000; stroke-width: 0.35"/>
      </g>
     </g>
    </g>
    <g id="ytick_21">
     <g id="line2d_42">
      <g>
       <use xlink:href="#m28c9b2198a" x="31.787" y="75.899499" style="stroke: #000000; stroke-width: 0.35"/>
      </g>
     </g>
    </g>
    <g id="ytick_22">
     <g id="line2d_43">
      <g>
       <use xlink:href="#m28c9b2198a" x="31.787" y="70.454923" style="stroke: #000000; stroke-width: 0.35"/>
      </g>
     </g>
    </g>
    <g id="ytick_23">
     <g id="line2d_44">
      <g>
       <use xlink:href="#m28c9b2198a" x="31.787" y="65.010346" style="stroke: #000000; stroke-width: 0.35"/>
      </g>
     </g>
    </g>
    <g id="ytick_24">
     <g id="line2d_45">
      <g>
       <use xlink:href="#m28c9b2198a" x="31.787" y="54.121192" style="stroke: #000000; stroke-width: 0.35"/>
      </g>
     </g>
    </g>
    <g id="ytick_25">
     <g id="line2d_46">
      <g>
       <use xlink:href="#m28c9b2198a" x="31.787" y="48.676615" style="stroke: #000000; stroke-width: 0.35"/>
      </g>
     </g>
    </g>
    <g id="ytick_26">
     <g id="line2d_47">
      <g>
       <use xlink:href="#m28c9b2198a" x="31.787" y="43.232038" style="stroke: #000000; stroke-width: 0.35"/>
      </g>
     </g>
    </g>
    <g id="ytick_27">
     <g id="line2d_48">
      <g>
       <use xlink:href="#m28c9b2198a" x="31.787" y="37.787461" style="stroke: #000000; stroke-width: 0.35"/>
      </g>
     </g>
    </g>
    <g id="ytick_28">
     <g id="line2d_49">
      <g>
       <use xlink:href="#m28c9b2198a" x="31.787" y="26.898308" style="stroke: #000000; stroke-width: 0.35"/>
      </g>
     </g>
    </g>
    <g id="ytick_29">
     <g id="line2d_50">
      <g>
       <use xlink:href="#m28c9b2198a" x="31.787" y="21.453731" style="stroke: #000000; stroke-width: 0.35"/>
      </g>
     </g>
    </g>
    <g id="ytick_30">
     <g id="line2d_51">
      <g>
       <use xlink:href="#m28c9b2198a" x="31.787" y="16.009154" style="stroke: #000000; stroke-width: 0.35"/>
      </g>
     </g>
    </g>
    <g id="ytick_31">
     <g id="line2d_52">
      <g>
       <use xlink:href="#m28c9b2198a" x="31.787" y="10.564577" style="stroke: #000000; stroke-width: 0.35"/>
      </g>
     </g>
    </g>
    <g id="text_14">
     <!-- Exergy consumption$~\mathrm{[W/m^2]}$ -->
     <g transform="translate(9.8845 145.742598) rotate(-90) scale(0.08 -0.08)">
      <defs>
       <path id="DejaVuSans-45" d="M 628 4666 
L 3578 4666 
L 3578 4134 
L 1259 4134 
L 1259 2753 
L 3481 2753 
L 3481 2222 
L 1259 2222 
L 1259 531 
L 3634 531 
L 3634 0 
L 628 0 
L 628 4666 
z
" transform="scale(0.015625)"/>
       <path id="DejaVuSans-78" d="M 3513 3500 
L 2247 1797 
L 3578 0 
L 2900 0 
L 1881 1375 
L 863 0 
L 184 0 
L 1544 1831 
L 300 3500 
L 978 3500 
L 1906 2253 
L 2834 3500 
L 3513 3500 
z
" transform="scale(0.015625)"/>
       <path id="DejaVuSans-65" d="M 3597 1894 
L 3597 1613 
L 953 1613 
Q 991 1019 1311 708 
Q 1631 397 2203 397 
Q 2534 397 2845 478 
Q 3156 559 3463 722 
L 3463 178 
Q 3153 47 2828 -22 
Q 2503 -91 2169 -91 
Q 1331 -91 842 396 
Q 353 884 353 1716 
Q 353 2575 817 3079 
Q 1281 3584 2069 3584 
Q 2775 3584 3186 3129 
Q 3597 2675 3597 1894 
z
M 3022 2063 
Q 3016 2534 2758 2815 
Q 2500 3097 2075 3097 
Q 1594 3097 1305 2825 
Q 1016 2553 972 2059 
L 3022 2063 
z
" transform="scale(0.015625)"/>
       <path id="DejaVuSans-67" d="M 2906 1791 
Q 2906 2416 2648 2759 
Q 2391 3103 1925 3103 
Q 1463 3103 1205 2759 
Q 947 2416 947 1791 
Q 947 1169 1205 825 
Q 1463 481 1925 481 
Q 2391 481 2648 825 
Q 2906 1169 2906 1791 
z
M 3481 434 
Q 3481 -459 3084 -895 
Q 2688 -1331 1869 -1331 
Q 1566 -1331 1297 -1286 
Q 1028 -1241 775 -1147 
L 775 -588 
Q 1028 -725 1275 -790 
Q 1522 -856 1778 -856 
Q 2344 -856 2625 -561 
Q 2906 -266 2906 331 
L 2906 616 
Q 2728 306 2450 153 
Q 2172 0 1784 0 
Q 1141 0 747 490 
Q 353 981 353 1791 
Q 353 2603 747 3093 
Q 1141 3584 1784 3584 
Q 2172 3584 2450 3431 
Q 2728 3278 2906 2969 
L 2906 3500 
L 3481 3500 
L 3481 434 
z
" transform="scale(0.015625)"/>
       <path id="DejaVuSans-79" d="M 2059 -325 
Q 1816 -950 1584 -1140 
Q 1353 -1331 966 -1331 
L 506 -1331 
L 506 -850 
L 844 -850 
Q 1081 -850 1212 -737 
Q 1344 -625 1503 -206 
L 1606 56 
L 191 3500 
L 800 3500 
L 1894 763 
L 2988 3500 
L 3597 3500 
L 2059 -325 
z
" transform="scale(0.015625)"/>
       <path id="DejaVuSans-63" d="M 3122 3366 
L 3122 2828 
Q 2878 2963 2633 3030 
Q 2388 3097 2138 3097 
Q 1578 3097 1268 2742 
Q 959 2388 959 1747 
Q 959 1106 1268 751 
Q 1578 397 2138 397 
Q 2388 397 2633 464 
Q 2878 531 3122 666 
L 3122 134 
Q 2881 22 2623 -34 
Q 2366 -91 2075 -91 
Q 1284 -91 818 406 
Q 353 903 353 1747 
Q 353 2603 823 3093 
Q 1294 3584 2113 3584 
Q 2378 3584 2631 3529 
Q 2884 3475 3122 3366 
z
" transform="scale(0.015625)"/>
       <path id="DejaVuSans-6e" d="M 3513 2113 
L 3513 0 
L 2938 0 
L 2938 2094 
Q 2938 2591 2744 2837 
Q 2550 3084 2163 3084 
Q 1697 3084 1428 2787 
Q 1159 2491 1159 1978 
L 1159 0 
L 581 0 
L 581 3500 
L 1159 3500 
L 1159 2956 
Q 1366 3272 1645 3428 
Q 1925 3584 2291 3584 
Q 2894 3584 3203 3211 
Q 3513 2838 3513 2113 
z
" transform="scale(0.015625)"/>
       <path id="DejaVuSans-73" d="M 2834 3397 
L 2834 2853 
Q 2591 2978 2328 3040 
Q 2066 3103 1784 3103 
Q 1356 3103 1142 2972 
Q 928 2841 928 2578 
Q 928 2378 1081 2264 
Q 1234 2150 1697 2047 
L 1894 2003 
Q 2506 1872 2764 1633 
Q 3022 1394 3022 966 
Q 3022 478 2636 193 
Q 2250 -91 1575 -91 
Q 1294 -91 989 -36 
Q 684 19 347 128 
L 347 722 
Q 666 556 975 473 
Q 1284 391 1588 391 
Q 1994 391 2212 530 
Q 2431 669 2431 922 
Q 2431 1156 2273 1281 
Q 2116 1406 1581 1522 
L 1381 1569 
Q 847 1681 609 1914 
Q 372 2147 372 2553 
Q 372 3047 722 3315 
Q 1072 3584 1716 3584 
Q 2034 3584 2315 3537 
Q 2597 3491 2834 3397 
z
" transform="scale(0.015625)"/>
       <path id="DejaVuSans-6d" d="M 3328 2828 
Q 3544 3216 3844 3400 
Q 4144 3584 4550 3584 
Q 5097 3584 5394 3201 
Q 5691 2819 5691 2113 
L 5691 0 
L 5113 0 
L 5113 2094 
Q 5113 2597 4934 2840 
Q 4756 3084 4391 3084 
Q 3944 3084 3684 2787 
Q 3425 2491 3425 1978 
L 3425 0 
L 2847 0 
L 2847 2094 
Q 2847 2600 2669 2842 
Q 2491 3084 2119 3084 
Q 1678 3084 1418 2786 
Q 1159 2488 1159 1978 
L 1159 0 
L 581 0 
L 581 3500 
L 1159 3500 
L 1159 2956 
Q 1356 3278 1631 3431 
Q 1906 3584 2284 3584 
Q 2666 3584 2933 3390 
Q 3200 3197 3328 2828 
z
" transform="scale(0.015625)"/>
       <path id="DejaVuSans-70" d="M 1159 525 
L 1159 -1331 
L 581 -1331 
L 581 3500 
L 1159 3500 
L 1159 2969 
Q 1341 3281 1617 3432 
Q 1894 3584 2278 3584 
Q 2916 3584 3314 3078 
Q 3713 2572 3713 1747 
Q 3713 922 3314 415 
Q 2916 -91 2278 -91 
Q 1894 -91 1617 61 
Q 1341 213 1159 525 
z
M 3116 1747 
Q 3116 2381 2855 2742 
Q 2594 3103 2138 3103 
Q 1681 3103 1420 2742 
Q 1159 2381 1159 1747 
Q 1159 1113 1420 752 
Q 1681 391 2138 391 
Q 2594 391 2855 752 
Q 3116 1113 3116 1747 
z
" transform="scale(0.015625)"/>
       <path id="DejaVuSans-74" d="M 1172 4494 
L 1172 3500 
L 2356 3500 
L 2356 3053 
L 1172 3053 
L 1172 1153 
Q 1172 725 1289 603 
Q 1406 481 1766 481 
L 2356 481 
L 2356 0 
L 1766 0 
Q 1100 0 847 248 
Q 594 497 594 1153 
L 594 3053 
L 172 3053 
L 172 3500 
L 594 3500 
L 594 4494 
L 1172 4494 
z
" transform="scale(0.015625)"/>
       <path id="DejaVuSans-69" d="M 603 3500 
L 1178 3500 
L 1178 0 
L 603 0 
L 603 3500 
z
M 603 4863 
L 1178 4863 
L 1178 4134 
L 603 4134 
L 603 4863 
z
" transform="scale(0.015625)"/>
       <path id="DejaVuSans-57" d="M 213 4666 
L 850 4666 
L 1831 722 
L 2809 4666 
L 3519 4666 
L 4500 722 
L 5478 4666 
L 6119 4666 
L 4947 0 
L 4153 0 
L 3169 4050 
L 2175 0 
L 1381 0 
L 213 4666 
z
" transform="scale(0.015625)"/>
       <path id="DejaVuSans-2f" d="M 1625 4666 
L 2156 4666 
L 531 -594 
L 0 -594 
L 1625 4666 
z
" transform="scale(0.015625)"/>
      </defs>
      <use xlink:href="#DejaVuSans-45" transform="translate(0 0.765625)"/>
      <use xlink:href="#DejaVuSans-78" transform="translate(63.183594 0.765625)"/>
      <use xlink:href="#DejaVuSans-65" transform="translate(122.363281 0.765625)"/>
      <use xlink:href="#DejaVuSans-72" transform="translate(183.886719 0.765625)"/>
      <use xlink:href="#DejaVuSans-67" transform="translate(225 0.765625)"/>
      <use xlink:href="#DejaVuSans-79" transform="translate(288.476562 0.765625)"/>
      <use xlink:href="#DejaVuSans-20" transform="translate(347.65625 0.765625)"/>
      <use xlink:href="#DejaVuSans-63" transform="translate(379.443359 0.765625)"/>
      <use xlink:href="#DejaVuSans-6f" transform="translate(434.423828 0.765625)"/>
      <use xlink:href="#DejaVuSans-6e" transform="translate(495.605469 0.765625)"/>
      <use xlink:href="#DejaVuSans-73" transform="translate(558.984375 0.765625)"/>
      <use xlink:href="#DejaVuSans-75" transform="translate(611.083984 0.765625)"/>
      <use xlink:href="#DejaVuSans-6d" transform="translate(674.462891 0.765625)"/>
      <use xlink:href="#DejaVuSans-70" transform="translate(771.875 0.765625)"/>
      <use xlink:href="#DejaVuSans-74" transform="translate(835.351562 0.765625)"/>
      <use xlink:href="#DejaVuSans-69" transform="translate(874.560547 0.765625)"/>
      <use xlink:href="#DejaVuSans-6f" transform="translate(902.34375 0.765625)"/>
      <use xlink:href="#DejaVuSans-6e" transform="translate(963.525391 0.765625)"/>
      <use xlink:href="#DejaVuSans-5b" transform="translate(1059.374675 0.765625)"/>
      <use xlink:href="#DejaVuSans-57" transform="translate(1098.388347 0.765625)"/>
      <use xlink:href="#DejaVuSans-2f" transform="translate(1197.2653 0.765625)"/>
      <use xlink:href="#DejaVuSans-6d" transform="translate(1230.956707 0.765625)"/>
      <use xlink:href="#DejaVuSans-32" transform="translate(1329.325847 39.046875) scale(0.7)"/>
      <use xlink:href="#DejaVuSans-5d" transform="translate(1376.596355 0.765625)"/>
     </g>
    </g>
   </g>
   <g id="line2d_53">
    <path d="M 31.772992 153.484946 
L 37.698176 161.168781 
L 39.953388 163.691075 
L 41.816389 165.455747 
L 43.45527 166.712104 
L 44.940068 167.57669 
L 46.312806 168.123148 
L 47.601498 168.401832 
L 48.848168 168.447623 
L 50.094838 168.269325 
L 51.355515 167.860701 
L 52.658215 167.200701 
L 54.04496 166.241235 
L 55.529758 164.936483 
L 57.168639 163.191881 
L 59.03164 160.871952 
L 61.272844 157.706814 
L 62.491499 155.736117 
L 63.247906 152.144896 
L 64.522591 144.916176 
L 66.385592 132.969319 
L 73.599468 85.364143 
L 75.224341 76.767773 
L 76.625094 70.493633 
L 77.843749 65.994307 
L 78.922328 62.808392 
L 79.87484 60.641374 
L 80.715292 59.243597 
L 81.457691 58.413571 
L 82.116045 57.995358 
L 82.704361 57.873255 
L 83.278669 57.98116 
L 83.880993 58.332413 
L 84.539347 58.990459 
L 85.281746 60.067999 
L 86.122197 61.703322 
L 87.074709 64.066607 
L 88.167296 67.404146 
L 89.413966 71.961598 
L 90.870749 78.178685 
L 92.607682 86.627832 
L 94.834879 98.648693 
L 102.763139 142.485331 
L 104.542095 150.532554 
L 106.054908 156.388678 
L 107.371616 160.63561 
L 108.520233 163.633867 
L 109.542782 165.715802 
L 110.439264 167.068444 
L 111.237693 167.892412 
L 111.93807 168.315752 
L 112.582416 168.45637 
L 113.198747 168.367336 
L 113.843093 168.041139 
L 114.529462 167.433327 
L 115.299876 166.435069 
L 116.154335 164.944498 
L 117.120855 162.786576 
L 118.213442 159.769871 
L 119.446104 155.67667 
L 120.846857 150.217705 
L 122.485737 142.885934 
L 123.102069 140.458596 
L 123.564317 140.159436 
L 124.348739 139.956939 
L 128.677064 139.323471 
L 131.75872 138.999562 
L 133.901872 138.995819 
L 135.764873 139.210989 
L 137.515814 139.637084 
L 139.210725 140.280597 
L 140.905635 141.166145 
L 142.642569 142.330618 
L 144.463547 143.826148 
L 146.424601 145.731551 
L 148.63779 148.202498 
L 151.369258 151.606648 
L 160.067932 162.717334 
L 162.071009 164.766094 
L 163.793935 166.222557 
L 165.334763 167.243185 
L 166.749523 167.919778 
L 168.06623 168.309181 
L 169.326908 168.454988 
L 170.573578 168.375148 
L 171.820248 168.070537 
L 173.094933 167.528301 
L 174.439655 166.709423 
L 175.88243 165.561521 
L 177.451273 164.01946 
L 179.202214 161.976413 
L 181.247313 159.233384 
L 183.47451 155.906688 
L 184.188894 152.579368 
L 185.421556 145.674374 
L 187.228527 134.185526 
L 190.912507 108.910405 
L 193.517907 91.909403 
L 195.338886 81.423687 
L 196.865706 73.86845 
L 198.182413 68.414185 
L 199.345038 64.493162 
L 200.367588 61.776611 
L 201.278077 59.952328 
L 202.076506 58.820629 
L 202.776882 58.18984 
L 203.393214 57.914051 
L 203.967522 57.890906 
L 204.541831 58.091089 
L 205.158162 58.55091 
L 205.844531 59.355817 
L 206.628952 60.643623 
L 207.511426 62.544477 
L 208.519968 65.273653 
L 209.668586 69.055337 
L 210.985293 74.188019 
L 212.526121 81.12818 
L 214.40313 90.663307 
L 216.994522 105.087719 
L 222.541503 136.227164 
L 224.544579 146.046192 
L 226.197468 153.092134 
L 227.626235 158.251721 
L 228.872905 161.961367 
L 229.965492 164.557864 
L 230.932012 166.319307 
L 231.786471 167.444448 
L 232.542877 168.095478 
L 233.215239 168.399225 
L 233.845577 168.447871 
L 234.475916 168.26801 
L 235.13427 167.837197 
L 235.848654 167.091342 
L 236.647083 165.919891 
L 237.543564 164.189228 
L 238.552106 161.734829 
L 239.686716 158.363129 
L 240.975409 153.805401 
L 242.460206 147.69387 
L 244.239162 140.359702 
L 244.757441 140.098369 
L 245.765983 139.895039 
L 252.531618 139.014442 
L 254.716793 138.985302 
L 256.607809 139.179678 
L 258.35875 139.581818 
L 260.05366 140.200039 
L 261.734564 141.051039 
L 263.457489 142.175964 
L 265.26446 143.627356 
L 267.211507 145.484934 
L 269.396681 147.889607 
L 272.044103 151.154002 
L 273.823059 153.484946 
L 273.823059 153.484946 
" clip-path="url(#p128ec3c321)" style="fill: none; stroke: #180f0d; stroke-width: 0.75; stroke-linecap: square"/>
   </g>
   <g id="line2d_54">
    <path d="M 31.772992 159.253172 
L 35.933228 162.134536 
L 40.317584 165.092294 
L 42.824931 166.51598 
L 44.912053 167.452224 
L 46.775054 168.048994 
L 48.49798 168.371379 
L 50.150868 168.455283 
L 51.761734 168.314257 
L 53.372599 167.949079 
L 55.025487 167.343287 
L 56.762421 166.463864 
L 58.625422 165.264077 
L 60.698536 163.654879 
L 62.673597 161.857224 
L 63.205883 160.964187 
L 63.96229 159.217619 
L 64.984839 156.25246 
L 66.301547 151.700284 
L 68.03848 144.832526 
L 71.092121 131.670542 
L 74.201792 118.625561 
L 76.134831 111.448397 
L 77.731689 106.335919 
L 79.118434 102.611349 
L 80.337089 99.945297 
L 81.415668 98.088709 
L 82.382188 96.840504 
L 83.250654 96.060043 
L 84.049083 95.629322 
L 84.791482 95.474954 
L 85.519874 95.552177 
L 86.262273 95.860763 
L 87.046694 96.433912 
L 87.915161 97.356337 
L 88.88168 98.724803 
L 89.96026 100.654479 
L 91.178915 103.308142 
L 92.579667 106.915183 
L 94.218548 111.780151 
L 96.235632 118.50721 
L 99.177212 129.183912 
L 103.785689 145.862358 
L 105.914833 152.706862 
L 107.665774 157.61912 
L 109.164579 161.194215 
L 110.495294 163.818222 
L 111.671927 165.672542 
L 112.736499 166.954213 
L 113.68901 167.772032 
L 114.571485 168.247551 
L 115.397929 168.444871 
L 116.196358 168.407676 
L 117.008794 168.141539 
L 117.849246 167.627158 
L 118.759735 166.801432 
L 119.768277 165.571191 
L 120.888879 163.833097 
L 122.135549 161.470524 
L 123.788437 158.296594 
L 124.544844 157.54668 
L 125.525371 156.895784 
L 126.884101 156.275489 
L 128.943207 155.601361 
L 131.996848 154.845423 
L 134.938429 154.332863 
L 137.431769 154.118787 
L 139.672973 154.146957 
L 141.78811 154.39459 
L 143.861224 154.861244 
L 145.962353 155.564042 
L 148.161534 156.537441 
L 150.584837 157.860701 
L 153.484395 159.711836 
L 163.415731 166.290303 
L 165.558883 167.302215 
L 167.449899 167.955697 
L 169.20084 168.328862 
L 170.853728 168.456853 
L 172.464594 168.360346 
L 174.075459 168.040048 
L 175.71434 167.485147 
L 177.423258 166.668137 
L 179.258244 165.537359 
L 181.275328 164.024767 
L 183.558555 162.02627 
L 184.020804 161.357751 
L 184.693165 159.950582 
L 185.617662 157.458608 
L 186.822309 153.525582 
L 188.377145 147.636702 
L 190.674379 137.961522 
L 195.352893 118.129706 
L 197.257917 111.111299 
L 198.840767 106.090357 
L 200.213505 102.442314 
L 201.418152 99.837027 
L 202.496732 98.005528 
L 203.463251 96.780367 
L 204.331718 96.020847 
L 205.116139 95.614263 
L 205.858538 95.473276 
L 206.58693 95.563484 
L 207.329329 95.885083 
L 208.127758 96.484397 
L 208.996224 97.425986 
L 209.962744 98.814813 
L 211.055331 100.79379 
L 212.287993 103.508484 
L 213.702753 107.187941 
L 215.355642 112.134709 
L 217.400741 118.997678 
L 220.468389 130.172135 
L 224.7687 145.719431 
L 226.911851 152.622509 
L 228.662792 157.546469 
L 230.175605 161.16375 
L 231.50632 163.793457 
L 232.682953 165.653136 
L 233.747525 166.93985 
L 234.714044 167.772032 
L 235.596518 168.247551 
L 236.422962 168.444871 
L 237.221391 168.407676 
L 238.033828 168.141539 
L 238.874279 167.627158 
L 239.784769 166.801432 
L 240.793311 165.571191 
L 241.913913 163.833097 
L 243.160583 161.470524 
L 244.813471 158.296594 
L 245.569877 157.54668 
L 246.550404 156.895784 
L 247.909134 156.275489 
L 249.968241 155.601361 
L 253.021882 154.845423 
L 255.963462 154.332863 
L 258.456802 154.118787 
L 260.698007 154.146957 
L 262.813143 154.39459 
L 264.886257 154.861244 
L 266.987386 155.564042 
L 269.186568 156.537441 
L 271.60987 157.860701 
L 273.823059 159.253172 
L 273.823059 159.253172 
" clip-path="url(#p128ec3c321)" style="fill: none; stroke: #7a1514; stroke-width: 0.75; stroke-linecap: square"/>
   </g>
   <g id="line2d_55">
    <path d="M 31.772992 163.993193 
L 35.316897 164.919804 
L 46.186738 167.935354 
L 48.820153 168.326061 
L 51.201432 168.45693 
L 53.442637 168.358935 
L 55.641819 168.04008 
L 57.869015 167.489783 
L 60.194265 166.681375 
L 62.687605 165.574152 
L 63.514049 165.020189 
L 64.368508 164.159603 
L 65.363042 162.823792 
L 66.539675 160.851876 
L 67.98245 157.974035 
L 69.859458 153.695969 
L 73.095197 145.65984 
L 76.414981 137.624699 
L 78.46008 133.243099 
L 80.154991 130.116844 
L 81.625781 127.85008 
L 82.942489 126.211939 
L 84.133128 125.069905 
L 85.225716 124.316328 
L 86.248265 123.871346 
L 87.228792 123.682471 
L 88.195311 123.723094 
L 89.175838 123.991063 
L 90.198388 124.507823 
L 91.290975 125.317997 
L 92.481615 126.488842 
L 93.798322 128.108429 
L 95.28312 130.303139 
L 96.992038 133.243433 
L 99.065152 137.276713 
L 101.992725 143.510894 
L 107.287571 154.820776 
L 109.50076 158.984448 
L 111.335746 161.983021 
L 112.932604 164.185569 
L 114.375379 165.809802 
L 115.692087 166.966266 
L 116.910742 167.74698 
L 118.045351 168.217464 
L 119.137939 168.434804 
L 120.216518 168.423409 
L 121.309105 168.186578 
L 122.443715 167.70739 
L 126.351815 165.776066 
L 128.677064 165.154774 
L 133.397601 164.165659 
L 138.020085 163.390935 
L 141.423914 163.040927 
L 144.407517 162.954447 
L 147.251045 163.09404 
L 150.108581 163.459015 
L 153.162222 164.07809 
L 156.818186 165.058134 
L 166.65147 167.823758 
L 169.36893 168.273208 
L 171.778225 168.450089 
L 174.047444 168.394488 
L 176.246626 168.118333 
L 178.459815 167.61476 
L 180.75705 166.860153 
L 183.222375 165.811601 
L 184.384999 165.144249 
L 185.211443 164.366656 
L 186.177963 163.133352 
L 187.312573 161.306145 
L 188.699318 158.624561 
L 190.464266 154.693004 
L 193.167719 148.05534 
L 197.383984 137.752498 
L 199.443091 133.326927 
L 201.138002 130.187984 
L 202.6228 127.889061 
L 203.939507 126.242755 
L 205.130147 125.092967 
L 206.236742 124.324178 
L 207.259291 123.875731 
L 208.239818 123.683533 
L 209.206337 123.72091 
L 210.186864 123.98565 
L 211.209414 124.499143 
L 212.302001 125.305976 
L 213.492641 126.473396 
L 214.809348 128.089512 
L 216.294146 130.280765 
L 218.003064 133.21776 
L 220.076178 137.248106 
L 222.989744 143.449664 
L 228.326612 154.848678 
L 230.539801 159.00904 
L 232.374787 162.004074 
L 233.971645 164.20306 
L 235.41442 165.823774 
L 236.71712 166.966266 
L 237.935775 167.74698 
L 239.070385 168.217464 
L 240.162972 168.434804 
L 241.241552 168.423409 
L 242.334139 168.186578 
L 243.468748 167.70739 
L 247.376848 165.776066 
L 249.702098 165.154774 
L 254.422634 164.165659 
L 259.045118 163.390935 
L 262.448947 163.040927 
L 265.432551 162.954447 
L 268.276079 163.09404 
L 271.133614 163.459015 
L 273.823059 163.993193 
L 273.823059 163.993193 
" clip-path="url(#p128ec3c321)" style="fill: none; stroke: #ac2a1a; stroke-width: 0.75; stroke-linecap: square"/>
   </g>
   <g id="line2d_56">
    <path d="M 31.772992 167.139566 
L 36.353454 167.310984 
L 42.15257 167.770364 
L 50.164875 168.389077 
L 54.030953 168.449751 
L 57.420774 168.282777 
L 60.656513 167.900775 
L 63.584086 167.341285 
L 64.872779 166.869081 
L 66.175479 166.147031 
L 67.618254 165.084265 
L 69.28515 163.567548 
L 71.288226 161.428962 
L 73.991679 158.189604 
L 80.701284 150.019823 
L 82.900466 147.769646 
L 84.763467 146.169766 
L 86.44437 145.011768 
L 87.985198 144.213106 
L 89.441981 143.703316 
L 90.842734 143.445129 
L 92.229479 143.415778 
L 93.616224 143.609541 
L 95.044992 144.036217 
L 96.543797 144.719855 
L 98.154663 145.704929 
L 99.933619 147.062855 
L 101.950703 148.893065 
L 104.40202 151.433786 
L 108.14203 155.676001 
L 112.722491 160.798048 
L 115.243846 163.282161 
L 117.344975 165.051994 
L 119.221984 166.351817 
L 120.958917 167.290289 
L 122.597798 167.927582 
L 124.124618 168.288856 
L 125.805521 168.433255 
L 128.859162 168.438117 
L 133.747789 168.218468 
L 141.577997 167.604572 
L 147.979437 167.202865 
L 152.615928 167.137363 
L 157.182382 167.299389 
L 162.85543 167.741095 
L 171.273954 168.392758 
L 175.126024 168.448554 
L 178.501838 168.27806 
L 181.737577 167.892186 
L 184.637135 167.333497 
L 185.91182 166.862615 
L 187.21452 166.137983 
L 188.657295 165.072724 
L 190.324191 163.553676 
L 192.341275 161.397116 
L 195.058735 158.13732 
L 201.684295 150.066043 
L 203.883477 147.809223 
L 205.760486 146.19146 
L 207.441389 145.028677 
L 208.982217 144.22528 
L 210.439 143.710815 
L 211.839752 143.448042 
L 213.226498 143.414149 
L 214.613243 143.603451 
L 216.04201 144.025696 
L 217.540816 144.704954 
L 219.151681 145.685719 
L 220.91663 147.027805 
L 222.933714 148.852223 
L 225.371023 151.372756 
L 229.055003 155.546563 
L 233.747525 160.798048 
L 236.268879 163.282161 
L 238.370009 165.051994 
L 240.247017 166.351817 
L 241.98395 167.290289 
L 243.622831 167.927582 
L 245.149652 168.288856 
L 246.830555 168.433255 
L 249.884196 168.438117 
L 254.772823 168.218468 
L 262.60303 167.604572 
L 269.00447 167.202865 
L 273.640962 167.137363 
L 273.823059 167.139566 
L 273.823059 167.139566 
" clip-path="url(#p128ec3c321)" style="fill: none; stroke: #c46d1c; stroke-width: 0.75; stroke-linecap: square"/>
   </g>
   <g id="line2d_57">
    <path d="M 31.772992 168.427475 
L 46.901122 168.335912 
L 61.959213 168.394523 
L 65.741245 168.172259 
L 68.276608 167.787903 
L 70.741933 167.187656 
L 73.235272 166.349452 
L 75.882695 165.22062 
L 78.894313 163.686455 
L 83.082564 161.276571 
L 89.035763 157.874879 
L 91.935321 156.486161 
L 94.386638 155.551899 
L 96.613835 154.936066 
L 98.714964 154.58234 
L 100.760063 154.46247 
L 102.791154 154.566444 
L 104.864268 154.897728 
L 107.021428 155.470984 
L 109.346677 156.324716 
L 111.952077 157.526214 
L 115.131786 159.250558 
L 125.707469 165.196174 
L 127.962681 165.97022 
L 131.002314 166.769045 
L 134.518203 167.461929 
L 138.27222 167.97273 
L 142.348411 168.298737 
L 147.096962 168.447296 
L 153.862598 168.412342 
L 167.043681 168.326809 
L 183.684623 168.37188 
L 187.018414 168.144084 
L 189.539769 167.739866 
L 192.005094 167.11756 
L 194.512441 166.252126 
L 197.187879 165.088119 
L 200.269535 163.494358 
L 204.779959 160.877587 
L 210.032781 157.889514 
L 212.946347 156.492191 
L 215.397664 155.55651 
L 217.624861 154.939184 
L 219.72599 154.583934 
L 221.771089 154.462525 
L 223.80218 154.564971 
L 225.875294 154.894749 
L 228.032454 155.466551 
L 230.343696 156.313108 
L 232.949096 157.512127 
L 236.128804 159.234479 
L 246.760517 165.207258 
L 249.029737 165.982843 
L 252.083377 166.781878 
L 255.599267 167.471214 
L 259.353284 167.978725 
L 263.429474 168.301785 
L 268.192034 168.44807 
L 273.823059 168.427475 
L 273.823059 168.427475 
" clip-path="url(#p128ec3c321)" style="fill: none; stroke: #ffe100; stroke-width: 0.75; stroke-linecap: square"/>
   </g>
   <g id="patch_3">
    <path d="M 31.787 173.085197 
L 31.787 5.12 
" style="fill: none; stroke: #000000; stroke-width: 0.8; stroke-linejoin: miter; stroke-linecap: square"/>
   </g>
   <g id="patch_4">
    <path d="M 273.837067 173.085197 
L 273.837067 5.12 
" style="fill: none; stroke: #000000; stroke-width: 0.8; stroke-linejoin: miter; stroke-linecap: square"/>
   </g>
   <g id="patch_5">
    <path d="M 31.787 173.085197 
L 273.837067 173.085197 
" style="fill: none; stroke: #000000; stroke-width: 0.8; stroke-linejoin: miter; stroke-linecap: square"/>
   </g>
   <g id="patch_6">
    <path d="M 31.787 5.12 
L 273.837067 5.12 
" style="fill: none; stroke: #000000; stroke-width: 0.8; stroke-linejoin: miter; stroke-linecap: square"/>
   </g>
   <g id="legend_1">
    <g id="line2d_58">
     <path d="M 147.595316 14.658714 
L 159.595316 14.658714 
L 171.595316 14.658714 
" style="fill: none; stroke: #180f0d; stroke-width: 0.75; stroke-linecap: square"/>
    </g>
    <g id="text_15">
     <!-- x = 1 cm -->
     <g transform="translate(176.395316 16.758714) scale(0.06 -0.06)">
      <defs>
       <path id="DejaVuSans-3d" d="M 678 2906 
L 4684 2906 
L 4684 2381 
L 678 2381 
L 678 2906 
z
M 678 1631 
L 4684 1631 
L 4684 1100 
L 678 1100 
L 678 1631 
z
" transform="scale(0.015625)"/>
      </defs>
      <use xlink:href="#DejaVuSans-78"/>
      <use xlink:href="#DejaVuSans-20" x="59.179688"/>
      <use xlink:href="#DejaVuSans-3d" x="90.966797"/>
      <use xlink:href="#DejaVuSans-20" x="174.755859"/>
      <use xlink:href="#DejaVuSans-31" x="206.542969"/>
      <use xlink:href="#DejaVuSans-20" x="270.166016"/>
      <use xlink:href="#DejaVuSans-63" x="301.953125"/>
      <use xlink:href="#DejaVuSans-6d" x="356.933594"/>
     </g>
    </g>
    <g id="line2d_59">
     <path d="M 147.595316 25.265589 
L 159.595316 25.265589 
L 171.595316 25.265589 
" style="fill: none; stroke: #7a1514; stroke-width: 0.75; stroke-linecap: square"/>
    </g>
    <g id="text_16">
     <!-- x = 3 cm -->
     <g transform="translate(176.395316 27.365589) scale(0.06 -0.06)">
      <use xlink:href="#DejaVuSans-78"/>
      <use xlink:href="#DejaVuSans-20" x="59.179688"/>
      <use xlink:href="#DejaVuSans-3d" x="90.966797"/>
      <use xlink:href="#DejaVuSans-20" x="174.755859"/>
      <use xlink:href="#DejaVuSans-33" x="206.542969"/>
      <use xlink:href="#DejaVuSans-20" x="270.166016"/>
      <use xlink:href="#DejaVuSans-63" x="301.953125"/>
      <use xlink:href="#DejaVuSans-6d" x="356.933594"/>
     </g>
    </g>
    <g id="line2d_60">
     <path d="M 147.595316 35.872464 
L 159.595316 35.872464 
L 171.595316 35.872464 
" style="fill: none; stroke: #ac2a1a; stroke-width: 0.75; stroke-linecap: square"/>
    </g>
    <g id="text_17">
     <!-- x = 5 cm -->
     <g transform="translate(176.395316 37.972464) scale(0.06 -0.06)">
      <use xlink:href="#DejaVuSans-78"/>
      <use xlink:href="#DejaVuSans-20" x="59.179688"/>
      <use xlink:href="#DejaVuSans-3d" x="90.966797"/>
      <use xlink:href="#DejaVuSans-20" x="174.755859"/>
      <use xlink:href="#DejaVuSans-35" x="206.542969"/>
      <use xlink:href="#DejaVuSans-20" x="270.166016"/>
      <use xlink:href="#DejaVuSans-63" x="301.953125"/>
      <use xlink:href="#DejaVuSans-6d" x="356.933594"/>
     </g>
    </g>
    <g id="line2d_61">
     <path d="M 209.955941 14.658714 
L 221.955941 14.658714 
L 233.955941 14.658714 
" style="fill: none; stroke: #c46d1c; stroke-width: 0.75; stroke-linecap: square"/>
    </g>
    <g id="text_18">
     <!-- x = 7 cm -->
     <g transform="translate(238.755941 16.758714) scale(0.06 -0.06)">
      <defs>
       <path id="DejaVuSans-37" d="M 525 4666 
L 3525 4666 
L 3525 4397 
L 1831 0 
L 1172 0 
L 2766 4134 
L 525 4134 
L 525 4666 
z
" transform="scale(0.015625)"/>
      </defs>
      <use xlink:href="#DejaVuSans-78"/>
      <use xlink:href="#DejaVuSans-20" x="59.179688"/>
      <use xlink:href="#DejaVuSans-3d" x="90.966797"/>
      <use xlink:href="#DejaVuSans-20" x="174.755859"/>
      <use xlink:href="#DejaVuSans-37" x="206.542969"/>
      <use xlink:href="#DejaVuSans-20" x="270.166016"/>
      <use xlink:href="#DejaVuSans-63" x="301.953125"/>
      <use xlink:href="#DejaVuSans-6d" x="356.933594"/>
     </g>
    </g>
    <g id="line2d_62">
     <path d="M 209.955941 25.265589 
L 221.955941 25.265589 
L 233.955941 25.265589 
" style="fill: none; stroke: #ffe100; stroke-width: 0.75; stroke-linecap: square"/>
    </g>
    <g id="text_19">
     <!-- x = 9 cm -->
     <g transform="translate(238.755941 27.365589) scale(0.06 -0.06)">
      <defs>
       <path id="DejaVuSans-39" d="M 703 97 
L 703 672 
Q 941 559 1184 500 
Q 1428 441 1663 441 
Q 2288 441 2617 861 
Q 2947 1281 2994 2138 
Q 2813 1869 2534 1725 
Q 2256 1581 1919 1581 
Q 1219 1581 811 2004 
Q 403 2428 403 3163 
Q 403 3881 828 4315 
Q 1253 4750 1959 4750 
Q 2769 4750 3195 4129 
Q 3622 3509 3622 2328 
Q 3622 1225 3098 567 
Q 2575 -91 1691 -91 
Q 1453 -91 1209 -44 
Q 966 3 703 97 
z
M 1959 2075 
Q 2384 2075 2632 2365 
Q 2881 2656 2881 3163 
Q 2881 3666 2632 3958 
Q 2384 4250 1959 4250 
Q 1534 4250 1286 3958 
Q 1038 3666 1038 3163 
Q 1038 2656 1286 2365 
Q 1534 2075 1959 2075 
z
" transform="scale(0.015625)"/>
      </defs>
      <use xlink:href="#DejaVuSans-78"/>
      <use xlink:href="#DejaVuSans-20" x="59.179688"/>
      <use xlink:href="#DejaVuSans-3d" x="90.966797"/>
      <use xlink:href="#DejaVuSans-20" x="174.755859"/>
      <use xlink:href="#DejaVuSans-39" x="206.542969"/>
      <use xlink:href="#DejaVuSans-20" x="270.166016"/>
      <use xlink:href="#DejaVuSans-63" x="301.953125"/>
      <use xlink:href="#DejaVuSans-6d" x="356.933594"/>
     </g>
    </g>
   </g>
  </g>
 </g>
 <defs>
  <clipPath id="p128ec3c321">
   <rect x="31.787" y="5.12" width="242.050067" height="167.965197"/>
  </clipPath>
 </defs>
</svg>
