<?xml version="1.0" encoding="utf-8" standalone="no"?>
<!DOCTYPE svg PUBLIC "-//W3C//DTD SVG 1.1//EN"
  "http://www.w3.org/Graphics/SVG/1.1/DTD/svg11.dtd">
<svg xmlns:xlink="http://www.w3.org/1999/xlink" width="283.464567pt" height="198.425197pt" viewBox="0 0 283.464567 198.425197" xmlns="http://www.w3.org/2000/svg" version="1.1">
 <metadata>
  <rdf:RDF xmlns:dc="http://purl.org/dc/elements/1.1/" xmlns:cc="http://creativecommons.org/ns#" xmlns:rdf="http://www.w3.org/1999/02/22-rdf-syntax-ns#">
   <cc:Work>
    <dc:type rdf:resource="http://purl.org/dc/dcmitype/StillImage"/>
    <dc:date>2023-08-18T13:56:37.908367</dc:date>
    <dc:format>image/svg+xml</dc:format>
    <dc:creator>
     <cc:Agent>
      <dc:title>Matplotlib v3.7.1, https://matplotlib.org/</dc:title>
     </cc:Agent>
    </dc:creator>
   </cc:Work>
  </rdf:RDF>
 </metadata>
 <defs>
  <style type="text/css">*{stroke-linejoin: round; stroke-linecap: butt}</style>
 </defs>
 <g id="figure_1">
  <g id="patch_1">
   <path d="M 0 198.425197 
L 283.464567 198.425197 
L 283.464567 0 
L 0 0 
z
" style="fill: #ffffff"/>
  </g>
  <g id="axes_1">
   <g id="patch_2">
    <path d="M 40.34825 173.085197 
L 273.837067 173.085197 
L 273.837067 5.12 
L 40.34825 5.12 
z
" style="fill: #ffffff"/>
   </g>
   <g id="matplotlib.axis_1">
    <g id="xtick_1">
     <g id="line2d_1">
      <path d="M 40.34825 173.085197 
L 40.34825 5.12 
" clip-path="url(#p529fb52d99)" style="fill: none; stroke-dasharray: 0.925,0.4; stroke-dashoffset: 0; stroke: #404040; stroke-opacity: 0.5; stroke-width: 0.25"/>
     </g>
     <g id="line2d_2">
      <defs>
       <path id="m91cb5dfddf" d="M 0 0 
L 0 -3.5 
" style="stroke: #000000; stroke-width: 0.5"/>
      </defs>
      <g>
       <use xlink:href="#m91cb5dfddf" x="40.34825" y="173.085197" style="stroke: #000000; stroke-width: 0.5"/>
      </g>
     </g>
     <g id="text_1">
      <!-- 24 -->
      <g transform="translate(35.25825 182.663947) scale(0.08 -0.08)">
       <defs>
        <path id="DejaVuSans-32" d="M 1228 531 
L 3431 531 
L 3431 0 
L 469 0 
L 469 531 
Q 828 903 1448 1529 
Q 2069 2156 2228 2338 
Q 2531 2678 2651 2914 
Q 2772 3150 2772 3378 
Q 2772 3750 2511 3984 
Q 2250 4219 1831 4219 
Q 1534 4219 1204 4116 
Q 875 4013 500 3803 
L 500 4441 
Q 881 4594 1212 4672 
Q 1544 4750 1819 4750 
Q 2544 4750 2975 4387 
Q 3406 4025 3406 3419 
Q 3406 3131 3298 2873 
Q 3191 2616 2906 2266 
Q 2828 2175 2409 1742 
Q 1991 1309 1228 531 
z
" transform="scale(0.015625)"/>
        <path id="DejaVuSans-34" d="M 2419 4116 
L 825 1625 
L 2419 1625 
L 2419 4116 
z
M 2253 4666 
L 3047 4666 
L 3047 1625 
L 3713 1625 
L 3713 1100 
L 3047 1100 
L 3047 0 
L 2419 0 
L 2419 1100 
L 313 1100 
L 313 1709 
L 2253 4666 
z
" transform="scale(0.015625)"/>
       </defs>
       <use xlink:href="#DejaVuSans-32"/>
       <use xlink:href="#DejaVuSans-34" x="63.623047"/>
      </g>
     </g>
    </g>
    <g id="xtick_2">
     <g id="line2d_3">
      <path d="M 73.703795 173.085197 
L 73.703795 5.12 
" clip-path="url(#p529fb52d99)" style="fill: none; stroke-dasharray: 0.925,0.4; stroke-dashoffset: 0; stroke: #404040; stroke-opacity: 0.5; stroke-width: 0.25"/>
     </g>
     <g id="line2d_4">
      <g>
       <use xlink:href="#m91cb5dfddf" x="73.703795" y="173.085197" style="stroke: #000000; stroke-width: 0.5"/>
      </g>
     </g>
     <g id="text_2">
      <!-- 48 -->
      <g transform="translate(68.613795 182.663947) scale(0.08 -0.08)">
       <defs>
        <path id="DejaVuSans-38" d="M 2034 2216 
Q 1584 2216 1326 1975 
Q 1069 1734 1069 1313 
Q 1069 891 1326 650 
Q 1584 409 2034 409 
Q 2484 409 2743 651 
Q 3003 894 3003 1313 
Q 3003 1734 2745 1975 
Q 2488 2216 2034 2216 
z
M 1403 2484 
Q 997 2584 770 2862 
Q 544 3141 544 3541 
Q 544 4100 942 4425 
Q 1341 4750 2034 4750 
Q 2731 4750 3128 4425 
Q 3525 4100 3525 3541 
Q 3525 3141 3298 2862 
Q 3072 2584 2669 2484 
Q 3125 2378 3379 2068 
Q 3634 1759 3634 1313 
Q 3634 634 3220 271 
Q 2806 -91 2034 -91 
Q 1263 -91 848 271 
Q 434 634 434 1313 
Q 434 1759 690 2068 
Q 947 2378 1403 2484 
z
M 1172 3481 
Q 1172 3119 1398 2916 
Q 1625 2713 2034 2713 
Q 2441 2713 2670 2916 
Q 2900 3119 2900 3481 
Q 2900 3844 2670 4047 
Q 2441 4250 2034 4250 
Q 1625 4250 1398 4047 
Q 1172 3844 1172 3481 
z
" transform="scale(0.015625)"/>
       </defs>
       <use xlink:href="#DejaVuSans-34"/>
       <use xlink:href="#DejaVuSans-38" x="63.623047"/>
      </g>
     </g>
    </g>
    <g id="xtick_3">
     <g id="line2d_5">
      <path d="M 107.059341 173.085197 
L 107.059341 5.12 
" clip-path="url(#p529fb52d99)" style="fill: none; stroke-dasharray: 0.925,0.4; stroke-dashoffset: 0; stroke: #404040; stroke-opacity: 0.5; stroke-width: 0.25"/>
     </g>
     <g id="line2d_6">
      <g>
       <use xlink:href="#m91cb5dfddf" x="107.059341" y="173.085197" style="stroke: #000000; stroke-width: 0.5"/>
      </g>
     </g>
     <g id="text_3">
      <!-- 72 -->
      <g transform="translate(101.969341 182.663947) scale(0.08 -0.08)">
       <defs>
        <path id="DejaVuSans-37" d="M 525 4666 
L 3525 4666 
L 3525 4397 
L 1831 0 
L 1172 0 
L 2766 4134 
L 525 4134 
L 525 4666 
z
" transform="scale(0.015625)"/>
       </defs>
       <use xlink:href="#DejaVuSans-37"/>
       <use xlink:href="#DejaVuSans-32" x="63.623047"/>
      </g>
     </g>
    </g>
    <g id="xtick_4">
     <g id="line2d_7">
      <path d="M 140.414886 173.085197 
L 140.414886 5.12 
" clip-path="url(#p529fb52d99)" style="fill: none; stroke-dasharray: 0.925,0.4; stroke-dashoffset: 0; stroke: #404040; stroke-opacity: 0.5; stroke-width: 0.25"/>
     </g>
     <g id="line2d_8">
      <g>
       <use xlink:href="#m91cb5dfddf" x="140.414886" y="173.085197" style="stroke: #000000; stroke-width: 0.5"/>
      </g>
     </g>
     <g id="text_4">
      <!-- 96 -->
      <g transform="translate(135.324886 182.663947) scale(0.08 -0.08)">
       <defs>
        <path id="DejaVuSans-39" d="M 703 97 
L 703 672 
Q 941 559 1184 500 
Q 1428 441 1663 441 
Q 2288 441 2617 861 
Q 2947 1281 2994 2138 
Q 2813 1869 2534 1725 
Q 2256 1581 1919 1581 
Q 1219 1581 811 2004 
Q 403 2428 403 3163 
Q 403 3881 828 4315 
Q 1253 4750 1959 4750 
Q 2769 4750 3195 4129 
Q 3622 3509 3622 2328 
Q 3622 1225 3098 567 
Q 2575 -91 1691 -91 
Q 1453 -91 1209 -44 
Q 966 3 703 97 
z
M 1959 2075 
Q 2384 2075 2632 2365 
Q 2881 2656 2881 3163 
Q 2881 3666 2632 3958 
Q 2384 4250 1959 4250 
Q 1534 4250 1286 3958 
Q 1038 3666 1038 3163 
Q 1038 2656 1286 2365 
Q 1534 2075 1959 2075 
z
" transform="scale(0.015625)"/>
        <path id="DejaVuSans-36" d="M 2113 2584 
Q 1688 2584 1439 2293 
Q 1191 2003 1191 1497 
Q 1191 994 1439 701 
Q 1688 409 2113 409 
Q 2538 409 2786 701 
Q 3034 994 3034 1497 
Q 3034 2003 2786 2293 
Q 2538 2584 2113 2584 
z
M 3366 4563 
L 3366 3988 
Q 3128 4100 2886 4159 
Q 2644 4219 2406 4219 
Q 1781 4219 1451 3797 
Q 1122 3375 1075 2522 
Q 1259 2794 1537 2939 
Q 1816 3084 2150 3084 
Q 2853 3084 3261 2657 
Q 3669 2231 3669 1497 
Q 3669 778 3244 343 
Q 2819 -91 2113 -91 
Q 1303 -91 875 529 
Q 447 1150 447 2328 
Q 447 3434 972 4092 
Q 1497 4750 2381 4750 
Q 2619 4750 2861 4703 
Q 3103 4656 3366 4563 
z
" transform="scale(0.015625)"/>
       </defs>
       <use xlink:href="#DejaVuSans-39"/>
       <use xlink:href="#DejaVuSans-36" x="63.623047"/>
      </g>
     </g>
    </g>
    <g id="xtick_5">
     <g id="line2d_9">
      <path d="M 173.770431 173.085197 
L 173.770431 5.12 
" clip-path="url(#p529fb52d99)" style="fill: none; stroke-dasharray: 0.925,0.4; stroke-dashoffset: 0; stroke: #404040; stroke-opacity: 0.5; stroke-width: 0.25"/>
     </g>
     <g id="line2d_10">
      <g>
       <use xlink:href="#m91cb5dfddf" x="173.770431" y="173.085197" style="stroke: #000000; stroke-width: 0.5"/>
      </g>
     </g>
     <g id="text_5">
      <!-- 120 -->
      <g transform="translate(166.135431 182.663947) scale(0.08 -0.08)">
       <defs>
        <path id="DejaVuSans-31" d="M 794 531 
L 1825 531 
L 1825 4091 
L 703 3866 
L 703 4441 
L 1819 4666 
L 2450 4666 
L 2450 531 
L 3481 531 
L 3481 0 
L 794 0 
L 794 531 
z
" transform="scale(0.015625)"/>
        <path id="DejaVuSans-30" d="M 2034 4250 
Q 1547 4250 1301 3770 
Q 1056 3291 1056 2328 
Q 1056 1369 1301 889 
Q 1547 409 2034 409 
Q 2525 409 2770 889 
Q 3016 1369 3016 2328 
Q 3016 3291 2770 3770 
Q 2525 4250 2034 4250 
z
M 2034 4750 
Q 2819 4750 3233 4129 
Q 3647 3509 3647 2328 
Q 3647 1150 3233 529 
Q 2819 -91 2034 -91 
Q 1250 -91 836 529 
Q 422 1150 422 2328 
Q 422 3509 836 4129 
Q 1250 4750 2034 4750 
z
" transform="scale(0.015625)"/>
       </defs>
       <use xlink:href="#DejaVuSans-31"/>
       <use xlink:href="#DejaVuSans-32" x="63.623047"/>
       <use xlink:href="#DejaVuSans-30" x="127.246094"/>
      </g>
     </g>
    </g>
    <g id="xtick_6">
     <g id="line2d_11">
      <path d="M 207.125976 173.085197 
L 207.125976 5.12 
" clip-path="url(#p529fb52d99)" style="fill: none; stroke-dasharray: 0.925,0.4; stroke-dashoffset: 0; stroke: #404040; stroke-opacity: 0.5; stroke-width: 0.25"/>
     </g>
     <g id="line2d_12">
      <g>
       <use xlink:href="#m91cb5dfddf" x="207.125976" y="173.085197" style="stroke: #000000; stroke-width: 0.5"/>
      </g>
     </g>
     <g id="text_6">
      <!-- 144 -->
      <g transform="translate(199.490976 182.663947) scale(0.08 -0.08)">
       <use xlink:href="#DejaVuSans-31"/>
       <use xlink:href="#DejaVuSans-34" x="63.623047"/>
       <use xlink:href="#DejaVuSans-34" x="127.246094"/>
      </g>
     </g>
    </g>
    <g id="xtick_7">
     <g id="line2d_13">
      <path d="M 240.481522 173.085197 
L 240.481522 5.12 
" clip-path="url(#p529fb52d99)" style="fill: none; stroke-dasharray: 0.925,0.4; stroke-dashoffset: 0; stroke: #404040; stroke-opacity: 0.5; stroke-width: 0.25"/>
     </g>
     <g id="line2d_14">
      <g>
       <use xlink:href="#m91cb5dfddf" x="240.481522" y="173.085197" style="stroke: #000000; stroke-width: 0.5"/>
      </g>
     </g>
     <g id="text_7">
      <!-- 168 -->
      <g transform="translate(232.846522 182.663947) scale(0.08 -0.08)">
       <use xlink:href="#DejaVuSans-31"/>
       <use xlink:href="#DejaVuSans-36" x="63.623047"/>
       <use xlink:href="#DejaVuSans-38" x="127.246094"/>
      </g>
     </g>
    </g>
    <g id="xtick_8">
     <g id="line2d_15">
      <path d="M 273.837067 173.085197 
L 273.837067 5.12 
" clip-path="url(#p529fb52d99)" style="fill: none; stroke-dasharray: 0.925,0.4; stroke-dashoffset: 0; stroke: #404040; stroke-opacity: 0.5; stroke-width: 0.25"/>
     </g>
     <g id="line2d_16">
      <g>
       <use xlink:href="#m91cb5dfddf" x="273.837067" y="173.085197" style="stroke: #000000; stroke-width: 0.5"/>
      </g>
     </g>
     <g id="text_8">
      <!-- 192 -->
      <g transform="translate(266.202067 182.663947) scale(0.08 -0.08)">
       <use xlink:href="#DejaVuSans-31"/>
       <use xlink:href="#DejaVuSans-39" x="63.623047"/>
       <use xlink:href="#DejaVuSans-32" x="127.246094"/>
      </g>
     </g>
    </g>
    <g id="xtick_9">
     <g id="line2d_17">
      <defs>
       <path id="m934e0b9fc5" d="M 0 0 
L 0 -2 
" style="stroke: #000000; stroke-width: 0.35"/>
      </defs>
      <g>
       <use xlink:href="#m934e0b9fc5" x="57.026023" y="173.085197" style="stroke: #000000; stroke-width: 0.35"/>
      </g>
     </g>
    </g>
    <g id="xtick_10">
     <g id="line2d_18">
      <g>
       <use xlink:href="#m934e0b9fc5" x="90.381568" y="173.085197" style="stroke: #000000; stroke-width: 0.35"/>
      </g>
     </g>
    </g>
    <g id="xtick_11">
     <g id="line2d_19">
      <g>
       <use xlink:href="#m934e0b9fc5" x="123.737113" y="173.085197" style="stroke: #000000; stroke-width: 0.35"/>
      </g>
     </g>
    </g>
    <g id="xtick_12">
     <g id="line2d_20">
      <g>
       <use xlink:href="#m934e0b9fc5" x="157.092658" y="173.085197" style="stroke: #000000; stroke-width: 0.35"/>
      </g>
     </g>
    </g>
    <g id="xtick_13">
     <g id="line2d_21">
      <g>
       <use xlink:href="#m934e0b9fc5" x="190.448204" y="173.085197" style="stroke: #000000; stroke-width: 0.35"/>
      </g>
     </g>
    </g>
    <g id="xtick_14">
     <g id="line2d_22">
      <g>
       <use xlink:href="#m934e0b9fc5" x="223.803749" y="173.085197" style="stroke: #000000; stroke-width: 0.35"/>
      </g>
     </g>
    </g>
    <g id="xtick_15">
     <g id="line2d_23">
      <g>
       <use xlink:href="#m934e0b9fc5" x="257.159294" y="173.085197" style="stroke: #000000; stroke-width: 0.35"/>
      </g>
     </g>
    </g>
    <g id="text_9">
     <!-- Hour [h] -->
     <g transform="translate(140.530158 194.406447) scale(0.08 -0.08)">
      <defs>
       <path id="DejaVuSans-48" d="M 628 4666 
L 1259 4666 
L 1259 2753 
L 3553 2753 
L 3553 4666 
L 4184 4666 
L 4184 0 
L 3553 0 
L 3553 2222 
L 1259 2222 
L 1259 0 
L 628 0 
L 628 4666 
z
" transform="scale(0.015625)"/>
       <path id="DejaVuSans-6f" d="M 1959 3097 
Q 1497 3097 1228 2736 
Q 959 2375 959 1747 
Q 959 1119 1226 758 
Q 1494 397 1959 397 
Q 2419 397 2687 759 
Q 2956 1122 2956 1747 
Q 2956 2369 2687 2733 
Q 2419 3097 1959 3097 
z
M 1959 3584 
Q 2709 3584 3137 3096 
Q 3566 2609 3566 1747 
Q 3566 888 3137 398 
Q 2709 -91 1959 -91 
Q 1206 -91 779 398 
Q 353 888 353 1747 
Q 353 2609 779 3096 
Q 1206 3584 1959 3584 
z
" transform="scale(0.015625)"/>
       <path id="DejaVuSans-75" d="M 544 1381 
L 544 3500 
L 1119 3500 
L 1119 1403 
Q 1119 906 1312 657 
Q 1506 409 1894 409 
Q 2359 409 2629 706 
Q 2900 1003 2900 1516 
L 2900 3500 
L 3475 3500 
L 3475 0 
L 2900 0 
L 2900 538 
Q 2691 219 2414 64 
Q 2138 -91 1772 -91 
Q 1169 -91 856 284 
Q 544 659 544 1381 
z
M 1991 3584 
L 1991 3584 
z
" transform="scale(0.015625)"/>
       <path id="DejaVuSans-72" d="M 2631 2963 
Q 2534 3019 2420 3045 
Q 2306 3072 2169 3072 
Q 1681 3072 1420 2755 
Q 1159 2438 1159 1844 
L 1159 0 
L 581 0 
L 581 3500 
L 1159 3500 
L 1159 2956 
Q 1341 3275 1631 3429 
Q 1922 3584 2338 3584 
Q 2397 3584 2469 3576 
Q 2541 3569 2628 3553 
L 2631 2963 
z
" transform="scale(0.015625)"/>
       <path id="DejaVuSans-20" transform="scale(0.015625)"/>
       <path id="DejaVuSans-5b" d="M 550 4863 
L 1875 4863 
L 1875 4416 
L 1125 4416 
L 1125 -397 
L 1875 -397 
L 1875 -844 
L 550 -844 
L 550 4863 
z
" transform="scale(0.015625)"/>
       <path id="DejaVuSans-68" d="M 3513 2113 
L 3513 0 
L 2938 0 
L 2938 2094 
Q 2938 2591 2744 2837 
Q 2550 3084 2163 3084 
Q 1697 3084 1428 2787 
Q 1159 2491 1159 1978 
L 1159 0 
L 581 0 
L 581 4863 
L 1159 4863 
L 1159 2956 
Q 1366 3272 1645 3428 
Q 1925 3584 2291 3584 
Q 2894 3584 3203 3211 
Q 3513 2838 3513 2113 
z
" transform="scale(0.015625)"/>
       <path id="DejaVuSans-5d" d="M 1947 4863 
L 1947 -844 
L 622 -844 
L 622 -397 
L 1369 -397 
L 1369 4416 
L 622 4416 
L 622 4863 
L 1947 4863 
z
" transform="scale(0.015625)"/>
      </defs>
      <use xlink:href="#DejaVuSans-48"/>
      <use xlink:href="#DejaVuSans-6f" x="75.195312"/>
      <use xlink:href="#DejaVuSans-75" x="136.376953"/>
      <use xlink:href="#DejaVuSans-72" x="199.755859"/>
      <use xlink:href="#DejaVuSans-20" x="240.869141"/>
      <use xlink:href="#DejaVuSans-5b" x="272.65625"/>
      <use xlink:href="#DejaVuSans-68" x="311.669922"/>
      <use xlink:href="#DejaVuSans-5d" x="375.048828"/>
     </g>
    </g>
   </g>
   <g id="matplotlib.axis_2">
    <g id="ytick_1">
     <g id="line2d_24">
      <path d="M 40.34825 173.085197 
L 273.837067 173.085197 
" clip-path="url(#p529fb52d99)" style="fill: none; stroke-dasharray: 0.925,0.4; stroke-dashoffset: 0; stroke: #404040; stroke-opacity: 0.5; stroke-width: 0.25"/>
     </g>
     <g id="line2d_25">
      <defs>
       <path id="mfd16d200e1" d="M 0 0 
L 3.5 0 
" style="stroke: #000000; stroke-width: 0.5"/>
      </defs>
      <g>
       <use xlink:href="#mfd16d200e1" x="40.34825" y="173.085197" style="stroke: #000000; stroke-width: 0.5"/>
      </g>
     </g>
     <g id="text_10">
      <!-- −400 -->
      <g transform="translate(14.8745 176.124572) scale(0.08 -0.08)">
       <defs>
        <path id="DejaVuSans-2212" d="M 678 2272 
L 4684 2272 
L 4684 1741 
L 678 1741 
L 678 2272 
z
" transform="scale(0.015625)"/>
       </defs>
       <use xlink:href="#DejaVuSans-2212"/>
       <use xlink:href="#DejaVuSans-34" x="83.789062"/>
       <use xlink:href="#DejaVuSans-30" x="147.412109"/>
       <use xlink:href="#DejaVuSans-30" x="211.035156"/>
      </g>
     </g>
    </g>
    <g id="ytick_2">
     <g id="line2d_26">
      <path d="M 40.34825 152.089547 
L 273.837067 152.089547 
" clip-path="url(#p529fb52d99)" style="fill: none; stroke-dasharray: 0.925,0.4; stroke-dashoffset: 0; stroke: #404040; stroke-opacity: 0.5; stroke-width: 0.25"/>
     </g>
     <g id="line2d_27">
      <g>
       <use xlink:href="#mfd16d200e1" x="40.34825" y="152.089547" style="stroke: #000000; stroke-width: 0.5"/>
      </g>
     </g>
     <g id="text_11">
      <!-- −300 -->
      <g transform="translate(14.8745 155.128922) scale(0.08 -0.08)">
       <defs>
        <path id="DejaVuSans-33" d="M 2597 2516 
Q 3050 2419 3304 2112 
Q 3559 1806 3559 1356 
Q 3559 666 3084 287 
Q 2609 -91 1734 -91 
Q 1441 -91 1130 -33 
Q 819 25 488 141 
L 488 750 
Q 750 597 1062 519 
Q 1375 441 1716 441 
Q 2309 441 2620 675 
Q 2931 909 2931 1356 
Q 2931 1769 2642 2001 
Q 2353 2234 1838 2234 
L 1294 2234 
L 1294 2753 
L 1863 2753 
Q 2328 2753 2575 2939 
Q 2822 3125 2822 3475 
Q 2822 3834 2567 4026 
Q 2313 4219 1838 4219 
Q 1578 4219 1281 4162 
Q 984 4106 628 3988 
L 628 4550 
Q 988 4650 1302 4700 
Q 1616 4750 1894 4750 
Q 2613 4750 3031 4423 
Q 3450 4097 3450 3541 
Q 3450 3153 3228 2886 
Q 3006 2619 2597 2516 
z
" transform="scale(0.015625)"/>
       </defs>
       <use xlink:href="#DejaVuSans-2212"/>
       <use xlink:href="#DejaVuSans-33" x="83.789062"/>
       <use xlink:href="#DejaVuSans-30" x="147.412109"/>
       <use xlink:href="#DejaVuSans-30" x="211.035156"/>
      </g>
     </g>
    </g>
    <g id="ytick_3">
     <g id="line2d_28">
      <path d="M 40.34825 131.093898 
L 273.837067 131.093898 
" clip-path="url(#p529fb52d99)" style="fill: none; stroke-dasharray: 0.925,0.4; stroke-dashoffset: 0; stroke: #404040; stroke-opacity: 0.5; stroke-width: 0.25"/>
     </g>
     <g id="line2d_29">
      <g>
       <use xlink:href="#mfd16d200e1" x="40.34825" y="131.093898" style="stroke: #000000; stroke-width: 0.5"/>
      </g>
     </g>
     <g id="text_12">
      <!-- −200 -->
      <g transform="translate(14.8745 134.133273) scale(0.08 -0.08)">
       <use xlink:href="#DejaVuSans-2212"/>
       <use xlink:href="#DejaVuSans-32" x="83.789062"/>
       <use xlink:href="#DejaVuSans-30" x="147.412109"/>
       <use xlink:href="#DejaVuSans-30" x="211.035156"/>
      </g>
     </g>
    </g>
    <g id="ytick_4">
     <g id="line2d_30">
      <path d="M 40.34825 110.098248 
L 273.837067 110.098248 
" clip-path="url(#p529fb52d99)" style="fill: none; stroke-dasharray: 0.925,0.4; stroke-dashoffset: 0; stroke: #404040; stroke-opacity: 0.5; stroke-width: 0.25"/>
     </g>
     <g id="line2d_31">
      <g>
       <use xlink:href="#mfd16d200e1" x="40.34825" y="110.098248" style="stroke: #000000; stroke-width: 0.5"/>
      </g>
     </g>
     <g id="text_13">
      <!-- −100 -->
      <g transform="translate(14.8745 113.137623) scale(0.08 -0.08)">
       <use xlink:href="#DejaVuSans-2212"/>
       <use xlink:href="#DejaVuSans-31" x="83.789062"/>
       <use xlink:href="#DejaVuSans-30" x="147.412109"/>
       <use xlink:href="#DejaVuSans-30" x="211.035156"/>
      </g>
     </g>
    </g>
    <g id="ytick_5">
     <g id="line2d_32">
      <path d="M 40.34825 89.102598 
L 273.837067 89.102598 
" clip-path="url(#p529fb52d99)" style="fill: none; stroke-dasharray: 0.925,0.4; stroke-dashoffset: 0; stroke: #404040; stroke-opacity: 0.5; stroke-width: 0.25"/>
     </g>
     <g id="line2d_33">
      <g>
       <use xlink:href="#mfd16d200e1" x="40.34825" y="89.102598" style="stroke: #000000; stroke-width: 0.5"/>
      </g>
     </g>
     <g id="text_14">
      <!-- 0 -->
      <g transform="translate(31.75825 92.141973) scale(0.08 -0.08)">
       <use xlink:href="#DejaVuSans-30"/>
      </g>
     </g>
    </g>
    <g id="ytick_6">
     <g id="line2d_34">
      <path d="M 40.34825 68.106949 
L 273.837067 68.106949 
" clip-path="url(#p529fb52d99)" style="fill: none; stroke-dasharray: 0.925,0.4; stroke-dashoffset: 0; stroke: #404040; stroke-opacity: 0.5; stroke-width: 0.25"/>
     </g>
     <g id="line2d_35">
      <g>
       <use xlink:href="#mfd16d200e1" x="40.34825" y="68.106949" style="stroke: #000000; stroke-width: 0.5"/>
      </g>
     </g>
     <g id="text_15">
      <!-- 100 -->
      <g transform="translate(21.57825 71.146324) scale(0.08 -0.08)">
       <use xlink:href="#DejaVuSans-31"/>
       <use xlink:href="#DejaVuSans-30" x="63.623047"/>
       <use xlink:href="#DejaVuSans-30" x="127.246094"/>
      </g>
     </g>
    </g>
    <g id="ytick_7">
     <g id="line2d_36">
      <path d="M 40.34825 47.111299 
L 273.837067 47.111299 
" clip-path="url(#p529fb52d99)" style="fill: none; stroke-dasharray: 0.925,0.4; stroke-dashoffset: 0; stroke: #404040; stroke-opacity: 0.5; stroke-width: 0.25"/>
     </g>
     <g id="line2d_37">
      <g>
       <use xlink:href="#mfd16d200e1" x="40.34825" y="47.111299" style="stroke: #000000; stroke-width: 0.5"/>
      </g>
     </g>
     <g id="text_16">
      <!-- 200 -->
      <g transform="translate(21.57825 50.150674) scale(0.08 -0.08)">
       <use xlink:href="#DejaVuSans-32"/>
       <use xlink:href="#DejaVuSans-30" x="63.623047"/>
       <use xlink:href="#DejaVuSans-30" x="127.246094"/>
      </g>
     </g>
    </g>
    <g id="ytick_8">
     <g id="line2d_38">
      <path d="M 40.34825 26.11565 
L 273.837067 26.11565 
" clip-path="url(#p529fb52d99)" style="fill: none; stroke-dasharray: 0.925,0.4; stroke-dashoffset: 0; stroke: #404040; stroke-opacity: 0.5; stroke-width: 0.25"/>
     </g>
     <g id="line2d_39">
      <g>
       <use xlink:href="#mfd16d200e1" x="40.34825" y="26.11565" style="stroke: #000000; stroke-width: 0.5"/>
      </g>
     </g>
     <g id="text_17">
      <!-- 300 -->
      <g transform="translate(21.57825 29.155025) scale(0.08 -0.08)">
       <use xlink:href="#DejaVuSans-33"/>
       <use xlink:href="#DejaVuSans-30" x="63.623047"/>
       <use xlink:href="#DejaVuSans-30" x="127.246094"/>
      </g>
     </g>
    </g>
    <g id="ytick_9">
     <g id="line2d_40">
      <path d="M 40.34825 5.12 
L 273.837067 5.12 
" clip-path="url(#p529fb52d99)" style="fill: none; stroke-dasharray: 0.925,0.4; stroke-dashoffset: 0; stroke: #404040; stroke-opacity: 0.5; stroke-width: 0.25"/>
     </g>
     <g id="line2d_41">
      <g>
       <use xlink:href="#mfd16d200e1" x="40.34825" y="5.12" style="stroke: #000000; stroke-width: 0.5"/>
      </g>
     </g>
     <g id="text_18">
      <!-- 400 -->
      <g transform="translate(21.57825 8.159375) scale(0.08 -0.08)">
       <use xlink:href="#DejaVuSans-34"/>
       <use xlink:href="#DejaVuSans-30" x="63.623047"/>
       <use xlink:href="#DejaVuSans-30" x="127.246094"/>
      </g>
     </g>
    </g>
    <g id="ytick_10">
     <g id="line2d_42">
      <defs>
       <path id="m65150060a2" d="M 0 0 
L 2 0 
" style="stroke: #000000; stroke-width: 0.35"/>
      </defs>
      <g>
       <use xlink:href="#m65150060a2" x="40.34825" y="168.886067" style="stroke: #000000; stroke-width: 0.35"/>
      </g>
     </g>
    </g>
    <g id="ytick_11">
     <g id="line2d_43">
      <g>
       <use xlink:href="#m65150060a2" x="40.34825" y="164.686937" style="stroke: #000000; stroke-width: 0.35"/>
      </g>
     </g>
    </g>
    <g id="ytick_12">
     <g id="line2d_44">
      <g>
       <use xlink:href="#m65150060a2" x="40.34825" y="160.487807" style="stroke: #000000; stroke-width: 0.35"/>
      </g>
     </g>
    </g>
    <g id="ytick_13">
     <g id="line2d_45">
      <g>
       <use xlink:href="#m65150060a2" x="40.34825" y="156.288677" style="stroke: #000000; stroke-width: 0.35"/>
      </g>
     </g>
    </g>
    <g id="ytick_14">
     <g id="line2d_46">
      <g>
       <use xlink:href="#m65150060a2" x="40.34825" y="147.890417" style="stroke: #000000; stroke-width: 0.35"/>
      </g>
     </g>
    </g>
    <g id="ytick_15">
     <g id="line2d_47">
      <g>
       <use xlink:href="#m65150060a2" x="40.34825" y="143.691287" style="stroke: #000000; stroke-width: 0.35"/>
      </g>
     </g>
    </g>
    <g id="ytick_16">
     <g id="line2d_48">
      <g>
       <use xlink:href="#m65150060a2" x="40.34825" y="139.492157" style="stroke: #000000; stroke-width: 0.35"/>
      </g>
     </g>
    </g>
    <g id="ytick_17">
     <g id="line2d_49">
      <g>
       <use xlink:href="#m65150060a2" x="40.34825" y="135.293028" style="stroke: #000000; stroke-width: 0.35"/>
      </g>
     </g>
    </g>
    <g id="ytick_18">
     <g id="line2d_50">
      <g>
       <use xlink:href="#m65150060a2" x="40.34825" y="126.894768" style="stroke: #000000; stroke-width: 0.35"/>
      </g>
     </g>
    </g>
    <g id="ytick_19">
     <g id="line2d_51">
      <g>
       <use xlink:href="#m65150060a2" x="40.34825" y="122.695638" style="stroke: #000000; stroke-width: 0.35"/>
      </g>
     </g>
    </g>
    <g id="ytick_20">
     <g id="line2d_52">
      <g>
       <use xlink:href="#m65150060a2" x="40.34825" y="118.496508" style="stroke: #000000; stroke-width: 0.35"/>
      </g>
     </g>
    </g>
    <g id="ytick_21">
     <g id="line2d_53">
      <g>
       <use xlink:href="#m65150060a2" x="40.34825" y="114.297378" style="stroke: #000000; stroke-width: 0.35"/>
      </g>
     </g>
    </g>
    <g id="ytick_22">
     <g id="line2d_54">
      <g>
       <use xlink:href="#m65150060a2" x="40.34825" y="105.899118" style="stroke: #000000; stroke-width: 0.35"/>
      </g>
     </g>
    </g>
    <g id="ytick_23">
     <g id="line2d_55">
      <g>
       <use xlink:href="#m65150060a2" x="40.34825" y="101.699988" style="stroke: #000000; stroke-width: 0.35"/>
      </g>
     </g>
    </g>
    <g id="ytick_24">
     <g id="line2d_56">
      <g>
       <use xlink:href="#m65150060a2" x="40.34825" y="97.500858" style="stroke: #000000; stroke-width: 0.35"/>
      </g>
     </g>
    </g>
    <g id="ytick_25">
     <g id="line2d_57">
      <g>
       <use xlink:href="#m65150060a2" x="40.34825" y="93.301728" style="stroke: #000000; stroke-width: 0.35"/>
      </g>
     </g>
    </g>
    <g id="ytick_26">
     <g id="line2d_58">
      <g>
       <use xlink:href="#m65150060a2" x="40.34825" y="84.903469" style="stroke: #000000; stroke-width: 0.35"/>
      </g>
     </g>
    </g>
    <g id="ytick_27">
     <g id="line2d_59">
      <g>
       <use xlink:href="#m65150060a2" x="40.34825" y="80.704339" style="stroke: #000000; stroke-width: 0.35"/>
      </g>
     </g>
    </g>
    <g id="ytick_28">
     <g id="line2d_60">
      <g>
       <use xlink:href="#m65150060a2" x="40.34825" y="76.505209" style="stroke: #000000; stroke-width: 0.35"/>
      </g>
     </g>
    </g>
    <g id="ytick_29">
     <g id="line2d_61">
      <g>
       <use xlink:href="#m65150060a2" x="40.34825" y="72.306079" style="stroke: #000000; stroke-width: 0.35"/>
      </g>
     </g>
    </g>
    <g id="ytick_30">
     <g id="line2d_62">
      <g>
       <use xlink:href="#m65150060a2" x="40.34825" y="63.907819" style="stroke: #000000; stroke-width: 0.35"/>
      </g>
     </g>
    </g>
    <g id="ytick_31">
     <g id="line2d_63">
      <g>
       <use xlink:href="#m65150060a2" x="40.34825" y="59.708689" style="stroke: #000000; stroke-width: 0.35"/>
      </g>
     </g>
    </g>
    <g id="ytick_32">
     <g id="line2d_64">
      <g>
       <use xlink:href="#m65150060a2" x="40.34825" y="55.509559" style="stroke: #000000; stroke-width: 0.35"/>
      </g>
     </g>
    </g>
    <g id="ytick_33">
     <g id="line2d_65">
      <g>
       <use xlink:href="#m65150060a2" x="40.34825" y="51.310429" style="stroke: #000000; stroke-width: 0.35"/>
      </g>
     </g>
    </g>
    <g id="ytick_34">
     <g id="line2d_66">
      <g>
       <use xlink:href="#m65150060a2" x="40.34825" y="42.912169" style="stroke: #000000; stroke-width: 0.35"/>
      </g>
     </g>
    </g>
    <g id="ytick_35">
     <g id="line2d_67">
      <g>
       <use xlink:href="#m65150060a2" x="40.34825" y="38.713039" style="stroke: #000000; stroke-width: 0.35"/>
      </g>
     </g>
    </g>
    <g id="ytick_36">
     <g id="line2d_68">
      <g>
       <use xlink:href="#m65150060a2" x="40.34825" y="34.513909" style="stroke: #000000; stroke-width: 0.35"/>
      </g>
     </g>
    </g>
    <g id="ytick_37">
     <g id="line2d_69">
      <g>
       <use xlink:href="#m65150060a2" x="40.34825" y="30.31478" style="stroke: #000000; stroke-width: 0.35"/>
      </g>
     </g>
    </g>
    <g id="ytick_38">
     <g id="line2d_70">
      <g>
       <use xlink:href="#m65150060a2" x="40.34825" y="21.91652" style="stroke: #000000; stroke-width: 0.35"/>
      </g>
     </g>
    </g>
    <g id="ytick_39">
     <g id="line2d_71">
      <g>
       <use xlink:href="#m65150060a2" x="40.34825" y="17.71739" style="stroke: #000000; stroke-width: 0.35"/>
      </g>
     </g>
    </g>
    <g id="ytick_40">
     <g id="line2d_72">
      <g>
       <use xlink:href="#m65150060a2" x="40.34825" y="13.51826" style="stroke: #000000; stroke-width: 0.35"/>
      </g>
     </g>
    </g>
    <g id="ytick_41">
     <g id="line2d_73">
      <g>
       <use xlink:href="#m65150060a2" x="40.34825" y="9.31913" style="stroke: #000000; stroke-width: 0.35"/>
      </g>
     </g>
    </g>
    <g id="text_19">
     <!-- Heat flux $~\mathrm{[W/m^2]}$ -->
     <g transform="translate(9.21075 124.142598) rotate(-90) scale(0.08 -0.08)">
      <defs>
       <path id="DejaVuSans-65" d="M 3597 1894 
L 3597 1613 
L 953 1613 
Q 991 1019 1311 708 
Q 1631 397 2203 397 
Q 2534 397 2845 478 
Q 3156 559 3463 722 
L 3463 178 
Q 3153 47 2828 -22 
Q 2503 -91 2169 -91 
Q 1331 -91 842 396 
Q 353 884 353 1716 
Q 353 2575 817 3079 
Q 1281 3584 2069 3584 
Q 2775 3584 3186 3129 
Q 3597 2675 3597 1894 
z
M 3022 2063 
Q 3016 2534 2758 2815 
Q 2500 3097 2075 3097 
Q 1594 3097 1305 2825 
Q 1016 2553 972 2059 
L 3022 2063 
z
" transform="scale(0.015625)"/>
       <path id="DejaVuSans-61" d="M 2194 1759 
Q 1497 1759 1228 1600 
Q 959 1441 959 1056 
Q 959 750 1161 570 
Q 1363 391 1709 391 
Q 2188 391 2477 730 
Q 2766 1069 2766 1631 
L 2766 1759 
L 2194 1759 
z
M 3341 1997 
L 3341 0 
L 2766 0 
L 2766 531 
Q 2569 213 2275 61 
Q 1981 -91 1556 -91 
Q 1019 -91 701 211 
Q 384 513 384 1019 
Q 384 1609 779 1909 
Q 1175 2209 1959 2209 
L 2766 2209 
L 2766 2266 
Q 2766 2663 2505 2880 
Q 2244 3097 1772 3097 
Q 1472 3097 1187 3025 
Q 903 2953 641 2809 
L 641 3341 
Q 956 3463 1253 3523 
Q 1550 3584 1831 3584 
Q 2591 3584 2966 3190 
Q 3341 2797 3341 1997 
z
" transform="scale(0.015625)"/>
       <path id="DejaVuSans-74" d="M 1172 4494 
L 1172 3500 
L 2356 3500 
L 2356 3053 
L 1172 3053 
L 1172 1153 
Q 1172 725 1289 603 
Q 1406 481 1766 481 
L 2356 481 
L 2356 0 
L 1766 0 
Q 1100 0 847 248 
Q 594 497 594 1153 
L 594 3053 
L 172 3053 
L 172 3500 
L 594 3500 
L 594 4494 
L 1172 4494 
z
" transform="scale(0.015625)"/>
       <path id="DejaVuSans-66" d="M 2375 4863 
L 2375 4384 
L 1825 4384 
Q 1516 4384 1395 4259 
Q 1275 4134 1275 3809 
L 1275 3500 
L 2222 3500 
L 2222 3053 
L 1275 3053 
L 1275 0 
L 697 0 
L 697 3053 
L 147 3053 
L 147 3500 
L 697 3500 
L 697 3744 
Q 697 4328 969 4595 
Q 1241 4863 1831 4863 
L 2375 4863 
z
" transform="scale(0.015625)"/>
       <path id="DejaVuSans-6c" d="M 603 4863 
L 1178 4863 
L 1178 0 
L 603 0 
L 603 4863 
z
" transform="scale(0.015625)"/>
       <path id="DejaVuSans-78" d="M 3513 3500 
L 2247 1797 
L 3578 0 
L 2900 0 
L 1881 1375 
L 863 0 
L 184 0 
L 1544 1831 
L 300 3500 
L 978 3500 
L 1906 2253 
L 2834 3500 
L 3513 3500 
z
" transform="scale(0.015625)"/>
       <path id="DejaVuSans-57" d="M 213 4666 
L 850 4666 
L 1831 722 
L 2809 4666 
L 3519 4666 
L 4500 722 
L 5478 4666 
L 6119 4666 
L 4947 0 
L 4153 0 
L 3169 4050 
L 2175 0 
L 1381 0 
L 213 4666 
z
" transform="scale(0.015625)"/>
       <path id="DejaVuSans-2f" d="M 1625 4666 
L 2156 4666 
L 531 -594 
L 0 -594 
L 1625 4666 
z
" transform="scale(0.015625)"/>
       <path id="DejaVuSans-6d" d="M 3328 2828 
Q 3544 3216 3844 3400 
Q 4144 3584 4550 3584 
Q 5097 3584 5394 3201 
Q 5691 2819 5691 2113 
L 5691 0 
L 5113 0 
L 5113 2094 
Q 5113 2597 4934 2840 
Q 4756 3084 4391 3084 
Q 3944 3084 3684 2787 
Q 3425 2491 3425 1978 
L 3425 0 
L 2847 0 
L 2847 2094 
Q 2847 2600 2669 2842 
Q 2491 3084 2119 3084 
Q 1678 3084 1418 2786 
Q 1159 2488 1159 1978 
L 1159 0 
L 581 0 
L 581 3500 
L 1159 3500 
L 1159 2956 
Q 1356 3278 1631 3431 
Q 1906 3584 2284 3584 
Q 2666 3584 2933 3390 
Q 3200 3197 3328 2828 
z
" transform="scale(0.015625)"/>
      </defs>
      <use xlink:href="#DejaVuSans-48" transform="translate(0 0.765625)"/>
      <use xlink:href="#DejaVuSans-65" transform="translate(75.195312 0.765625)"/>
      <use xlink:href="#DejaVuSans-61" transform="translate(136.71875 0.765625)"/>
      <use xlink:href="#DejaVuSans-74" transform="translate(197.998047 0.765625)"/>
      <use xlink:href="#DejaVuSans-20" transform="translate(237.207031 0.765625)"/>
      <use xlink:href="#DejaVuSans-66" transform="translate(268.994141 0.765625)"/>
      <use xlink:href="#DejaVuSans-6c" transform="translate(304.199219 0.765625)"/>
      <use xlink:href="#DejaVuSans-75" transform="translate(331.982422 0.765625)"/>
      <use xlink:href="#DejaVuSans-78" transform="translate(395.361328 0.765625)"/>
      <use xlink:href="#DejaVuSans-20" transform="translate(454.541016 0.765625)"/>
      <use xlink:href="#DejaVuSans-5b" transform="translate(518.798503 0.765625)"/>
      <use xlink:href="#DejaVuSans-57" transform="translate(557.812175 0.765625)"/>
      <use xlink:href="#DejaVuSans-2f" transform="translate(656.689128 0.765625)"/>
      <use xlink:href="#DejaVuSans-6d" transform="translate(690.380535 0.765625)"/>
      <use xlink:href="#DejaVuSans-32" transform="translate(788.749675 39.046875) scale(0.7)"/>
      <use xlink:href="#DejaVuSans-5d" transform="translate(836.020183 0.765625)"/>
     </g>
    </g>
   </g>
   <g id="line2d_74">
    <path d="M 40.116614 103.850955 
L 40.811521 101.203357 
L 42.664607 95.783992 
L 43.359515 94.215965 
L 44.286057 92.326122 
L 44.980965 94.174162 
L 47.065686 98.597068 
L 48.455501 99.909379 
L 49.613679 98.814212 
L 49.845315 98.605145 
L 50.771858 97.133303 
L 51.003494 79.395645 
L 51.466765 68.997767 
L 51.930037 64.582988 
L 52.393308 61.864004 
L 52.624944 59.889896 
L 53.319851 48.005915 
L 54.709665 35.970049 
L 55.404573 35.190724 
L 56.09948 33.639334 
L 56.794387 34.66007 
L 57.489294 44.019637 
L 58.879108 58.053698 
L 59.805651 73.775568 
L 60.268923 80.136401 
L 60.96383 93.705957 
L 61.658737 99.421535 
L 62.353644 110.8906 
L 63.048552 119.113865 
L 63.743459 121.534886 
L 64.438366 127.566348 
L 65.133273 120.491965 
L 66.059816 117.567257 
L 66.986359 115.353194 
L 68.376173 112.758424 
L 71.850709 107.014833 
L 73.47216 105.176377 
L 75.09361 104.606641 
L 76.251788 104.121174 
L 77.641603 103.92955 
L 78.568146 102.074308 
L 79.263053 101.100203 
L 80.884503 99.437204 
L 81.811046 98.31319 
L 82.737589 96.225881 
L 83.432496 95.101075 
L 84.127403 94.379881 
L 84.359039 69.829995 
L 84.82231 55.599111 
L 85.285582 47.826169 
L 85.980489 43.048703 
L 86.675396 32.803603 
L 87.601939 24.301177 
L 88.065211 20.977627 
L 88.760118 20.983847 
L 89.223389 20.448456 
L 89.455025 20.327399 
L 91.076475 32.467133 
L 92.234654 44.266156 
L 93.161197 62.257907 
L 93.856104 75.667762 
L 96.404097 131.132217 
L 97.099004 134.868643 
L 97.33064 138.93377 
L 97.562276 140.003943 
L 97.793911 141.696887 
L 98.257183 136.936661 
L 98.720454 133.901359 
L 99.646997 130.015931 
L 100.341904 127.830944 
L 101.731719 124.304964 
L 102.658262 122.317294 
L 103.353169 118.345015 
L 104.279712 114.365853 
L 105.43789 110.616479 
L 106.596069 107.333735 
L 109.607334 99.967882 
L 110.997148 97.819998 
L 115.166591 95.519527 
L 116.093134 96.921795 
L 116.788041 97.630077 
L 117.482948 98.068345 
L 117.714584 90.781263 
L 118.409491 84.143955 
L 118.641127 83.235305 
L 118.872763 80.519275 
L 119.336034 73.215282 
L 120.494213 59.165071 
L 121.18912 51.626669 
L 121.420756 45.772656 
L 121.652392 45.446866 
L 122.115663 44.125697 
L 122.81057 41.524585 
L 123.505477 44.158471 
L 124.895292 59.369556 
L 126.748378 80.766446 
L 126.980013 82.949322 
L 127.211649 81.280624 
L 127.674921 86.509689 
L 128.369828 90.153223 
L 129.064735 102.758012 
L 129.759642 112.765603 
L 130.686185 120.416921 
L 131.149457 125.286201 
L 131.612728 120.701738 
L 131.844364 118.968051 
L 132.770907 117.194747 
L 133.465814 116.237494 
L 134.623993 115.117543 
L 135.782171 114.121691 
L 136.013807 113.957057 
L 136.708714 109.352017 
L 137.866893 103.550729 
L 139.256707 97.795181 
L 140.18325 94.344668 
L 140.878157 96.029431 
L 141.573064 97.268845 
L 142.962879 98.146907 
L 144.121058 99.6774 
L 145.279236 100.911277 
L 145.974143 101.639008 
L 146.900686 102.672611 
L 147.363958 102.979933 
L 148.522136 103.429213 
L 149.217044 102.912345 
L 150.143587 102.503894 
L 150.838494 102.355842 
L 151.070129 86.178267 
L 152.228308 55.157679 
L 152.69158 46.83908 
L 153.386487 41.017163 
L 153.849758 40.513103 
L 154.081394 40.158902 
L 154.776301 39.739772 
L 155.471208 40.841429 
L 155.93448 41.153011 
L 156.166116 41.392832 
L 157.092658 51.049767 
L 157.787566 61.898502 
L 158.019201 70.428785 
L 159.17738 88.109488 
L 160.103923 102.243753 
L 161.030466 113.932447 
L 161.493737 116.899847 
L 161.725373 120.954074 
L 162.188645 121.821106 
L 162.883552 123.916989 
L 163.115187 124.600559 
L 163.578459 123.431681 
L 163.810095 122.989777 
L 164.04173 123.35867 
L 164.273366 122.668077 
L 164.505002 122.327512 
L 165.199909 118.700228 
L 165.894816 115.476035 
L 166.821359 112.273091 
L 168.211174 108.833351 
L 169.369352 106.278849 
L 170.064259 107.350313 
L 171.222438 108.773104 
L 172.148981 109.950391 
L 173.30716 110.384634 
L 173.538795 110.48753 
L 174.233703 107.822185 
L 175.855153 103.348615 
L 176.55006 101.95549 
L 177.708239 100.406378 
L 178.403146 100.658179 
L 179.79296 100.789278 
L 181.877682 100.921547 
L 182.572589 98.452171 
L 183.962403 94.721769 
L 184.194039 94.152699 
L 184.425675 75.856832 
L 185.120582 56.576955 
L 185.583853 50.381147 
L 186.047125 44.483663 
L 186.973668 42.028464 
L 187.436939 41.487255 
L 188.131846 39.965911 
L 188.826754 40.391702 
L 189.290025 41.264687 
L 189.521661 40.407234 
L 189.984932 48.961135 
L 190.216568 52.071612 
L 190.448204 52.143359 
L 190.911475 53.007036 
L 192.532925 77.073802 
L 193.459468 87.112085 
L 193.691104 93.113323 
L 194.386011 98.015382 
L 195.080918 107.219524 
L 196.239097 116.976675 
L 196.702368 120.389336 
L 197.16564 120.236319 
L 197.628911 120.600569 
L 197.860547 120.982916 
L 199.018726 115.738154 
L 199.945269 112.208845 
L 201.103447 109.189334 
L 202.724897 105.435408 
L 203.419805 106.450903 
L 204.114712 107.087378 
L 206.431069 107.967254 
L 206.894341 108.141939 
L 207.589248 106.898918 
L 208.515791 105.756043 
L 209.673969 104.737103 
L 211.063784 103.757855 
L 211.990327 103.907281 
L 212.685234 104.027484 
L 213.843413 104.346856 
L 215.233227 104.109597 
L 215.928134 101.648543 
L 216.854677 99.368558 
L 217.549584 98.052758 
L 217.78122 75.564613 
L 218.476127 58.10843 
L 218.707763 57.145941 
L 220.329213 34.468725 
L 221.255756 25.572604 
L 221.487392 23.203697 
L 221.719027 23.270561 
L 222.182299 23.045685 
L 222.877206 23.463942 
L 223.108842 25.53896 
L 223.340478 28.625571 
L 223.572113 30.22359 
L 224.26702 41.898879 
L 225.656835 53.078532 
L 225.888471 53.186799 
L 226.120106 53.597723 
L 226.351742 52.594225 
L 227.046649 56.500654 
L 228.436464 82.840916 
L 229.131371 109.670636 
L 229.826278 128.864971 
L 231.216092 147.11402 
L 232.142635 137.397565 
L 232.837543 131.374363 
L 233.764085 125.438524 
L 234.690628 120.779391 
L 235.848807 116.289031 
L 236.543714 114.236563 
L 237.933529 110.88315 
L 239.091707 108.617604 
L 240.249886 106.823857 
L 240.944793 107.093573 
L 241.871336 107.204061 
L 243.492786 107.231701 
L 244.419329 107.366128 
L 245.114236 104.987951 
L 245.809143 103.169055 
L 247.662229 100.087918 
L 250.90513 93.510109 
L 251.136765 61.527534 
L 251.368401 62.43195 
L 251.600037 60.944653 
L 252.063308 62.512779 
L 252.294944 62.370631 
L 253.453123 57.459069 
L 254.14803 53.467951 
L 254.379666 48.919162 
L 255.074573 44.39308 
L 255.76948 38.815002 
L 256.001116 32.984249 
L 256.232751 31.330365 
L 256.927659 30.849645 
L 257.622566 33.693837 
L 257.854201 36.258223 
L 261.097102 91.373299 
L 261.328737 93.109418 
L 261.560373 96.782887 
L 261.792009 98.312456 
L 262.486916 112.590203 
L 263.181823 123.684915 
L 263.87673 126.599386 
L 264.108366 129.996621 
L 264.340002 130.81388 
L 264.571638 132.073107 
L 265.266545 125.259273 
L 266.193088 121.448096 
L 267.119631 118.656634 
L 268.277809 115.958659 
L 270.130895 111.839316 
L 271.289074 109.332893 
L 272.447253 107.337457 
L 273.837067 105.026201 
L 274.068703 104.41292 
L 274.068703 104.41292 
" clip-path="url(#p529fb52d99)" style="fill: none; stroke: #000000; stroke-width: 0.75; stroke-linecap: square"/>
   </g>
   <g id="line2d_75">
    <path d="M 40.116614 101.520532 
L 40.34825 101.600675 
L 40.811521 101.018707 
L 42.201336 98.621552 
L 43.822786 95.742901 
L 44.517693 94.677699 
L 44.980965 94.791966 
L 45.675872 95.354115 
L 46.370779 96.160914 
L 47.760593 97.844225 
L 48.687136 98.59556 
L 49.150408 98.613755 
L 50.076951 98.335677 
L 51.003494 97.599167 
L 51.466765 88.234124 
L 51.930037 82.367381 
L 52.624944 76.915511 
L 53.088215 72.97351 
L 54.014758 64.086103 
L 54.941301 57.326055 
L 55.636208 54.675129 
L 56.331115 52.629653 
L 56.794387 52.054787 
L 57.026023 51.90827 
L 57.489294 53.835684 
L 59.110744 63.184921 
L 60.500559 76.490238 
L 61.427102 86.808076 
L 62.353644 95.249298 
L 63.280187 104.051683 
L 64.670002 112.179522 
L 64.901637 112.146489 
L 67.217995 108.591225 
L 68.839445 106.741661 
L 72.777252 102.875162 
L 73.935431 102.12464 
L 75.325245 101.745965 
L 76.946696 101.431745 
L 77.873238 101.377978 
L 78.568146 100.8073 
L 79.95796 99.627146 
L 81.57941 98.450397 
L 82.274317 97.806726 
L 83.895767 95.839573 
L 84.359039 95.431627 
L 84.82231 82.745557 
L 85.517218 70.987326 
L 86.907032 57.062783 
L 87.833575 49.250607 
L 88.528482 45.093306 
L 89.223389 43.072895 
L 89.686661 42.065018 
L 89.918296 42.20316 
L 90.381568 43.040338 
L 91.076475 45.087111 
L 91.771382 48.518571 
L 92.466289 52.603199 
L 93.392832 62.305274 
L 94.319375 73.68487 
L 95.477554 90.521734 
L 96.172461 101.972431 
L 96.867368 110.634667 
L 98.025547 119.956586 
L 98.257183 120.207532 
L 98.488819 120.101245 
L 99.646997 118.393934 
L 101.268447 115.783652 
L 103.121533 113.022834 
L 105.206255 107.597185 
L 106.827705 104.337186 
L 109.375698 100.076317 
L 110.302241 98.709568 
L 111.460419 97.437165 
L 112.618598 96.735279 
L 114.471684 95.9535 
L 115.398227 95.619526 
L 116.093134 95.959092 
L 117.714584 96.931523 
L 118.177856 93.351701 
L 118.641127 90.522082 
L 119.104399 88.079214 
L 120.262577 77.997121 
L 121.420756 68.743795 
L 121.884027 64.34435 
L 122.578935 60.923959 
L 123.042206 59.02074 
L 123.505477 58.592307 
L 123.737113 58.586533 
L 124.200385 59.944898 
L 124.663656 62.109962 
L 125.590199 68.152479 
L 127.443285 80.503554 
L 128.369828 85.425883 
L 128.601464 86.446855 
L 131.149457 108.309485 
L 131.381092 109.931043 
L 131.612728 110.144802 
L 131.844364 110.003746 
L 132.076 109.665861 
L 135.087264 108.134719 
L 136.245443 107.685968 
L 136.94035 105.785725 
L 139.719979 97.571616 
L 140.414886 95.734179 
L 140.878157 95.57154 
L 141.341429 95.743766 
L 142.731243 96.478529 
L 143.42615 96.850899 
L 148.290501 100.506989 
L 148.985408 100.704207 
L 151.070129 100.42831 
L 151.996672 82.990216 
L 152.923215 69.401092 
L 153.618122 62.702988 
L 154.31303 59.205934 
L 155.007937 57.215198 
L 155.471208 56.658884 
L 156.397751 56.185097 
L 156.861023 57.461206 
L 157.092658 58.304466 
L 157.787566 63.024662 
L 158.019201 65.170789 
L 158.482473 71.41421 
L 161.030466 98.27744 
L 161.957009 105.877541 
L 162.651916 109.198615 
L 163.346823 111.69225 
L 163.810095 112.185081 
L 164.04173 112.280168 
L 164.273366 112.554151 
L 164.736638 112.525823 
L 165.431545 111.256227 
L 167.284631 107.063005 
L 168.674445 104.72164 
L 169.600988 103.346198 
L 170.064259 103.330651 
L 170.990802 103.720142 
L 173.538795 105.579562 
L 173.770431 105.695076 
L 174.233703 105.155184 
L 175.623517 102.978235 
L 176.781696 101.155879 
L 177.939874 99.907657 
L 178.634781 99.717023 
L 180.024596 99.664498 
L 182.109317 99.773955 
L 182.804225 98.803854 
L 184.425675 96.068821 
L 184.888946 86.008227 
L 185.583853 74.577377 
L 186.278761 66.680807 
L 186.973668 62.12672 
L 187.668575 59.568607 
L 188.363482 57.555906 
L 188.826754 56.853926 
L 189.290025 56.521103 
L 189.521661 56.49347 
L 189.753297 56.119052 
L 190.679839 61.099187 
L 191.143111 62.151797 
L 191.838018 66.888389 
L 192.069654 68.587704 
L 192.532925 73.378059 
L 196.007461 101.429833 
L 196.934004 107.165971 
L 197.397276 108.562181 
L 198.092183 110.04464 
L 198.323819 110.026765 
L 198.78709 109.669613 
L 199.713633 107.89938 
L 200.871812 105.697389 
L 202.724897 102.76689 
L 202.956533 102.43648 
L 203.419805 102.402935 
L 204.346348 102.749753 
L 207.357612 103.70368 
L 208.515791 103.007286 
L 210.368877 102.00886 
L 211.527055 101.583259 
L 212.685234 101.588935 
L 215.001591 101.907025 
L 215.464863 101.90866 
L 216.15977 100.936169 
L 217.78122 98.561775 
L 218.244491 87.012673 
L 218.707763 78.973835 
L 220.097577 63.341319 
L 220.792485 56.449447 
L 221.950663 47.648477 
L 222.413935 45.98278 
L 222.877206 44.968058 
L 223.108842 44.609326 
L 223.340478 44.905976 
L 223.803749 46.459523 
L 225.888471 59.522482 
L 226.351742 60.844282 
L 226.583378 60.934199 
L 227.046649 62.124312 
L 227.278285 62.896052 
L 227.973192 69.022342 
L 228.668099 76.73847 
L 230.521185 110.8316 
L 231.216092 119.24021 
L 231.447728 121.777235 
L 231.679364 122.507562 
L 231.911 122.679003 
L 232.142635 122.559128 
L 232.605907 121.324758 
L 235.848807 110.848034 
L 236.77535 108.755177 
L 237.933529 106.727999 
L 239.091707 105.077082 
L 240.249886 103.77142 
L 240.713157 103.459418 
L 241.408065 103.391343 
L 243.724422 103.546442 
L 244.650965 103.712085 
L 245.345872 102.840878 
L 246.735686 100.982875 
L 248.357137 99.06843 
L 250.673494 95.966112 
L 251.136765 95.259756 
L 251.368401 85.280971 
L 251.831672 79.290572 
L 252.294944 76.767305 
L 254.379666 68.008955 
L 254.842937 64.654823 
L 256.001116 57.990485 
L 256.464387 53.632241 
L 256.927659 51.60614 
L 257.159294 50.877899 
L 257.39093 50.597675 
L 257.622566 50.510725 
L 257.854201 50.57322 
L 258.085837 51.230842 
L 258.549109 54.218195 
L 259.244016 60.186555 
L 263.87673 109.157737 
L 265.034909 115.145433 
L 265.266545 114.818095 
L 265.961452 113.489615 
L 267.814538 110.344076 
L 269.204352 108.462546 
L 270.130895 107.237419 
L 271.752345 104.987496 
L 273.14216 103.455447 
L 274.068703 102.498348 
L 274.068703 102.498348 
" clip-path="url(#p529fb52d99)" style="fill: none; stroke: #180f0d; stroke-width: 0.75; stroke-linecap: square"/>
   </g>
   <g id="line2d_76">
    <path d="M 40.116614 100.435187 
L 40.579886 100.496958 
L 41.043157 100.1675 
L 41.9697 99.102306 
L 44.749329 95.444005 
L 45.2126 95.407244 
L 45.907508 95.713932 
L 46.602415 96.285957 
L 48.223865 97.738061 
L 48.918772 98.159816 
L 49.613679 98.221943 
L 50.308586 98.075033 
L 51.003494 97.710102 
L 51.235129 96.175091 
L 51.930037 88.656891 
L 52.624944 83.367565 
L 53.319851 78.523625 
L 54.47803 69.956352 
L 55.172937 65.864079 
L 55.867844 63.218379 
L 56.562751 61.276353 
L 57.026023 60.52481 
L 57.257658 60.503519 
L 57.489294 60.879793 
L 58.184201 62.989846 
L 58.879108 65.725546 
L 59.34238 68.00355 
L 60.500559 76.090919 
L 63.743459 100.608968 
L 64.901637 106.048655 
L 65.133273 106.309702 
L 65.596545 106.189305 
L 66.291452 105.730112 
L 69.071081 103.55171 
L 73.703795 100.61559 
L 74.630338 100.351262 
L 76.71506 100.090309 
L 78.33651 99.945471 
L 79.494689 99.243526 
L 82.737589 97.271099 
L 84.359039 95.825564 
L 84.590675 93.721499 
L 85.517218 80.405884 
L 86.212125 73.660151 
L 88.065211 59.189198 
L 88.760118 55.541116 
L 89.455025 53.341168 
L 89.918296 52.387108 
L 90.149932 52.274409 
L 90.381568 52.326291 
L 90.844839 52.798206 
L 91.308111 53.679298 
L 92.003018 55.905161 
L 92.697925 58.959593 
L 93.392832 63.967631 
L 94.319375 72.065906 
L 95.477554 84.652678 
L 96.867368 101.318187 
L 97.793911 108.555376 
L 98.257183 111.181634 
L 98.488819 111.731887 
L 98.720454 111.988483 
L 99.183726 112.056375 
L 99.646997 111.821736 
L 100.805176 110.778639 
L 103.353169 108.364641 
L 106.827705 102.518738 
L 108.680791 100.185368 
L 110.765512 97.76811 
L 111.692055 97.004725 
L 112.850234 96.428565 
L 114.70332 95.812362 
L 115.629863 95.593256 
L 116.32477 95.790972 
L 117.714584 96.432908 
L 117.94622 95.936318 
L 119.336034 89.777221 
L 121.420756 76.209508 
L 122.115663 71.349762 
L 122.81057 68.152709 
L 123.273842 66.552125 
L 123.737113 65.821123 
L 123.968749 65.776091 
L 124.200385 66.0057 
L 124.663656 66.996771 
L 125.358563 69.726145 
L 126.285106 74.51969 
L 127.443285 80.69316 
L 128.138192 83.526304 
L 128.833099 86.376657 
L 129.759642 92.813058 
L 130.686185 99.025555 
L 131.612728 104.259876 
L 131.844364 104.718513 
L 132.307635 104.963734 
L 133.002542 105.016968 
L 134.855628 104.668457 
L 136.477078 104.284074 
L 136.94035 103.556553 
L 138.098529 101.074534 
L 140.414886 96.0287 
L 140.878157 95.492199 
L 141.341429 95.395729 
L 142.036336 95.593683 
L 143.657786 96.239711 
L 145.974143 97.735094 
L 148.522136 99.285426 
L 149.217044 99.480287 
L 150.375222 99.46016 
L 151.070129 99.431722 
L 151.301765 98.137652 
L 151.996672 89.884219 
L 153.154851 76.268319 
L 153.849758 70.570977 
L 154.544665 67.1447 
L 155.239573 65.089516 
L 155.702844 64.335931 
L 156.397751 63.636382 
L 156.629387 63.632054 
L 157.092658 64.265522 
L 157.55593 65.788311 
L 158.019201 68.103166 
L 159.640652 81.680621 
L 161.262102 94.973953 
L 162.188645 101.048223 
L 162.883552 104.109089 
L 163.578459 106.283779 
L 164.04173 106.973034 
L 164.505002 107.450288 
L 164.968273 107.565673 
L 165.431545 107.201439 
L 166.126452 106.230593 
L 167.747902 103.785383 
L 169.369352 101.873733 
L 169.832624 101.462299 
L 170.295895 101.398124 
L 170.990802 101.580344 
L 171.68571 101.991246 
L 173.538795 103.217119 
L 174.002067 103.362149 
L 174.465338 103.100902 
L 175.391881 102.196223 
L 177.476603 99.872685 
L 178.17151 99.348793 
L 178.866417 99.149621 
L 180.024596 99.089866 
L 182.340953 99.144244 
L 183.03586 98.527425 
L 184.425675 96.778671 
L 184.65731 95.053068 
L 186.047125 78.40412 
L 186.742032 72.624044 
L 187.436939 69.034607 
L 188.131846 66.701393 
L 188.826754 65.041889 
L 189.290025 64.38033 
L 189.753297 63.923376 
L 189.984932 64.051386 
L 191.606382 68.756453 
L 192.30129 72.548546 
L 193.227833 78.599306 
L 195.080918 90.621751 
L 196.239097 97.763148 
L 197.16564 102.385797 
L 197.860547 104.338969 
L 198.323819 105.175434 
L 198.78709 105.348514 
L 199.250362 105.09158 
L 199.945269 104.284156 
L 201.798355 101.975135 
L 203.188169 100.512287 
L 203.65144 100.437592 
L 204.346348 100.598437 
L 207.589248 101.66342 
L 208.515791 101.391339 
L 211.29542 100.453011 
L 212.221962 100.382318 
L 213.380141 100.503075 
L 215.233227 100.775214 
L 215.696498 100.730552 
L 216.391406 100.129446 
L 217.78122 98.610064 
L 218.012856 96.608875 
L 218.939399 84.420971 
L 220.560849 69.083294 
L 221.719027 60.497849 
L 222.182299 57.968404 
L 222.877206 55.593877 
L 223.340478 54.749939 
L 223.572113 54.828028 
L 223.803749 55.108467 
L 224.035385 55.640018 
L 224.730292 58.7371 
L 226.120106 64.43154 
L 226.583378 65.423583 
L 227.046649 66.153613 
L 227.278285 66.633017 
L 227.509921 67.427662 
L 227.973192 70.039584 
L 228.668099 75.330086 
L 229.131371 80.893211 
L 230.752821 103.581832 
L 231.447728 110.662459 
L 231.911 113.324048 
L 232.142635 113.882231 
L 232.374271 114.088381 
L 232.605907 114.008355 
L 233.069178 113.378808 
L 233.995721 111.353312 
L 235.617171 107.697082 
L 236.77535 105.632426 
L 237.933529 104.089569 
L 239.323343 102.643241 
L 240.481522 101.714077 
L 240.944793 101.51776 
L 241.6397 101.462579 
L 243.492786 101.651258 
L 244.882601 101.857751 
L 245.345872 101.558971 
L 249.052044 98.137988 
L 251.136765 95.915446 
L 252.294944 83.034274 
L 253.221487 78.871932 
L 254.611301 73.618009 
L 255.76948 67.957407 
L 256.232751 65.345035 
L 256.696023 62.411169 
L 257.159294 60.469245 
L 257.622566 59.364229 
L 257.854201 59.090613 
L 258.085837 59.075688 
L 258.317473 59.47515 
L 258.780744 61.258795 
L 259.475652 65.405898 
L 260.865466 76.698556 
L 263.87673 101.921602 
L 264.803273 107.32365 
L 265.034909 108.169908 
L 265.266545 108.510311 
L 265.498181 108.559018 
L 265.961452 108.335576 
L 266.656359 107.695956 
L 268.741081 105.565512 
L 273.605431 101.35258 
L 274.068703 101.025662 
L 274.068703 101.025662 
" clip-path="url(#p529fb52d99)" style="fill: none; stroke: #7a1514; stroke-width: 0.75; stroke-linecap: square"/>
   </g>
   <g id="line2d_77">
    <path d="M 40.116614 99.429724 
L 40.811521 99.527423 
L 41.274793 99.334128 
L 42.201336 98.612105 
L 44.980965 95.972415 
L 45.444236 95.906098 
L 46.139143 96.087566 
L 47.065686 96.641279 
L 48.455501 97.538038 
L 49.150408 97.845226 
L 49.845315 97.918884 
L 50.540222 97.825263 
L 51.003494 97.671544 
L 51.235129 97.212641 
L 51.698401 94.371777 
L 52.624944 88.261246 
L 54.014758 80.404921 
L 55.172937 74.315383 
L 55.867844 71.710552 
L 56.562751 69.774163 
L 57.026023 68.838159 
L 57.257658 68.53729 
L 57.489294 68.453705 
L 57.72093 68.588059 
L 58.184201 69.266701 
L 58.879108 70.82418 
L 59.574016 73.046153 
L 60.500559 77.436673 
L 61.427102 82.835857 
L 63.743459 95.725081 
L 64.901637 100.386845 
L 65.364909 101.264599 
L 65.82818 101.44814 
L 66.523088 101.346214 
L 70.692531 99.876757 
L 73.008888 99.080253 
L 74.398702 98.77078 
L 76.020153 98.711464 
L 78.799781 98.649237 
L 82.274317 97.359716 
L 83.20086 96.80056 
L 84.359039 96.043825 
L 84.590675 95.406541 
L 85.053946 91.525729 
L 85.980489 82.811042 
L 87.138668 74.819272 
L 88.296846 67.983556 
L 88.991754 64.955378 
L 89.686661 62.886183 
L 90.149932 61.977373 
L 90.613204 61.632215 
L 91.076475 61.694294 
L 91.539747 62.11098 
L 92.003018 62.889766 
L 92.697925 64.587752 
L 93.161197 66.420197 
L 94.08774 71.408049 
L 95.014283 77.98845 
L 95.940825 85.872071 
L 97.099004 95.995942 
L 98.025547 101.759689 
L 98.488819 103.763161 
L 98.95209 104.6839 
L 99.415361 105.022848 
L 99.878633 105.078403 
L 100.805176 104.851288 
L 103.353169 103.937265 
L 104.048076 103.276068 
L 106.364433 100.798059 
L 108.217519 99.188735 
L 111.692055 96.584401 
L 112.850234 96.136908 
L 114.934955 95.63835 
L 115.861498 95.503102 
L 116.556406 95.636283 
L 117.714584 96.036135 
L 117.94622 95.957766 
L 118.409491 94.962764 
L 119.336034 92.105405 
L 120.262577 87.921238 
L 122.81057 75.382126 
L 123.505477 73.258855 
L 123.968749 72.523086 
L 124.200385 72.405305 
L 124.43202 72.451624 
L 124.663656 72.644194 
L 125.126928 73.462061 
L 125.821835 75.426085 
L 126.748378 78.873592 
L 127.674921 82.233327 
L 129.064735 86.550089 
L 129.759642 89.92875 
L 131.149457 96.928195 
L 131.844364 99.744372 
L 132.307635 100.463523 
L 132.770907 100.759953 
L 133.465814 100.940882 
L 136.013807 101.140343 
L 136.477078 101.145663 
L 136.94035 100.870776 
L 137.635257 100.043822 
L 139.256707 97.57467 
L 140.878157 95.280814 
L 141.341429 95.06478 
L 142.036336 95.109404 
L 143.657786 95.587272 
L 145.279236 96.386402 
L 148.985408 98.237092 
L 149.911951 98.388656 
L 151.070129 98.427283 
L 151.301765 98.097534 
L 151.533401 97.056443 
L 151.996672 93.581587 
L 153.618122 79.799438 
L 154.31303 75.903644 
L 155.007937 73.410792 
L 155.702844 71.853644 
L 156.397751 70.906139 
L 156.861023 70.633912 
L 157.092658 70.6995 
L 157.324294 70.904964 
L 157.787566 71.82505 
L 158.250837 73.453818 
L 159.409016 80.054373 
L 161.957009 95.063102 
L 162.651916 98.202989 
L 163.346823 100.446992 
L 163.810095 101.537107 
L 164.505002 102.500934 
L 164.968273 102.858425 
L 165.431545 102.888023 
L 165.894816 102.66516 
L 166.821359 101.858006 
L 168.211174 100.654189 
L 169.832624 99.525447 
L 170.295895 99.416628 
L 170.990802 99.535981 
L 171.917345 99.990541 
L 174.002067 101.194529 
L 174.465338 101.191613 
L 175.160245 100.879303 
L 176.318424 100.023246 
L 177.708239 99.023482 
L 178.634781 98.614517 
L 179.561324 98.516494 
L 181.646046 98.608803 
L 182.572589 98.598158 
L 183.267496 98.193807 
L 184.425675 97.163597 
L 184.65731 96.565577 
L 185.120582 93.331816 
L 186.510396 81.726243 
L 187.205304 77.797613 
L 187.900211 75.201082 
L 188.826754 72.803091 
L 189.521661 71.672015 
L 189.984932 71.19841 
L 190.216568 71.270377 
L 191.374747 72.96396 
L 191.838018 74.008965 
L 192.30129 75.562573 
L 194.386011 85.238938 
L 197.16564 97.697621 
L 197.860547 99.642915 
L 198.323819 100.535439 
L 198.78709 101.014163 
L 199.250362 101.121008 
L 199.713633 100.960901 
L 200.640176 100.315797 
L 202.956533 98.673462 
L 203.419805 98.45637 
L 204.114712 98.473106 
L 205.504526 98.934894 
L 207.820884 99.729706 
L 208.747426 99.648421 
L 211.990327 99.188451 
L 213.380141 99.327202 
L 215.696498 99.693189 
L 216.15977 99.556877 
L 217.086313 98.938022 
L 217.78122 98.404741 
L 218.012856 97.76889 
L 218.476127 94.173447 
L 219.634306 84.41577 
L 221.255756 73.230467 
L 222.182299 68.128856 
L 222.877206 65.602266 
L 223.340478 64.476622 
L 223.572113 64.169564 
L 223.803749 64.064103 
L 224.035385 64.135502 
L 224.26702 64.421709 
L 224.730292 65.536331 
L 226.351742 69.795919 
L 226.815014 70.414187 
L 227.278285 70.909854 
L 227.509921 71.273677 
L 227.973192 72.634827 
L 228.668099 75.948072 
L 229.131371 79.24144 
L 230.057914 88.932284 
L 230.984457 98.062996 
L 231.679364 103.469771 
L 232.142635 105.612035 
L 232.605907 106.499047 
L 232.837543 106.60637 
L 233.300814 106.427791 
L 233.995721 105.667202 
L 236.543714 102.376567 
L 237.701893 101.337884 
L 239.091707 100.407755 
L 240.481522 99.71189 
L 241.176429 99.535022 
L 242.102972 99.586253 
L 244.419329 100.044131 
L 245.114236 100.133205 
L 245.809143 99.856791 
L 249.746951 97.362497 
L 251.136765 96.283576 
L 251.368401 95.424753 
L 252.294944 87.980872 
L 252.989851 84.879601 
L 253.916394 81.897621 
L 254.842937 78.92192 
L 256.464387 72.271926 
L 257.159294 69.208975 
L 257.622566 67.853399 
L 258.085837 67.09822 
L 258.317473 67.018164 
L 258.549109 67.199894 
L 259.01238 68.22755 
L 259.475652 69.901412 
L 260.170559 73.426955 
L 262.718552 88.503095 
L 264.108366 97.482863 
L 265.034909 101.733359 
L 265.498181 102.749765 
L 265.961452 103.007934 
L 266.424724 102.966932 
L 267.351266 102.558635 
L 269.667624 101.464621 
L 270.825802 100.89561 
L 273.14216 99.718395 
L 274.068703 99.340316 
L 274.068703 99.340316 
" clip-path="url(#p529fb52d99)" style="fill: none; stroke: #ac2a1a; stroke-width: 0.75; stroke-linecap: square"/>
   </g>
   <g id="line2d_78">
    <path d="M 40.116614 98.495437 
L 41.043157 98.633142 
L 41.738064 98.433583 
L 42.896243 97.794607 
L 45.2126 96.387864 
L 45.907508 96.364778 
L 46.83405 96.616374 
L 49.382044 97.590861 
L 50.308586 97.635206 
L 51.003494 97.538203 
L 51.235129 97.383462 
L 51.466765 96.898357 
L 51.930037 94.968088 
L 52.856579 90.928102 
L 54.014758 86.291914 
L 55.404573 80.854144 
L 56.331115 78.239852 
L 57.026023 76.739714 
L 57.489294 76.071089 
L 57.952566 75.912121 
L 58.415837 76.132256 
L 59.110744 76.847858 
L 59.574016 77.592487 
L 60.268923 79.330336 
L 61.195466 82.355375 
L 63.975095 92.733732 
L 65.133273 96.038309 
L 65.596545 96.692311 
L 66.059816 96.957456 
L 66.986359 97.138012 
L 69.997624 97.266491 
L 72.545617 97.155477 
L 75.09361 97.164533 
L 79.263053 97.47092 
L 82.737589 96.789805 
L 84.359039 96.123545 
L 84.590675 95.894862 
L 84.82231 95.222009 
L 85.285582 92.567261 
L 86.44376 85.594573 
L 88.296846 76.942864 
L 89.223389 73.637764 
L 90.149932 71.368345 
L 90.613204 70.695176 
L 91.076475 70.331807 
L 91.539747 70.217119 
L 92.003018 70.360375 
L 92.466289 70.719152 
L 92.929561 71.327134 
L 93.392832 72.367877 
L 94.08774 74.523569 
L 94.782647 77.343744 
L 95.70919 82.045135 
L 97.793911 93.76106 
L 98.488819 96.509843 
L 98.95209 97.582783 
L 99.415361 98.164682 
L 100.110269 98.611932 
L 101.268447 98.956424 
L 103.353169 99.331737 
L 104.048076 99.191321 
L 106.364433 98.187452 
L 111.923691 95.974304 
L 113.545141 95.660963 
L 116.093134 95.391775 
L 117.251313 95.6066 
L 117.94622 95.733651 
L 118.177856 95.608351 
L 118.641127 94.915469 
L 119.56767 92.942966 
L 120.494213 90.037423 
L 123.505477 79.882107 
L 123.968749 79.047926 
L 124.43202 78.624348 
L 124.895292 78.623742 
L 125.358563 79.000884 
L 126.05347 80.061786 
L 126.980013 82.078211 
L 127.906556 84.064376 
L 129.296371 86.884853 
L 130.222914 90.008396 
L 131.612728 94.710113 
L 132.076 95.841417 
L 132.539271 96.414614 
L 133.234178 96.864723 
L 134.623993 97.38963 
L 136.708714 97.987447 
L 137.171986 97.887768 
L 137.866893 97.476489 
L 139.256707 96.306697 
L 141.109793 94.759902 
L 141.8047 94.657832 
L 142.962879 94.864641 
L 144.584329 95.339264 
L 149.911951 97.30587 
L 151.070129 97.430259 
L 151.301765 97.359099 
L 151.533401 96.981697 
L 151.996672 95.125238 
L 154.31303 82.630177 
L 155.007937 80.477252 
L 155.702844 78.96578 
L 156.629387 77.620829 
L 157.092658 77.262593 
L 157.55593 77.276445 
L 158.019201 77.725555 
L 158.482473 78.722578 
L 159.409016 81.883567 
L 161.030466 88.267716 
L 162.42028 93.382782 
L 163.115187 95.341609 
L 163.810095 96.836027 
L 164.505002 97.809392 
L 165.199909 98.414947 
L 165.663181 98.564469 
L 166.358088 98.506349 
L 170.527531 97.454355 
L 171.454074 97.744774 
L 172.843888 98.499939 
L 174.233703 99.179608 
L 174.92861 99.206799 
L 175.855153 98.962303 
L 178.634781 97.980524 
L 179.79296 97.941131 
L 183.03586 98.028627 
L 183.962403 97.590528 
L 184.65731 97.061701 
L 184.888946 96.475714 
L 185.352218 94.22178 
L 186.742032 86.406342 
L 187.436939 83.631521 
L 188.131846 81.642216 
L 189.058389 79.631963 
L 189.753297 78.54417 
L 190.216568 78.076204 
L 190.448204 78.051309 
L 191.606382 78.630773 
L 192.069654 79.177726 
L 192.532925 80.100931 
L 194.154375 84.568321 
L 196.934004 93.22385 
L 197.628911 95.014676 
L 198.323819 96.271075 
L 198.78709 96.826291 
L 199.250362 97.120609 
L 199.945269 97.204914 
L 201.103447 96.971237 
L 203.65144 96.405291 
L 204.346348 96.540104 
L 206.431069 97.327098 
L 208.052519 97.893476 
L 209.442334 97.966707 
L 212.685234 98.080482 
L 215.001591 98.531746 
L 216.15977 98.63169 
L 217.086313 98.328892 
L 217.78122 98.015266 
L 218.012856 97.780797 
L 218.244491 97.144421 
L 218.707763 94.701747 
L 219.865942 88.175406 
L 221.719027 79.1503 
L 222.64557 75.594145 
L 223.340478 73.757243 
L 223.803749 72.996071 
L 224.26702 72.742986 
L 224.498656 72.822925 
L 224.961928 73.287207 
L 226.583378 75.199741 
L 227.741556 75.801648 
L 228.204828 76.625888 
L 228.668099 77.919454 
L 229.131371 79.742283 
L 229.826278 84.038668 
L 231.216092 93.53238 
L 231.911 97.230191 
L 232.374271 98.738372 
L 232.837543 99.48399 
L 233.300814 99.735583 
L 233.764085 99.723583 
L 234.690628 99.370853 
L 237.006986 98.328234 
L 238.628436 97.906546 
L 240.713157 97.581487 
L 241.6397 97.623947 
L 243.492786 98.060934 
L 245.345872 98.504776 
L 246.040779 98.39183 
L 249.052044 97.41481 
L 251.136765 96.44298 
L 251.368401 96.130174 
L 251.600037 95.298966 
L 252.52658 90.559176 
L 253.221487 88.406233 
L 256.232751 80.361834 
L 257.622566 75.798409 
L 258.085837 74.898261 
L 258.549109 74.487064 
L 258.780744 74.522242 
L 259.244016 75.013217 
L 259.707287 75.94803 
L 260.402195 78.031871 
L 261.792009 83.140817 
L 262.950188 87.676616 
L 264.571638 94.587617 
L 265.266545 96.754227 
L 265.729816 97.516494 
L 266.193088 97.845956 
L 266.887995 98.021582 
L 268.509445 98.049583 
L 271.057438 97.949517 
L 274.068703 97.549321 
L 274.068703 97.549321 
" clip-path="url(#p529fb52d99)" style="fill: none; stroke: #c46d1c; stroke-width: 0.75; stroke-linecap: square"/>
   </g>
   <g id="line2d_79">
    <path d="M 40.116614 96.815038 
L 42.664607 97.234947 
L 44.286057 97.262266 
L 49.382044 97.088679 
L 51.698401 97.167345 
L 52.393308 96.948108 
L 53.319851 96.320641 
L 54.246394 95.37449 
L 55.404573 93.780162 
L 57.257658 90.717449 
L 58.879108 88.161131 
L 60.037287 86.790192 
L 60.96383 86.089736 
L 61.658737 85.83134 
L 62.353644 85.798178 
L 63.048552 85.969674 
L 63.743459 86.34181 
L 64.670002 87.08222 
L 69.071081 91.088682 
L 70.924167 92.306768 
L 72.777252 93.270974 
L 74.861974 94.115969 
L 77.873238 95.076801 
L 80.421231 95.694603 
L 82.737589 96.020777 
L 84.590675 96.09372 
L 85.285582 95.965479 
L 85.980489 95.513517 
L 86.675396 94.775537 
L 87.601939 93.462485 
L 88.760118 91.401485 
L 92.697925 83.888321 
L 93.624468 82.638255 
L 94.319375 81.967619 
L 95.014283 81.564287 
L 95.70919 81.458008 
L 96.404097 81.671987 
L 97.099004 82.206164 
L 98.025547 83.300399 
L 100.110269 86.407102 
L 101.963354 88.874136 
L 103.584805 90.691311 
L 104.974619 91.967349 
L 106.364433 92.957812 
L 107.985883 93.814351 
L 109.607334 94.409158 
L 111.228784 94.77854 
L 113.545141 95.041937 
L 117.714584 95.226397 
L 119.104399 95.211187 
L 120.030941 94.96675 
L 120.957484 94.448775 
L 121.884027 93.642804 
L 123.042206 92.257153 
L 126.05347 88.349492 
L 126.980013 87.588718 
L 127.906556 87.125448 
L 128.833099 86.898387 
L 129.759642 86.906614 
L 130.454549 87.120363 
L 131.381092 87.675002 
L 132.770907 88.890431 
L 135.087264 90.875912 
L 137.171986 92.401447 
L 138.5618 93.167773 
L 139.951614 93.642456 
L 141.341429 93.862282 
L 145.742508 94.377566 
L 148.753772 95.003774 
L 151.765037 95.671193 
L 152.459944 95.571224 
L 153.154851 95.155032 
L 153.849758 94.456306 
L 155.007937 92.892024 
L 158.482473 87.893171 
L 159.17738 87.258134 
L 159.872287 86.868389 
L 160.567194 86.723313 
L 161.262102 86.810319 
L 161.957009 87.10447 
L 162.883552 87.756513 
L 164.273366 89.062238 
L 166.821359 91.48704 
L 168.211174 92.497487 
L 169.832624 93.405443 
L 173.770431 95.152996 
L 176.086788 96.104665 
L 177.708239 96.528819 
L 180.256232 96.910984 
L 184.194039 97.30206 
L 185.120582 97.251125 
L 185.815489 96.95271 
L 186.510396 96.356711 
L 187.436939 95.217556 
L 189.290025 92.432319 
L 191.374747 89.349393 
L 192.532925 88.035916 
L 193.459468 87.339014 
L 194.154375 87.039394 
L 194.849283 86.932243 
L 195.54419 87.003288 
L 196.470733 87.360077 
L 197.397276 87.971291 
L 199.018726 89.379925 
L 200.871812 90.912888 
L 202.493262 91.947927 
L 204.346348 92.8422 
L 209.442334 94.961608 
L 211.990327 95.748168 
L 216.623041 96.869265 
L 218.244491 97.082579 
L 218.939399 96.941249 
L 219.634306 96.491849 
L 220.329213 95.784383 
L 221.255756 94.495869 
L 222.413935 92.458574 
L 225.425199 86.801996 
L 226.583378 85.234802 
L 227.973192 83.762142 
L 228.899735 83.091382 
L 229.594642 82.883277 
L 230.057914 82.946818 
L 230.521185 83.185846 
L 231.216092 83.834672 
L 232.142635 85.107841 
L 234.458993 88.557613 
L 235.848807 90.166455 
L 237.238621 91.434796 
L 238.860072 92.590938 
L 240.713157 93.600447 
L 243.26115 94.679597 
L 246.504051 95.848312 
L 248.357137 96.265835 
L 250.210222 96.469407 
L 251.600037 96.464766 
L 252.294944 96.218405 
L 253.221487 95.550198 
L 254.611301 94.201249 
L 256.001116 92.510646 
L 257.159294 90.78254 
L 259.707287 86.718116 
L 260.63383 85.741022 
L 261.328737 85.293934 
L 262.023645 85.089466 
L 262.718552 85.107135 
L 263.413459 85.35508 
L 264.108366 85.835216 
L 265.034909 86.747272 
L 268.277809 90.273224 
L 269.89926 91.634729 
L 271.52071 92.746246 
L 273.373795 93.733854 
L 274.068703 94.039169 
L 274.068703 94.039169 
" clip-path="url(#p529fb52d99)" style="fill: none; stroke: #ffe100; stroke-width: 0.75; stroke-linecap: square"/>
   </g>
   <g id="patch_3">
    <path d="M 40.34825 173.085197 
L 40.34825 5.12 
" style="fill: none; stroke: #000000; stroke-width: 0.8; stroke-linejoin: miter; stroke-linecap: square"/>
   </g>
   <g id="patch_4">
    <path d="M 273.837067 173.085197 
L 273.837067 5.12 
" style="fill: none; stroke: #000000; stroke-width: 0.8; stroke-linejoin: miter; stroke-linecap: square"/>
   </g>
   <g id="patch_5">
    <path d="M 40.34825 173.085197 
L 273.837067 173.085197 
" style="fill: none; stroke: #000000; stroke-width: 0.8; stroke-linejoin: miter; stroke-linecap: square"/>
   </g>
   <g id="patch_6">
    <path d="M 40.34825 5.12 
L 273.837067 5.12 
" style="fill: none; stroke: #000000; stroke-width: 0.8; stroke-linejoin: miter; stroke-linecap: square"/>
   </g>
   <g id="legend_1">
    <g id="line2d_80">
     <path d="M 83.837692 154.930509 
L 95.837692 154.930509 
L 107.837692 154.930509 
" style="fill: none; stroke: #000000; stroke-width: 0.75; stroke-linecap: square"/>
    </g>
    <g id="text_20">
     <!-- x = 0 cm -->
     <g transform="translate(112.637692 157.030509) scale(0.06 -0.06)">
      <defs>
       <path id="DejaVuSans-3d" d="M 678 2906 
L 4684 2906 
L 4684 2381 
L 678 2381 
L 678 2906 
z
M 678 1631 
L 4684 1631 
L 4684 1100 
L 678 1100 
L 678 1631 
z
" transform="scale(0.015625)"/>
       <path id="DejaVuSans-63" d="M 3122 3366 
L 3122 2828 
Q 2878 2963 2633 3030 
Q 2388 3097 2138 3097 
Q 1578 3097 1268 2742 
Q 959 2388 959 1747 
Q 959 1106 1268 751 
Q 1578 397 2138 397 
Q 2388 397 2633 464 
Q 2878 531 3122 666 
L 3122 134 
Q 2881 22 2623 -34 
Q 2366 -91 2075 -91 
Q 1284 -91 818 406 
Q 353 903 353 1747 
Q 353 2603 823 3093 
Q 1294 3584 2113 3584 
Q 2378 3584 2631 3529 
Q 2884 3475 3122 3366 
z
" transform="scale(0.015625)"/>
      </defs>
      <use xlink:href="#DejaVuSans-78"/>
      <use xlink:href="#DejaVuSans-20" x="59.179688"/>
      <use xlink:href="#DejaVuSans-3d" x="90.966797"/>
      <use xlink:href="#DejaVuSans-20" x="174.755859"/>
      <use xlink:href="#DejaVuSans-30" x="206.542969"/>
      <use xlink:href="#DejaVuSans-20" x="270.166016"/>
      <use xlink:href="#DejaVuSans-63" x="301.953125"/>
      <use xlink:href="#DejaVuSans-6d" x="356.933594"/>
     </g>
    </g>
    <g id="line2d_81">
     <path d="M 83.837692 164.337384 
L 95.837692 164.337384 
L 107.837692 164.337384 
" style="fill: none; stroke: #180f0d; stroke-width: 0.75; stroke-linecap: square"/>
    </g>
    <g id="text_21">
     <!-- x = 2 cm -->
     <g transform="translate(112.637692 166.437384) scale(0.06 -0.06)">
      <use xlink:href="#DejaVuSans-78"/>
      <use xlink:href="#DejaVuSans-20" x="59.179688"/>
      <use xlink:href="#DejaVuSans-3d" x="90.966797"/>
      <use xlink:href="#DejaVuSans-20" x="174.755859"/>
      <use xlink:href="#DejaVuSans-32" x="206.542969"/>
      <use xlink:href="#DejaVuSans-20" x="270.166016"/>
      <use xlink:href="#DejaVuSans-63" x="301.953125"/>
      <use xlink:href="#DejaVuSans-6d" x="356.933594"/>
     </g>
    </g>
    <g id="line2d_82">
     <path d="M 146.198317 154.930509 
L 158.198317 154.930509 
L 170.198317 154.930509 
" style="fill: none; stroke: #7a1514; stroke-width: 0.75; stroke-linecap: square"/>
    </g>
    <g id="text_22">
     <!-- x = 4 cm -->
     <g transform="translate(174.998317 157.030509) scale(0.06 -0.06)">
      <use xlink:href="#DejaVuSans-78"/>
      <use xlink:href="#DejaVuSans-20" x="59.179688"/>
      <use xlink:href="#DejaVuSans-3d" x="90.966797"/>
      <use xlink:href="#DejaVuSans-20" x="174.755859"/>
      <use xlink:href="#DejaVuSans-34" x="206.542969"/>
      <use xlink:href="#DejaVuSans-20" x="270.166016"/>
      <use xlink:href="#DejaVuSans-63" x="301.953125"/>
      <use xlink:href="#DejaVuSans-6d" x="356.933594"/>
     </g>
    </g>
    <g id="line2d_83">
     <path d="M 146.198317 164.337384 
L 158.198317 164.337384 
L 170.198317 164.337384 
" style="fill: none; stroke: #ac2a1a; stroke-width: 0.75; stroke-linecap: square"/>
    </g>
    <g id="text_23">
     <!-- x = 6 cm -->
     <g transform="translate(174.998317 166.437384) scale(0.06 -0.06)">
      <use xlink:href="#DejaVuSans-78"/>
      <use xlink:href="#DejaVuSans-20" x="59.179688"/>
      <use xlink:href="#DejaVuSans-3d" x="90.966797"/>
      <use xlink:href="#DejaVuSans-20" x="174.755859"/>
      <use xlink:href="#DejaVuSans-36" x="206.542969"/>
      <use xlink:href="#DejaVuSans-20" x="270.166016"/>
      <use xlink:href="#DejaVuSans-63" x="301.953125"/>
      <use xlink:href="#DejaVuSans-6d" x="356.933594"/>
     </g>
    </g>
    <g id="line2d_84">
     <path d="M 208.558942 154.930509 
L 220.558942 154.930509 
L 232.558942 154.930509 
" style="fill: none; stroke: #c46d1c; stroke-width: 0.75; stroke-linecap: square"/>
    </g>
    <g id="text_24">
     <!-- x = 8 cm -->
     <g transform="translate(237.358942 157.030509) scale(0.06 -0.06)">
      <use xlink:href="#DejaVuSans-78"/>
      <use xlink:href="#DejaVuSans-20" x="59.179688"/>
      <use xlink:href="#DejaVuSans-3d" x="90.966797"/>
      <use xlink:href="#DejaVuSans-20" x="174.755859"/>
      <use xlink:href="#DejaVuSans-38" x="206.542969"/>
      <use xlink:href="#DejaVuSans-20" x="270.166016"/>
      <use xlink:href="#DejaVuSans-63" x="301.953125"/>
      <use xlink:href="#DejaVuSans-6d" x="356.933594"/>
     </g>
    </g>
    <g id="line2d_85">
     <path d="M 208.558942 164.337384 
L 220.558942 164.337384 
L 232.558942 164.337384 
" style="fill: none; stroke: #ffe100; stroke-width: 0.75; stroke-linecap: square"/>
    </g>
    <g id="text_25">
     <!-- x = 10 cm -->
     <g transform="translate(237.358942 166.437384) scale(0.06 -0.06)">
      <use xlink:href="#DejaVuSans-78"/>
      <use xlink:href="#DejaVuSans-20" x="59.179688"/>
      <use xlink:href="#DejaVuSans-3d" x="90.966797"/>
      <use xlink:href="#DejaVuSans-20" x="174.755859"/>
      <use xlink:href="#DejaVuSans-31" x="206.542969"/>
      <use xlink:href="#DejaVuSans-30" x="270.166016"/>
      <use xlink:href="#DejaVuSans-20" x="333.789062"/>
      <use xlink:href="#DejaVuSans-63" x="365.576172"/>
      <use xlink:href="#DejaVuSans-6d" x="420.556641"/>
     </g>
    </g>
   </g>
  </g>
 </g>
 <defs>
  <clipPath id="p529fb52d99">
   <rect x="40.34825" y="5.12" width="233.488817" height="167.965197"/>
  </clipPath>
 </defs>
</svg>
