<?xml version="1.0" encoding="utf-8" standalone="no"?>
<!DOCTYPE svg PUBLIC "-//W3C//DTD SVG 1.1//EN"
  "http://www.w3.org/Graphics/SVG/1.1/DTD/svg11.dtd">
<svg xmlns:xlink="http://www.w3.org/1999/xlink" width="283.464567pt" height="198.425197pt" viewBox="0 0 283.464567 198.425197" xmlns="http://www.w3.org/2000/svg" version="1.1">
 <metadata>
  <rdf:RDF xmlns:dc="http://purl.org/dc/elements/1.1/" xmlns:cc="http://creativecommons.org/ns#" xmlns:rdf="http://www.w3.org/1999/02/22-rdf-syntax-ns#">
   <cc:Work>
    <dc:type rdf:resource="http://purl.org/dc/dcmitype/StillImage"/>
    <dc:date>2023-05-14T00:41:36.887387</dc:date>
    <dc:format>image/svg+xml</dc:format>
    <dc:creator>
     <cc:Agent>
      <dc:title>Matplotlib v3.7.1, https://matplotlib.org/</dc:title>
     </cc:Agent>
    </dc:creator>
   </cc:Work>
  </rdf:RDF>
 </metadata>
 <defs>
  <style type="text/css">*{stroke-linejoin: round; stroke-linecap: butt}</style>
 </defs>
 <g id="figure_1">
  <g id="patch_1">
   <path d="M 0 198.425197 
L 283.464567 198.425197 
L 283.464567 0 
L 0 0 
z
" style="fill: #ffffff"/>
  </g>
  <g id="axes_1">
   <g id="patch_2">
    <path d="M 40.33325 173.085197 
L 273.837067 173.085197 
L 273.837067 5.12 
L 40.33325 5.12 
z
" style="fill: #ffffff"/>
   </g>
   <g id="matplotlib.axis_1">
    <g id="xtick_1">
     <g id="line2d_1">
      <path d="M 40.33325 173.085197 
L 40.33325 5.12 
" clip-path="url(#pba306ab3e9)" style="fill: none; stroke-dasharray: 0.925,0.4; stroke-dashoffset: 0; stroke: #404040; stroke-opacity: 0.5; stroke-width: 0.25"/>
     </g>
     <g id="line2d_2">
      <defs>
       <path id="mef81235c13" d="M 0 0 
L 0 -3.5 
" style="stroke: #000000; stroke-width: 0.5"/>
      </defs>
      <g>
       <use xlink:href="#mef81235c13" x="40.33325" y="173.085197" style="stroke: #000000; stroke-width: 0.5"/>
      </g>
     </g>
     <g id="text_1">
      <!-- 120 -->
      <g transform="translate(32.69825 182.663947) scale(0.08 -0.08)">
       <defs>
        <path id="DejaVuSans-31" d="M 794 531 
L 1825 531 
L 1825 4091 
L 703 3866 
L 703 4441 
L 1819 4666 
L 2450 4666 
L 2450 531 
L 3481 531 
L 3481 0 
L 794 0 
L 794 531 
z
" transform="scale(0.015625)"/>
        <path id="DejaVuSans-32" d="M 1228 531 
L 3431 531 
L 3431 0 
L 469 0 
L 469 531 
Q 828 903 1448 1529 
Q 2069 2156 2228 2338 
Q 2531 2678 2651 2914 
Q 2772 3150 2772 3378 
Q 2772 3750 2511 3984 
Q 2250 4219 1831 4219 
Q 1534 4219 1204 4116 
Q 875 4013 500 3803 
L 500 4441 
Q 881 4594 1212 4672 
Q 1544 4750 1819 4750 
Q 2544 4750 2975 4387 
Q 3406 4025 3406 3419 
Q 3406 3131 3298 2873 
Q 3191 2616 2906 2266 
Q 2828 2175 2409 1742 
Q 1991 1309 1228 531 
z
" transform="scale(0.015625)"/>
        <path id="DejaVuSans-30" d="M 2034 4250 
Q 1547 4250 1301 3770 
Q 1056 3291 1056 2328 
Q 1056 1369 1301 889 
Q 1547 409 2034 409 
Q 2525 409 2770 889 
Q 3016 1369 3016 2328 
Q 3016 3291 2770 3770 
Q 2525 4250 2034 4250 
z
M 2034 4750 
Q 2819 4750 3233 4129 
Q 3647 3509 3647 2328 
Q 3647 1150 3233 529 
Q 2819 -91 2034 -91 
Q 1250 -91 836 529 
Q 422 1150 422 2328 
Q 422 3509 836 4129 
Q 1250 4750 2034 4750 
z
" transform="scale(0.015625)"/>
       </defs>
       <use xlink:href="#DejaVuSans-31"/>
       <use xlink:href="#DejaVuSans-32" x="63.623047"/>
       <use xlink:href="#DejaVuSans-30" x="127.246094"/>
      </g>
     </g>
    </g>
    <g id="xtick_2">
     <g id="line2d_3">
      <path d="M 98.709204 173.085197 
L 98.709204 5.12 
" clip-path="url(#pba306ab3e9)" style="fill: none; stroke-dasharray: 0.925,0.4; stroke-dashoffset: 0; stroke: #404040; stroke-opacity: 0.5; stroke-width: 0.25"/>
     </g>
     <g id="line2d_4">
      <g>
       <use xlink:href="#mef81235c13" x="98.709204" y="173.085197" style="stroke: #000000; stroke-width: 0.5"/>
      </g>
     </g>
     <g id="text_2">
      <!-- 132 -->
      <g transform="translate(91.074204 182.663947) scale(0.08 -0.08)">
       <defs>
        <path id="DejaVuSans-33" d="M 2597 2516 
Q 3050 2419 3304 2112 
Q 3559 1806 3559 1356 
Q 3559 666 3084 287 
Q 2609 -91 1734 -91 
Q 1441 -91 1130 -33 
Q 819 25 488 141 
L 488 750 
Q 750 597 1062 519 
Q 1375 441 1716 441 
Q 2309 441 2620 675 
Q 2931 909 2931 1356 
Q 2931 1769 2642 2001 
Q 2353 2234 1838 2234 
L 1294 2234 
L 1294 2753 
L 1863 2753 
Q 2328 2753 2575 2939 
Q 2822 3125 2822 3475 
Q 2822 3834 2567 4026 
Q 2313 4219 1838 4219 
Q 1578 4219 1281 4162 
Q 984 4106 628 3988 
L 628 4550 
Q 988 4650 1302 4700 
Q 1616 4750 1894 4750 
Q 2613 4750 3031 4423 
Q 3450 4097 3450 3541 
Q 3450 3153 3228 2886 
Q 3006 2619 2597 2516 
z
" transform="scale(0.015625)"/>
       </defs>
       <use xlink:href="#DejaVuSans-31"/>
       <use xlink:href="#DejaVuSans-33" x="63.623047"/>
       <use xlink:href="#DejaVuSans-32" x="127.246094"/>
      </g>
     </g>
    </g>
    <g id="xtick_3">
     <g id="line2d_5">
      <path d="M 157.085158 173.085197 
L 157.085158 5.12 
" clip-path="url(#pba306ab3e9)" style="fill: none; stroke-dasharray: 0.925,0.4; stroke-dashoffset: 0; stroke: #404040; stroke-opacity: 0.5; stroke-width: 0.25"/>
     </g>
     <g id="line2d_6">
      <g>
       <use xlink:href="#mef81235c13" x="157.085158" y="173.085197" style="stroke: #000000; stroke-width: 0.5"/>
      </g>
     </g>
     <g id="text_3">
      <!-- 144 -->
      <g transform="translate(149.450158 182.663947) scale(0.08 -0.08)">
       <defs>
        <path id="DejaVuSans-34" d="M 2419 4116 
L 825 1625 
L 2419 1625 
L 2419 4116 
z
M 2253 4666 
L 3047 4666 
L 3047 1625 
L 3713 1625 
L 3713 1100 
L 3047 1100 
L 3047 0 
L 2419 0 
L 2419 1100 
L 313 1100 
L 313 1709 
L 2253 4666 
z
" transform="scale(0.015625)"/>
       </defs>
       <use xlink:href="#DejaVuSans-31"/>
       <use xlink:href="#DejaVuSans-34" x="63.623047"/>
       <use xlink:href="#DejaVuSans-34" x="127.246094"/>
      </g>
     </g>
    </g>
    <g id="xtick_4">
     <g id="line2d_7">
      <path d="M 215.461113 173.085197 
L 215.461113 5.12 
" clip-path="url(#pba306ab3e9)" style="fill: none; stroke-dasharray: 0.925,0.4; stroke-dashoffset: 0; stroke: #404040; stroke-opacity: 0.5; stroke-width: 0.25"/>
     </g>
     <g id="line2d_8">
      <g>
       <use xlink:href="#mef81235c13" x="215.461113" y="173.085197" style="stroke: #000000; stroke-width: 0.5"/>
      </g>
     </g>
     <g id="text_4">
      <!-- 156 -->
      <g transform="translate(207.826113 182.663947) scale(0.08 -0.08)">
       <defs>
        <path id="DejaVuSans-35" d="M 691 4666 
L 3169 4666 
L 3169 4134 
L 1269 4134 
L 1269 2991 
Q 1406 3038 1543 3061 
Q 1681 3084 1819 3084 
Q 2600 3084 3056 2656 
Q 3513 2228 3513 1497 
Q 3513 744 3044 326 
Q 2575 -91 1722 -91 
Q 1428 -91 1123 -41 
Q 819 9 494 109 
L 494 744 
Q 775 591 1075 516 
Q 1375 441 1709 441 
Q 2250 441 2565 725 
Q 2881 1009 2881 1497 
Q 2881 1984 2565 2268 
Q 2250 2553 1709 2553 
Q 1456 2553 1204 2497 
Q 953 2441 691 2322 
L 691 4666 
z
" transform="scale(0.015625)"/>
        <path id="DejaVuSans-36" d="M 2113 2584 
Q 1688 2584 1439 2293 
Q 1191 2003 1191 1497 
Q 1191 994 1439 701 
Q 1688 409 2113 409 
Q 2538 409 2786 701 
Q 3034 994 3034 1497 
Q 3034 2003 2786 2293 
Q 2538 2584 2113 2584 
z
M 3366 4563 
L 3366 3988 
Q 3128 4100 2886 4159 
Q 2644 4219 2406 4219 
Q 1781 4219 1451 3797 
Q 1122 3375 1075 2522 
Q 1259 2794 1537 2939 
Q 1816 3084 2150 3084 
Q 2853 3084 3261 2657 
Q 3669 2231 3669 1497 
Q 3669 778 3244 343 
Q 2819 -91 2113 -91 
Q 1303 -91 875 529 
Q 447 1150 447 2328 
Q 447 3434 972 4092 
Q 1497 4750 2381 4750 
Q 2619 4750 2861 4703 
Q 3103 4656 3366 4563 
z
" transform="scale(0.015625)"/>
       </defs>
       <use xlink:href="#DejaVuSans-31"/>
       <use xlink:href="#DejaVuSans-35" x="63.623047"/>
       <use xlink:href="#DejaVuSans-36" x="127.246094"/>
      </g>
     </g>
    </g>
    <g id="xtick_5">
     <g id="line2d_9">
      <path d="M 273.837067 173.085197 
L 273.837067 5.12 
" clip-path="url(#pba306ab3e9)" style="fill: none; stroke-dasharray: 0.925,0.4; stroke-dashoffset: 0; stroke: #404040; stroke-opacity: 0.5; stroke-width: 0.25"/>
     </g>
     <g id="line2d_10">
      <g>
       <use xlink:href="#mef81235c13" x="273.837067" y="173.085197" style="stroke: #000000; stroke-width: 0.5"/>
      </g>
     </g>
     <g id="text_5">
      <!-- 168 -->
      <g transform="translate(266.202067 182.663947) scale(0.08 -0.08)">
       <defs>
        <path id="DejaVuSans-38" d="M 2034 2216 
Q 1584 2216 1326 1975 
Q 1069 1734 1069 1313 
Q 1069 891 1326 650 
Q 1584 409 2034 409 
Q 2484 409 2743 651 
Q 3003 894 3003 1313 
Q 3003 1734 2745 1975 
Q 2488 2216 2034 2216 
z
M 1403 2484 
Q 997 2584 770 2862 
Q 544 3141 544 3541 
Q 544 4100 942 4425 
Q 1341 4750 2034 4750 
Q 2731 4750 3128 4425 
Q 3525 4100 3525 3541 
Q 3525 3141 3298 2862 
Q 3072 2584 2669 2484 
Q 3125 2378 3379 2068 
Q 3634 1759 3634 1313 
Q 3634 634 3220 271 
Q 2806 -91 2034 -91 
Q 1263 -91 848 271 
Q 434 634 434 1313 
Q 434 1759 690 2068 
Q 947 2378 1403 2484 
z
M 1172 3481 
Q 1172 3119 1398 2916 
Q 1625 2713 2034 2713 
Q 2441 2713 2670 2916 
Q 2900 3119 2900 3481 
Q 2900 3844 2670 4047 
Q 2441 4250 2034 4250 
Q 1625 4250 1398 4047 
Q 1172 3844 1172 3481 
z
" transform="scale(0.015625)"/>
       </defs>
       <use xlink:href="#DejaVuSans-31"/>
       <use xlink:href="#DejaVuSans-36" x="63.623047"/>
       <use xlink:href="#DejaVuSans-38" x="127.246094"/>
      </g>
     </g>
    </g>
    <g id="xtick_6">
     <g id="line2d_11">
      <defs>
       <path id="m582c979145" d="M 0 0 
L 0 -2 
" style="stroke: #000000; stroke-width: 0.35"/>
      </defs>
      <g>
       <use xlink:href="#m582c979145" x="69.521227" y="173.085197" style="stroke: #000000; stroke-width: 0.35"/>
      </g>
     </g>
    </g>
    <g id="xtick_7">
     <g id="line2d_12">
      <g>
       <use xlink:href="#m582c979145" x="127.897181" y="173.085197" style="stroke: #000000; stroke-width: 0.35"/>
      </g>
     </g>
    </g>
    <g id="xtick_8">
     <g id="line2d_13">
      <g>
       <use xlink:href="#m582c979145" x="186.273136" y="173.085197" style="stroke: #000000; stroke-width: 0.35"/>
      </g>
     </g>
    </g>
    <g id="xtick_9">
     <g id="line2d_14">
      <g>
       <use xlink:href="#m582c979145" x="244.64909" y="173.085197" style="stroke: #000000; stroke-width: 0.35"/>
      </g>
     </g>
    </g>
    <g id="text_6">
     <!-- Hour [s] -->
     <g transform="translate(140.973908 194.406447) scale(0.08 -0.08)">
      <defs>
       <path id="DejaVuSans-48" d="M 628 4666 
L 1259 4666 
L 1259 2753 
L 3553 2753 
L 3553 4666 
L 4184 4666 
L 4184 0 
L 3553 0 
L 3553 2222 
L 1259 2222 
L 1259 0 
L 628 0 
L 628 4666 
z
" transform="scale(0.015625)"/>
       <path id="DejaVuSans-6f" d="M 1959 3097 
Q 1497 3097 1228 2736 
Q 959 2375 959 1747 
Q 959 1119 1226 758 
Q 1494 397 1959 397 
Q 2419 397 2687 759 
Q 2956 1122 2956 1747 
Q 2956 2369 2687 2733 
Q 2419 3097 1959 3097 
z
M 1959 3584 
Q 2709 3584 3137 3096 
Q 3566 2609 3566 1747 
Q 3566 888 3137 398 
Q 2709 -91 1959 -91 
Q 1206 -91 779 398 
Q 353 888 353 1747 
Q 353 2609 779 3096 
Q 1206 3584 1959 3584 
z
" transform="scale(0.015625)"/>
       <path id="DejaVuSans-75" d="M 544 1381 
L 544 3500 
L 1119 3500 
L 1119 1403 
Q 1119 906 1312 657 
Q 1506 409 1894 409 
Q 2359 409 2629 706 
Q 2900 1003 2900 1516 
L 2900 3500 
L 3475 3500 
L 3475 0 
L 2900 0 
L 2900 538 
Q 2691 219 2414 64 
Q 2138 -91 1772 -91 
Q 1169 -91 856 284 
Q 544 659 544 1381 
z
M 1991 3584 
L 1991 3584 
z
" transform="scale(0.015625)"/>
       <path id="DejaVuSans-72" d="M 2631 2963 
Q 2534 3019 2420 3045 
Q 2306 3072 2169 3072 
Q 1681 3072 1420 2755 
Q 1159 2438 1159 1844 
L 1159 0 
L 581 0 
L 581 3500 
L 1159 3500 
L 1159 2956 
Q 1341 3275 1631 3429 
Q 1922 3584 2338 3584 
Q 2397 3584 2469 3576 
Q 2541 3569 2628 3553 
L 2631 2963 
z
" transform="scale(0.015625)"/>
       <path id="DejaVuSans-20" transform="scale(0.015625)"/>
       <path id="DejaVuSans-5b" d="M 550 4863 
L 1875 4863 
L 1875 4416 
L 1125 4416 
L 1125 -397 
L 1875 -397 
L 1875 -844 
L 550 -844 
L 550 4863 
z
" transform="scale(0.015625)"/>
       <path id="DejaVuSans-73" d="M 2834 3397 
L 2834 2853 
Q 2591 2978 2328 3040 
Q 2066 3103 1784 3103 
Q 1356 3103 1142 2972 
Q 928 2841 928 2578 
Q 928 2378 1081 2264 
Q 1234 2150 1697 2047 
L 1894 2003 
Q 2506 1872 2764 1633 
Q 3022 1394 3022 966 
Q 3022 478 2636 193 
Q 2250 -91 1575 -91 
Q 1294 -91 989 -36 
Q 684 19 347 128 
L 347 722 
Q 666 556 975 473 
Q 1284 391 1588 391 
Q 1994 391 2212 530 
Q 2431 669 2431 922 
Q 2431 1156 2273 1281 
Q 2116 1406 1581 1522 
L 1381 1569 
Q 847 1681 609 1914 
Q 372 2147 372 2553 
Q 372 3047 722 3315 
Q 1072 3584 1716 3584 
Q 2034 3584 2315 3537 
Q 2597 3491 2834 3397 
z
" transform="scale(0.015625)"/>
       <path id="DejaVuSans-5d" d="M 1947 4863 
L 1947 -844 
L 622 -844 
L 622 -397 
L 1369 -397 
L 1369 4416 
L 622 4416 
L 622 4863 
L 1947 4863 
z
" transform="scale(0.015625)"/>
      </defs>
      <use xlink:href="#DejaVuSans-48"/>
      <use xlink:href="#DejaVuSans-6f" x="75.195312"/>
      <use xlink:href="#DejaVuSans-75" x="136.376953"/>
      <use xlink:href="#DejaVuSans-72" x="199.755859"/>
      <use xlink:href="#DejaVuSans-20" x="240.869141"/>
      <use xlink:href="#DejaVuSans-5b" x="272.65625"/>
      <use xlink:href="#DejaVuSans-73" x="311.669922"/>
      <use xlink:href="#DejaVuSans-5d" x="363.769531"/>
     </g>
    </g>
   </g>
   <g id="matplotlib.axis_2">
    <g id="ytick_1">
     <g id="line2d_15">
      <path d="M 40.33325 173.085197 
L 273.837067 173.085197 
" clip-path="url(#pba306ab3e9)" style="fill: none; stroke-dasharray: 0.925,0.4; stroke-dashoffset: 0; stroke: #404040; stroke-opacity: 0.5; stroke-width: 0.25"/>
     </g>
     <g id="line2d_16">
      <defs>
       <path id="m027c1d7e60" d="M 0 0 
L 3.5 0 
" style="stroke: #000000; stroke-width: 0.5"/>
      </defs>
      <g>
       <use xlink:href="#m027c1d7e60" x="40.33325" y="173.085197" style="stroke: #000000; stroke-width: 0.5"/>
      </g>
     </g>
     <g id="text_7">
      <!-- −300 -->
      <g transform="translate(14.8595 176.124572) scale(0.08 -0.08)">
       <defs>
        <path id="DejaVuSans-2212" d="M 678 2272 
L 4684 2272 
L 4684 1741 
L 678 1741 
L 678 2272 
z
" transform="scale(0.015625)"/>
       </defs>
       <use xlink:href="#DejaVuSans-2212"/>
       <use xlink:href="#DejaVuSans-33" x="83.789062"/>
       <use xlink:href="#DejaVuSans-30" x="147.412109"/>
       <use xlink:href="#DejaVuSans-30" x="211.035156"/>
      </g>
     </g>
    </g>
    <g id="ytick_2">
     <g id="line2d_17">
      <path d="M 40.33325 154.422397 
L 273.837067 154.422397 
" clip-path="url(#pba306ab3e9)" style="fill: none; stroke-dasharray: 0.925,0.4; stroke-dashoffset: 0; stroke: #404040; stroke-opacity: 0.5; stroke-width: 0.25"/>
     </g>
     <g id="line2d_18">
      <g>
       <use xlink:href="#m027c1d7e60" x="40.33325" y="154.422397" style="stroke: #000000; stroke-width: 0.5"/>
      </g>
     </g>
     <g id="text_8">
      <!-- −200 -->
      <g transform="translate(14.8595 157.461772) scale(0.08 -0.08)">
       <use xlink:href="#DejaVuSans-2212"/>
       <use xlink:href="#DejaVuSans-32" x="83.789062"/>
       <use xlink:href="#DejaVuSans-30" x="147.412109"/>
       <use xlink:href="#DejaVuSans-30" x="211.035156"/>
      </g>
     </g>
    </g>
    <g id="ytick_3">
     <g id="line2d_19">
      <path d="M 40.33325 135.759598 
L 273.837067 135.759598 
" clip-path="url(#pba306ab3e9)" style="fill: none; stroke-dasharray: 0.925,0.4; stroke-dashoffset: 0; stroke: #404040; stroke-opacity: 0.5; stroke-width: 0.25"/>
     </g>
     <g id="line2d_20">
      <g>
       <use xlink:href="#m027c1d7e60" x="40.33325" y="135.759598" style="stroke: #000000; stroke-width: 0.5"/>
      </g>
     </g>
     <g id="text_9">
      <!-- −100 -->
      <g transform="translate(14.8595 138.798973) scale(0.08 -0.08)">
       <use xlink:href="#DejaVuSans-2212"/>
       <use xlink:href="#DejaVuSans-31" x="83.789062"/>
       <use xlink:href="#DejaVuSans-30" x="147.412109"/>
       <use xlink:href="#DejaVuSans-30" x="211.035156"/>
      </g>
     </g>
    </g>
    <g id="ytick_4">
     <g id="line2d_21">
      <path d="M 40.33325 117.096798 
L 273.837067 117.096798 
" clip-path="url(#pba306ab3e9)" style="fill: none; stroke-dasharray: 0.925,0.4; stroke-dashoffset: 0; stroke: #404040; stroke-opacity: 0.5; stroke-width: 0.25"/>
     </g>
     <g id="line2d_22">
      <g>
       <use xlink:href="#m027c1d7e60" x="40.33325" y="117.096798" style="stroke: #000000; stroke-width: 0.5"/>
      </g>
     </g>
     <g id="text_10">
      <!-- 0 -->
      <g transform="translate(31.74325 120.136173) scale(0.08 -0.08)">
       <use xlink:href="#DejaVuSans-30"/>
      </g>
     </g>
    </g>
    <g id="ytick_5">
     <g id="line2d_23">
      <path d="M 40.33325 98.433998 
L 273.837067 98.433998 
" clip-path="url(#pba306ab3e9)" style="fill: none; stroke-dasharray: 0.925,0.4; stroke-dashoffset: 0; stroke: #404040; stroke-opacity: 0.5; stroke-width: 0.25"/>
     </g>
     <g id="line2d_24">
      <g>
       <use xlink:href="#m027c1d7e60" x="40.33325" y="98.433998" style="stroke: #000000; stroke-width: 0.5"/>
      </g>
     </g>
     <g id="text_11">
      <!-- 100 -->
      <g transform="translate(21.56325 101.473373) scale(0.08 -0.08)">
       <use xlink:href="#DejaVuSans-31"/>
       <use xlink:href="#DejaVuSans-30" x="63.623047"/>
       <use xlink:href="#DejaVuSans-30" x="127.246094"/>
      </g>
     </g>
    </g>
    <g id="ytick_6">
     <g id="line2d_25">
      <path d="M 40.33325 79.771199 
L 273.837067 79.771199 
" clip-path="url(#pba306ab3e9)" style="fill: none; stroke-dasharray: 0.925,0.4; stroke-dashoffset: 0; stroke: #404040; stroke-opacity: 0.5; stroke-width: 0.25"/>
     </g>
     <g id="line2d_26">
      <g>
       <use xlink:href="#m027c1d7e60" x="40.33325" y="79.771199" style="stroke: #000000; stroke-width: 0.5"/>
      </g>
     </g>
     <g id="text_12">
      <!-- 200 -->
      <g transform="translate(21.56325 82.810574) scale(0.08 -0.08)">
       <use xlink:href="#DejaVuSans-32"/>
       <use xlink:href="#DejaVuSans-30" x="63.623047"/>
       <use xlink:href="#DejaVuSans-30" x="127.246094"/>
      </g>
     </g>
    </g>
    <g id="ytick_7">
     <g id="line2d_27">
      <path d="M 40.33325 61.108399 
L 273.837067 61.108399 
" clip-path="url(#pba306ab3e9)" style="fill: none; stroke-dasharray: 0.925,0.4; stroke-dashoffset: 0; stroke: #404040; stroke-opacity: 0.5; stroke-width: 0.25"/>
     </g>
     <g id="line2d_28">
      <g>
       <use xlink:href="#m027c1d7e60" x="40.33325" y="61.108399" style="stroke: #000000; stroke-width: 0.5"/>
      </g>
     </g>
     <g id="text_13">
      <!-- 300 -->
      <g transform="translate(21.56325 64.147774) scale(0.08 -0.08)">
       <use xlink:href="#DejaVuSans-33"/>
       <use xlink:href="#DejaVuSans-30" x="63.623047"/>
       <use xlink:href="#DejaVuSans-30" x="127.246094"/>
      </g>
     </g>
    </g>
    <g id="ytick_8">
     <g id="line2d_29">
      <path d="M 40.33325 42.445599 
L 273.837067 42.445599 
" clip-path="url(#pba306ab3e9)" style="fill: none; stroke-dasharray: 0.925,0.4; stroke-dashoffset: 0; stroke: #404040; stroke-opacity: 0.5; stroke-width: 0.25"/>
     </g>
     <g id="line2d_30">
      <g>
       <use xlink:href="#m027c1d7e60" x="40.33325" y="42.445599" style="stroke: #000000; stroke-width: 0.5"/>
      </g>
     </g>
     <g id="text_14">
      <!-- 400 -->
      <g transform="translate(21.56325 45.484974) scale(0.08 -0.08)">
       <use xlink:href="#DejaVuSans-34"/>
       <use xlink:href="#DejaVuSans-30" x="63.623047"/>
       <use xlink:href="#DejaVuSans-30" x="127.246094"/>
      </g>
     </g>
    </g>
    <g id="ytick_9">
     <g id="line2d_31">
      <path d="M 40.33325 23.7828 
L 273.837067 23.7828 
" clip-path="url(#pba306ab3e9)" style="fill: none; stroke-dasharray: 0.925,0.4; stroke-dashoffset: 0; stroke: #404040; stroke-opacity: 0.5; stroke-width: 0.25"/>
     </g>
     <g id="line2d_32">
      <g>
       <use xlink:href="#m027c1d7e60" x="40.33325" y="23.7828" style="stroke: #000000; stroke-width: 0.5"/>
      </g>
     </g>
     <g id="text_15">
      <!-- 500 -->
      <g transform="translate(21.56325 26.822175) scale(0.08 -0.08)">
       <use xlink:href="#DejaVuSans-35"/>
       <use xlink:href="#DejaVuSans-30" x="63.623047"/>
       <use xlink:href="#DejaVuSans-30" x="127.246094"/>
      </g>
     </g>
    </g>
    <g id="ytick_10">
     <g id="line2d_33">
      <path d="M 40.33325 5.12 
L 273.837067 5.12 
" clip-path="url(#pba306ab3e9)" style="fill: none; stroke-dasharray: 0.925,0.4; stroke-dashoffset: 0; stroke: #404040; stroke-opacity: 0.5; stroke-width: 0.25"/>
     </g>
     <g id="line2d_34">
      <g>
       <use xlink:href="#m027c1d7e60" x="40.33325" y="5.12" style="stroke: #000000; stroke-width: 0.5"/>
      </g>
     </g>
     <g id="text_16">
      <!-- 600 -->
      <g transform="translate(21.56325 8.159375) scale(0.08 -0.08)">
       <use xlink:href="#DejaVuSans-36"/>
       <use xlink:href="#DejaVuSans-30" x="63.623047"/>
       <use xlink:href="#DejaVuSans-30" x="127.246094"/>
      </g>
     </g>
    </g>
    <g id="ytick_11">
     <g id="line2d_35">
      <defs>
       <path id="m119a5ea03e" d="M 0 0 
L 2 0 
" style="stroke: #000000; stroke-width: 0.35"/>
      </defs>
      <g>
       <use xlink:href="#m119a5ea03e" x="40.33325" y="169.352637" style="stroke: #000000; stroke-width: 0.35"/>
      </g>
     </g>
    </g>
    <g id="ytick_12">
     <g id="line2d_36">
      <g>
       <use xlink:href="#m119a5ea03e" x="40.33325" y="165.620077" style="stroke: #000000; stroke-width: 0.35"/>
      </g>
     </g>
    </g>
    <g id="ytick_13">
     <g id="line2d_37">
      <g>
       <use xlink:href="#m119a5ea03e" x="40.33325" y="161.887517" style="stroke: #000000; stroke-width: 0.35"/>
      </g>
     </g>
    </g>
    <g id="ytick_14">
     <g id="line2d_38">
      <g>
       <use xlink:href="#m119a5ea03e" x="40.33325" y="158.154957" style="stroke: #000000; stroke-width: 0.35"/>
      </g>
     </g>
    </g>
    <g id="ytick_15">
     <g id="line2d_39">
      <g>
       <use xlink:href="#m119a5ea03e" x="40.33325" y="150.689837" style="stroke: #000000; stroke-width: 0.35"/>
      </g>
     </g>
    </g>
    <g id="ytick_16">
     <g id="line2d_40">
      <g>
       <use xlink:href="#m119a5ea03e" x="40.33325" y="146.957277" style="stroke: #000000; stroke-width: 0.35"/>
      </g>
     </g>
    </g>
    <g id="ytick_17">
     <g id="line2d_41">
      <g>
       <use xlink:href="#m119a5ea03e" x="40.33325" y="143.224717" style="stroke: #000000; stroke-width: 0.35"/>
      </g>
     </g>
    </g>
    <g id="ytick_18">
     <g id="line2d_42">
      <g>
       <use xlink:href="#m119a5ea03e" x="40.33325" y="139.492157" style="stroke: #000000; stroke-width: 0.35"/>
      </g>
     </g>
    </g>
    <g id="ytick_19">
     <g id="line2d_43">
      <g>
       <use xlink:href="#m119a5ea03e" x="40.33325" y="132.027038" style="stroke: #000000; stroke-width: 0.35"/>
      </g>
     </g>
    </g>
    <g id="ytick_20">
     <g id="line2d_44">
      <g>
       <use xlink:href="#m119a5ea03e" x="40.33325" y="128.294478" style="stroke: #000000; stroke-width: 0.35"/>
      </g>
     </g>
    </g>
    <g id="ytick_21">
     <g id="line2d_45">
      <g>
       <use xlink:href="#m119a5ea03e" x="40.33325" y="124.561918" style="stroke: #000000; stroke-width: 0.35"/>
      </g>
     </g>
    </g>
    <g id="ytick_22">
     <g id="line2d_46">
      <g>
       <use xlink:href="#m119a5ea03e" x="40.33325" y="120.829358" style="stroke: #000000; stroke-width: 0.35"/>
      </g>
     </g>
    </g>
    <g id="ytick_23">
     <g id="line2d_47">
      <g>
       <use xlink:href="#m119a5ea03e" x="40.33325" y="113.364238" style="stroke: #000000; stroke-width: 0.35"/>
      </g>
     </g>
    </g>
    <g id="ytick_24">
     <g id="line2d_48">
      <g>
       <use xlink:href="#m119a5ea03e" x="40.33325" y="109.631678" style="stroke: #000000; stroke-width: 0.35"/>
      </g>
     </g>
    </g>
    <g id="ytick_25">
     <g id="line2d_49">
      <g>
       <use xlink:href="#m119a5ea03e" x="40.33325" y="105.899118" style="stroke: #000000; stroke-width: 0.35"/>
      </g>
     </g>
    </g>
    <g id="ytick_26">
     <g id="line2d_50">
      <g>
       <use xlink:href="#m119a5ea03e" x="40.33325" y="102.166558" style="stroke: #000000; stroke-width: 0.35"/>
      </g>
     </g>
    </g>
    <g id="ytick_27">
     <g id="line2d_51">
      <g>
       <use xlink:href="#m119a5ea03e" x="40.33325" y="94.701438" style="stroke: #000000; stroke-width: 0.35"/>
      </g>
     </g>
    </g>
    <g id="ytick_28">
     <g id="line2d_52">
      <g>
       <use xlink:href="#m119a5ea03e" x="40.33325" y="90.968878" style="stroke: #000000; stroke-width: 0.35"/>
      </g>
     </g>
    </g>
    <g id="ytick_29">
     <g id="line2d_53">
      <g>
       <use xlink:href="#m119a5ea03e" x="40.33325" y="87.236318" style="stroke: #000000; stroke-width: 0.35"/>
      </g>
     </g>
    </g>
    <g id="ytick_30">
     <g id="line2d_54">
      <g>
       <use xlink:href="#m119a5ea03e" x="40.33325" y="83.503759" style="stroke: #000000; stroke-width: 0.35"/>
      </g>
     </g>
    </g>
    <g id="ytick_31">
     <g id="line2d_55">
      <g>
       <use xlink:href="#m119a5ea03e" x="40.33325" y="76.038639" style="stroke: #000000; stroke-width: 0.35"/>
      </g>
     </g>
    </g>
    <g id="ytick_32">
     <g id="line2d_56">
      <g>
       <use xlink:href="#m119a5ea03e" x="40.33325" y="72.306079" style="stroke: #000000; stroke-width: 0.35"/>
      </g>
     </g>
    </g>
    <g id="ytick_33">
     <g id="line2d_57">
      <g>
       <use xlink:href="#m119a5ea03e" x="40.33325" y="68.573519" style="stroke: #000000; stroke-width: 0.35"/>
      </g>
     </g>
    </g>
    <g id="ytick_34">
     <g id="line2d_58">
      <g>
       <use xlink:href="#m119a5ea03e" x="40.33325" y="64.840959" style="stroke: #000000; stroke-width: 0.35"/>
      </g>
     </g>
    </g>
    <g id="ytick_35">
     <g id="line2d_59">
      <g>
       <use xlink:href="#m119a5ea03e" x="40.33325" y="57.375839" style="stroke: #000000; stroke-width: 0.35"/>
      </g>
     </g>
    </g>
    <g id="ytick_36">
     <g id="line2d_60">
      <g>
       <use xlink:href="#m119a5ea03e" x="40.33325" y="53.643279" style="stroke: #000000; stroke-width: 0.35"/>
      </g>
     </g>
    </g>
    <g id="ytick_37">
     <g id="line2d_61">
      <g>
       <use xlink:href="#m119a5ea03e" x="40.33325" y="49.910719" style="stroke: #000000; stroke-width: 0.35"/>
      </g>
     </g>
    </g>
    <g id="ytick_38">
     <g id="line2d_62">
      <g>
       <use xlink:href="#m119a5ea03e" x="40.33325" y="46.178159" style="stroke: #000000; stroke-width: 0.35"/>
      </g>
     </g>
    </g>
    <g id="ytick_39">
     <g id="line2d_63">
      <g>
       <use xlink:href="#m119a5ea03e" x="40.33325" y="38.713039" style="stroke: #000000; stroke-width: 0.35"/>
      </g>
     </g>
    </g>
    <g id="ytick_40">
     <g id="line2d_64">
      <g>
       <use xlink:href="#m119a5ea03e" x="40.33325" y="34.980479" style="stroke: #000000; stroke-width: 0.35"/>
      </g>
     </g>
    </g>
    <g id="ytick_41">
     <g id="line2d_65">
      <g>
       <use xlink:href="#m119a5ea03e" x="40.33325" y="31.24792" style="stroke: #000000; stroke-width: 0.35"/>
      </g>
     </g>
    </g>
    <g id="ytick_42">
     <g id="line2d_66">
      <g>
       <use xlink:href="#m119a5ea03e" x="40.33325" y="27.51536" style="stroke: #000000; stroke-width: 0.35"/>
      </g>
     </g>
    </g>
    <g id="ytick_43">
     <g id="line2d_67">
      <g>
       <use xlink:href="#m119a5ea03e" x="40.33325" y="20.05024" style="stroke: #000000; stroke-width: 0.35"/>
      </g>
     </g>
    </g>
    <g id="ytick_44">
     <g id="line2d_68">
      <g>
       <use xlink:href="#m119a5ea03e" x="40.33325" y="16.31768" style="stroke: #000000; stroke-width: 0.35"/>
      </g>
     </g>
    </g>
    <g id="ytick_45">
     <g id="line2d_69">
      <g>
       <use xlink:href="#m119a5ea03e" x="40.33325" y="12.58512" style="stroke: #000000; stroke-width: 0.35"/>
      </g>
     </g>
    </g>
    <g id="ytick_46">
     <g id="line2d_70">
      <g>
       <use xlink:href="#m119a5ea03e" x="40.33325" y="8.85256" style="stroke: #000000; stroke-width: 0.35"/>
      </g>
     </g>
    </g>
    <g id="text_17">
     <!-- Heat flux $~\mathrm{[W/m^2]}$ -->
     <g transform="translate(9.19575 124.142598) rotate(-90) scale(0.08 -0.08)">
      <defs>
       <path id="DejaVuSans-65" d="M 3597 1894 
L 3597 1613 
L 953 1613 
Q 991 1019 1311 708 
Q 1631 397 2203 397 
Q 2534 397 2845 478 
Q 3156 559 3463 722 
L 3463 178 
Q 3153 47 2828 -22 
Q 2503 -91 2169 -91 
Q 1331 -91 842 396 
Q 353 884 353 1716 
Q 353 2575 817 3079 
Q 1281 3584 2069 3584 
Q 2775 3584 3186 3129 
Q 3597 2675 3597 1894 
z
M 3022 2063 
Q 3016 2534 2758 2815 
Q 2500 3097 2075 3097 
Q 1594 3097 1305 2825 
Q 1016 2553 972 2059 
L 3022 2063 
z
" transform="scale(0.015625)"/>
       <path id="DejaVuSans-61" d="M 2194 1759 
Q 1497 1759 1228 1600 
Q 959 1441 959 1056 
Q 959 750 1161 570 
Q 1363 391 1709 391 
Q 2188 391 2477 730 
Q 2766 1069 2766 1631 
L 2766 1759 
L 2194 1759 
z
M 3341 1997 
L 3341 0 
L 2766 0 
L 2766 531 
Q 2569 213 2275 61 
Q 1981 -91 1556 -91 
Q 1019 -91 701 211 
Q 384 513 384 1019 
Q 384 1609 779 1909 
Q 1175 2209 1959 2209 
L 2766 2209 
L 2766 2266 
Q 2766 2663 2505 2880 
Q 2244 3097 1772 3097 
Q 1472 3097 1187 3025 
Q 903 2953 641 2809 
L 641 3341 
Q 956 3463 1253 3523 
Q 1550 3584 1831 3584 
Q 2591 3584 2966 3190 
Q 3341 2797 3341 1997 
z
" transform="scale(0.015625)"/>
       <path id="DejaVuSans-74" d="M 1172 4494 
L 1172 3500 
L 2356 3500 
L 2356 3053 
L 1172 3053 
L 1172 1153 
Q 1172 725 1289 603 
Q 1406 481 1766 481 
L 2356 481 
L 2356 0 
L 1766 0 
Q 1100 0 847 248 
Q 594 497 594 1153 
L 594 3053 
L 172 3053 
L 172 3500 
L 594 3500 
L 594 4494 
L 1172 4494 
z
" transform="scale(0.015625)"/>
       <path id="DejaVuSans-66" d="M 2375 4863 
L 2375 4384 
L 1825 4384 
Q 1516 4384 1395 4259 
Q 1275 4134 1275 3809 
L 1275 3500 
L 2222 3500 
L 2222 3053 
L 1275 3053 
L 1275 0 
L 697 0 
L 697 3053 
L 147 3053 
L 147 3500 
L 697 3500 
L 697 3744 
Q 697 4328 969 4595 
Q 1241 4863 1831 4863 
L 2375 4863 
z
" transform="scale(0.015625)"/>
       <path id="DejaVuSans-6c" d="M 603 4863 
L 1178 4863 
L 1178 0 
L 603 0 
L 603 4863 
z
" transform="scale(0.015625)"/>
       <path id="DejaVuSans-78" d="M 3513 3500 
L 2247 1797 
L 3578 0 
L 2900 0 
L 1881 1375 
L 863 0 
L 184 0 
L 1544 1831 
L 300 3500 
L 978 3500 
L 1906 2253 
L 2834 3500 
L 3513 3500 
z
" transform="scale(0.015625)"/>
       <path id="DejaVuSans-57" d="M 213 4666 
L 850 4666 
L 1831 722 
L 2809 4666 
L 3519 4666 
L 4500 722 
L 5478 4666 
L 6119 4666 
L 4947 0 
L 4153 0 
L 3169 4050 
L 2175 0 
L 1381 0 
L 213 4666 
z
" transform="scale(0.015625)"/>
       <path id="DejaVuSans-2f" d="M 1625 4666 
L 2156 4666 
L 531 -594 
L 0 -594 
L 1625 4666 
z
" transform="scale(0.015625)"/>
       <path id="DejaVuSans-6d" d="M 3328 2828 
Q 3544 3216 3844 3400 
Q 4144 3584 4550 3584 
Q 5097 3584 5394 3201 
Q 5691 2819 5691 2113 
L 5691 0 
L 5113 0 
L 5113 2094 
Q 5113 2597 4934 2840 
Q 4756 3084 4391 3084 
Q 3944 3084 3684 2787 
Q 3425 2491 3425 1978 
L 3425 0 
L 2847 0 
L 2847 2094 
Q 2847 2600 2669 2842 
Q 2491 3084 2119 3084 
Q 1678 3084 1418 2786 
Q 1159 2488 1159 1978 
L 1159 0 
L 581 0 
L 581 3500 
L 1159 3500 
L 1159 2956 
Q 1356 3278 1631 3431 
Q 1906 3584 2284 3584 
Q 2666 3584 2933 3390 
Q 3200 3197 3328 2828 
z
" transform="scale(0.015625)"/>
      </defs>
      <use xlink:href="#DejaVuSans-48" transform="translate(0 0.765625)"/>
      <use xlink:href="#DejaVuSans-65" transform="translate(75.195312 0.765625)"/>
      <use xlink:href="#DejaVuSans-61" transform="translate(136.71875 0.765625)"/>
      <use xlink:href="#DejaVuSans-74" transform="translate(197.998047 0.765625)"/>
      <use xlink:href="#DejaVuSans-20" transform="translate(237.207031 0.765625)"/>
      <use xlink:href="#DejaVuSans-66" transform="translate(268.994141 0.765625)"/>
      <use xlink:href="#DejaVuSans-6c" transform="translate(304.199219 0.765625)"/>
      <use xlink:href="#DejaVuSans-75" transform="translate(331.982422 0.765625)"/>
      <use xlink:href="#DejaVuSans-78" transform="translate(395.361328 0.765625)"/>
      <use xlink:href="#DejaVuSans-20" transform="translate(454.541016 0.765625)"/>
      <use xlink:href="#DejaVuSans-5b" transform="translate(518.798503 0.765625)"/>
      <use xlink:href="#DejaVuSans-57" transform="translate(557.812175 0.765625)"/>
      <use xlink:href="#DejaVuSans-2f" transform="translate(656.689128 0.765625)"/>
      <use xlink:href="#DejaVuSans-6d" transform="translate(690.380535 0.765625)"/>
      <use xlink:href="#DejaVuSans-32" transform="translate(788.749675 39.046875) scale(0.7)"/>
      <use xlink:href="#DejaVuSans-5d" transform="translate(836.020183 0.765625)"/>
     </g>
    </g>
   </g>
   <g id="line2d_71">
    <path d="M 40.319737 132.732382 
L 43.116918 130.370768 
L 46.197871 127.469605 
L 49.751778 123.804902 
L 54.400233 118.666809 
L 64.561974 107.344439 
L 68.075341 103.825213 
L 69.967155 101.90859 
L 71.210346 97.99882 
L 72.872439 93.507575 
L 74.710201 89.175432 
L 76.547962 85.39809 
L 78.318159 82.253742 
L 79.993765 79.718473 
L 81.574781 77.719936 
L 83.061205 76.190357 
L 84.466552 75.055726 
L 85.804335 74.256192 
L 87.088065 73.744761 
L 88.331257 73.486165 
L 89.560935 73.456778 
L 90.790614 73.649182 
L 92.060832 74.076473 
L 93.371588 74.755323 
L 94.763422 75.733243 
L 96.236334 77.046478 
L 97.817349 78.76083 
L 99.533494 80.959496 
L 101.398282 83.719879 
L 103.452251 87.168284 
L 105.749452 91.472629 
L 108.397991 96.927553 
L 111.600561 104.059576 
L 116.330094 115.202121 
L 122.829824 130.436197 
L 126.099959 137.519727 
L 128.275544 141.856904 
L 128.30257 141.837763 
L 129.045782 141.454177 
L 130.126818 141.160653 
L 131.775399 140.962651 
L 135.491461 140.80673 
L 139.153471 140.546628 
L 141.950652 140.124671 
L 144.5046 139.514783 
L 146.950444 138.701375 
L 149.35575 137.666428 
L 151.788081 136.375129 
L 154.274464 134.800813 
L 156.882464 132.881828 
L 159.666132 130.551104 
L 162.72006 127.695642 
L 166.219914 124.10784 
L 170.73324 119.13983 
L 181.678732 106.963791 
L 185.124535 103.544158 
L 186.719063 101.90859 
L 187.962255 97.99882 
L 189.624348 93.507575 
L 191.462109 89.175432 
L 193.299871 85.39809 
L 195.070068 82.253742 
L 196.745674 79.718473 
L 198.326689 77.719936 
L 199.813114 76.190357 
L 201.218461 75.055726 
L 202.556243 74.256192 
L 203.839974 73.744761 
L 205.083165 73.486165 
L 206.312844 73.456778 
L 207.542523 73.649182 
L 208.81274 74.076473 
L 210.123497 74.755323 
L 211.515331 75.733243 
L 212.988242 77.046478 
L 214.569258 78.76083 
L 216.285403 80.959496 
L 218.15019 83.719879 
L 220.204159 87.168284 
L 222.501361 91.472629 
L 225.1499 96.927553 
L 228.352469 104.059576 
L 233.082003 115.202121 
L 239.581733 130.436197 
L 242.851867 137.519727 
L 245.027452 141.856904 
L 245.054478 141.837763 
L 245.797691 141.454177 
L 246.878727 141.160653 
L 248.527307 140.962651 
L 252.243369 140.80673 
L 255.905379 140.546628 
L 258.70256 140.124671 
L 261.256508 139.514783 
L 263.702353 138.701375 
L 266.107658 137.666428 
L 268.53999 136.375129 
L 271.026373 134.800813 
L 273.634373 132.881828 
L 273.823554 132.732382 
L 273.823554 132.732382 
" clip-path="url(#pba306ab3e9)" style="fill: none; stroke-dasharray: 2.775,1.2; stroke-dashoffset: 0; stroke: #000000; stroke-width: 0.75"/>
   </g>
   <g id="line2d_72">
    <path d="M 40.319737 104.11236 
L 44.387136 103.581477 
L 48.684255 102.792792 
L 53.440814 101.688082 
L 59.291922 100.088418 
L 71.399527 96.705911 
L 74.25076 96.409125 
L 77.81818 96.264016 
L 81.763962 96.328457 
L 86.061081 96.62503 
L 90.898718 97.188016 
L 96.830904 98.113925 
L 117.559773 101.55237 
L 122.654156 102.046377 
L 127.383689 102.28331 
L 129.694404 102.453635 
L 136.045492 103.392868 
L 141.612828 104.076713 
L 146.112641 104.407374 
L 150.247605 104.490023 
L 154.247438 104.347815 
L 158.247272 103.981748 
L 162.368723 103.378493 
L 166.760432 102.507423 
L 171.746712 101.284335 
L 178.286981 99.432699 
L 187.651457 96.782489 
L 190.272969 96.466889 
L 193.718772 96.27969 
L 197.583477 96.293943 
L 201.786005 96.534878 
L 206.461486 97.030463 
L 212.042336 97.855061 
L 220.798729 99.408965 
L 229.987536 100.969205 
L 235.676489 101.707013 
L 240.649256 102.130437 
L 248.230022 102.707304 
L 257.580985 103.996576 
L 262.175389 104.372122 
L 266.350891 104.492157 
L 270.364238 104.385367 
L 273.823554 104.11236 
L 273.823554 104.11236 
" clip-path="url(#pba306ab3e9)" style="fill: none; stroke: #180f0d; stroke-width: 0.75; stroke-linecap: square"/>
   </g>
   <g id="line2d_73">
    <path d="M 40.319737 121.530407 
L 45.130348 120.916143 
L 50.4004 120.013621 
L 56.805539 118.678828 
L 71.250885 115.580101 
L 74.048066 115.477473 
L 77.696563 115.570841 
L 81.912604 115.905119 
L 86.817806 116.523955 
L 93.249971 117.575845 
L 108.357452 120.12376 
L 113.762633 120.75542 
L 118.60027 121.099012 
L 123.194674 121.203763 
L 127.748539 121.084562 
L 129.613326 121.100553 
L 134.829326 121.505386 
L 141.774983 121.956479 
L 146.923418 122.06677 
L 151.666465 121.946879 
L 156.31492 121.60664 
L 161.084992 121.032831 
L 166.24694 120.183534 
L 172.368308 118.94084 
L 188.421695 115.551151 
L 191.394545 115.477846 
L 195.151145 115.611345 
L 199.47529 115.99233 
L 204.55616 116.671316 
L 211.555869 117.851934 
L 224.014812 119.969074 
L 229.582148 120.66377 
L 234.48735 121.054577 
L 239.108779 121.201418 
L 243.649131 121.1237 
L 246.567929 121.11237 
L 252.702809 121.594397 
L 259.121462 121.980704 
L 264.202332 122.064469 
L 268.918352 121.920951 
L 273.566808 121.556915 
L 273.823554 121.530407 
L 273.823554 121.530407 
" clip-path="url(#pba306ab3e9)" style="fill: none; stroke: #ac2a1a; stroke-width: 0.75; stroke-linecap: square"/>
   </g>
   <g id="line2d_74">
    <path d="M 40.319737 141.283211 
L 44.914141 138.461919 
L 51.832772 133.914431 
L 59.062202 129.241356 
L 63.26473 126.790684 
L 66.778098 124.992932 
L 69.89959 123.637487 
L 70.602263 123.67075 
L 71.561683 123.952058 
L 72.804875 124.560469 
L 74.331838 125.565906 
L 76.156087 127.04261 
L 78.304646 129.078138 
L 80.858594 131.817306 
L 84.074677 135.612428 
L 89.99335 143.024428 
L 94.520189 148.512762 
L 97.614655 151.923697 
L 100.222655 154.478297 
L 102.546883 156.452766 
L 104.668416 157.971807 
L 106.65482 159.125884 
L 108.519608 159.957613 
L 110.303317 160.514475 
L 112.032975 160.824474 
L 113.735607 160.904022 
L 115.424726 160.759556 
L 117.127358 160.388591 
L 118.857016 159.781997 
L 120.640726 158.918241 
L 122.505513 157.763952 
L 124.478404 156.274603 
L 126.572912 154.408857 
L 129.018756 152.215001 
L 130.343026 151.627869 
L 132.518611 150.931859 
L 143.801926 147.605697 
L 147.504475 146.153257 
L 151.152972 144.481562 
L 154.950112 142.493849 
L 159.15264 140.035369 
L 164.36864 136.709747 
L 177.381613 128.295099 
L 181.286856 126.11072 
L 184.651581 124.477533 
L 186.827167 123.625816 
L 187.597405 123.721742 
L 188.637902 124.088421 
L 189.962172 124.803175 
L 191.570213 125.933484 
L 193.489052 127.564617 
L 195.745715 129.786994 
L 198.448306 132.775249 
L 201.988699 137.045617 
L 212.299082 149.683979 
L 215.204367 152.779965 
L 217.717776 155.142813 
L 219.974439 156.967258 
L 222.055433 158.369941 
L 224.001299 159.418165 
L 225.83906 160.160527 
L 227.609257 160.638688 
L 229.325402 160.874126 
L 231.014521 160.882876 
L 232.70364 160.668863 
L 234.406272 160.228152 
L 236.149443 159.545535 
L 237.960178 158.593712 
L 239.851992 157.343508 
L 241.851909 155.750585 
L 244.000468 153.747988 
L 245.581484 152.320955 
L 246.797649 151.74273 
L 248.757027 151.080944 
L 253.446022 149.806816 
L 258.310685 148.373499 
L 262.148363 147.009659 
L 265.79686 145.476778 
L 269.485896 143.683494 
L 273.418165 141.519612 
L 273.823554 141.283211 
L 273.823554 141.283211 
" clip-path="url(#pba306ab3e9)" style="fill: none; stroke: #c46d1c; stroke-width: 0.75; stroke-linecap: square"/>
   </g>
   <g id="line2d_75">
    <path d="M 40.319737 117.096798 
L 69.926616 117.011312 
L 76.142574 98.634119 
L 79.426221 89.629635 
L 82.115299 82.880947 
L 84.466552 77.561773 
L 86.56106 73.353432 
L 88.466386 70.006177 
L 90.209557 67.376334 
L 91.817599 65.337608 
L 93.317536 63.78487 
L 94.70937 62.654416 
L 96.020127 61.868875 
L 97.263318 61.377601 
L 98.465971 61.139587 
L 99.641598 61.133405 
L 100.817225 61.351161 
L 102.019878 61.80473 
L 103.263069 62.516934 
L 104.573826 63.532254 
L 105.96566 64.901893 
L 107.452084 66.687612 
L 109.046613 68.961274 
L 110.776271 71.827562 
L 112.654571 75.383212 
L 114.722053 79.787806 
L 117.032768 85.253869 
L 119.667793 92.082093 
L 122.829824 100.926048 
L 127.289098 114.129981 
L 128.383648 117.096798 
L 186.678524 117.011312 
L 192.894482 98.634119 
L 196.17813 89.629635 
L 198.867207 82.880947 
L 201.218461 77.561773 
L 203.312969 73.353432 
L 205.218295 70.006177 
L 206.961466 67.376334 
L 208.569507 65.337608 
L 210.069445 63.78487 
L 211.461279 62.654416 
L 212.772035 61.868875 
L 214.015227 61.377601 
L 215.21788 61.139587 
L 216.393506 61.133405 
L 217.569133 61.351161 
L 218.771786 61.80473 
L 220.014978 62.516934 
L 221.325734 63.532254 
L 222.717568 64.901893 
L 224.203993 66.687612 
L 225.798521 68.961274 
L 227.528179 71.827562 
L 229.40648 75.383212 
L 231.473961 79.787806 
L 233.784676 85.253869 
L 236.419702 92.082093 
L 239.581733 100.926048 
L 244.041007 114.129981 
L 245.135556 117.096798 
L 273.823554 117.096798 
L 273.823554 117.096798 
" clip-path="url(#pba306ab3e9)" style="fill: none; stroke: #ffe100; stroke-width: 0.75; stroke-linecap: square"/>
   </g>
   <g id="line2d_76">
    <path d="M 40.319737 132.732382 
L 43.116918 130.370768 
L 46.197871 127.469605 
L 49.751778 123.804902 
L 54.400233 118.666809 
L 64.561974 107.344439 
L 68.075341 103.825213 
L 69.967155 101.90859 
L 71.210346 97.99882 
L 72.872439 93.507575 
L 74.710201 89.175432 
L 76.547962 85.39809 
L 78.318159 82.253742 
L 79.993765 79.718473 
L 81.574781 77.719936 
L 83.061205 76.190357 
L 84.466552 75.055726 
L 85.804335 74.256192 
L 87.088065 73.744761 
L 88.331257 73.486165 
L 89.560935 73.456778 
L 90.790614 73.649182 
L 92.060832 74.076473 
L 93.371588 74.755323 
L 94.763422 75.733243 
L 96.236334 77.046478 
L 97.817349 78.76083 
L 99.533494 80.959496 
L 101.398282 83.719879 
L 103.452251 87.168284 
L 105.749452 91.472629 
L 108.397991 96.927553 
L 111.600561 104.059576 
L 116.330094 115.202121 
L 122.829824 130.436197 
L 126.099959 137.519727 
L 128.275544 141.856904 
L 128.30257 141.837763 
L 129.045782 141.454177 
L 130.126818 141.160653 
L 131.775399 140.962651 
L 135.491461 140.80673 
L 139.153471 140.546628 
L 141.950652 140.124671 
L 144.5046 139.514783 
L 146.950444 138.701375 
L 149.35575 137.666428 
L 151.788081 136.375129 
L 154.274464 134.800813 
L 156.882464 132.881828 
L 159.666132 130.551104 
L 162.72006 127.695642 
L 166.219914 124.10784 
L 170.73324 119.13983 
L 181.678732 106.963791 
L 185.124535 103.544158 
L 186.719063 101.90859 
L 187.962255 97.99882 
L 189.624348 93.507575 
L 191.462109 89.175432 
L 193.299871 85.39809 
L 195.070068 82.253742 
L 196.745674 79.718473 
L 198.326689 77.719936 
L 199.813114 76.190357 
L 201.218461 75.055726 
L 202.556243 74.256192 
L 203.839974 73.744761 
L 205.083165 73.486165 
L 206.312844 73.456778 
L 207.542523 73.649182 
L 208.81274 74.076473 
L 210.123497 74.755323 
L 211.515331 75.733243 
L 212.988242 77.046478 
L 214.569258 78.76083 
L 216.285403 80.959496 
L 218.15019 83.719879 
L 220.204159 87.168284 
L 222.501361 91.472629 
L 225.1499 96.927553 
L 228.352469 104.059576 
L 233.082003 115.202121 
L 239.581733 130.436197 
L 242.851867 137.519727 
L 245.027452 141.856904 
L 245.054478 141.837763 
L 245.797691 141.454177 
L 246.878727 141.160653 
L 248.527307 140.962651 
L 252.243369 140.80673 
L 255.905379 140.546628 
L 258.70256 140.124671 
L 261.256508 139.514783 
L 263.702353 138.701375 
L 266.107658 137.666428 
L 268.53999 136.375129 
L 271.026373 134.800813 
L 273.634373 132.881828 
L 273.823554 132.732382 
L 273.823554 132.732382 
" clip-path="url(#pba306ab3e9)" style="fill: none; stroke-dasharray: 0.75,1.2375; stroke-dashoffset: 0; stroke: #ffe100; stroke-width: 0.75"/>
   </g>
   <g id="patch_3">
    <path d="M 40.33325 173.085197 
L 40.33325 5.12 
" style="fill: none; stroke: #000000; stroke-width: 0.8; stroke-linejoin: miter; stroke-linecap: square"/>
   </g>
   <g id="patch_4">
    <path d="M 273.837067 173.085197 
L 273.837067 5.12 
" style="fill: none; stroke: #000000; stroke-width: 0.8; stroke-linejoin: miter; stroke-linecap: square"/>
   </g>
   <g id="patch_5">
    <path d="M 40.33325 173.085197 
L 273.837067 173.085197 
" style="fill: none; stroke: #000000; stroke-width: 0.8; stroke-linejoin: miter; stroke-linecap: square"/>
   </g>
   <g id="patch_6">
    <path d="M 40.33325 5.12 
L 273.837067 5.12 
" style="fill: none; stroke: #000000; stroke-width: 0.8; stroke-linejoin: miter; stroke-linecap: square"/>
   </g>
   <g id="legend_1">
    <g id="line2d_77">
     <path d="M 213.860779 14.658714 
L 225.860779 14.658714 
L 237.860779 14.658714 
" style="fill: none; stroke-dasharray: 2.775,1.2; stroke-dashoffset: 0; stroke: #000000; stroke-width: 0.75"/>
    </g>
    <g id="text_18">
     <!-- q_cd -->
     <g transform="translate(242.660779 16.758714) scale(0.06 -0.06)">
      <defs>
       <path id="DejaVuSans-71" d="M 947 1747 
Q 947 1113 1208 752 
Q 1469 391 1925 391 
Q 2381 391 2643 752 
Q 2906 1113 2906 1747 
Q 2906 2381 2643 2742 
Q 2381 3103 1925 3103 
Q 1469 3103 1208 2742 
Q 947 2381 947 1747 
z
M 2906 525 
Q 2725 213 2448 61 
Q 2172 -91 1784 -91 
Q 1150 -91 751 415 
Q 353 922 353 1747 
Q 353 2572 751 3078 
Q 1150 3584 1784 3584 
Q 2172 3584 2448 3432 
Q 2725 3281 2906 2969 
L 2906 3500 
L 3481 3500 
L 3481 -1331 
L 2906 -1331 
L 2906 525 
z
" transform="scale(0.015625)"/>
       <path id="DejaVuSans-5f" d="M 3263 -1063 
L 3263 -1509 
L -63 -1509 
L -63 -1063 
L 3263 -1063 
z
" transform="scale(0.015625)"/>
       <path id="DejaVuSans-63" d="M 3122 3366 
L 3122 2828 
Q 2878 2963 2633 3030 
Q 2388 3097 2138 3097 
Q 1578 3097 1268 2742 
Q 959 2388 959 1747 
Q 959 1106 1268 751 
Q 1578 397 2138 397 
Q 2388 397 2633 464 
Q 2878 531 3122 666 
L 3122 134 
Q 2881 22 2623 -34 
Q 2366 -91 2075 -91 
Q 1284 -91 818 406 
Q 353 903 353 1747 
Q 353 2603 823 3093 
Q 1294 3584 2113 3584 
Q 2378 3584 2631 3529 
Q 2884 3475 3122 3366 
z
" transform="scale(0.015625)"/>
       <path id="DejaVuSans-64" d="M 2906 2969 
L 2906 4863 
L 3481 4863 
L 3481 0 
L 2906 0 
L 2906 525 
Q 2725 213 2448 61 
Q 2172 -91 1784 -91 
Q 1150 -91 751 415 
Q 353 922 353 1747 
Q 353 2572 751 3078 
Q 1150 3584 1784 3584 
Q 2172 3584 2448 3432 
Q 2725 3281 2906 2969 
z
M 947 1747 
Q 947 1113 1208 752 
Q 1469 391 1925 391 
Q 2381 391 2643 752 
Q 2906 1113 2906 1747 
Q 2906 2381 2643 2742 
Q 2381 3103 1925 3103 
Q 1469 3103 1208 2742 
Q 947 2381 947 1747 
z
" transform="scale(0.015625)"/>
      </defs>
      <use xlink:href="#DejaVuSans-71"/>
      <use xlink:href="#DejaVuSans-5f" x="63.476562"/>
      <use xlink:href="#DejaVuSans-63" x="113.476562"/>
      <use xlink:href="#DejaVuSans-64" x="168.457031"/>
     </g>
    </g>
    <g id="line2d_78">
     <path d="M 213.860779 24.232464 
L 225.860779 24.232464 
L 237.860779 24.232464 
" style="fill: none; stroke: #180f0d; stroke-width: 0.75; stroke-linecap: square"/>
    </g>
    <g id="text_19">
     <!-- q_sky -->
     <g transform="translate(242.660779 26.332464) scale(0.06 -0.06)">
      <defs>
       <path id="DejaVuSans-6b" d="M 581 4863 
L 1159 4863 
L 1159 1991 
L 2875 3500 
L 3609 3500 
L 1753 1863 
L 3688 0 
L 2938 0 
L 1159 1709 
L 1159 0 
L 581 0 
L 581 4863 
z
" transform="scale(0.015625)"/>
       <path id="DejaVuSans-79" d="M 2059 -325 
Q 1816 -950 1584 -1140 
Q 1353 -1331 966 -1331 
L 506 -1331 
L 506 -850 
L 844 -850 
Q 1081 -850 1212 -737 
Q 1344 -625 1503 -206 
L 1606 56 
L 191 3500 
L 800 3500 
L 1894 763 
L 2988 3500 
L 3597 3500 
L 2059 -325 
z
" transform="scale(0.015625)"/>
      </defs>
      <use xlink:href="#DejaVuSans-71"/>
      <use xlink:href="#DejaVuSans-5f" x="63.476562"/>
      <use xlink:href="#DejaVuSans-73" x="113.476562"/>
      <use xlink:href="#DejaVuSans-6b" x="165.576172"/>
      <use xlink:href="#DejaVuSans-79" x="219.861328"/>
     </g>
    </g>
    <g id="line2d_79">
     <path d="M 213.860779 33.806214 
L 225.860779 33.806214 
L 237.860779 33.806214 
" style="fill: none; stroke: #ac2a1a; stroke-width: 0.75; stroke-linecap: square"/>
    </g>
    <g id="text_20">
     <!-- q_gnd -->
     <g transform="translate(242.660779 35.906214) scale(0.06 -0.06)">
      <defs>
       <path id="DejaVuSans-67" d="M 2906 1791 
Q 2906 2416 2648 2759 
Q 2391 3103 1925 3103 
Q 1463 3103 1205 2759 
Q 947 2416 947 1791 
Q 947 1169 1205 825 
Q 1463 481 1925 481 
Q 2391 481 2648 825 
Q 2906 1169 2906 1791 
z
M 3481 434 
Q 3481 -459 3084 -895 
Q 2688 -1331 1869 -1331 
Q 1566 -1331 1297 -1286 
Q 1028 -1241 775 -1147 
L 775 -588 
Q 1028 -725 1275 -790 
Q 1522 -856 1778 -856 
Q 2344 -856 2625 -561 
Q 2906 -266 2906 331 
L 2906 616 
Q 2728 306 2450 153 
Q 2172 0 1784 0 
Q 1141 0 747 490 
Q 353 981 353 1791 
Q 353 2603 747 3093 
Q 1141 3584 1784 3584 
Q 2172 3584 2450 3431 
Q 2728 3278 2906 2969 
L 2906 3500 
L 3481 3500 
L 3481 434 
z
" transform="scale(0.015625)"/>
       <path id="DejaVuSans-6e" d="M 3513 2113 
L 3513 0 
L 2938 0 
L 2938 2094 
Q 2938 2591 2744 2837 
Q 2550 3084 2163 3084 
Q 1697 3084 1428 2787 
Q 1159 2491 1159 1978 
L 1159 0 
L 581 0 
L 581 3500 
L 1159 3500 
L 1159 2956 
Q 1366 3272 1645 3428 
Q 1925 3584 2291 3584 
Q 2894 3584 3203 3211 
Q 3513 2838 3513 2113 
z
" transform="scale(0.015625)"/>
      </defs>
      <use xlink:href="#DejaVuSans-71"/>
      <use xlink:href="#DejaVuSans-5f" x="63.476562"/>
      <use xlink:href="#DejaVuSans-67" x="113.476562"/>
      <use xlink:href="#DejaVuSans-6e" x="176.953125"/>
      <use xlink:href="#DejaVuSans-64" x="240.332031"/>
     </g>
    </g>
    <g id="line2d_80">
     <path d="M 213.860779 43.379964 
L 225.860779 43.379964 
L 237.860779 43.379964 
" style="fill: none; stroke: #c46d1c; stroke-width: 0.75; stroke-linecap: square"/>
    </g>
    <g id="text_21">
     <!-- q_cv -->
     <g transform="translate(242.660779 45.479964) scale(0.06 -0.06)">
      <defs>
       <path id="DejaVuSans-76" d="M 191 3500 
L 800 3500 
L 1894 563 
L 2988 3500 
L 3597 3500 
L 2284 0 
L 1503 0 
L 191 3500 
z
" transform="scale(0.015625)"/>
      </defs>
      <use xlink:href="#DejaVuSans-71"/>
      <use xlink:href="#DejaVuSans-5f" x="63.476562"/>
      <use xlink:href="#DejaVuSans-63" x="113.476562"/>
      <use xlink:href="#DejaVuSans-76" x="168.457031"/>
     </g>
    </g>
    <g id="line2d_81">
     <path d="M 213.860779 52.953714 
L 225.860779 52.953714 
L 237.860779 52.953714 
" style="fill: none; stroke: #ffe100; stroke-width: 0.75; stroke-linecap: square"/>
    </g>
    <g id="text_22">
     <!-- q_alpha -->
     <g transform="translate(242.660779 55.053714) scale(0.06 -0.06)">
      <defs>
       <path id="DejaVuSans-70" d="M 1159 525 
L 1159 -1331 
L 581 -1331 
L 581 3500 
L 1159 3500 
L 1159 2969 
Q 1341 3281 1617 3432 
Q 1894 3584 2278 3584 
Q 2916 3584 3314 3078 
Q 3713 2572 3713 1747 
Q 3713 922 3314 415 
Q 2916 -91 2278 -91 
Q 1894 -91 1617 61 
Q 1341 213 1159 525 
z
M 3116 1747 
Q 3116 2381 2855 2742 
Q 2594 3103 2138 3103 
Q 1681 3103 1420 2742 
Q 1159 2381 1159 1747 
Q 1159 1113 1420 752 
Q 1681 391 2138 391 
Q 2594 391 2855 752 
Q 3116 1113 3116 1747 
z
" transform="scale(0.015625)"/>
       <path id="DejaVuSans-68" d="M 3513 2113 
L 3513 0 
L 2938 0 
L 2938 2094 
Q 2938 2591 2744 2837 
Q 2550 3084 2163 3084 
Q 1697 3084 1428 2787 
Q 1159 2491 1159 1978 
L 1159 0 
L 581 0 
L 581 4863 
L 1159 4863 
L 1159 2956 
Q 1366 3272 1645 3428 
Q 1925 3584 2291 3584 
Q 2894 3584 3203 3211 
Q 3513 2838 3513 2113 
z
" transform="scale(0.015625)"/>
      </defs>
      <use xlink:href="#DejaVuSans-71"/>
      <use xlink:href="#DejaVuSans-5f" x="63.476562"/>
      <use xlink:href="#DejaVuSans-61" x="113.476562"/>
      <use xlink:href="#DejaVuSans-6c" x="174.755859"/>
      <use xlink:href="#DejaVuSans-70" x="202.539062"/>
      <use xlink:href="#DejaVuSans-68" x="266.015625"/>
      <use xlink:href="#DejaVuSans-61" x="329.394531"/>
     </g>
    </g>
    <g id="line2d_82">
     <path d="M 213.860779 62.527464 
L 225.860779 62.527464 
L 237.860779 62.527464 
" style="fill: none; stroke-dasharray: 0.75,1.2375; stroke-dashoffset: 0; stroke: #ffe100; stroke-width: 0.75"/>
    </g>
    <g id="text_23">
     <!-- q_total -->
     <g transform="translate(242.660779 64.627464) scale(0.06 -0.06)">
      <use xlink:href="#DejaVuSans-71"/>
      <use xlink:href="#DejaVuSans-5f" x="63.476562"/>
      <use xlink:href="#DejaVuSans-74" x="113.476562"/>
      <use xlink:href="#DejaVuSans-6f" x="152.685547"/>
      <use xlink:href="#DejaVuSans-74" x="213.867188"/>
      <use xlink:href="#DejaVuSans-61" x="253.076172"/>
      <use xlink:href="#DejaVuSans-6c" x="314.355469"/>
     </g>
    </g>
   </g>
  </g>
 </g>
 <defs>
  <clipPath id="pba306ab3e9">
   <rect x="40.33325" y="5.12" width="233.503817" height="167.965197"/>
  </clipPath>
 </defs>
</svg>
