<?xml version="1.0" encoding="utf-8" standalone="no"?>
<!DOCTYPE svg PUBLIC "-//W3C//DTD SVG 1.1//EN"
  "http://www.w3.org/Graphics/SVG/1.1/DTD/svg11.dtd">
<svg xmlns:xlink="http://www.w3.org/1999/xlink" width="283.464567pt" height="198.425197pt" viewBox="0 0 283.464567 198.425197" xmlns="http://www.w3.org/2000/svg" version="1.1">
 <metadata>
  <rdf:RDF xmlns:dc="http://purl.org/dc/elements/1.1/" xmlns:cc="http://creativecommons.org/ns#" xmlns:rdf="http://www.w3.org/1999/02/22-rdf-syntax-ns#">
   <cc:Work>
    <dc:type rdf:resource="http://purl.org/dc/dcmitype/StillImage"/>
    <dc:date>2023-05-17T10:25:21.791598</dc:date>
    <dc:format>image/svg+xml</dc:format>
    <dc:creator>
     <cc:Agent>
      <dc:title>Matplotlib v3.7.1, https://matplotlib.org/</dc:title>
     </cc:Agent>
    </dc:creator>
   </cc:Work>
  </rdf:RDF>
 </metadata>
 <defs>
  <style type="text/css">*{stroke-linejoin: round; stroke-linecap: butt}</style>
 </defs>
 <g id="figure_1">
  <g id="patch_1">
   <path d="M 0 198.425197 
L 283.464567 198.425197 
L 283.464567 0 
L 0 0 
z
" style="fill: #ffffff"/>
  </g>
  <g id="axes_1">
   <g id="patch_2">
    <path d="M 40.33325 173.085197 
L 273.837067 173.085197 
L 273.837067 5.12 
L 40.33325 5.12 
z
" style="fill: #ffffff"/>
   </g>
   <g id="matplotlib.axis_1">
    <g id="xtick_1">
     <g id="line2d_1">
      <path d="M 40.33325 173.085197 
L 40.33325 5.12 
" clip-path="url(#p11ebcc7044)" style="fill: none; stroke-dasharray: 0.925,0.4; stroke-dashoffset: 0; stroke: #404040; stroke-opacity: 0.5; stroke-width: 0.25"/>
     </g>
     <g id="line2d_2">
      <defs>
       <path id="m17677afedc" d="M 0 0 
L 0 -3.5 
" style="stroke: #000000; stroke-width: 0.5"/>
      </defs>
      <g>
       <use xlink:href="#m17677afedc" x="40.33325" y="173.085197" style="stroke: #000000; stroke-width: 0.5"/>
      </g>
     </g>
     <g id="text_1">
      <!-- 120 -->
      <g transform="translate(32.69825 182.663947) scale(0.08 -0.08)">
       <defs>
        <path id="DejaVuSans-31" d="M 794 531 
L 1825 531 
L 1825 4091 
L 703 3866 
L 703 4441 
L 1819 4666 
L 2450 4666 
L 2450 531 
L 3481 531 
L 3481 0 
L 794 0 
L 794 531 
z
" transform="scale(0.015625)"/>
        <path id="DejaVuSans-32" d="M 1228 531 
L 3431 531 
L 3431 0 
L 469 0 
L 469 531 
Q 828 903 1448 1529 
Q 2069 2156 2228 2338 
Q 2531 2678 2651 2914 
Q 2772 3150 2772 3378 
Q 2772 3750 2511 3984 
Q 2250 4219 1831 4219 
Q 1534 4219 1204 4116 
Q 875 4013 500 3803 
L 500 4441 
Q 881 4594 1212 4672 
Q 1544 4750 1819 4750 
Q 2544 4750 2975 4387 
Q 3406 4025 3406 3419 
Q 3406 3131 3298 2873 
Q 3191 2616 2906 2266 
Q 2828 2175 2409 1742 
Q 1991 1309 1228 531 
z
" transform="scale(0.015625)"/>
        <path id="DejaVuSans-30" d="M 2034 4250 
Q 1547 4250 1301 3770 
Q 1056 3291 1056 2328 
Q 1056 1369 1301 889 
Q 1547 409 2034 409 
Q 2525 409 2770 889 
Q 3016 1369 3016 2328 
Q 3016 3291 2770 3770 
Q 2525 4250 2034 4250 
z
M 2034 4750 
Q 2819 4750 3233 4129 
Q 3647 3509 3647 2328 
Q 3647 1150 3233 529 
Q 2819 -91 2034 -91 
Q 1250 -91 836 529 
Q 422 1150 422 2328 
Q 422 3509 836 4129 
Q 1250 4750 2034 4750 
z
" transform="scale(0.015625)"/>
       </defs>
       <use xlink:href="#DejaVuSans-31"/>
       <use xlink:href="#DejaVuSans-32" x="63.623047"/>
       <use xlink:href="#DejaVuSans-30" x="127.246094"/>
      </g>
     </g>
    </g>
    <g id="xtick_2">
     <g id="line2d_3">
      <path d="M 98.709204 173.085197 
L 98.709204 5.12 
" clip-path="url(#p11ebcc7044)" style="fill: none; stroke-dasharray: 0.925,0.4; stroke-dashoffset: 0; stroke: #404040; stroke-opacity: 0.5; stroke-width: 0.25"/>
     </g>
     <g id="line2d_4">
      <g>
       <use xlink:href="#m17677afedc" x="98.709204" y="173.085197" style="stroke: #000000; stroke-width: 0.5"/>
      </g>
     </g>
     <g id="text_2">
      <!-- 132 -->
      <g transform="translate(91.074204 182.663947) scale(0.08 -0.08)">
       <defs>
        <path id="DejaVuSans-33" d="M 2597 2516 
Q 3050 2419 3304 2112 
Q 3559 1806 3559 1356 
Q 3559 666 3084 287 
Q 2609 -91 1734 -91 
Q 1441 -91 1130 -33 
Q 819 25 488 141 
L 488 750 
Q 750 597 1062 519 
Q 1375 441 1716 441 
Q 2309 441 2620 675 
Q 2931 909 2931 1356 
Q 2931 1769 2642 2001 
Q 2353 2234 1838 2234 
L 1294 2234 
L 1294 2753 
L 1863 2753 
Q 2328 2753 2575 2939 
Q 2822 3125 2822 3475 
Q 2822 3834 2567 4026 
Q 2313 4219 1838 4219 
Q 1578 4219 1281 4162 
Q 984 4106 628 3988 
L 628 4550 
Q 988 4650 1302 4700 
Q 1616 4750 1894 4750 
Q 2613 4750 3031 4423 
Q 3450 4097 3450 3541 
Q 3450 3153 3228 2886 
Q 3006 2619 2597 2516 
z
" transform="scale(0.015625)"/>
       </defs>
       <use xlink:href="#DejaVuSans-31"/>
       <use xlink:href="#DejaVuSans-33" x="63.623047"/>
       <use xlink:href="#DejaVuSans-32" x="127.246094"/>
      </g>
     </g>
    </g>
    <g id="xtick_3">
     <g id="line2d_5">
      <path d="M 157.085158 173.085197 
L 157.085158 5.12 
" clip-path="url(#p11ebcc7044)" style="fill: none; stroke-dasharray: 0.925,0.4; stroke-dashoffset: 0; stroke: #404040; stroke-opacity: 0.5; stroke-width: 0.25"/>
     </g>
     <g id="line2d_6">
      <g>
       <use xlink:href="#m17677afedc" x="157.085158" y="173.085197" style="stroke: #000000; stroke-width: 0.5"/>
      </g>
     </g>
     <g id="text_3">
      <!-- 144 -->
      <g transform="translate(149.450158 182.663947) scale(0.08 -0.08)">
       <defs>
        <path id="DejaVuSans-34" d="M 2419 4116 
L 825 1625 
L 2419 1625 
L 2419 4116 
z
M 2253 4666 
L 3047 4666 
L 3047 1625 
L 3713 1625 
L 3713 1100 
L 3047 1100 
L 3047 0 
L 2419 0 
L 2419 1100 
L 313 1100 
L 313 1709 
L 2253 4666 
z
" transform="scale(0.015625)"/>
       </defs>
       <use xlink:href="#DejaVuSans-31"/>
       <use xlink:href="#DejaVuSans-34" x="63.623047"/>
       <use xlink:href="#DejaVuSans-34" x="127.246094"/>
      </g>
     </g>
    </g>
    <g id="xtick_4">
     <g id="line2d_7">
      <path d="M 215.461113 173.085197 
L 215.461113 5.12 
" clip-path="url(#p11ebcc7044)" style="fill: none; stroke-dasharray: 0.925,0.4; stroke-dashoffset: 0; stroke: #404040; stroke-opacity: 0.5; stroke-width: 0.25"/>
     </g>
     <g id="line2d_8">
      <g>
       <use xlink:href="#m17677afedc" x="215.461113" y="173.085197" style="stroke: #000000; stroke-width: 0.5"/>
      </g>
     </g>
     <g id="text_4">
      <!-- 156 -->
      <g transform="translate(207.826113 182.663947) scale(0.08 -0.08)">
       <defs>
        <path id="DejaVuSans-35" d="M 691 4666 
L 3169 4666 
L 3169 4134 
L 1269 4134 
L 1269 2991 
Q 1406 3038 1543 3061 
Q 1681 3084 1819 3084 
Q 2600 3084 3056 2656 
Q 3513 2228 3513 1497 
Q 3513 744 3044 326 
Q 2575 -91 1722 -91 
Q 1428 -91 1123 -41 
Q 819 9 494 109 
L 494 744 
Q 775 591 1075 516 
Q 1375 441 1709 441 
Q 2250 441 2565 725 
Q 2881 1009 2881 1497 
Q 2881 1984 2565 2268 
Q 2250 2553 1709 2553 
Q 1456 2553 1204 2497 
Q 953 2441 691 2322 
L 691 4666 
z
" transform="scale(0.015625)"/>
        <path id="DejaVuSans-36" d="M 2113 2584 
Q 1688 2584 1439 2293 
Q 1191 2003 1191 1497 
Q 1191 994 1439 701 
Q 1688 409 2113 409 
Q 2538 409 2786 701 
Q 3034 994 3034 1497 
Q 3034 2003 2786 2293 
Q 2538 2584 2113 2584 
z
M 3366 4563 
L 3366 3988 
Q 3128 4100 2886 4159 
Q 2644 4219 2406 4219 
Q 1781 4219 1451 3797 
Q 1122 3375 1075 2522 
Q 1259 2794 1537 2939 
Q 1816 3084 2150 3084 
Q 2853 3084 3261 2657 
Q 3669 2231 3669 1497 
Q 3669 778 3244 343 
Q 2819 -91 2113 -91 
Q 1303 -91 875 529 
Q 447 1150 447 2328 
Q 447 3434 972 4092 
Q 1497 4750 2381 4750 
Q 2619 4750 2861 4703 
Q 3103 4656 3366 4563 
z
" transform="scale(0.015625)"/>
       </defs>
       <use xlink:href="#DejaVuSans-31"/>
       <use xlink:href="#DejaVuSans-35" x="63.623047"/>
       <use xlink:href="#DejaVuSans-36" x="127.246094"/>
      </g>
     </g>
    </g>
    <g id="xtick_5">
     <g id="line2d_9">
      <path d="M 273.837067 173.085197 
L 273.837067 5.12 
" clip-path="url(#p11ebcc7044)" style="fill: none; stroke-dasharray: 0.925,0.4; stroke-dashoffset: 0; stroke: #404040; stroke-opacity: 0.5; stroke-width: 0.25"/>
     </g>
     <g id="line2d_10">
      <g>
       <use xlink:href="#m17677afedc" x="273.837067" y="173.085197" style="stroke: #000000; stroke-width: 0.5"/>
      </g>
     </g>
     <g id="text_5">
      <!-- 168 -->
      <g transform="translate(266.202067 182.663947) scale(0.08 -0.08)">
       <defs>
        <path id="DejaVuSans-38" d="M 2034 2216 
Q 1584 2216 1326 1975 
Q 1069 1734 1069 1313 
Q 1069 891 1326 650 
Q 1584 409 2034 409 
Q 2484 409 2743 651 
Q 3003 894 3003 1313 
Q 3003 1734 2745 1975 
Q 2488 2216 2034 2216 
z
M 1403 2484 
Q 997 2584 770 2862 
Q 544 3141 544 3541 
Q 544 4100 942 4425 
Q 1341 4750 2034 4750 
Q 2731 4750 3128 4425 
Q 3525 4100 3525 3541 
Q 3525 3141 3298 2862 
Q 3072 2584 2669 2484 
Q 3125 2378 3379 2068 
Q 3634 1759 3634 1313 
Q 3634 634 3220 271 
Q 2806 -91 2034 -91 
Q 1263 -91 848 271 
Q 434 634 434 1313 
Q 434 1759 690 2068 
Q 947 2378 1403 2484 
z
M 1172 3481 
Q 1172 3119 1398 2916 
Q 1625 2713 2034 2713 
Q 2441 2713 2670 2916 
Q 2900 3119 2900 3481 
Q 2900 3844 2670 4047 
Q 2441 4250 2034 4250 
Q 1625 4250 1398 4047 
Q 1172 3844 1172 3481 
z
" transform="scale(0.015625)"/>
       </defs>
       <use xlink:href="#DejaVuSans-31"/>
       <use xlink:href="#DejaVuSans-36" x="63.623047"/>
       <use xlink:href="#DejaVuSans-38" x="127.246094"/>
      </g>
     </g>
    </g>
    <g id="xtick_6">
     <g id="line2d_11">
      <defs>
       <path id="m858bf6f2a5" d="M 0 0 
L 0 -2 
" style="stroke: #000000; stroke-width: 0.35"/>
      </defs>
      <g>
       <use xlink:href="#m858bf6f2a5" x="69.521227" y="173.085197" style="stroke: #000000; stroke-width: 0.35"/>
      </g>
     </g>
    </g>
    <g id="xtick_7">
     <g id="line2d_12">
      <g>
       <use xlink:href="#m858bf6f2a5" x="127.897181" y="173.085197" style="stroke: #000000; stroke-width: 0.35"/>
      </g>
     </g>
    </g>
    <g id="xtick_8">
     <g id="line2d_13">
      <g>
       <use xlink:href="#m858bf6f2a5" x="186.273136" y="173.085197" style="stroke: #000000; stroke-width: 0.35"/>
      </g>
     </g>
    </g>
    <g id="xtick_9">
     <g id="line2d_14">
      <g>
       <use xlink:href="#m858bf6f2a5" x="244.64909" y="173.085197" style="stroke: #000000; stroke-width: 0.35"/>
      </g>
     </g>
    </g>
    <g id="text_6">
     <!-- Hour [h] -->
     <g transform="translate(140.522658 194.406447) scale(0.08 -0.08)">
      <defs>
       <path id="DejaVuSans-48" d="M 628 4666 
L 1259 4666 
L 1259 2753 
L 3553 2753 
L 3553 4666 
L 4184 4666 
L 4184 0 
L 3553 0 
L 3553 2222 
L 1259 2222 
L 1259 0 
L 628 0 
L 628 4666 
z
" transform="scale(0.015625)"/>
       <path id="DejaVuSans-6f" d="M 1959 3097 
Q 1497 3097 1228 2736 
Q 959 2375 959 1747 
Q 959 1119 1226 758 
Q 1494 397 1959 397 
Q 2419 397 2687 759 
Q 2956 1122 2956 1747 
Q 2956 2369 2687 2733 
Q 2419 3097 1959 3097 
z
M 1959 3584 
Q 2709 3584 3137 3096 
Q 3566 2609 3566 1747 
Q 3566 888 3137 398 
Q 2709 -91 1959 -91 
Q 1206 -91 779 398 
Q 353 888 353 1747 
Q 353 2609 779 3096 
Q 1206 3584 1959 3584 
z
" transform="scale(0.015625)"/>
       <path id="DejaVuSans-75" d="M 544 1381 
L 544 3500 
L 1119 3500 
L 1119 1403 
Q 1119 906 1312 657 
Q 1506 409 1894 409 
Q 2359 409 2629 706 
Q 2900 1003 2900 1516 
L 2900 3500 
L 3475 3500 
L 3475 0 
L 2900 0 
L 2900 538 
Q 2691 219 2414 64 
Q 2138 -91 1772 -91 
Q 1169 -91 856 284 
Q 544 659 544 1381 
z
M 1991 3584 
L 1991 3584 
z
" transform="scale(0.015625)"/>
       <path id="DejaVuSans-72" d="M 2631 2963 
Q 2534 3019 2420 3045 
Q 2306 3072 2169 3072 
Q 1681 3072 1420 2755 
Q 1159 2438 1159 1844 
L 1159 0 
L 581 0 
L 581 3500 
L 1159 3500 
L 1159 2956 
Q 1341 3275 1631 3429 
Q 1922 3584 2338 3584 
Q 2397 3584 2469 3576 
Q 2541 3569 2628 3553 
L 2631 2963 
z
" transform="scale(0.015625)"/>
       <path id="DejaVuSans-20" transform="scale(0.015625)"/>
       <path id="DejaVuSans-5b" d="M 550 4863 
L 1875 4863 
L 1875 4416 
L 1125 4416 
L 1125 -397 
L 1875 -397 
L 1875 -844 
L 550 -844 
L 550 4863 
z
" transform="scale(0.015625)"/>
       <path id="DejaVuSans-68" d="M 3513 2113 
L 3513 0 
L 2938 0 
L 2938 2094 
Q 2938 2591 2744 2837 
Q 2550 3084 2163 3084 
Q 1697 3084 1428 2787 
Q 1159 2491 1159 1978 
L 1159 0 
L 581 0 
L 581 4863 
L 1159 4863 
L 1159 2956 
Q 1366 3272 1645 3428 
Q 1925 3584 2291 3584 
Q 2894 3584 3203 3211 
Q 3513 2838 3513 2113 
z
" transform="scale(0.015625)"/>
       <path id="DejaVuSans-5d" d="M 1947 4863 
L 1947 -844 
L 622 -844 
L 622 -397 
L 1369 -397 
L 1369 4416 
L 622 4416 
L 622 4863 
L 1947 4863 
z
" transform="scale(0.015625)"/>
      </defs>
      <use xlink:href="#DejaVuSans-48"/>
      <use xlink:href="#DejaVuSans-6f" x="75.195312"/>
      <use xlink:href="#DejaVuSans-75" x="136.376953"/>
      <use xlink:href="#DejaVuSans-72" x="199.755859"/>
      <use xlink:href="#DejaVuSans-20" x="240.869141"/>
      <use xlink:href="#DejaVuSans-5b" x="272.65625"/>
      <use xlink:href="#DejaVuSans-68" x="311.669922"/>
      <use xlink:href="#DejaVuSans-5d" x="375.048828"/>
     </g>
    </g>
   </g>
   <g id="matplotlib.axis_2">
    <g id="ytick_1">
     <g id="line2d_15">
      <path d="M 40.33325 173.085197 
L 273.837067 173.085197 
" clip-path="url(#p11ebcc7044)" style="fill: none; stroke-dasharray: 0.925,0.4; stroke-dashoffset: 0; stroke: #404040; stroke-opacity: 0.5; stroke-width: 0.25"/>
     </g>
     <g id="line2d_16">
      <defs>
       <path id="m1b380f43d1" d="M 0 0 
L 3.5 0 
" style="stroke: #000000; stroke-width: 0.5"/>
      </defs>
      <g>
       <use xlink:href="#m1b380f43d1" x="40.33325" y="173.085197" style="stroke: #000000; stroke-width: 0.5"/>
      </g>
     </g>
     <g id="text_7">
      <!-- −300 -->
      <g transform="translate(14.8595 176.124572) scale(0.08 -0.08)">
       <defs>
        <path id="DejaVuSans-2212" d="M 678 2272 
L 4684 2272 
L 4684 1741 
L 678 1741 
L 678 2272 
z
" transform="scale(0.015625)"/>
       </defs>
       <use xlink:href="#DejaVuSans-2212"/>
       <use xlink:href="#DejaVuSans-33" x="83.789062"/>
       <use xlink:href="#DejaVuSans-30" x="147.412109"/>
       <use xlink:href="#DejaVuSans-30" x="211.035156"/>
      </g>
     </g>
    </g>
    <g id="ytick_2">
     <g id="line2d_17">
      <path d="M 40.33325 145.090997 
L 273.837067 145.090997 
" clip-path="url(#p11ebcc7044)" style="fill: none; stroke-dasharray: 0.925,0.4; stroke-dashoffset: 0; stroke: #404040; stroke-opacity: 0.5; stroke-width: 0.25"/>
     </g>
     <g id="line2d_18">
      <g>
       <use xlink:href="#m1b380f43d1" x="40.33325" y="145.090997" style="stroke: #000000; stroke-width: 0.5"/>
      </g>
     </g>
     <g id="text_8">
      <!-- −200 -->
      <g transform="translate(14.8595 148.130372) scale(0.08 -0.08)">
       <use xlink:href="#DejaVuSans-2212"/>
       <use xlink:href="#DejaVuSans-32" x="83.789062"/>
       <use xlink:href="#DejaVuSans-30" x="147.412109"/>
       <use xlink:href="#DejaVuSans-30" x="211.035156"/>
      </g>
     </g>
    </g>
    <g id="ytick_3">
     <g id="line2d_19">
      <path d="M 40.33325 117.096798 
L 273.837067 117.096798 
" clip-path="url(#p11ebcc7044)" style="fill: none; stroke-dasharray: 0.925,0.4; stroke-dashoffset: 0; stroke: #404040; stroke-opacity: 0.5; stroke-width: 0.25"/>
     </g>
     <g id="line2d_20">
      <g>
       <use xlink:href="#m1b380f43d1" x="40.33325" y="117.096798" style="stroke: #000000; stroke-width: 0.5"/>
      </g>
     </g>
     <g id="text_9">
      <!-- −100 -->
      <g transform="translate(14.8595 120.136173) scale(0.08 -0.08)">
       <use xlink:href="#DejaVuSans-2212"/>
       <use xlink:href="#DejaVuSans-31" x="83.789062"/>
       <use xlink:href="#DejaVuSans-30" x="147.412109"/>
       <use xlink:href="#DejaVuSans-30" x="211.035156"/>
      </g>
     </g>
    </g>
    <g id="ytick_4">
     <g id="line2d_21">
      <path d="M 40.33325 89.102598 
L 273.837067 89.102598 
" clip-path="url(#p11ebcc7044)" style="fill: none; stroke-dasharray: 0.925,0.4; stroke-dashoffset: 0; stroke: #404040; stroke-opacity: 0.5; stroke-width: 0.25"/>
     </g>
     <g id="line2d_22">
      <g>
       <use xlink:href="#m1b380f43d1" x="40.33325" y="89.102598" style="stroke: #000000; stroke-width: 0.5"/>
      </g>
     </g>
     <g id="text_10">
      <!-- 0 -->
      <g transform="translate(31.74325 92.141973) scale(0.08 -0.08)">
       <use xlink:href="#DejaVuSans-30"/>
      </g>
     </g>
    </g>
    <g id="ytick_5">
     <g id="line2d_23">
      <path d="M 40.33325 61.108399 
L 273.837067 61.108399 
" clip-path="url(#p11ebcc7044)" style="fill: none; stroke-dasharray: 0.925,0.4; stroke-dashoffset: 0; stroke: #404040; stroke-opacity: 0.5; stroke-width: 0.25"/>
     </g>
     <g id="line2d_24">
      <g>
       <use xlink:href="#m1b380f43d1" x="40.33325" y="61.108399" style="stroke: #000000; stroke-width: 0.5"/>
      </g>
     </g>
     <g id="text_11">
      <!-- 100 -->
      <g transform="translate(21.56325 64.147774) scale(0.08 -0.08)">
       <use xlink:href="#DejaVuSans-31"/>
       <use xlink:href="#DejaVuSans-30" x="63.623047"/>
       <use xlink:href="#DejaVuSans-30" x="127.246094"/>
      </g>
     </g>
    </g>
    <g id="ytick_6">
     <g id="line2d_25">
      <path d="M 40.33325 33.114199 
L 273.837067 33.114199 
" clip-path="url(#p11ebcc7044)" style="fill: none; stroke-dasharray: 0.925,0.4; stroke-dashoffset: 0; stroke: #404040; stroke-opacity: 0.5; stroke-width: 0.25"/>
     </g>
     <g id="line2d_26">
      <g>
       <use xlink:href="#m1b380f43d1" x="40.33325" y="33.114199" style="stroke: #000000; stroke-width: 0.5"/>
      </g>
     </g>
     <g id="text_12">
      <!-- 200 -->
      <g transform="translate(21.56325 36.153574) scale(0.08 -0.08)">
       <use xlink:href="#DejaVuSans-32"/>
       <use xlink:href="#DejaVuSans-30" x="63.623047"/>
       <use xlink:href="#DejaVuSans-30" x="127.246094"/>
      </g>
     </g>
    </g>
    <g id="ytick_7">
     <g id="line2d_27">
      <path d="M 40.33325 5.12 
L 273.837067 5.12 
" clip-path="url(#p11ebcc7044)" style="fill: none; stroke-dasharray: 0.925,0.4; stroke-dashoffset: 0; stroke: #404040; stroke-opacity: 0.5; stroke-width: 0.25"/>
     </g>
     <g id="line2d_28">
      <g>
       <use xlink:href="#m1b380f43d1" x="40.33325" y="5.12" style="stroke: #000000; stroke-width: 0.5"/>
      </g>
     </g>
     <g id="text_13">
      <!-- 300 -->
      <g transform="translate(21.56325 8.159375) scale(0.08 -0.08)">
       <use xlink:href="#DejaVuSans-33"/>
       <use xlink:href="#DejaVuSans-30" x="63.623047"/>
       <use xlink:href="#DejaVuSans-30" x="127.246094"/>
      </g>
     </g>
    </g>
    <g id="ytick_8">
     <g id="line2d_29">
      <defs>
       <path id="m6bed85970e" d="M 0 0 
L 2 0 
" style="stroke: #000000; stroke-width: 0.35"/>
      </defs>
      <g>
       <use xlink:href="#m6bed85970e" x="40.33325" y="167.486357" style="stroke: #000000; stroke-width: 0.35"/>
      </g>
     </g>
    </g>
    <g id="ytick_9">
     <g id="line2d_30">
      <g>
       <use xlink:href="#m6bed85970e" x="40.33325" y="161.887517" style="stroke: #000000; stroke-width: 0.35"/>
      </g>
     </g>
    </g>
    <g id="ytick_10">
     <g id="line2d_31">
      <g>
       <use xlink:href="#m6bed85970e" x="40.33325" y="156.288677" style="stroke: #000000; stroke-width: 0.35"/>
      </g>
     </g>
    </g>
    <g id="ytick_11">
     <g id="line2d_32">
      <g>
       <use xlink:href="#m6bed85970e" x="40.33325" y="150.689837" style="stroke: #000000; stroke-width: 0.35"/>
      </g>
     </g>
    </g>
    <g id="ytick_12">
     <g id="line2d_33">
      <g>
       <use xlink:href="#m6bed85970e" x="40.33325" y="139.492157" style="stroke: #000000; stroke-width: 0.35"/>
      </g>
     </g>
    </g>
    <g id="ytick_13">
     <g id="line2d_34">
      <g>
       <use xlink:href="#m6bed85970e" x="40.33325" y="133.893318" style="stroke: #000000; stroke-width: 0.35"/>
      </g>
     </g>
    </g>
    <g id="ytick_14">
     <g id="line2d_35">
      <g>
       <use xlink:href="#m6bed85970e" x="40.33325" y="128.294478" style="stroke: #000000; stroke-width: 0.35"/>
      </g>
     </g>
    </g>
    <g id="ytick_15">
     <g id="line2d_36">
      <g>
       <use xlink:href="#m6bed85970e" x="40.33325" y="122.695638" style="stroke: #000000; stroke-width: 0.35"/>
      </g>
     </g>
    </g>
    <g id="ytick_16">
     <g id="line2d_37">
      <g>
       <use xlink:href="#m6bed85970e" x="40.33325" y="111.497958" style="stroke: #000000; stroke-width: 0.35"/>
      </g>
     </g>
    </g>
    <g id="ytick_17">
     <g id="line2d_38">
      <g>
       <use xlink:href="#m6bed85970e" x="40.33325" y="105.899118" style="stroke: #000000; stroke-width: 0.35"/>
      </g>
     </g>
    </g>
    <g id="ytick_18">
     <g id="line2d_39">
      <g>
       <use xlink:href="#m6bed85970e" x="40.33325" y="100.300278" style="stroke: #000000; stroke-width: 0.35"/>
      </g>
     </g>
    </g>
    <g id="ytick_19">
     <g id="line2d_40">
      <g>
       <use xlink:href="#m6bed85970e" x="40.33325" y="94.701438" style="stroke: #000000; stroke-width: 0.35"/>
      </g>
     </g>
    </g>
    <g id="ytick_20">
     <g id="line2d_41">
      <g>
       <use xlink:href="#m6bed85970e" x="40.33325" y="83.503759" style="stroke: #000000; stroke-width: 0.35"/>
      </g>
     </g>
    </g>
    <g id="ytick_21">
     <g id="line2d_42">
      <g>
       <use xlink:href="#m6bed85970e" x="40.33325" y="77.904919" style="stroke: #000000; stroke-width: 0.35"/>
      </g>
     </g>
    </g>
    <g id="ytick_22">
     <g id="line2d_43">
      <g>
       <use xlink:href="#m6bed85970e" x="40.33325" y="72.306079" style="stroke: #000000; stroke-width: 0.35"/>
      </g>
     </g>
    </g>
    <g id="ytick_23">
     <g id="line2d_44">
      <g>
       <use xlink:href="#m6bed85970e" x="40.33325" y="66.707239" style="stroke: #000000; stroke-width: 0.35"/>
      </g>
     </g>
    </g>
    <g id="ytick_24">
     <g id="line2d_45">
      <g>
       <use xlink:href="#m6bed85970e" x="40.33325" y="55.509559" style="stroke: #000000; stroke-width: 0.35"/>
      </g>
     </g>
    </g>
    <g id="ytick_25">
     <g id="line2d_46">
      <g>
       <use xlink:href="#m6bed85970e" x="40.33325" y="49.910719" style="stroke: #000000; stroke-width: 0.35"/>
      </g>
     </g>
    </g>
    <g id="ytick_26">
     <g id="line2d_47">
      <g>
       <use xlink:href="#m6bed85970e" x="40.33325" y="44.311879" style="stroke: #000000; stroke-width: 0.35"/>
      </g>
     </g>
    </g>
    <g id="ytick_27">
     <g id="line2d_48">
      <g>
       <use xlink:href="#m6bed85970e" x="40.33325" y="38.713039" style="stroke: #000000; stroke-width: 0.35"/>
      </g>
     </g>
    </g>
    <g id="ytick_28">
     <g id="line2d_49">
      <g>
       <use xlink:href="#m6bed85970e" x="40.33325" y="27.51536" style="stroke: #000000; stroke-width: 0.35"/>
      </g>
     </g>
    </g>
    <g id="ytick_29">
     <g id="line2d_50">
      <g>
       <use xlink:href="#m6bed85970e" x="40.33325" y="21.91652" style="stroke: #000000; stroke-width: 0.35"/>
      </g>
     </g>
    </g>
    <g id="ytick_30">
     <g id="line2d_51">
      <g>
       <use xlink:href="#m6bed85970e" x="40.33325" y="16.31768" style="stroke: #000000; stroke-width: 0.35"/>
      </g>
     </g>
    </g>
    <g id="ytick_31">
     <g id="line2d_52">
      <g>
       <use xlink:href="#m6bed85970e" x="40.33325" y="10.71884" style="stroke: #000000; stroke-width: 0.35"/>
      </g>
     </g>
    </g>
    <g id="text_14">
     <!-- Heat flux $~\mathrm{[W/m^2]}$ -->
     <g transform="translate(9.19575 124.142598) rotate(-90) scale(0.08 -0.08)">
      <defs>
       <path id="DejaVuSans-65" d="M 3597 1894 
L 3597 1613 
L 953 1613 
Q 991 1019 1311 708 
Q 1631 397 2203 397 
Q 2534 397 2845 478 
Q 3156 559 3463 722 
L 3463 178 
Q 3153 47 2828 -22 
Q 2503 -91 2169 -91 
Q 1331 -91 842 396 
Q 353 884 353 1716 
Q 353 2575 817 3079 
Q 1281 3584 2069 3584 
Q 2775 3584 3186 3129 
Q 3597 2675 3597 1894 
z
M 3022 2063 
Q 3016 2534 2758 2815 
Q 2500 3097 2075 3097 
Q 1594 3097 1305 2825 
Q 1016 2553 972 2059 
L 3022 2063 
z
" transform="scale(0.015625)"/>
       <path id="DejaVuSans-61" d="M 2194 1759 
Q 1497 1759 1228 1600 
Q 959 1441 959 1056 
Q 959 750 1161 570 
Q 1363 391 1709 391 
Q 2188 391 2477 730 
Q 2766 1069 2766 1631 
L 2766 1759 
L 2194 1759 
z
M 3341 1997 
L 3341 0 
L 2766 0 
L 2766 531 
Q 2569 213 2275 61 
Q 1981 -91 1556 -91 
Q 1019 -91 701 211 
Q 384 513 384 1019 
Q 384 1609 779 1909 
Q 1175 2209 1959 2209 
L 2766 2209 
L 2766 2266 
Q 2766 2663 2505 2880 
Q 2244 3097 1772 3097 
Q 1472 3097 1187 3025 
Q 903 2953 641 2809 
L 641 3341 
Q 956 3463 1253 3523 
Q 1550 3584 1831 3584 
Q 2591 3584 2966 3190 
Q 3341 2797 3341 1997 
z
" transform="scale(0.015625)"/>
       <path id="DejaVuSans-74" d="M 1172 4494 
L 1172 3500 
L 2356 3500 
L 2356 3053 
L 1172 3053 
L 1172 1153 
Q 1172 725 1289 603 
Q 1406 481 1766 481 
L 2356 481 
L 2356 0 
L 1766 0 
Q 1100 0 847 248 
Q 594 497 594 1153 
L 594 3053 
L 172 3053 
L 172 3500 
L 594 3500 
L 594 4494 
L 1172 4494 
z
" transform="scale(0.015625)"/>
       <path id="DejaVuSans-66" d="M 2375 4863 
L 2375 4384 
L 1825 4384 
Q 1516 4384 1395 4259 
Q 1275 4134 1275 3809 
L 1275 3500 
L 2222 3500 
L 2222 3053 
L 1275 3053 
L 1275 0 
L 697 0 
L 697 3053 
L 147 3053 
L 147 3500 
L 697 3500 
L 697 3744 
Q 697 4328 969 4595 
Q 1241 4863 1831 4863 
L 2375 4863 
z
" transform="scale(0.015625)"/>
       <path id="DejaVuSans-6c" d="M 603 4863 
L 1178 4863 
L 1178 0 
L 603 0 
L 603 4863 
z
" transform="scale(0.015625)"/>
       <path id="DejaVuSans-78" d="M 3513 3500 
L 2247 1797 
L 3578 0 
L 2900 0 
L 1881 1375 
L 863 0 
L 184 0 
L 1544 1831 
L 300 3500 
L 978 3500 
L 1906 2253 
L 2834 3500 
L 3513 3500 
z
" transform="scale(0.015625)"/>
       <path id="DejaVuSans-57" d="M 213 4666 
L 850 4666 
L 1831 722 
L 2809 4666 
L 3519 4666 
L 4500 722 
L 5478 4666 
L 6119 4666 
L 4947 0 
L 4153 0 
L 3169 4050 
L 2175 0 
L 1381 0 
L 213 4666 
z
" transform="scale(0.015625)"/>
       <path id="DejaVuSans-2f" d="M 1625 4666 
L 2156 4666 
L 531 -594 
L 0 -594 
L 1625 4666 
z
" transform="scale(0.015625)"/>
       <path id="DejaVuSans-6d" d="M 3328 2828 
Q 3544 3216 3844 3400 
Q 4144 3584 4550 3584 
Q 5097 3584 5394 3201 
Q 5691 2819 5691 2113 
L 5691 0 
L 5113 0 
L 5113 2094 
Q 5113 2597 4934 2840 
Q 4756 3084 4391 3084 
Q 3944 3084 3684 2787 
Q 3425 2491 3425 1978 
L 3425 0 
L 2847 0 
L 2847 2094 
Q 2847 2600 2669 2842 
Q 2491 3084 2119 3084 
Q 1678 3084 1418 2786 
Q 1159 2488 1159 1978 
L 1159 0 
L 581 0 
L 581 3500 
L 1159 3500 
L 1159 2956 
Q 1356 3278 1631 3431 
Q 1906 3584 2284 3584 
Q 2666 3584 2933 3390 
Q 3200 3197 3328 2828 
z
" transform="scale(0.015625)"/>
      </defs>
      <use xlink:href="#DejaVuSans-48" transform="translate(0 0.765625)"/>
      <use xlink:href="#DejaVuSans-65" transform="translate(75.195312 0.765625)"/>
      <use xlink:href="#DejaVuSans-61" transform="translate(136.71875 0.765625)"/>
      <use xlink:href="#DejaVuSans-74" transform="translate(197.998047 0.765625)"/>
      <use xlink:href="#DejaVuSans-20" transform="translate(237.207031 0.765625)"/>
      <use xlink:href="#DejaVuSans-66" transform="translate(268.994141 0.765625)"/>
      <use xlink:href="#DejaVuSans-6c" transform="translate(304.199219 0.765625)"/>
      <use xlink:href="#DejaVuSans-75" transform="translate(331.982422 0.765625)"/>
      <use xlink:href="#DejaVuSans-78" transform="translate(395.361328 0.765625)"/>
      <use xlink:href="#DejaVuSans-20" transform="translate(454.541016 0.765625)"/>
      <use xlink:href="#DejaVuSans-5b" transform="translate(518.798503 0.765625)"/>
      <use xlink:href="#DejaVuSans-57" transform="translate(557.812175 0.765625)"/>
      <use xlink:href="#DejaVuSans-2f" transform="translate(656.689128 0.765625)"/>
      <use xlink:href="#DejaVuSans-6d" transform="translate(690.380535 0.765625)"/>
      <use xlink:href="#DejaVuSans-32" transform="translate(788.749675 39.046875) scale(0.7)"/>
      <use xlink:href="#DejaVuSans-5d" transform="translate(836.020183 0.765625)"/>
     </g>
    </g>
   </g>
   <g id="line2d_53">
    <path d="M 40.319737 112.555975 
L 42.833146 109.391678 
L 45.589788 105.554473 
L 48.738306 100.776428 
L 52.616524 94.463024 
L 66.33217 71.750184 
L 69.30502 67.480332 
L 69.940129 66.461228 
L 71.156294 60.692158 
L 72.777849 54.077964 
L 74.575071 47.668971 
L 76.372294 42.061929 
L 78.088439 37.409495 
L 79.709993 33.633908 
L 81.223444 30.653861 
L 82.628791 28.357966 
L 83.939547 26.626044 
L 85.155713 25.37203 
L 86.290801 24.506919 
L 87.371837 23.955367 
L 88.398822 23.6755 
L 89.39878 23.629219 
L 90.412251 23.807285 
L 91.452749 24.222276 
L 92.533785 24.898217 
L 93.682386 25.883937 
L 94.925578 27.2534 
L 96.26336 29.067164 
L 97.722759 31.431918 
L 99.317287 34.453264 
L 101.073971 38.277521 
L 103.006323 43.035763 
L 105.168395 48.9719 
L 107.627753 56.397358 
L 110.560063 65.993071 
L 114.465307 79.598422 
L 123.627088 111.780431 
L 126.65399 121.442723 
L 128.275544 126.242758 
L 128.316083 126.199971 
L 128.978218 125.678272 
L 129.856559 125.281628 
L 131.059212 124.996602 
L 132.937513 124.805949 
L 138.869699 124.322924 
L 141.207439 123.847464 
L 143.355999 123.184244 
L 145.423481 122.312326 
L 147.463936 121.207965 
L 149.517905 119.839458 
L 151.612413 118.172417 
L 153.787998 116.150604 
L 156.071687 113.717721 
L 158.504018 110.794184 
L 161.152557 107.25348 
L 164.111894 102.914119 
L 167.611748 97.369086 
L 172.503437 89.15856 
L 180.259872 76.148489 
L 183.732701 70.783588 
L 186.610959 66.733541 
L 186.692037 66.461228 
L 187.908203 60.692158 
L 189.529757 54.077964 
L 191.32698 47.668971 
L 193.124202 42.061929 
L 194.840347 37.409495 
L 196.461902 33.633908 
L 197.975352 30.653861 
L 199.380699 28.357966 
L 200.691456 26.626044 
L 201.907621 25.37203 
L 203.042709 24.506919 
L 204.123746 23.955367 
L 205.15073 23.6755 
L 206.150689 23.629219 
L 207.16416 23.807285 
L 208.204657 24.222276 
L 209.285693 24.898217 
L 210.434294 25.883937 
L 211.677486 27.2534 
L 213.015268 29.067164 
L 214.474667 31.431918 
L 216.069196 34.453264 
L 217.825879 38.277521 
L 219.758232 43.035763 
L 221.920304 48.9719 
L 224.379661 56.397358 
L 227.311972 65.993071 
L 231.217215 79.598422 
L 240.378997 111.780431 
L 243.405898 121.442723 
L 245.027452 126.242758 
L 245.067991 126.199971 
L 245.730126 125.678272 
L 246.608468 125.281628 
L 247.811121 124.996602 
L 249.689421 124.805949 
L 255.621607 124.322924 
L 257.959348 123.847464 
L 260.107907 123.184244 
L 262.175389 122.312326 
L 264.215845 121.207965 
L 266.269814 119.839458 
L 268.364321 118.172417 
L 270.539907 116.150604 
L 272.823596 113.717721 
L 273.823554 112.555975 
L 273.823554 112.555975 
" clip-path="url(#p11ebcc7044)" style="fill: none; stroke: #000000; stroke-width: 0.75; stroke-linecap: square"/>
   </g>
   <g id="line2d_54">
    <path d="M 40.319737 108.319791 
L 42.752068 106.211371 
L 45.360068 103.649707 
L 48.224814 100.515759 
L 51.508462 96.580881 
L 55.616399 91.28884 
L 68.196958 74.833263 
L 70.277952 72.167591 
L 70.980626 70.314714 
L 77.210097 52.680911 
L 79.10191 48.367428 
L 80.845081 44.926344 
L 82.466635 42.197498 
L 83.980086 40.067738 
L 85.398946 38.440185 
L 86.736728 37.234085 
L 87.993433 36.391448 
L 89.196086 35.847539 
L 90.3582 35.564264 
L 91.493288 35.515345 
L 92.628376 35.688796 
L 93.79049 36.09326 
L 95.006655 36.757726 
L 96.290386 37.720469 
L 97.655194 39.029878 
L 99.128106 40.761603 
L 100.722634 42.992256 
L 102.452292 45.806419 
L 104.357618 49.346773 
L 106.465639 53.750474 
L 108.843919 59.254264 
L 111.600561 66.216967 
L 115.059877 75.595569 
L 127.93772 111.131151 
L 128.680933 112.702335 
L 129.207938 113.201168 
L 129.964663 113.595247 
L 131.194342 113.961107 
L 133.38344 114.353641 
L 136.775191 114.73181 
L 139.788579 114.856707 
L 142.35604 114.74429 
L 144.693781 114.42159 
L 146.923418 113.889133 
L 149.099004 113.139221 
L 151.261076 112.156822 
L 153.450174 110.915533 
L 155.706837 109.376273 
L 158.058091 107.498862 
L 160.557987 105.211993 
L 163.260578 102.43075 
L 166.273966 99.000294 
L 169.81436 94.617507 
L 174.679022 88.207245 
L 182.975975 77.260552 
L 186.502856 73.005635 
L 186.962296 72.314388 
L 187.583892 70.738122 
L 189.394628 65.310031 
L 192.056679 57.60358 
L 194.124161 52.288182 
L 196.002461 48.053784 
L 197.745632 44.657112 
L 199.367186 41.97041 
L 200.880637 39.880444 
L 202.299497 38.290422 
L 203.623766 37.129992 
L 204.880471 36.317558 
L 206.069611 35.80677 
L 207.218212 35.549946 
L 208.3533 35.522332 
L 209.488388 35.716796 
L 210.650502 36.14241 
L 211.866667 36.828545 
L 213.150398 37.813564 
L 214.528719 39.160517 
L 216.001631 40.918937 
L 217.596159 43.177016 
L 219.33933 46.042747 
L 221.258169 49.641193 
L 223.379703 54.10867 
L 225.771495 59.680767 
L 228.568676 66.785064 
L 232.10907 76.424799 
L 244.257214 110.04199 
L 245.419328 112.684728 
L 245.946333 113.191655 
L 246.703059 113.589889 
L 247.932737 113.957974 
L 250.121836 114.351686 
L 253.513587 114.730748 
L 256.526975 114.856711 
L 259.094436 114.745508 
L 261.432177 114.424124 
L 263.661814 113.893064 
L 265.837399 113.144608 
L 267.999472 112.163711 
L 270.18857 110.923959 
L 272.445233 109.386265 
L 273.823554 108.319791 
L 273.823554 108.319791 
" clip-path="url(#p11ebcc7044)" style="fill: none; stroke: #180f0d; stroke-width: 0.75; stroke-linecap: square"/>
   </g>
   <g id="line2d_55">
    <path d="M 40.319737 103.455665 
L 42.765581 102.173695 
L 45.333042 100.573664 
L 48.076172 98.597751 
L 51.08956 96.146573 
L 54.548876 93.035408 
L 58.954098 88.753701 
L 70.899548 76.675569 
L 71.831942 74.962011 
L 73.588626 71.17597 
L 77.291175 63.202733 
L 79.480273 59.047055 
L 81.453164 55.766709 
L 83.277413 53.152503 
L 84.980045 51.088932 
L 86.588086 49.481127 
L 88.101537 48.274819 
L 89.53391 47.409347 
L 90.912231 46.830744 
L 92.250013 46.507097 
L 93.560769 46.415918 
L 94.871526 46.546092 
L 96.209308 46.903913 
L 97.587629 47.505731 
L 99.033515 48.385088 
L 100.560479 49.580799 
L 102.182033 51.138918 
L 103.938717 53.144974 
L 105.844043 55.670354 
L 107.925038 58.808973 
L 110.249266 62.731176 
L 112.897804 67.653761 
L 116.086861 74.07469 
L 120.627213 83.771547 
L 127.829617 99.13749 
L 129.113347 101.506801 
L 129.870072 102.373166 
L 130.77544 103.068802 
L 131.951067 103.682064 
L 133.640186 104.294205 
L 136.315751 105.005678 
L 139.693989 105.678385 
L 142.680351 106.054084 
L 145.342403 106.16835 
L 147.828786 106.053577 
L 150.207066 105.722242 
L 152.544806 105.172365 
L 154.882547 104.393524 
L 157.260827 103.365232 
L 159.720184 102.056648 
L 162.301158 100.42758 
L 165.071313 98.410224 
L 168.111728 95.913984 
L 171.625095 92.730425 
L 176.165447 88.294115 
L 187.719021 76.565528 
L 188.691954 74.742916 
L 190.610793 70.573944 
L 194.002544 63.284419 
L 196.191643 59.119227 
L 198.164534 55.829445 
L 199.988782 53.206105 
L 201.691414 51.133772 
L 203.299456 49.517546 
L 204.812906 48.303229 
L 206.258792 47.423185 
L 207.637113 46.839694 
L 208.974896 46.511323 
L 210.285652 46.415554 
L 211.596408 46.541192 
L 212.934191 46.894461 
L 214.312512 47.491691 
L 215.758398 48.366367 
L 217.285361 49.55731 
L 218.906916 51.110591 
L 220.650086 53.0951 
L 222.5419 55.593958 
L 224.622894 58.722769 
L 226.933609 62.611529 
L 229.568635 67.496871 
L 232.730666 73.85013 
L 237.18994 83.361105 
L 244.64909 99.275343 
L 245.865256 101.506801 
L 246.621981 102.373166 
L 247.527349 103.068802 
L 248.702976 103.682064 
L 250.392095 104.294205 
L 253.067659 105.005678 
L 256.445897 105.678385 
L 259.43226 106.054084 
L 262.094311 106.16835 
L 264.580695 106.053577 
L 266.958974 105.722242 
L 269.296715 105.172365 
L 271.634456 104.393524 
L 273.823554 103.455665 
L 273.823554 103.455665 
" clip-path="url(#p11ebcc7044)" style="fill: none; stroke: #7a1514; stroke-width: 0.75; stroke-linecap: square"/>
   </g>
   <g id="line2d_56">
    <path d="M 40.319737 98.188838 
L 42.94125 97.616016 
L 45.616814 96.801986 
L 48.400483 95.720376 
L 51.359819 94.328265 
L 54.589415 92.557977 
L 58.278451 90.274143 
L 62.980958 87.084277 
L 71.021165 81.325667 
L 71.967071 80.273202 
L 73.291341 78.42871 
L 76.385807 73.605046 
L 79.412708 69.102248 
L 81.831527 65.896878 
L 84.020625 63.355428 
L 86.047568 61.332538 
L 87.952894 59.736308 
L 89.76363 58.503865 
L 91.479775 57.598436 
L 93.141868 56.969275 
L 94.749909 56.594684 
L 96.344438 56.451054 
L 97.925453 56.531617 
L 99.519981 56.83528 
L 101.155049 57.374476 
L 102.844168 58.167553 
L 104.614364 59.247237 
L 106.492665 60.658274 
L 108.506095 62.456076 
L 110.68168 64.704217 
L 113.073473 67.5034 
L 115.776063 71.019266 
L 118.978633 75.567106 
L 123.31629 82.148108 
L 129.613326 91.698101 
L 130.599772 92.675029 
L 131.748373 93.493694 
L 133.288849 94.302849 
L 135.680642 95.282663 
L 139.329139 96.526639 
L 142.896558 97.520315 
L 146.01805 98.16434 
L 148.882796 98.530955 
L 151.5989 98.655302 
L 154.233926 98.553207 
L 156.828412 98.230507 
L 159.436412 97.68206 
L 162.111977 96.889909 
L 164.882132 95.835427 
L 167.827956 94.47185 
L 171.030525 92.738557 
L 174.665509 90.510366 
L 179.232887 87.433299 
L 187.66497 81.426346 
L 188.597363 80.424112 
L 189.854068 78.709292 
L 192.367477 74.810968 
L 195.786254 69.638127 
L 198.245611 66.320455 
L 200.461736 63.694215 
L 202.515704 61.595915 
L 204.434544 59.944255 
L 206.258792 58.661438 
L 207.98845 57.711034 
L 209.650543 57.046015 
L 211.272097 56.634066 
L 212.866626 56.457783 
L 214.447641 56.506202 
L 216.04217 56.777894 
L 217.677237 57.284993 
L 219.366356 58.045877 
L 221.136553 59.093139 
L 223.00134 60.460677 
L 224.987744 62.198387 
L 227.136304 64.379423 
L 229.50107 67.105392 
L 232.163122 70.525341 
L 235.284614 74.913728 
L 239.379038 81.082921 
L 246.473338 91.82157 
L 247.473297 92.775092 
L 248.662437 93.590793 
L 250.270478 94.407233 
L 252.810913 95.422458 
L 256.540488 96.66777 
L 260.053856 97.616965 
L 263.134809 98.22365 
L 265.972529 98.558657 
L 268.675119 98.654799 
L 271.296632 98.526263 
L 273.823554 98.188838 
L 273.823554 98.188838 
" clip-path="url(#p11ebcc7044)" style="fill: none; stroke: #ac2a1a; stroke-width: 0.75; stroke-linecap: square"/>
   </g>
   <g id="line2d_57">
    <path d="M 40.319737 92.773084 
L 43.319612 92.947216 
L 46.292462 92.897367 
L 49.292337 92.624383 
L 52.373291 92.119058 
L 55.589373 91.363721 
L 59.035176 90.321992 
L 62.859342 88.927519 
L 67.426719 87.014318 
L 71.480605 85.10683 
L 72.73731 84.213889 
L 74.493994 82.661471 
L 78.601931 78.635632 
L 82.872024 74.600671 
L 86.034055 71.913084 
L 88.790697 69.854196 
L 91.290593 68.25738 
L 93.614821 67.030404 
L 95.817432 66.115093 
L 97.925453 65.477071 
L 99.965909 65.089318 
L 101.965826 64.933428 
L 103.95223 65.000223 
L 105.952147 65.289974 
L 107.992603 65.812324 
L 110.08711 66.580215 
L 112.276208 67.623229 
L 114.586923 68.97507 
L 117.059794 70.683918 
L 119.775897 72.837874 
L 122.843337 75.562951 
L 126.559399 79.176788 
L 130.68085 83.170887 
L 132.221326 84.207005 
L 134.505015 85.449913 
L 138.383232 87.282351 
L 142.815481 89.143631 
L 146.666672 90.52653 
L 150.125988 91.536774 
L 153.355584 92.251224 
L 156.436537 92.70757 
L 159.436412 92.929115 
L 162.409262 92.926613 
L 165.395624 92.702072 
L 168.449551 92.248769 
L 171.625095 91.551021 
L 175.003333 90.57837 
L 178.719395 89.272342 
L 183.070566 87.497767 
L 187.948742 85.272282 
L 189.17842 84.456943 
L 190.759436 83.114015 
L 193.718772 80.250055 
L 199.150979 75.027946 
L 202.394088 72.228639 
L 205.191269 70.100053 
L 207.731704 68.440791 
L 210.082958 67.166177 
L 212.299082 66.213947 
L 214.420615 65.54201 
L 216.474584 65.123482 
L 218.488014 64.939966 
L 220.474418 64.9812 
L 222.474335 65.245423 
L 224.501278 65.738212 
L 226.595785 66.479275 
L 228.771371 67.488606 
L 231.068573 68.804277 
L 233.52793 70.474946 
L 236.217008 72.578054 
L 239.243909 75.237254 
L 242.86538 78.729294 
L 247.554375 83.262626 
L 249.13539 84.303599 
L 251.527183 85.58548 
L 255.554042 87.468711 
L 259.945752 89.290145 
L 263.756404 90.63551 
L 267.188694 91.615534 
L 270.404777 92.305088 
L 273.48573 92.73947 
L 273.823554 92.773084 
L 273.823554 92.773084 
" clip-path="url(#p11ebcc7044)" style="fill: none; stroke: #c46d1c; stroke-width: 0.75; stroke-linecap: square"/>
   </g>
   <g id="line2d_58">
    <path d="M 40.319737 87.355796 
L 44.049312 88.539085 
L 47.56268 89.423275 
L 50.940918 90.046496 
L 54.238078 90.430464 
L 57.508212 90.588372 
L 60.805373 90.524367 
L 64.170098 90.235637 
L 67.683466 89.708535 
L 71.41304 88.92105 
L 74.169683 88.136675 
L 76.642553 87.196064 
L 79.304605 85.939073 
L 82.372045 84.23554 
L 86.317827 81.772112 
L 98.114634 74.241013 
L 101.398282 72.505133 
L 104.290054 71.222292 
L 106.952105 70.281231 
L 109.452001 69.63014 
L 111.857307 69.231662 
L 114.195048 69.068157 
L 116.505763 69.128402 
L 118.82999 69.412702 
L 121.181244 69.925937 
L 123.600062 70.683821 
L 126.126985 71.712422 
L 128.802549 73.046054 
L 132.42402 75.137224 
L 139.761554 79.352028 
L 145.301864 82.27114 
L 150.139501 84.575573 
L 154.43662 86.381319 
L 158.341863 87.785655 
L 161.99036 88.864376 
L 165.449676 89.658124 
L 168.800888 90.200574 
L 172.084536 90.508075 
L 175.35467 90.591737 
L 178.665343 90.453652 
L 182.070607 90.087722 
L 185.65154 89.476312 
L 189.273011 88.63566 
L 191.813446 87.824296 
L 194.326855 86.782736 
L 197.110523 85.380802 
L 200.407684 83.460363 
L 205.029113 80.485888 
L 213.177424 75.228199 
L 216.758356 73.208151 
L 219.79877 71.742585 
L 222.5419 70.661915 
L 225.109361 69.886296 
L 227.555205 69.378004 
L 229.919972 69.112392 
L 232.2442 69.07466 
L 234.554914 69.259494 
L 236.892655 69.671153 
L 239.270935 70.316902 
L 241.743805 71.221423 
L 244.338292 72.410174 
L 247.203038 73.97588 
L 258.905255 80.644431 
L 264.14828 83.300396 
L 268.742684 85.384232 
L 272.864134 87.013587 
L 273.823554 87.355796 
L 273.823554 87.355796 
" clip-path="url(#p11ebcc7044)" style="fill: none; stroke: #ffe100; stroke-width: 0.75; stroke-linecap: square"/>
   </g>
   <g id="patch_3">
    <path d="M 40.33325 173.085197 
L 40.33325 5.12 
" style="fill: none; stroke: #000000; stroke-width: 0.8; stroke-linejoin: miter; stroke-linecap: square"/>
   </g>
   <g id="patch_4">
    <path d="M 273.837067 173.085197 
L 273.837067 5.12 
" style="fill: none; stroke: #000000; stroke-width: 0.8; stroke-linejoin: miter; stroke-linecap: square"/>
   </g>
   <g id="patch_5">
    <path d="M 40.33325 173.085197 
L 273.837067 173.085197 
" style="fill: none; stroke: #000000; stroke-width: 0.8; stroke-linejoin: miter; stroke-linecap: square"/>
   </g>
   <g id="patch_6">
    <path d="M 40.33325 5.12 
L 273.837067 5.12 
" style="fill: none; stroke: #000000; stroke-width: 0.8; stroke-linejoin: miter; stroke-linecap: square"/>
   </g>
   <g id="legend_1">
    <g id="line2d_59">
     <path d="M 83.837692 154.930509 
L 95.837692 154.930509 
L 107.837692 154.930509 
" style="fill: none; stroke: #000000; stroke-width: 0.75; stroke-linecap: square"/>
    </g>
    <g id="text_15">
     <!-- x = 0 cm -->
     <g transform="translate(112.637692 157.030509) scale(0.06 -0.06)">
      <defs>
       <path id="DejaVuSans-3d" d="M 678 2906 
L 4684 2906 
L 4684 2381 
L 678 2381 
L 678 2906 
z
M 678 1631 
L 4684 1631 
L 4684 1100 
L 678 1100 
L 678 1631 
z
" transform="scale(0.015625)"/>
       <path id="DejaVuSans-63" d="M 3122 3366 
L 3122 2828 
Q 2878 2963 2633 3030 
Q 2388 3097 2138 3097 
Q 1578 3097 1268 2742 
Q 959 2388 959 1747 
Q 959 1106 1268 751 
Q 1578 397 2138 397 
Q 2388 397 2633 464 
Q 2878 531 3122 666 
L 3122 134 
Q 2881 22 2623 -34 
Q 2366 -91 2075 -91 
Q 1284 -91 818 406 
Q 353 903 353 1747 
Q 353 2603 823 3093 
Q 1294 3584 2113 3584 
Q 2378 3584 2631 3529 
Q 2884 3475 3122 3366 
z
" transform="scale(0.015625)"/>
      </defs>
      <use xlink:href="#DejaVuSans-78"/>
      <use xlink:href="#DejaVuSans-20" x="59.179688"/>
      <use xlink:href="#DejaVuSans-3d" x="90.966797"/>
      <use xlink:href="#DejaVuSans-20" x="174.755859"/>
      <use xlink:href="#DejaVuSans-30" x="206.542969"/>
      <use xlink:href="#DejaVuSans-20" x="270.166016"/>
      <use xlink:href="#DejaVuSans-63" x="301.953125"/>
      <use xlink:href="#DejaVuSans-6d" x="356.933594"/>
     </g>
    </g>
    <g id="line2d_60">
     <path d="M 83.837692 164.337384 
L 95.837692 164.337384 
L 107.837692 164.337384 
" style="fill: none; stroke: #180f0d; stroke-width: 0.75; stroke-linecap: square"/>
    </g>
    <g id="text_16">
     <!-- x = 2 cm -->
     <g transform="translate(112.637692 166.437384) scale(0.06 -0.06)">
      <use xlink:href="#DejaVuSans-78"/>
      <use xlink:href="#DejaVuSans-20" x="59.179688"/>
      <use xlink:href="#DejaVuSans-3d" x="90.966797"/>
      <use xlink:href="#DejaVuSans-20" x="174.755859"/>
      <use xlink:href="#DejaVuSans-32" x="206.542969"/>
      <use xlink:href="#DejaVuSans-20" x="270.166016"/>
      <use xlink:href="#DejaVuSans-63" x="301.953125"/>
      <use xlink:href="#DejaVuSans-6d" x="356.933594"/>
     </g>
    </g>
    <g id="line2d_61">
     <path d="M 146.198317 154.930509 
L 158.198317 154.930509 
L 170.198317 154.930509 
" style="fill: none; stroke: #7a1514; stroke-width: 0.75; stroke-linecap: square"/>
    </g>
    <g id="text_17">
     <!-- x = 4 cm -->
     <g transform="translate(174.998317 157.030509) scale(0.06 -0.06)">
      <use xlink:href="#DejaVuSans-78"/>
      <use xlink:href="#DejaVuSans-20" x="59.179688"/>
      <use xlink:href="#DejaVuSans-3d" x="90.966797"/>
      <use xlink:href="#DejaVuSans-20" x="174.755859"/>
      <use xlink:href="#DejaVuSans-34" x="206.542969"/>
      <use xlink:href="#DejaVuSans-20" x="270.166016"/>
      <use xlink:href="#DejaVuSans-63" x="301.953125"/>
      <use xlink:href="#DejaVuSans-6d" x="356.933594"/>
     </g>
    </g>
    <g id="line2d_62">
     <path d="M 146.198317 164.337384 
L 158.198317 164.337384 
L 170.198317 164.337384 
" style="fill: none; stroke: #ac2a1a; stroke-width: 0.75; stroke-linecap: square"/>
    </g>
    <g id="text_18">
     <!-- x = 6 cm -->
     <g transform="translate(174.998317 166.437384) scale(0.06 -0.06)">
      <use xlink:href="#DejaVuSans-78"/>
      <use xlink:href="#DejaVuSans-20" x="59.179688"/>
      <use xlink:href="#DejaVuSans-3d" x="90.966797"/>
      <use xlink:href="#DejaVuSans-20" x="174.755859"/>
      <use xlink:href="#DejaVuSans-36" x="206.542969"/>
      <use xlink:href="#DejaVuSans-20" x="270.166016"/>
      <use xlink:href="#DejaVuSans-63" x="301.953125"/>
      <use xlink:href="#DejaVuSans-6d" x="356.933594"/>
     </g>
    </g>
    <g id="line2d_63">
     <path d="M 208.558942 154.930509 
L 220.558942 154.930509 
L 232.558942 154.930509 
" style="fill: none; stroke: #c46d1c; stroke-width: 0.75; stroke-linecap: square"/>
    </g>
    <g id="text_19">
     <!-- x = 8 cm -->
     <g transform="translate(237.358942 157.030509) scale(0.06 -0.06)">
      <use xlink:href="#DejaVuSans-78"/>
      <use xlink:href="#DejaVuSans-20" x="59.179688"/>
      <use xlink:href="#DejaVuSans-3d" x="90.966797"/>
      <use xlink:href="#DejaVuSans-20" x="174.755859"/>
      <use xlink:href="#DejaVuSans-38" x="206.542969"/>
      <use xlink:href="#DejaVuSans-20" x="270.166016"/>
      <use xlink:href="#DejaVuSans-63" x="301.953125"/>
      <use xlink:href="#DejaVuSans-6d" x="356.933594"/>
     </g>
    </g>
    <g id="line2d_64">
     <path d="M 208.558942 164.337384 
L 220.558942 164.337384 
L 232.558942 164.337384 
" style="fill: none; stroke: #ffe100; stroke-width: 0.75; stroke-linecap: square"/>
    </g>
    <g id="text_20">
     <!-- x = 10 cm -->
     <g transform="translate(237.358942 166.437384) scale(0.06 -0.06)">
      <use xlink:href="#DejaVuSans-78"/>
      <use xlink:href="#DejaVuSans-20" x="59.179688"/>
      <use xlink:href="#DejaVuSans-3d" x="90.966797"/>
      <use xlink:href="#DejaVuSans-20" x="174.755859"/>
      <use xlink:href="#DejaVuSans-31" x="206.542969"/>
      <use xlink:href="#DejaVuSans-30" x="270.166016"/>
      <use xlink:href="#DejaVuSans-20" x="333.789062"/>
      <use xlink:href="#DejaVuSans-63" x="365.576172"/>
      <use xlink:href="#DejaVuSans-6d" x="420.556641"/>
     </g>
    </g>
   </g>
  </g>
 </g>
 <defs>
  <clipPath id="p11ebcc7044">
   <rect x="40.33325" y="5.12" width="233.503817" height="167.965197"/>
  </clipPath>
 </defs>
</svg>
