<?xml version="1.0" encoding="utf-8" standalone="no"?>
<!DOCTYPE svg PUBLIC "-//W3C//DTD SVG 1.1//EN"
  "http://www.w3.org/Graphics/SVG/1.1/DTD/svg11.dtd">
<svg xmlns:xlink="http://www.w3.org/1999/xlink" width="283.464567pt" height="198.425197pt" viewBox="0 0 283.464567 198.425197" xmlns="http://www.w3.org/2000/svg" version="1.1">
 <metadata>
  <rdf:RDF xmlns:dc="http://purl.org/dc/elements/1.1/" xmlns:cc="http://creativecommons.org/ns#" xmlns:rdf="http://www.w3.org/1999/02/22-rdf-syntax-ns#">
   <cc:Work>
    <dc:type rdf:resource="http://purl.org/dc/dcmitype/StillImage"/>
    <dc:date>2023-08-18T13:54:12.601189</dc:date>
    <dc:format>image/svg+xml</dc:format>
    <dc:creator>
     <cc:Agent>
      <dc:title>Matplotlib v3.7.1, https://matplotlib.org/</dc:title>
     </cc:Agent>
    </dc:creator>
   </cc:Work>
  </rdf:RDF>
 </metadata>
 <defs>
  <style type="text/css">*{stroke-linejoin: round; stroke-linecap: butt}</style>
 </defs>
 <g id="figure_1">
  <g id="patch_1">
   <path d="M 0 198.425197 
L 283.464567 198.425197 
L 283.464567 0 
L 0 0 
z
" style="fill: #ffffff"/>
  </g>
  <g id="axes_1">
   <g id="patch_2">
    <path d="M 34.295 173.085197 
L 273.837067 173.085197 
L 273.837067 5.12 
L 34.295 5.12 
z
" style="fill: #ffffff"/>
   </g>
   <g id="matplotlib.axis_1">
    <g id="xtick_1">
     <g id="line2d_1">
      <path d="M 34.295 173.085197 
L 34.295 5.12 
" clip-path="url(#pe01bf6cd0f)" style="fill: none; stroke-dasharray: 0.925,0.4; stroke-dashoffset: 0; stroke: #404040; stroke-opacity: 0.5; stroke-width: 0.25"/>
     </g>
     <g id="line2d_2">
      <defs>
       <path id="mc4ee13d99a" d="M 0 0 
L 0 -3.5 
" style="stroke: #000000; stroke-width: 0.5"/>
      </defs>
      <g>
       <use xlink:href="#mc4ee13d99a" x="34.295" y="173.085197" style="stroke: #000000; stroke-width: 0.5"/>
      </g>
     </g>
     <g id="text_1">
      <!-- 24 -->
      <g transform="translate(29.205 182.663947) scale(0.08 -0.08)">
       <defs>
        <path id="DejaVuSans-32" d="M 1228 531 
L 3431 531 
L 3431 0 
L 469 0 
L 469 531 
Q 828 903 1448 1529 
Q 2069 2156 2228 2338 
Q 2531 2678 2651 2914 
Q 2772 3150 2772 3378 
Q 2772 3750 2511 3984 
Q 2250 4219 1831 4219 
Q 1534 4219 1204 4116 
Q 875 4013 500 3803 
L 500 4441 
Q 881 4594 1212 4672 
Q 1544 4750 1819 4750 
Q 2544 4750 2975 4387 
Q 3406 4025 3406 3419 
Q 3406 3131 3298 2873 
Q 3191 2616 2906 2266 
Q 2828 2175 2409 1742 
Q 1991 1309 1228 531 
z
" transform="scale(0.015625)"/>
        <path id="DejaVuSans-34" d="M 2419 4116 
L 825 1625 
L 2419 1625 
L 2419 4116 
z
M 2253 4666 
L 3047 4666 
L 3047 1625 
L 3713 1625 
L 3713 1100 
L 3047 1100 
L 3047 0 
L 2419 0 
L 2419 1100 
L 313 1100 
L 313 1709 
L 2253 4666 
z
" transform="scale(0.015625)"/>
       </defs>
       <use xlink:href="#DejaVuSans-32"/>
       <use xlink:href="#DejaVuSans-34" x="63.623047"/>
      </g>
     </g>
    </g>
    <g id="xtick_2">
     <g id="line2d_3">
      <path d="M 68.515295 173.085197 
L 68.515295 5.12 
" clip-path="url(#pe01bf6cd0f)" style="fill: none; stroke-dasharray: 0.925,0.4; stroke-dashoffset: 0; stroke: #404040; stroke-opacity: 0.5; stroke-width: 0.25"/>
     </g>
     <g id="line2d_4">
      <g>
       <use xlink:href="#mc4ee13d99a" x="68.515295" y="173.085197" style="stroke: #000000; stroke-width: 0.5"/>
      </g>
     </g>
     <g id="text_2">
      <!-- 48 -->
      <g transform="translate(63.425295 182.663947) scale(0.08 -0.08)">
       <defs>
        <path id="DejaVuSans-38" d="M 2034 2216 
Q 1584 2216 1326 1975 
Q 1069 1734 1069 1313 
Q 1069 891 1326 650 
Q 1584 409 2034 409 
Q 2484 409 2743 651 
Q 3003 894 3003 1313 
Q 3003 1734 2745 1975 
Q 2488 2216 2034 2216 
z
M 1403 2484 
Q 997 2584 770 2862 
Q 544 3141 544 3541 
Q 544 4100 942 4425 
Q 1341 4750 2034 4750 
Q 2731 4750 3128 4425 
Q 3525 4100 3525 3541 
Q 3525 3141 3298 2862 
Q 3072 2584 2669 2484 
Q 3125 2378 3379 2068 
Q 3634 1759 3634 1313 
Q 3634 634 3220 271 
Q 2806 -91 2034 -91 
Q 1263 -91 848 271 
Q 434 634 434 1313 
Q 434 1759 690 2068 
Q 947 2378 1403 2484 
z
M 1172 3481 
Q 1172 3119 1398 2916 
Q 1625 2713 2034 2713 
Q 2441 2713 2670 2916 
Q 2900 3119 2900 3481 
Q 2900 3844 2670 4047 
Q 2441 4250 2034 4250 
Q 1625 4250 1398 4047 
Q 1172 3844 1172 3481 
z
" transform="scale(0.015625)"/>
       </defs>
       <use xlink:href="#DejaVuSans-34"/>
       <use xlink:href="#DejaVuSans-38" x="63.623047"/>
      </g>
     </g>
    </g>
    <g id="xtick_3">
     <g id="line2d_5">
      <path d="M 102.735591 173.085197 
L 102.735591 5.12 
" clip-path="url(#pe01bf6cd0f)" style="fill: none; stroke-dasharray: 0.925,0.4; stroke-dashoffset: 0; stroke: #404040; stroke-opacity: 0.5; stroke-width: 0.25"/>
     </g>
     <g id="line2d_6">
      <g>
       <use xlink:href="#mc4ee13d99a" x="102.735591" y="173.085197" style="stroke: #000000; stroke-width: 0.5"/>
      </g>
     </g>
     <g id="text_3">
      <!-- 72 -->
      <g transform="translate(97.645591 182.663947) scale(0.08 -0.08)">
       <defs>
        <path id="DejaVuSans-37" d="M 525 4666 
L 3525 4666 
L 3525 4397 
L 1831 0 
L 1172 0 
L 2766 4134 
L 525 4134 
L 525 4666 
z
" transform="scale(0.015625)"/>
       </defs>
       <use xlink:href="#DejaVuSans-37"/>
       <use xlink:href="#DejaVuSans-32" x="63.623047"/>
      </g>
     </g>
    </g>
    <g id="xtick_4">
     <g id="line2d_7">
      <path d="M 136.955886 173.085197 
L 136.955886 5.12 
" clip-path="url(#pe01bf6cd0f)" style="fill: none; stroke-dasharray: 0.925,0.4; stroke-dashoffset: 0; stroke: #404040; stroke-opacity: 0.5; stroke-width: 0.25"/>
     </g>
     <g id="line2d_8">
      <g>
       <use xlink:href="#mc4ee13d99a" x="136.955886" y="173.085197" style="stroke: #000000; stroke-width: 0.5"/>
      </g>
     </g>
     <g id="text_4">
      <!-- 96 -->
      <g transform="translate(131.865886 182.663947) scale(0.08 -0.08)">
       <defs>
        <path id="DejaVuSans-39" d="M 703 97 
L 703 672 
Q 941 559 1184 500 
Q 1428 441 1663 441 
Q 2288 441 2617 861 
Q 2947 1281 2994 2138 
Q 2813 1869 2534 1725 
Q 2256 1581 1919 1581 
Q 1219 1581 811 2004 
Q 403 2428 403 3163 
Q 403 3881 828 4315 
Q 1253 4750 1959 4750 
Q 2769 4750 3195 4129 
Q 3622 3509 3622 2328 
Q 3622 1225 3098 567 
Q 2575 -91 1691 -91 
Q 1453 -91 1209 -44 
Q 966 3 703 97 
z
M 1959 2075 
Q 2384 2075 2632 2365 
Q 2881 2656 2881 3163 
Q 2881 3666 2632 3958 
Q 2384 4250 1959 4250 
Q 1534 4250 1286 3958 
Q 1038 3666 1038 3163 
Q 1038 2656 1286 2365 
Q 1534 2075 1959 2075 
z
" transform="scale(0.015625)"/>
        <path id="DejaVuSans-36" d="M 2113 2584 
Q 1688 2584 1439 2293 
Q 1191 2003 1191 1497 
Q 1191 994 1439 701 
Q 1688 409 2113 409 
Q 2538 409 2786 701 
Q 3034 994 3034 1497 
Q 3034 2003 2786 2293 
Q 2538 2584 2113 2584 
z
M 3366 4563 
L 3366 3988 
Q 3128 4100 2886 4159 
Q 2644 4219 2406 4219 
Q 1781 4219 1451 3797 
Q 1122 3375 1075 2522 
Q 1259 2794 1537 2939 
Q 1816 3084 2150 3084 
Q 2853 3084 3261 2657 
Q 3669 2231 3669 1497 
Q 3669 778 3244 343 
Q 2819 -91 2113 -91 
Q 1303 -91 875 529 
Q 447 1150 447 2328 
Q 447 3434 972 4092 
Q 1497 4750 2381 4750 
Q 2619 4750 2861 4703 
Q 3103 4656 3366 4563 
z
" transform="scale(0.015625)"/>
       </defs>
       <use xlink:href="#DejaVuSans-39"/>
       <use xlink:href="#DejaVuSans-36" x="63.623047"/>
      </g>
     </g>
    </g>
    <g id="xtick_5">
     <g id="line2d_9">
      <path d="M 171.176181 173.085197 
L 171.176181 5.12 
" clip-path="url(#pe01bf6cd0f)" style="fill: none; stroke-dasharray: 0.925,0.4; stroke-dashoffset: 0; stroke: #404040; stroke-opacity: 0.5; stroke-width: 0.25"/>
     </g>
     <g id="line2d_10">
      <g>
       <use xlink:href="#mc4ee13d99a" x="171.176181" y="173.085197" style="stroke: #000000; stroke-width: 0.5"/>
      </g>
     </g>
     <g id="text_5">
      <!-- 120 -->
      <g transform="translate(163.541181 182.663947) scale(0.08 -0.08)">
       <defs>
        <path id="DejaVuSans-31" d="M 794 531 
L 1825 531 
L 1825 4091 
L 703 3866 
L 703 4441 
L 1819 4666 
L 2450 4666 
L 2450 531 
L 3481 531 
L 3481 0 
L 794 0 
L 794 531 
z
" transform="scale(0.015625)"/>
        <path id="DejaVuSans-30" d="M 2034 4250 
Q 1547 4250 1301 3770 
Q 1056 3291 1056 2328 
Q 1056 1369 1301 889 
Q 1547 409 2034 409 
Q 2525 409 2770 889 
Q 3016 1369 3016 2328 
Q 3016 3291 2770 3770 
Q 2525 4250 2034 4250 
z
M 2034 4750 
Q 2819 4750 3233 4129 
Q 3647 3509 3647 2328 
Q 3647 1150 3233 529 
Q 2819 -91 2034 -91 
Q 1250 -91 836 529 
Q 422 1150 422 2328 
Q 422 3509 836 4129 
Q 1250 4750 2034 4750 
z
" transform="scale(0.015625)"/>
       </defs>
       <use xlink:href="#DejaVuSans-31"/>
       <use xlink:href="#DejaVuSans-32" x="63.623047"/>
       <use xlink:href="#DejaVuSans-30" x="127.246094"/>
      </g>
     </g>
    </g>
    <g id="xtick_6">
     <g id="line2d_11">
      <path d="M 205.396476 173.085197 
L 205.396476 5.12 
" clip-path="url(#pe01bf6cd0f)" style="fill: none; stroke-dasharray: 0.925,0.4; stroke-dashoffset: 0; stroke: #404040; stroke-opacity: 0.5; stroke-width: 0.25"/>
     </g>
     <g id="line2d_12">
      <g>
       <use xlink:href="#mc4ee13d99a" x="205.396476" y="173.085197" style="stroke: #000000; stroke-width: 0.5"/>
      </g>
     </g>
     <g id="text_6">
      <!-- 144 -->
      <g transform="translate(197.761476 182.663947) scale(0.08 -0.08)">
       <use xlink:href="#DejaVuSans-31"/>
       <use xlink:href="#DejaVuSans-34" x="63.623047"/>
       <use xlink:href="#DejaVuSans-34" x="127.246094"/>
      </g>
     </g>
    </g>
    <g id="xtick_7">
     <g id="line2d_13">
      <path d="M 239.616772 173.085197 
L 239.616772 5.12 
" clip-path="url(#pe01bf6cd0f)" style="fill: none; stroke-dasharray: 0.925,0.4; stroke-dashoffset: 0; stroke: #404040; stroke-opacity: 0.5; stroke-width: 0.25"/>
     </g>
     <g id="line2d_14">
      <g>
       <use xlink:href="#mc4ee13d99a" x="239.616772" y="173.085197" style="stroke: #000000; stroke-width: 0.5"/>
      </g>
     </g>
     <g id="text_7">
      <!-- 168 -->
      <g transform="translate(231.981772 182.663947) scale(0.08 -0.08)">
       <use xlink:href="#DejaVuSans-31"/>
       <use xlink:href="#DejaVuSans-36" x="63.623047"/>
       <use xlink:href="#DejaVuSans-38" x="127.246094"/>
      </g>
     </g>
    </g>
    <g id="xtick_8">
     <g id="line2d_15">
      <path d="M 273.837067 173.085197 
L 273.837067 5.12 
" clip-path="url(#pe01bf6cd0f)" style="fill: none; stroke-dasharray: 0.925,0.4; stroke-dashoffset: 0; stroke: #404040; stroke-opacity: 0.5; stroke-width: 0.25"/>
     </g>
     <g id="line2d_16">
      <g>
       <use xlink:href="#mc4ee13d99a" x="273.837067" y="173.085197" style="stroke: #000000; stroke-width: 0.5"/>
      </g>
     </g>
     <g id="text_8">
      <!-- 192 -->
      <g transform="translate(266.202067 182.663947) scale(0.08 -0.08)">
       <use xlink:href="#DejaVuSans-31"/>
       <use xlink:href="#DejaVuSans-39" x="63.623047"/>
       <use xlink:href="#DejaVuSans-32" x="127.246094"/>
      </g>
     </g>
    </g>
    <g id="xtick_9">
     <g id="line2d_17">
      <defs>
       <path id="me467720b38" d="M 0 0 
L 0 -2 
" style="stroke: #000000; stroke-width: 0.35"/>
      </defs>
      <g>
       <use xlink:href="#me467720b38" x="51.405148" y="173.085197" style="stroke: #000000; stroke-width: 0.35"/>
      </g>
     </g>
    </g>
    <g id="xtick_10">
     <g id="line2d_18">
      <g>
       <use xlink:href="#me467720b38" x="85.625443" y="173.085197" style="stroke: #000000; stroke-width: 0.35"/>
      </g>
     </g>
    </g>
    <g id="xtick_11">
     <g id="line2d_19">
      <g>
       <use xlink:href="#me467720b38" x="119.845738" y="173.085197" style="stroke: #000000; stroke-width: 0.35"/>
      </g>
     </g>
    </g>
    <g id="xtick_12">
     <g id="line2d_20">
      <g>
       <use xlink:href="#me467720b38" x="154.066033" y="173.085197" style="stroke: #000000; stroke-width: 0.35"/>
      </g>
     </g>
    </g>
    <g id="xtick_13">
     <g id="line2d_21">
      <g>
       <use xlink:href="#me467720b38" x="188.286329" y="173.085197" style="stroke: #000000; stroke-width: 0.35"/>
      </g>
     </g>
    </g>
    <g id="xtick_14">
     <g id="line2d_22">
      <g>
       <use xlink:href="#me467720b38" x="222.506624" y="173.085197" style="stroke: #000000; stroke-width: 0.35"/>
      </g>
     </g>
    </g>
    <g id="xtick_15">
     <g id="line2d_23">
      <g>
       <use xlink:href="#me467720b38" x="256.726919" y="173.085197" style="stroke: #000000; stroke-width: 0.35"/>
      </g>
     </g>
    </g>
    <g id="text_9">
     <!-- Hour [h] -->
     <g transform="translate(137.503533 194.406447) scale(0.08 -0.08)">
      <defs>
       <path id="DejaVuSans-48" d="M 628 4666 
L 1259 4666 
L 1259 2753 
L 3553 2753 
L 3553 4666 
L 4184 4666 
L 4184 0 
L 3553 0 
L 3553 2222 
L 1259 2222 
L 1259 0 
L 628 0 
L 628 4666 
z
" transform="scale(0.015625)"/>
       <path id="DejaVuSans-6f" d="M 1959 3097 
Q 1497 3097 1228 2736 
Q 959 2375 959 1747 
Q 959 1119 1226 758 
Q 1494 397 1959 397 
Q 2419 397 2687 759 
Q 2956 1122 2956 1747 
Q 2956 2369 2687 2733 
Q 2419 3097 1959 3097 
z
M 1959 3584 
Q 2709 3584 3137 3096 
Q 3566 2609 3566 1747 
Q 3566 888 3137 398 
Q 2709 -91 1959 -91 
Q 1206 -91 779 398 
Q 353 888 353 1747 
Q 353 2609 779 3096 
Q 1206 3584 1959 3584 
z
" transform="scale(0.015625)"/>
       <path id="DejaVuSans-75" d="M 544 1381 
L 544 3500 
L 1119 3500 
L 1119 1403 
Q 1119 906 1312 657 
Q 1506 409 1894 409 
Q 2359 409 2629 706 
Q 2900 1003 2900 1516 
L 2900 3500 
L 3475 3500 
L 3475 0 
L 2900 0 
L 2900 538 
Q 2691 219 2414 64 
Q 2138 -91 1772 -91 
Q 1169 -91 856 284 
Q 544 659 544 1381 
z
M 1991 3584 
L 1991 3584 
z
" transform="scale(0.015625)"/>
       <path id="DejaVuSans-72" d="M 2631 2963 
Q 2534 3019 2420 3045 
Q 2306 3072 2169 3072 
Q 1681 3072 1420 2755 
Q 1159 2438 1159 1844 
L 1159 0 
L 581 0 
L 581 3500 
L 1159 3500 
L 1159 2956 
Q 1341 3275 1631 3429 
Q 1922 3584 2338 3584 
Q 2397 3584 2469 3576 
Q 2541 3569 2628 3553 
L 2631 2963 
z
" transform="scale(0.015625)"/>
       <path id="DejaVuSans-20" transform="scale(0.015625)"/>
       <path id="DejaVuSans-5b" d="M 550 4863 
L 1875 4863 
L 1875 4416 
L 1125 4416 
L 1125 -397 
L 1875 -397 
L 1875 -844 
L 550 -844 
L 550 4863 
z
" transform="scale(0.015625)"/>
       <path id="DejaVuSans-68" d="M 3513 2113 
L 3513 0 
L 2938 0 
L 2938 2094 
Q 2938 2591 2744 2837 
Q 2550 3084 2163 3084 
Q 1697 3084 1428 2787 
Q 1159 2491 1159 1978 
L 1159 0 
L 581 0 
L 581 4863 
L 1159 4863 
L 1159 2956 
Q 1366 3272 1645 3428 
Q 1925 3584 2291 3584 
Q 2894 3584 3203 3211 
Q 3513 2838 3513 2113 
z
" transform="scale(0.015625)"/>
       <path id="DejaVuSans-5d" d="M 1947 4863 
L 1947 -844 
L 622 -844 
L 622 -397 
L 1369 -397 
L 1369 4416 
L 622 4416 
L 622 4863 
L 1947 4863 
z
" transform="scale(0.015625)"/>
      </defs>
      <use xlink:href="#DejaVuSans-48"/>
      <use xlink:href="#DejaVuSans-6f" x="75.195312"/>
      <use xlink:href="#DejaVuSans-75" x="136.376953"/>
      <use xlink:href="#DejaVuSans-72" x="199.755859"/>
      <use xlink:href="#DejaVuSans-20" x="240.869141"/>
      <use xlink:href="#DejaVuSans-5b" x="272.65625"/>
      <use xlink:href="#DejaVuSans-68" x="311.669922"/>
      <use xlink:href="#DejaVuSans-5d" x="375.048828"/>
     </g>
    </g>
   </g>
   <g id="matplotlib.axis_2">
    <g id="ytick_1">
     <g id="line2d_24">
      <path d="M 34.295 173.085197 
L 273.837067 173.085197 
" clip-path="url(#pe01bf6cd0f)" style="fill: none; stroke-dasharray: 0.925,0.4; stroke-dashoffset: 0; stroke: #404040; stroke-opacity: 0.5; stroke-width: 0.25"/>
     </g>
     <g id="line2d_25">
      <defs>
       <path id="m7ccd04e6e0" d="M 0 0 
L 3.5 0 
" style="stroke: #000000; stroke-width: 0.5"/>
      </defs>
      <g>
       <use xlink:href="#m7ccd04e6e0" x="34.295" y="173.085197" style="stroke: #000000; stroke-width: 0.5"/>
      </g>
     </g>
     <g id="text_10">
      <!-- −10 -->
      <g transform="translate(13.91125 176.124572) scale(0.08 -0.08)">
       <defs>
        <path id="DejaVuSans-2212" d="M 678 2272 
L 4684 2272 
L 4684 1741 
L 678 1741 
L 678 2272 
z
" transform="scale(0.015625)"/>
       </defs>
       <use xlink:href="#DejaVuSans-2212"/>
       <use xlink:href="#DejaVuSans-31" x="83.789062"/>
       <use xlink:href="#DejaVuSans-30" x="147.412109"/>
      </g>
     </g>
    </g>
    <g id="ytick_2">
     <g id="line2d_26">
      <path d="M 34.295 139.492157 
L 273.837067 139.492157 
" clip-path="url(#pe01bf6cd0f)" style="fill: none; stroke-dasharray: 0.925,0.4; stroke-dashoffset: 0; stroke: #404040; stroke-opacity: 0.5; stroke-width: 0.25"/>
     </g>
     <g id="line2d_27">
      <g>
       <use xlink:href="#m7ccd04e6e0" x="34.295" y="139.492157" style="stroke: #000000; stroke-width: 0.5"/>
      </g>
     </g>
     <g id="text_11">
      <!-- 0 -->
      <g transform="translate(25.705 142.531532) scale(0.08 -0.08)">
       <use xlink:href="#DejaVuSans-30"/>
      </g>
     </g>
    </g>
    <g id="ytick_3">
     <g id="line2d_28">
      <path d="M 34.295 105.899118 
L 273.837067 105.899118 
" clip-path="url(#pe01bf6cd0f)" style="fill: none; stroke-dasharray: 0.925,0.4; stroke-dashoffset: 0; stroke: #404040; stroke-opacity: 0.5; stroke-width: 0.25"/>
     </g>
     <g id="line2d_29">
      <g>
       <use xlink:href="#m7ccd04e6e0" x="34.295" y="105.899118" style="stroke: #000000; stroke-width: 0.5"/>
      </g>
     </g>
     <g id="text_12">
      <!-- 10 -->
      <g transform="translate(20.615 108.938493) scale(0.08 -0.08)">
       <use xlink:href="#DejaVuSans-31"/>
       <use xlink:href="#DejaVuSans-30" x="63.623047"/>
      </g>
     </g>
    </g>
    <g id="ytick_4">
     <g id="line2d_30">
      <path d="M 34.295 72.306079 
L 273.837067 72.306079 
" clip-path="url(#pe01bf6cd0f)" style="fill: none; stroke-dasharray: 0.925,0.4; stroke-dashoffset: 0; stroke: #404040; stroke-opacity: 0.5; stroke-width: 0.25"/>
     </g>
     <g id="line2d_31">
      <g>
       <use xlink:href="#m7ccd04e6e0" x="34.295" y="72.306079" style="stroke: #000000; stroke-width: 0.5"/>
      </g>
     </g>
     <g id="text_13">
      <!-- 20 -->
      <g transform="translate(20.615 75.345454) scale(0.08 -0.08)">
       <use xlink:href="#DejaVuSans-32"/>
       <use xlink:href="#DejaVuSans-30" x="63.623047"/>
      </g>
     </g>
    </g>
    <g id="ytick_5">
     <g id="line2d_32">
      <path d="M 34.295 38.713039 
L 273.837067 38.713039 
" clip-path="url(#pe01bf6cd0f)" style="fill: none; stroke-dasharray: 0.925,0.4; stroke-dashoffset: 0; stroke: #404040; stroke-opacity: 0.5; stroke-width: 0.25"/>
     </g>
     <g id="line2d_33">
      <g>
       <use xlink:href="#m7ccd04e6e0" x="34.295" y="38.713039" style="stroke: #000000; stroke-width: 0.5"/>
      </g>
     </g>
     <g id="text_14">
      <!-- 30 -->
      <g transform="translate(20.615 41.752414) scale(0.08 -0.08)">
       <defs>
        <path id="DejaVuSans-33" d="M 2597 2516 
Q 3050 2419 3304 2112 
Q 3559 1806 3559 1356 
Q 3559 666 3084 287 
Q 2609 -91 1734 -91 
Q 1441 -91 1130 -33 
Q 819 25 488 141 
L 488 750 
Q 750 597 1062 519 
Q 1375 441 1716 441 
Q 2309 441 2620 675 
Q 2931 909 2931 1356 
Q 2931 1769 2642 2001 
Q 2353 2234 1838 2234 
L 1294 2234 
L 1294 2753 
L 1863 2753 
Q 2328 2753 2575 2939 
Q 2822 3125 2822 3475 
Q 2822 3834 2567 4026 
Q 2313 4219 1838 4219 
Q 1578 4219 1281 4162 
Q 984 4106 628 3988 
L 628 4550 
Q 988 4650 1302 4700 
Q 1616 4750 1894 4750 
Q 2613 4750 3031 4423 
Q 3450 4097 3450 3541 
Q 3450 3153 3228 2886 
Q 3006 2619 2597 2516 
z
" transform="scale(0.015625)"/>
       </defs>
       <use xlink:href="#DejaVuSans-33"/>
       <use xlink:href="#DejaVuSans-30" x="63.623047"/>
      </g>
     </g>
    </g>
    <g id="ytick_6">
     <g id="line2d_34">
      <path d="M 34.295 5.12 
L 273.837067 5.12 
" clip-path="url(#pe01bf6cd0f)" style="fill: none; stroke-dasharray: 0.925,0.4; stroke-dashoffset: 0; stroke: #404040; stroke-opacity: 0.5; stroke-width: 0.25"/>
     </g>
     <g id="line2d_35">
      <g>
       <use xlink:href="#m7ccd04e6e0" x="34.295" y="5.12" style="stroke: #000000; stroke-width: 0.5"/>
      </g>
     </g>
     <g id="text_15">
      <!-- 40 -->
      <g transform="translate(20.615 8.159375) scale(0.08 -0.08)">
       <use xlink:href="#DejaVuSans-34"/>
       <use xlink:href="#DejaVuSans-30" x="63.623047"/>
      </g>
     </g>
    </g>
    <g id="ytick_7">
     <g id="line2d_36">
      <defs>
       <path id="m50fe348d5b" d="M 0 0 
L 2 0 
" style="stroke: #000000; stroke-width: 0.35"/>
      </defs>
      <g>
       <use xlink:href="#m50fe348d5b" x="34.295" y="166.366589" style="stroke: #000000; stroke-width: 0.35"/>
      </g>
     </g>
    </g>
    <g id="ytick_8">
     <g id="line2d_37">
      <g>
       <use xlink:href="#m50fe348d5b" x="34.295" y="159.647981" style="stroke: #000000; stroke-width: 0.35"/>
      </g>
     </g>
    </g>
    <g id="ytick_9">
     <g id="line2d_38">
      <g>
       <use xlink:href="#m50fe348d5b" x="34.295" y="152.929373" style="stroke: #000000; stroke-width: 0.35"/>
      </g>
     </g>
    </g>
    <g id="ytick_10">
     <g id="line2d_39">
      <g>
       <use xlink:href="#m50fe348d5b" x="34.295" y="146.210765" style="stroke: #000000; stroke-width: 0.35"/>
      </g>
     </g>
    </g>
    <g id="ytick_11">
     <g id="line2d_40">
      <g>
       <use xlink:href="#m50fe348d5b" x="34.295" y="132.77355" style="stroke: #000000; stroke-width: 0.35"/>
      </g>
     </g>
    </g>
    <g id="ytick_12">
     <g id="line2d_41">
      <g>
       <use xlink:href="#m50fe348d5b" x="34.295" y="126.054942" style="stroke: #000000; stroke-width: 0.35"/>
      </g>
     </g>
    </g>
    <g id="ytick_13">
     <g id="line2d_42">
      <g>
       <use xlink:href="#m50fe348d5b" x="34.295" y="119.336334" style="stroke: #000000; stroke-width: 0.35"/>
      </g>
     </g>
    </g>
    <g id="ytick_14">
     <g id="line2d_43">
      <g>
       <use xlink:href="#m50fe348d5b" x="34.295" y="112.617726" style="stroke: #000000; stroke-width: 0.35"/>
      </g>
     </g>
    </g>
    <g id="ytick_15">
     <g id="line2d_44">
      <g>
       <use xlink:href="#m50fe348d5b" x="34.295" y="99.18051" style="stroke: #000000; stroke-width: 0.35"/>
      </g>
     </g>
    </g>
    <g id="ytick_16">
     <g id="line2d_45">
      <g>
       <use xlink:href="#m50fe348d5b" x="34.295" y="92.461902" style="stroke: #000000; stroke-width: 0.35"/>
      </g>
     </g>
    </g>
    <g id="ytick_17">
     <g id="line2d_46">
      <g>
       <use xlink:href="#m50fe348d5b" x="34.295" y="85.743294" style="stroke: #000000; stroke-width: 0.35"/>
      </g>
     </g>
    </g>
    <g id="ytick_18">
     <g id="line2d_47">
      <g>
       <use xlink:href="#m50fe348d5b" x="34.295" y="79.024687" style="stroke: #000000; stroke-width: 0.35"/>
      </g>
     </g>
    </g>
    <g id="ytick_19">
     <g id="line2d_48">
      <g>
       <use xlink:href="#m50fe348d5b" x="34.295" y="65.587471" style="stroke: #000000; stroke-width: 0.35"/>
      </g>
     </g>
    </g>
    <g id="ytick_20">
     <g id="line2d_49">
      <g>
       <use xlink:href="#m50fe348d5b" x="34.295" y="58.868863" style="stroke: #000000; stroke-width: 0.35"/>
      </g>
     </g>
    </g>
    <g id="ytick_21">
     <g id="line2d_50">
      <g>
       <use xlink:href="#m50fe348d5b" x="34.295" y="52.150255" style="stroke: #000000; stroke-width: 0.35"/>
      </g>
     </g>
    </g>
    <g id="ytick_22">
     <g id="line2d_51">
      <g>
       <use xlink:href="#m50fe348d5b" x="34.295" y="45.431647" style="stroke: #000000; stroke-width: 0.35"/>
      </g>
     </g>
    </g>
    <g id="ytick_23">
     <g id="line2d_52">
      <g>
       <use xlink:href="#m50fe348d5b" x="34.295" y="31.994431" style="stroke: #000000; stroke-width: 0.35"/>
      </g>
     </g>
    </g>
    <g id="ytick_24">
     <g id="line2d_53">
      <g>
       <use xlink:href="#m50fe348d5b" x="34.295" y="25.275824" style="stroke: #000000; stroke-width: 0.35"/>
      </g>
     </g>
    </g>
    <g id="ytick_25">
     <g id="line2d_54">
      <g>
       <use xlink:href="#m50fe348d5b" x="34.295" y="18.557216" style="stroke: #000000; stroke-width: 0.35"/>
      </g>
     </g>
    </g>
    <g id="ytick_26">
     <g id="line2d_55">
      <g>
       <use xlink:href="#m50fe348d5b" x="34.295" y="11.838608" style="stroke: #000000; stroke-width: 0.35"/>
      </g>
     </g>
    </g>
    <g id="text_16">
     <!-- Temperature [°C] -->
     <g transform="translate(8.2475 123.623848) rotate(-90) scale(0.08 -0.08)">
      <defs>
       <path id="DejaVuSans-54" d="M -19 4666 
L 3928 4666 
L 3928 4134 
L 2272 4134 
L 2272 0 
L 1638 0 
L 1638 4134 
L -19 4134 
L -19 4666 
z
" transform="scale(0.015625)"/>
       <path id="DejaVuSans-65" d="M 3597 1894 
L 3597 1613 
L 953 1613 
Q 991 1019 1311 708 
Q 1631 397 2203 397 
Q 2534 397 2845 478 
Q 3156 559 3463 722 
L 3463 178 
Q 3153 47 2828 -22 
Q 2503 -91 2169 -91 
Q 1331 -91 842 396 
Q 353 884 353 1716 
Q 353 2575 817 3079 
Q 1281 3584 2069 3584 
Q 2775 3584 3186 3129 
Q 3597 2675 3597 1894 
z
M 3022 2063 
Q 3016 2534 2758 2815 
Q 2500 3097 2075 3097 
Q 1594 3097 1305 2825 
Q 1016 2553 972 2059 
L 3022 2063 
z
" transform="scale(0.015625)"/>
       <path id="DejaVuSans-6d" d="M 3328 2828 
Q 3544 3216 3844 3400 
Q 4144 3584 4550 3584 
Q 5097 3584 5394 3201 
Q 5691 2819 5691 2113 
L 5691 0 
L 5113 0 
L 5113 2094 
Q 5113 2597 4934 2840 
Q 4756 3084 4391 3084 
Q 3944 3084 3684 2787 
Q 3425 2491 3425 1978 
L 3425 0 
L 2847 0 
L 2847 2094 
Q 2847 2600 2669 2842 
Q 2491 3084 2119 3084 
Q 1678 3084 1418 2786 
Q 1159 2488 1159 1978 
L 1159 0 
L 581 0 
L 581 3500 
L 1159 3500 
L 1159 2956 
Q 1356 3278 1631 3431 
Q 1906 3584 2284 3584 
Q 2666 3584 2933 3390 
Q 3200 3197 3328 2828 
z
" transform="scale(0.015625)"/>
       <path id="DejaVuSans-70" d="M 1159 525 
L 1159 -1331 
L 581 -1331 
L 581 3500 
L 1159 3500 
L 1159 2969 
Q 1341 3281 1617 3432 
Q 1894 3584 2278 3584 
Q 2916 3584 3314 3078 
Q 3713 2572 3713 1747 
Q 3713 922 3314 415 
Q 2916 -91 2278 -91 
Q 1894 -91 1617 61 
Q 1341 213 1159 525 
z
M 3116 1747 
Q 3116 2381 2855 2742 
Q 2594 3103 2138 3103 
Q 1681 3103 1420 2742 
Q 1159 2381 1159 1747 
Q 1159 1113 1420 752 
Q 1681 391 2138 391 
Q 2594 391 2855 752 
Q 3116 1113 3116 1747 
z
" transform="scale(0.015625)"/>
       <path id="DejaVuSans-61" d="M 2194 1759 
Q 1497 1759 1228 1600 
Q 959 1441 959 1056 
Q 959 750 1161 570 
Q 1363 391 1709 391 
Q 2188 391 2477 730 
Q 2766 1069 2766 1631 
L 2766 1759 
L 2194 1759 
z
M 3341 1997 
L 3341 0 
L 2766 0 
L 2766 531 
Q 2569 213 2275 61 
Q 1981 -91 1556 -91 
Q 1019 -91 701 211 
Q 384 513 384 1019 
Q 384 1609 779 1909 
Q 1175 2209 1959 2209 
L 2766 2209 
L 2766 2266 
Q 2766 2663 2505 2880 
Q 2244 3097 1772 3097 
Q 1472 3097 1187 3025 
Q 903 2953 641 2809 
L 641 3341 
Q 956 3463 1253 3523 
Q 1550 3584 1831 3584 
Q 2591 3584 2966 3190 
Q 3341 2797 3341 1997 
z
" transform="scale(0.015625)"/>
       <path id="DejaVuSans-74" d="M 1172 4494 
L 1172 3500 
L 2356 3500 
L 2356 3053 
L 1172 3053 
L 1172 1153 
Q 1172 725 1289 603 
Q 1406 481 1766 481 
L 2356 481 
L 2356 0 
L 1766 0 
Q 1100 0 847 248 
Q 594 497 594 1153 
L 594 3053 
L 172 3053 
L 172 3500 
L 594 3500 
L 594 4494 
L 1172 4494 
z
" transform="scale(0.015625)"/>
       <path id="DejaVuSans-b0" d="M 1600 4347 
Q 1350 4347 1178 4173 
Q 1006 4000 1006 3750 
Q 1006 3503 1178 3333 
Q 1350 3163 1600 3163 
Q 1850 3163 2022 3333 
Q 2194 3503 2194 3750 
Q 2194 3997 2020 4172 
Q 1847 4347 1600 4347 
z
M 1600 4750 
Q 1800 4750 1984 4673 
Q 2169 4597 2303 4453 
Q 2447 4313 2519 4134 
Q 2591 3956 2591 3750 
Q 2591 3338 2302 3052 
Q 2013 2766 1594 2766 
Q 1172 2766 890 3047 
Q 609 3328 609 3750 
Q 609 4169 896 4459 
Q 1184 4750 1600 4750 
z
" transform="scale(0.015625)"/>
       <path id="DejaVuSans-43" d="M 4122 4306 
L 4122 3641 
Q 3803 3938 3442 4084 
Q 3081 4231 2675 4231 
Q 1875 4231 1450 3742 
Q 1025 3253 1025 2328 
Q 1025 1406 1450 917 
Q 1875 428 2675 428 
Q 3081 428 3442 575 
Q 3803 722 4122 1019 
L 4122 359 
Q 3791 134 3420 21 
Q 3050 -91 2638 -91 
Q 1578 -91 968 557 
Q 359 1206 359 2328 
Q 359 3453 968 4101 
Q 1578 4750 2638 4750 
Q 3056 4750 3426 4639 
Q 3797 4528 4122 4306 
z
" transform="scale(0.015625)"/>
      </defs>
      <use xlink:href="#DejaVuSans-54"/>
      <use xlink:href="#DejaVuSans-65" x="44.083984"/>
      <use xlink:href="#DejaVuSans-6d" x="105.607422"/>
      <use xlink:href="#DejaVuSans-70" x="203.019531"/>
      <use xlink:href="#DejaVuSans-65" x="266.496094"/>
      <use xlink:href="#DejaVuSans-72" x="328.019531"/>
      <use xlink:href="#DejaVuSans-61" x="369.132812"/>
      <use xlink:href="#DejaVuSans-74" x="430.412109"/>
      <use xlink:href="#DejaVuSans-75" x="469.621094"/>
      <use xlink:href="#DejaVuSans-72" x="533"/>
      <use xlink:href="#DejaVuSans-65" x="571.863281"/>
      <use xlink:href="#DejaVuSans-20" x="633.386719"/>
      <use xlink:href="#DejaVuSans-5b" x="665.173828"/>
      <use xlink:href="#DejaVuSans-b0" x="704.1875"/>
      <use xlink:href="#DejaVuSans-43" x="754.1875"/>
      <use xlink:href="#DejaVuSans-5d" x="824.011719"/>
     </g>
    </g>
   </g>
   <g id="line2d_56">
    <path d="M 34.057359 150.24193 
L 39.998383 150.297918 
L 41.661869 150.57786 
L 42.612433 150.57786 
L 45.464124 141.50774 
L 46.88997 154.609025 
L 51.167507 130.422037 
L 55.445044 125.383081 
L 57.583812 128.742385 
L 59.009658 130.925932 
L 60.435503 133.44541 
L 62.09899 136.804714 
L 63.524836 139.604134 
L 64.237758 140.723902 
L 68.277654 144.531113 
L 70.416423 147.890417 
L 71.842268 150.073965 
L 72.555191 151.249721 
L 74.456319 152.481466 
L 75.882164 153.265304 
L 76.832728 153.937164 
L 79.684419 149.234139 
L 81.110265 150.57786 
L 85.387802 122.695638 
L 87.52657 119.840229 
L 88.952416 117.992612 
L 89.665339 116.984821 
L 94.418158 129.078315 
L 96.319285 133.333434 
L 97.982772 136.97268 
L 98.220413 137.476575 
L 100.12154 138.932273 
L 101.547386 140.164018 
L 102.973231 141.283786 
L 106.775487 144.867044 
L 111.053023 141.84367 
L 112.71651 141.899659 
L 113.904715 142.179601 
L 115.33056 139.156227 
L 119.608097 124.37529 
L 121.746866 121.015986 
L 123.172711 118.832438 
L 123.885634 117.656682 
L 126.262044 121.9118 
L 127.450248 124.039359 
L 129.113735 127.398663 
L 130.53958 130.64599 
L 132.203067 134.285236 
L 132.440708 134.789132 
L 134.341835 136.020877 
L 135.767681 136.804714 
L 136.718245 137.476575 
L 138.857013 140.331983 
L 140.282859 142.179601 
L 140.995782 143.187392 
L 142.896909 143.523322 
L 144.085114 143.579311 
L 145.273319 143.859253 
L 147.174446 145.762858 
L 148.12501 146.882626 
L 150.026137 138.932273 
L 153.828393 121.015986 
L 155.72952 121.799823 
L 157.155366 122.247731 
L 158.105929 122.695638 
L 162.621107 129.97413 
L 166.661003 133.781341 
L 169.037413 139.04425 
L 170.700899 142.683496 
L 170.93854 143.187392 
L 172.839668 143.971229 
L 174.265513 144.419137 
L 175.691359 145.202974 
L 179.493614 147.890417 
L 181.394741 146.658673 
L 182.820587 145.874835 
L 183.771151 145.202974 
L 188.048688 128.070524 
L 190.187456 125.215116 
L 191.613302 123.367499 
L 192.326225 122.359707 
L 196.841403 130.701979 
L 198.74253 132.77355 
L 199.930735 134.005294 
L 201.594221 135.796923 
L 202.782426 137.028668 
L 204.445913 138.820297 
L 205.634117 139.828088 
L 209.674013 142.571519 
L 213.713909 143.523322 
L 215.852678 140.331983 
L 217.278523 138.148436 
L 217.991446 137.140645 
L 222.506624 125.663023 
L 226.54652 119.000403 
L 229.16057 125.439069 
L 230.586416 128.854362 
L 231.299339 130.31006 
L 233.200466 133.669364 
L 234.388671 135.796923 
L 235.101594 137.140645 
L 239.379131 140.164018 
L 241.517899 143.019427 
L 242.943745 144.867044 
L 243.894309 146.0428 
L 245.557795 147.330533 
L 246.983641 148.562278 
L 247.934205 149.234139 
L 249.835332 148.226348 
L 251.261178 147.330533 
L 252.211741 146.882626 
L 256.726919 126.11093 
L 260.766815 121.351916 
L 263.143225 126.166919 
L 264.56907 129.078315 
L 265.994916 131.877735 
L 267.420762 134.789132 
L 268.846607 137.588552 
L 269.321889 138.484366 
L 274.074708 141.84367 
L 274.074708 141.84367 
" clip-path="url(#pe01bf6cd0f)" style="fill: none; stroke-dasharray: 2.775,1.2; stroke-dashoffset: 0; stroke: #000000; stroke-width: 0.75"/>
   </g>
   <g id="line2d_57">
    <path d="M 34.057359 115.658894 
L 34.532641 115.854625 
L 35.007923 115.813744 
L 35.720846 115.49639 
L 36.433768 114.90073 
L 37.621973 113.559183 
L 38.572537 112.42643 
L 39.047819 112.248995 
L 39.760742 112.273525 
L 40.473664 112.597706 
L 42.137151 113.809324 
L 43.087715 114.381613 
L 44.038279 114.541458 
L 44.751201 114.404921 
L 44.988842 114.318646 
L 47.127611 94.786035 
L 50.929866 55.75007 
L 51.405148 52.241991 
L 52.11807 49.051694 
L 52.830993 46.982275 
L 53.306275 46.231845 
L 53.543916 46.244222 
L 53.781557 46.511344 
L 54.256839 47.539045 
L 54.732121 48.998876 
L 55.207403 51.411088 
L 56.870889 62.122509 
L 59.247299 80.740789 
L 59.960221 83.748175 
L 61.148426 87.783444 
L 62.574272 91.848654 
L 64.000117 95.329185 
L 65.188322 97.680726 
L 66.614168 100.030554 
L 68.277654 102.327285 
L 72.079909 107.1662 
L 73.030473 108.137849 
L 73.981037 108.620296 
L 75.644523 109.187715 
L 76.595087 109.266428 
L 77.070369 109.209964 
L 77.783292 108.889282 
L 79.209138 107.985542 
L 80.159701 95.10912 
L 81.585547 77.53383 
L 83.961956 47.557821 
L 85.150161 35.560206 
L 86.100725 28.665197 
L 86.813648 25.043395 
L 87.52657 22.615209 
L 87.764211 22.32608 
L 88.001852 22.346463 
L 88.239493 22.594699 
L 88.714775 23.611267 
L 89.190057 25.4199 
L 89.90298 30.093192 
L 90.615903 36.571822 
L 93.467594 70.180439 
L 94.180517 75.274863 
L 95.368721 81.960694 
L 96.794567 88.695593 
L 98.220413 94.541231 
L 98.933336 96.648228 
L 99.883899 98.720974 
L 101.072104 100.738628 
L 102.022668 101.965538 
L 102.973231 102.901149 
L 103.923795 103.562147 
L 104.636718 103.820617 
L 105.587282 103.906263 
L 108.676614 103.899916 
L 110.815382 103.813345 
L 111.290664 103.819006 
L 112.003587 104.102653 
L 113.429433 104.954925 
L 113.904715 103.425072 
L 114.855278 99.581558 
L 115.805842 93.111748 
L 117.231688 80.784361 
L 118.182252 71.208993 
L 119.370456 61.205826 
L 119.845738 58.252387 
L 120.32102 56.163955 
L 120.796302 54.916645 
L 121.271584 54.322002 
L 121.746866 54.2613 
L 122.222148 54.763412 
L 122.93507 56.199673 
L 123.172711 56.792744 
L 123.410352 57.008584 
L 123.885634 58.033304 
L 124.598557 59.760047 
L 125.073839 62.073096 
L 125.786762 66.925191 
L 127.92553 82.610986 
L 129.351376 88.1247 
L 131.252503 94.364621 
L 132.678349 98.38527 
L 133.153631 99.031618 
L 133.628913 99.406662 
L 134.104195 99.588061 
L 134.817117 99.55835 
L 135.53004 99.248401 
L 136.242963 98.708516 
L 136.955886 98.10155 
L 137.431168 98.141025 
L 138.144091 98.537441 
L 139.807577 99.770345 
L 140.995782 101.032798 
L 142.896909 103.441078 
L 145.748601 107.342839 
L 147.412087 108.918601 
L 147.649728 109.129885 
L 148.12501 105.416873 
L 149.075574 94.16467 
L 150.73906 74.690093 
L 151.927265 64.089623 
L 153.11547 55.348171 
L 153.828393 51.666282 
L 154.303674 50.404251 
L 154.541315 50.082571 
L 154.778956 50.063371 
L 155.72952 53.251949 
L 156.204802 55.416789 
L 157.155366 61.405265 
L 158.581211 72.093627 
L 159.531775 79.322474 
L 160.71998 86.808701 
L 161.908184 92.435581 
L 162.621107 94.680976 
L 163.571671 96.862056 
L 164.997517 99.422309 
L 165.94808 100.796626 
L 167.136285 102.427021 
L 168.32449 104.879708 
L 171.413822 111.906753 
L 172.126745 112.630222 
L 172.839668 113.057563 
L 173.790231 113.273421 
L 175.929 113.680883 
L 177.830127 114.647456 
L 179.731255 115.580429 
L 180.206537 115.42699 
L 180.91946 114.934981 
L 181.870023 113.929003 
L 182.582946 105.892948 
L 184.246433 85.929773 
L 185.434637 74.670704 
L 186.860483 62.979528 
L 187.573406 58.298278 
L 188.999252 53.488384 
L 189.474533 53.051329 
L 189.712174 53.049782 
L 191.13802 56.627595 
L 191.375661 57.443334 
L 193.514429 69.651122 
L 195.653198 83.5706 
L 196.366121 86.97108 
L 197.079043 89.348681 
L 198.029607 91.610559 
L 199.217812 93.842962 
L 200.168376 95.274687 
L 201.35658 96.937184 
L 203.020067 100.35122 
L 205.871758 106.037063 
L 207.059963 107.595541 
L 208.72345 109.407793 
L 210.862218 111.630569 
L 213.713909 114.863089 
L 214.189191 115.064957 
L 214.902114 115.029237 
L 215.852678 114.704989 
L 216.090319 114.59506 
L 217.753805 94.95553 
L 219.179651 76.919704 
L 221.318419 50.964215 
L 222.031342 44.603102 
L 222.506624 41.611812 
L 223.219547 39.091429 
L 224.170111 36.522263 
L 224.645392 35.376409 
L 225.833597 31.719489 
L 226.071238 31.585485 
L 226.308879 31.79267 
L 226.54652 32.243825 
L 227.021802 33.909405 
L 227.259443 35.040083 
L 227.734725 39.586244 
L 228.685288 52.544023 
L 230.348775 74.739188 
L 231.061698 80.530157 
L 231.774621 84.398302 
L 232.725184 88.235225 
L 233.913389 91.912681 
L 235.101594 94.889776 
L 236.527439 97.940753 
L 237.953285 100.468 
L 241.75554 106.697351 
L 243.894309 110.332063 
L 244.607231 110.895659 
L 245.795436 111.361669 
L 246.746 111.564798 
L 247.696564 111.446339 
L 248.409486 111.179691 
L 249.36005 110.611691 
L 250.310614 109.707504 
L 250.785896 102.732228 
L 251.498819 96.282575 
L 253.637587 81.05407 
L 255.538715 62.52685 
L 256.489278 52.259577 
L 257.202201 46.204299 
L 257.677483 43.44428 
L 258.152765 42.001164 
L 258.628047 41.482929 
L 258.865688 41.629038 
L 259.34097 42.598603 
L 260.053892 45.05566 
L 260.766815 48.764945 
L 261.479738 52.790878 
L 262.192661 58.650001 
L 264.56907 80.430344 
L 265.281993 83.999281 
L 266.470198 88.580225 
L 267.896043 93.087987 
L 269.321889 96.927322 
L 270.272453 98.965353 
L 271.460658 101.049166 
L 272.886503 103.109698 
L 273.837067 104.229607 
L 274.074708 104.42418 
L 274.074708 104.42418 
" clip-path="url(#pe01bf6cd0f)" style="fill: none; stroke: #180f0d; stroke-width: 0.75; stroke-linecap: square"/>
   </g>
   <g id="line2d_58">
    <path d="M 34.057359 112.554175 
L 34.532641 112.983219 
L 35.245564 113.239076 
L 35.958487 113.198157 
L 36.671409 112.904851 
L 37.621973 112.228335 
L 39.28546 110.922842 
L 39.998383 110.806502 
L 40.711305 110.929132 
L 41.661869 111.352462 
L 43.800638 112.341936 
L 44.751201 112.431258 
L 45.226483 112.366545 
L 45.701765 109.820164 
L 47.602893 96.447101 
L 49.741661 76.670336 
L 51.405148 62.335551 
L 52.11807 57.835937 
L 52.830993 54.552757 
L 53.543916 52.252819 
L 54.019198 51.563464 
L 54.256839 51.486856 
L 54.49448 51.540862 
L 54.969762 51.992906 
L 55.445044 53.173875 
L 56.633248 57.710241 
L 57.346171 61.694402 
L 59.960221 77.725239 
L 61.148426 82.333168 
L 62.574272 86.916705 
L 64.000117 90.829215 
L 65.188322 93.584955 
L 66.614168 96.323112 
L 68.040013 98.625617 
L 70.654064 102.271857 
L 73.030473 105.173868 
L 73.981037 105.937428 
L 75.406883 106.711984 
L 76.357446 107.058566 
L 77.30801 107.205177 
L 78.020933 107.091282 
L 79.446778 106.530598 
L 79.92206 102.953541 
L 81.823188 84.225409 
L 85.625443 44.25301 
L 86.576007 37.221908 
L 87.52657 32.071774 
L 88.001852 30.299713 
L 88.477134 29.444888 
L 88.714775 29.29121 
L 88.952416 29.293776 
L 89.190057 29.438778 
L 89.427698 29.834888 
L 89.90298 31.262645 
L 90.378262 33.471859 
L 90.853544 36.411082 
L 91.804107 44.829449 
L 93.705235 63.034607 
L 94.655799 69.818674 
L 95.844003 76.677288 
L 97.269849 83.734231 
L 98.695695 89.809462 
L 99.646258 92.825809 
L 100.834463 95.724868 
L 102.022668 97.973956 
L 103.210872 99.668123 
L 104.161436 100.672245 
L 105.112 101.331364 
L 106.062564 101.700235 
L 107.250768 101.949467 
L 109.627178 102.265231 
L 112.241228 102.506597 
L 113.667074 103.168892 
L 114.142356 102.387525 
L 115.092919 99.754758 
L 115.805842 96.440897 
L 116.756406 90.563649 
L 117.70697 83.303878 
L 119.370456 69.902463 
L 120.32102 63.866702 
L 121.033943 60.864095 
L 121.509225 59.578722 
L 121.984507 58.775475 
L 122.459789 58.459786 
L 122.93507 58.550674 
L 124.123275 59.439051 
L 124.836198 60.414208 
L 125.31148 61.806703 
L 126.024403 65.096416 
L 127.450248 73.582104 
L 128.163171 77.797275 
L 129.351376 82.661887 
L 131.014862 88.456849 
L 132.678349 93.618395 
L 133.391272 95.170037 
L 134.104195 96.149537 
L 134.817117 96.722298 
L 135.53004 96.96858 
L 136.242963 96.945578 
L 137.668809 96.650533 
L 138.381731 96.955772 
L 140.045218 98.004147 
L 141.233423 99.050816 
L 142.896909 100.836512 
L 147.412087 106.099135 
L 147.887369 106.534815 
L 148.12501 105.786799 
L 148.600292 103.069244 
L 149.550856 94.852546 
L 151.451983 77.211247 
L 152.877829 66.233951 
L 153.828393 60.035439 
L 154.541315 56.861536 
L 155.016597 55.66198 
L 155.254238 55.63198 
L 155.72952 55.957318 
L 156.204802 56.716473 
L 156.680084 58.058199 
L 157.393007 60.965098 
L 158.34357 66.046042 
L 161.670544 85.025212 
L 162.621107 88.901177 
L 163.571671 91.770954 
L 164.759876 94.58268 
L 165.94808 96.882235 
L 168.32449 101.000339 
L 169.987976 104.691798 
L 171.651463 108.211463 
L 172.602027 109.433347 
L 173.31495 110.032943 
L 174.265513 110.534189 
L 178.305409 112.354346 
L 179.968896 113.186953 
L 180.681819 113.139674 
L 181.394741 112.832064 
L 182.107664 112.319665 
L 182.582946 109.382481 
L 183.53351 100.799073 
L 185.434637 83.549996 
L 187.335765 68.764561 
L 187.811047 65.627699 
L 188.761611 61.324572 
L 189.236892 59.422749 
L 189.712174 58.234494 
L 189.949815 57.840756 
L 190.425097 57.798699 
L 190.900379 58.051471 
L 191.375661 58.623111 
L 191.613302 59.029166 
L 192.801507 62.81976 
L 193.75207 67.264199 
L 196.841403 83.134475 
L 197.791966 86.225623 
L 198.980171 89.177872 
L 200.168376 91.55376 
L 202.782426 96.213645 
L 206.109399 102.74143 
L 207.297604 104.465532 
L 208.96109 106.470076 
L 214.426832 112.256812 
L 215.139755 112.469565 
L 216.090319 112.456049 
L 216.32796 112.41718 
L 216.803241 109.303421 
L 218.229087 96.75087 
L 219.654933 81.744846 
L 222.031342 56.565805 
L 222.744265 51.137337 
L 223.457188 47.442846 
L 224.407752 43.653101 
L 226.308879 37.272068 
L 226.54652 37.012613 
L 226.784161 36.956536 
L 227.021802 37.116226 
L 227.497084 37.996923 
L 227.972366 40.519842 
L 228.685288 46.745392 
L 231.299339 72.93614 
L 232.249903 78.572837 
L 233.200466 82.909235 
L 234.388671 87.249781 
L 235.576876 90.789816 
L 237.002721 94.335694 
L 238.428567 97.233102 
L 240.804976 101.310322 
L 244.13195 107.026267 
L 244.844872 107.809724 
L 245.795436 108.489869 
L 246.983641 109.065119 
L 247.934205 109.219505 
L 248.884768 109.109866 
L 249.835332 108.75442 
L 250.548255 108.285129 
L 251.498819 100.618972 
L 254.825792 78.494253 
L 255.776356 70.148101 
L 256.96456 58.926943 
L 257.915124 51.898291 
L 258.390406 49.6714 
L 258.865688 48.220968 
L 259.34097 47.608142 
L 259.578611 47.582929 
L 259.816252 47.700231 
L 260.291533 48.308842 
L 260.766815 49.47523 
L 261.717379 52.833515 
L 262.192661 55.308739 
L 262.905584 60.196981 
L 264.806711 74.444352 
L 265.519634 78.282415 
L 266.707839 83.340074 
L 268.133684 88.348258 
L 269.55953 92.594729 
L 270.747735 95.473174 
L 272.17358 98.253198 
L 273.599426 100.509052 
L 274.074708 101.143486 
L 274.074708 101.143486 
" clip-path="url(#pe01bf6cd0f)" style="fill: none; stroke: #7a1514; stroke-width: 0.75; stroke-linecap: square"/>
   </g>
   <g id="line2d_59">
    <path d="M 34.057359 109.83983 
L 35.007923 110.608311 
L 35.720846 110.878253 
L 36.433768 110.920136 
L 37.146691 110.752963 
L 38.097255 110.280815 
L 39.523101 109.439755 
L 40.473664 109.261023 
L 41.424228 109.386199 
L 42.850074 109.889958 
L 44.038279 110.284932 
L 44.988842 110.413265 
L 45.226483 110.411793 
L 45.464124 110.127383 
L 45.939406 108.486776 
L 46.88997 103.84411 
L 47.602893 99.774602 
L 48.553456 92.942018 
L 52.593352 62.133289 
L 53.543916 57.767615 
L 54.019198 56.266713 
L 54.49448 55.349697 
L 54.969762 54.921368 
L 55.207403 54.899779 
L 55.445044 55.038769 
L 55.920325 55.727434 
L 56.633248 57.318394 
L 57.346171 59.868342 
L 58.296735 64.429028 
L 60.910785 77.212962 
L 62.336631 82.273039 
L 63.762476 86.57774 
L 65.188322 90.22683 
L 66.614168 93.233171 
L 68.040013 95.749331 
L 69.941141 98.591481 
L 72.079909 101.397669 
L 73.505755 103.033944 
L 74.69396 103.988351 
L 76.119805 104.818909 
L 77.30801 105.229966 
L 78.258574 105.277903 
L 79.446778 105.038941 
L 79.684419 104.590844 
L 80.159701 102.244892 
L 81.110265 95.472025 
L 82.29847 85.622527 
L 84.199597 67.082503 
L 85.863084 51.718665 
L 87.051289 42.945785 
L 88.001852 37.661915 
L 88.477134 35.875202 
L 88.952416 34.726484 
L 89.427698 34.170701 
L 89.665339 34.163247 
L 89.90298 34.335243 
L 90.378262 35.20849 
L 90.853544 36.757458 
L 91.328825 39.129851 
L 92.041748 43.860463 
L 95.368721 68.197132 
L 96.794567 76.014994 
L 98.458054 83.830423 
L 99.408617 87.527226 
L 100.596822 91.167187 
L 101.785027 94.032993 
L 102.973231 96.260511 
L 104.161436 97.941296 
L 105.112 98.909904 
L 106.062564 99.559702 
L 107.250768 100.076096 
L 108.914255 100.52473 
L 110.577742 100.763972 
L 112.478869 101.005293 
L 113.904715 101.4206 
L 114.379997 100.940463 
L 115.092919 99.649555 
L 115.568201 98.322383 
L 116.281124 95.530863 
L 117.231688 90.599705 
L 118.182252 84.328071 
L 120.32102 69.838656 
L 121.033943 66.225418 
L 121.746866 63.605724 
L 122.459789 61.924195 
L 122.93507 61.310889 
L 123.410352 61.027761 
L 124.123275 60.856496 
L 124.598557 61.015399 
L 125.073839 61.388197 
L 125.549121 62.289661 
L 126.024403 63.711261 
L 126.974966 67.624919 
L 129.589017 79.447608 
L 131.252503 85.264716 
L 132.91599 90.424458 
L 133.628913 92.121955 
L 134.341835 93.371777 
L 135.054758 94.250112 
L 135.767681 94.807085 
L 136.480604 95.083295 
L 138.381731 95.429919 
L 140.045218 96.317263 
L 141.233423 97.174525 
L 142.896909 98.693768 
L 144.560396 100.533817 
L 146.936805 103.160186 
L 147.887369 104.059977 
L 148.12501 104.026035 
L 148.362651 103.59227 
L 148.837933 101.820273 
L 149.550856 97.62569 
L 150.73906 88.711967 
L 152.877829 72.83664 
L 154.066033 65.13991 
L 154.778956 61.677459 
L 155.254238 60.142551 
L 155.72952 59.419527 
L 156.204802 59.201092 
L 156.442443 59.274616 
L 156.917725 59.82971 
L 157.393007 60.859561 
L 158.105929 63.141668 
L 159.056493 67.257869 
L 162.383466 83.363716 
L 163.33403 86.822897 
L 164.522235 90.261801 
L 165.710439 93.055535 
L 166.898644 95.309637 
L 168.562131 98.365396 
L 170.93854 103.32713 
L 171.889104 105.170939 
L 172.839668 106.533415 
L 173.790231 107.493605 
L 174.978436 108.294523 
L 179.968896 110.850839 
L 180.681819 110.996877 
L 181.394741 110.917005 
L 182.107664 110.64626 
L 182.345305 110.242055 
L 182.820587 108.257496 
L 183.53351 103.729145 
L 185.434637 89.316599 
L 187.811047 72.100692 
L 188.761611 67.014782 
L 189.474533 63.811913 
L 190.187456 61.69525 
L 190.662738 60.994231 
L 191.13802 60.655186 
L 191.613302 60.655365 
L 192.088584 61.144607 
L 192.801507 62.442272 
L 193.514429 64.51282 
L 194.464993 68.228408 
L 197.554325 81.531302 
L 198.74253 85.066346 
L 199.930735 87.927171 
L 201.118939 90.231731 
L 202.782426 93.321678 
L 206.34704 100.069314 
L 207.772886 102.185239 
L 209.436372 104.233561 
L 214.189191 109.357651 
L 214.902114 109.85538 
L 215.852678 110.186405 
L 216.32796 110.249564 
L 216.565601 109.916708 
L 217.040882 107.943839 
L 217.991446 102.067832 
L 218.94201 94.758144 
L 220.367856 81.550342 
L 222.268983 63.471621 
L 223.219547 56.446156 
L 224.170111 51.29587 
L 225.595956 45.187496 
L 226.308879 42.537301 
L 226.784161 41.430053 
L 227.259443 40.973771 
L 227.497084 40.983968 
L 227.734725 41.235393 
L 227.972366 41.812446 
L 228.447648 43.845159 
L 229.16057 48.557981 
L 230.348775 58.484787 
L 231.299339 66.319253 
L 232.249903 72.44133 
L 233.438107 78.493868 
L 234.626312 83.334597 
L 235.814517 87.293899 
L 237.240362 91.204956 
L 238.666208 94.377114 
L 240.329694 97.421175 
L 243.894309 103.547811 
L 244.844872 104.878741 
L 245.795436 105.80624 
L 246.983641 106.639579 
L 247.934205 107.029893 
L 248.884768 107.165593 
L 249.835332 107.059353 
L 250.548255 106.802843 
L 250.785896 106.193701 
L 252.924664 95.11128 
L 254.112869 88.474095 
L 255.538715 78.598228 
L 258.390406 56.625565 
L 259.103329 53.538619 
L 259.578611 52.296106 
L 260.053892 51.646124 
L 260.291533 51.512502 
L 260.529174 51.507294 
L 261.004456 51.888479 
L 261.479738 52.6635 
L 261.95502 53.793043 
L 262.430302 55.499395 
L 263.143225 59.073677 
L 266.232557 76.603319 
L 267.658403 82.361784 
L 269.084248 87.203705 
L 270.510094 91.260611 
L 271.698298 94.011421 
L 273.124144 96.730453 
L 274.074708 98.249907 
L 274.074708 98.249907 
" clip-path="url(#pe01bf6cd0f)" style="fill: none; stroke: #ac2a1a; stroke-width: 0.75; stroke-linecap: square"/>
   </g>
   <g id="line2d_60">
    <path d="M 34.057359 105.110724 
L 35.720846 106.370389 
L 36.671409 106.775066 
L 37.384332 106.879051 
L 38.334896 106.765201 
L 39.523101 106.327711 
L 40.711305 105.943495 
L 41.661869 105.837077 
L 42.850074 105.963679 
L 45.464124 106.51899 
L 45.701765 106.458269 
L 46.177047 105.970968 
L 46.652329 105.008495 
L 47.365252 102.881153 
L 48.078174 100.016785 
L 49.028738 95.037117 
L 50.216943 87.439722 
L 53.306275 66.999656 
L 54.256839 62.498154 
L 54.969762 60.113648 
L 55.445044 59.042325 
L 55.920325 58.42325 
L 56.395607 58.237075 
L 56.870889 58.42814 
L 57.346171 59.004774 
L 57.821453 59.966174 
L 58.534376 62.032671 
L 59.48494 65.623017 
L 61.623708 74.338785 
L 63.049554 79.232724 
L 64.475399 83.417373 
L 65.901245 86.967442 
L 67.327091 89.931107 
L 68.752936 92.409698 
L 70.416423 94.856793 
L 72.31755 97.283509 
L 74.218678 99.369683 
L 75.406883 100.360867 
L 76.832728 101.246433 
L 78.020933 101.71949 
L 78.971497 101.875288 
L 79.684419 101.84581 
L 79.92206 101.709159 
L 80.397342 100.937893 
L 80.872624 99.499328 
L 81.585547 96.364 
L 82.536111 90.810246 
L 83.724315 82.084084 
L 87.764211 50.248295 
L 88.714775 44.938076 
L 89.427698 42.089717 
L 89.90298 40.80691 
L 90.378262 40.072141 
L 90.615903 39.918008 
L 90.853544 39.908051 
L 91.091185 40.047482 
L 91.566466 40.800772 
L 92.041748 42.170138 
L 92.754671 45.202867 
L 93.705235 50.522383 
L 96.319285 66.347493 
L 97.982772 74.782597 
L 99.408617 80.963472 
L 100.596822 85.200032 
L 101.785027 88.611291 
L 102.973231 91.321322 
L 104.161436 93.435628 
L 105.112 94.749954 
L 106.062564 95.746671 
L 107.013127 96.469861 
L 108.201332 97.08348 
L 109.627178 97.555322 
L 111.290664 97.866157 
L 113.429433 98.197546 
L 114.379997 98.338673 
L 114.855278 98.163466 
L 115.33056 97.780878 
L 115.805842 97.144922 
L 116.281124 96.210301 
L 116.994047 94.222766 
L 117.70697 91.560174 
L 118.657533 86.972669 
L 122.222148 68.174349 
L 122.93507 65.875991 
L 123.647993 64.306572 
L 124.360916 63.327725 
L 124.836198 62.961401 
L 125.31148 62.819657 
L 125.786762 62.975904 
L 126.262044 63.484598 
L 126.737325 64.35001 
L 127.450248 66.222605 
L 128.400812 69.589954 
L 130.777221 78.221228 
L 132.678349 84.228317 
L 133.866554 87.475875 
L 134.817117 89.505346 
L 135.767681 90.977102 
L 136.480604 91.735961 
L 137.193527 92.224584 
L 138.619372 92.788534 
L 140.5205 93.610906 
L 141.946346 94.443876 
L 143.609832 95.705871 
L 145.51096 97.490679 
L 148.12501 99.993872 
L 148.600292 100.143055 
L 148.837933 100.018874 
L 149.313215 99.302629 
L 149.788497 97.980691 
L 150.501419 95.013831 
L 151.451983 89.802674 
L 155.491879 66.143859 
L 156.204802 63.797732 
L 156.680084 62.809283 
L 157.155366 62.283639 
L 157.630648 62.210178 
L 158.105929 62.559705 
L 158.581211 63.303038 
L 159.294134 65.052105 
L 160.244698 68.294654 
L 162.145825 76.074604 
L 163.571671 81.573162 
L 164.759876 85.351388 
L 165.94808 88.444359 
L 167.136285 90.965552 
L 170.225617 96.549764 
L 172.839668 101.234585 
L 174.027872 102.797255 
L 174.978436 103.712143 
L 176.166641 104.541981 
L 178.305409 105.683516 
L 180.91946 106.857634 
L 181.870023 106.99551 
L 182.345305 106.946566 
L 182.582946 106.820169 
L 183.058228 106.148575 
L 183.53351 104.870839 
L 184.246433 101.97399 
L 185.196997 96.839493 
L 187.098124 84.877425 
L 188.761611 74.635001 
L 189.949815 68.742522 
L 190.662738 66.104591 
L 191.375661 64.304063 
L 191.850943 63.542335 
L 192.326225 63.150708 
L 192.801507 63.107256 
L 193.276788 63.385596 
L 193.75207 63.989419 
L 194.464993 65.451205 
L 195.177916 67.484929 
L 196.366121 71.680331 
L 198.267248 78.485165 
L 199.455453 81.98099 
L 200.643658 84.872339 
L 202.069503 87.682588 
L 206.109399 94.812472 
L 207.772886 97.424757 
L 209.436372 99.59315 
L 211.3375 101.666004 
L 214.664473 104.952194 
L 215.615037 105.656734 
L 216.565601 106.086188 
L 216.803241 106.057064 
L 217.040882 105.877403 
L 217.516164 105.035036 
L 217.991446 103.625881 
L 218.704369 100.632996 
L 219.417292 96.68326 
L 220.367856 90.204237 
L 222.031342 76.851434 
L 223.457188 65.730782 
L 224.645392 58.38829 
L 225.833597 52.641605 
L 226.784161 48.853331 
L 227.497084 46.842792 
L 227.972366 46.074391 
L 228.210007 45.924657 
L 228.447648 45.957216 
L 228.685288 46.179338 
L 229.16057 47.189853 
L 229.635852 48.881633 
L 230.348775 52.450102 
L 231.774621 61.556335 
L 233.200466 70.002238 
L 234.388671 75.78199 
L 235.576876 80.520873 
L 236.76508 84.418736 
L 237.953285 87.658964 
L 239.379131 90.854411 
L 241.042617 93.902993 
L 243.656668 98.144502 
L 245.320154 100.545733 
L 246.508359 101.829636 
L 247.696564 102.758027 
L 248.647127 103.246272 
L 249.597691 103.507287 
L 250.548255 103.543965 
L 250.785896 103.485369 
L 251.023537 103.304296 
L 251.498819 102.464075 
L 252.211741 100.417956 
L 253.162305 96.917322 
L 254.35051 91.708578 
L 255.538715 85.41237 
L 256.726919 77.843746 
L 258.865688 63.505533 
L 259.578611 59.895667 
L 260.291533 57.301195 
L 260.766815 56.152683 
L 261.242097 55.466612 
L 261.717379 55.211315 
L 262.192661 55.356441 
L 262.667943 55.934894 
L 263.143225 56.96985 
L 263.856147 59.295348 
L 264.806711 63.419174 
L 267.183121 74.422245 
L 268.608966 79.857274 
L 270.034812 84.460911 
L 271.460658 88.300497 
L 272.886503 91.428503 
L 274.074708 93.581882 
L 274.074708 93.581882 
" clip-path="url(#pe01bf6cd0f)" style="fill: none; stroke: #c46d1c; stroke-width: 0.75; stroke-linecap: square"/>
   </g>
   <g id="line2d_61">
    <path d="M 34.057359 103.155835 
L 35.958487 104.523956 
L 36.90905 104.904192 
L 37.859614 104.999155 
L 38.810178 104.829357 
L 41.424228 104.055906 
L 42.374792 104.049542 
L 43.800638 104.306598 
L 45.464124 104.648535 
L 45.939406 104.565065 
L 46.414688 104.090676 
L 46.88997 103.185922 
L 47.602893 101.178249 
L 48.315815 98.4614 
L 49.266379 93.754815 
L 50.454584 86.582333 
L 53.543916 67.297022 
L 54.49448 63.056452 
L 55.207403 60.809019 
L 55.682685 59.803357 
L 56.157966 59.221044 
L 56.633248 59.041384 
L 57.10853 59.225315 
L 57.583812 59.774381 
L 58.059094 60.683596 
L 58.772017 62.629175 
L 59.722581 66.017961 
L 62.09899 75.055472 
L 63.524836 79.565092 
L 64.950681 83.420157 
L 66.376527 86.67945 
L 67.802372 89.399697 
L 69.228218 91.677841 
L 71.129346 94.245115 
L 73.268114 96.724574 
L 74.69396 98.112411 
L 76.119805 99.155929 
L 77.30801 99.788985 
L 78.496215 100.179794 
L 79.446778 100.279994 
L 79.92206 100.212473 
L 80.159701 100.054928 
L 80.634983 99.305105 
L 81.110265 97.949755 
L 81.823188 94.997835 
L 82.773752 89.745627 
L 83.961956 81.501623 
L 88.001852 51.448968 
L 88.952416 46.448704 
L 89.665339 43.76616 
L 90.140621 42.562794 
L 90.615903 41.875476 
L 90.853544 41.732843 
L 91.091185 41.727717 
L 91.328825 41.865217 
L 91.804107 42.583632 
L 92.279389 43.877245 
L 92.992312 46.731331 
L 93.942876 51.748307 
L 96.794567 67.896736 
L 98.458054 75.693614 
L 99.883899 81.362973 
L 101.072104 85.20402 
L 102.260309 88.289247 
L 103.448513 90.732627 
L 104.636718 92.629526 
L 105.587282 93.795183 
L 106.537846 94.668263 
L 107.72605 95.422688 
L 109.151896 95.992464 
L 110.815382 96.382682 
L 114.617638 96.909821 
L 115.092919 96.740432 
L 115.568201 96.372171 
L 116.043483 95.762687 
L 116.756406 94.318766 
L 117.469329 92.2208 
L 118.182252 89.479409 
L 119.132815 84.924295 
L 121.984507 70.240766 
L 122.93507 66.895699 
L 123.647993 65.188731 
L 124.360916 64.08878 
L 125.073839 63.489234 
L 125.549121 63.364652 
L 126.024403 63.522141 
L 126.499684 64.008166 
L 126.974966 64.825426 
L 127.687889 66.595693 
L 128.638453 69.758171 
L 131.014862 77.908599 
L 132.91599 83.589765 
L 134.104195 86.650499 
L 135.054758 88.566776 
L 136.005322 89.957723 
L 136.718245 90.675156 
L 137.431168 91.139074 
L 138.857013 91.683768 
L 140.758141 92.463762 
L 142.183986 93.252829 
L 143.847473 94.447246 
L 145.748601 96.134322 
L 148.362651 98.477491 
L 148.837933 98.579892 
L 149.075574 98.451021 
L 149.550856 97.765303 
L 150.026137 96.515811 
L 150.73906 93.720907 
L 151.689624 88.813298 
L 155.491879 67.468367 
L 156.204802 64.928219 
L 156.680084 63.78016 
L 157.155366 63.06779 
L 157.630648 62.788938 
L 158.105929 62.923202 
L 158.581211 63.443673 
L 159.056493 64.313567 
L 159.769416 66.177659 
L 160.71998 69.40999 
L 164.522235 83.300247 
L 165.710439 86.469962 
L 166.898644 89.060798 
L 168.32449 91.606224 
L 173.790231 100.609612 
L 174.740795 101.609111 
L 175.929 102.513942 
L 177.592486 103.422885 
L 180.681819 104.834467 
L 181.632382 105.079335 
L 182.345305 105.099986 
L 182.820587 104.900185 
L 183.295869 104.243204 
L 183.771151 103.034454 
L 184.484074 100.304637 
L 185.434637 95.468785 
L 187.335765 84.172847 
L 188.999252 74.510337 
L 190.187456 68.953319 
L 190.900379 66.470581 
L 191.613302 64.768783 
L 192.088584 64.053261 
L 192.563866 63.684485 
L 193.039148 63.642395 
L 193.514429 63.908836 
L 193.989711 64.480389 
L 194.702634 65.861267 
L 195.415557 67.780851 
L 196.603762 71.734279 
L 198.504889 78.151696 
L 199.693094 81.457331 
L 200.881299 84.191726 
L 202.307144 86.855555 
L 206.34704 93.599735 
L 208.010527 96.068319 
L 209.674013 98.119293 
L 211.575141 100.081944 
L 214.902114 103.185627 
L 215.852678 103.849031 
L 216.565601 104.183607 
L 217.040882 104.173196 
L 217.278523 103.989276 
L 217.753805 103.189889 
L 218.229087 101.863081 
L 218.94201 99.033217 
L 219.654933 95.299681 
L 220.605497 89.176321 
L 222.268983 76.574604 
L 223.694829 66.094363 
L 224.883033 59.151223 
L 226.071238 53.704791 
L 227.021802 50.143817 
L 227.734725 48.261214 
L 228.210007 47.558735 
L 228.447648 47.428793 
L 228.685288 47.46774 
L 228.922929 47.682958 
L 229.398211 48.63907 
L 229.873493 50.231444 
L 230.586416 53.596155 
L 232.012262 62.152225 
L 233.438107 70.126136 
L 234.626312 75.591903 
L 235.814517 80.075158 
L 237.002721 83.763462 
L 238.190926 86.828903 
L 239.616772 89.852009 
L 241.280258 92.739735 
L 243.894309 96.752839 
L 245.557795 99.016733 
L 246.746 100.230967 
L 247.934205 101.107936 
L 248.884768 101.568844 
L 249.835332 101.815064 
L 250.785896 101.838436 
L 251.261178 101.558811 
L 251.73646 100.769305 
L 252.449382 98.857676 
L 253.399946 95.554484 
L 254.588151 90.619787 
L 255.776356 84.659464 
L 256.96456 77.501449 
L 259.103329 63.998586 
L 259.816252 60.600525 
L 260.529174 58.153892 
L 261.004456 57.071419 
L 261.479738 56.423219 
L 261.95502 56.18078 
L 262.430302 56.324225 
L 262.905584 56.878342 
L 263.380866 57.859466 
L 264.093788 60.048836 
L 265.044352 63.937139 
L 267.420762 74.311694 
L 268.846607 79.452103 
L 270.272453 83.805791 
L 271.698298 87.436217 
L 273.124144 90.395018 
L 274.074708 92.052363 
L 274.074708 92.052363 
" clip-path="url(#pe01bf6cd0f)" style="fill: none; stroke: #ffe100; stroke-width: 0.75; stroke-linecap: square"/>
   </g>
   <g id="patch_3">
    <path d="M 34.295 173.085197 
L 34.295 5.12 
" style="fill: none; stroke: #000000; stroke-width: 0.8; stroke-linejoin: miter; stroke-linecap: square"/>
   </g>
   <g id="patch_4">
    <path d="M 273.837067 173.085197 
L 273.837067 5.12 
" style="fill: none; stroke: #000000; stroke-width: 0.8; stroke-linejoin: miter; stroke-linecap: square"/>
   </g>
   <g id="patch_5">
    <path d="M 34.295 173.085197 
L 273.837067 173.085197 
" style="fill: none; stroke: #000000; stroke-width: 0.8; stroke-linejoin: miter; stroke-linecap: square"/>
   </g>
   <g id="patch_6">
    <path d="M 34.295 5.12 
L 273.837067 5.12 
" style="fill: none; stroke: #000000; stroke-width: 0.8; stroke-linejoin: miter; stroke-linecap: square"/>
   </g>
   <g id="legend_1">
    <g id="line2d_62">
     <path d="M 103.520396 14.658714 
L 115.520396 14.658714 
L 127.520396 14.658714 
" style="fill: none; stroke-dasharray: 2.775,1.2; stroke-dashoffset: 0; stroke: #000000; stroke-width: 0.75"/>
    </g>
    <g id="text_17">
     <!-- ${T_{oa}}$ -->
     <g transform="translate(132.320396 16.758714) scale(0.06 -0.06)">
      <defs>
       <path id="DejaVuSans-Oblique-54" d="M 378 4666 
L 4325 4666 
L 4225 4134 
L 2559 4134 
L 1759 0 
L 1125 0 
L 1925 4134 
L 275 4134 
L 378 4666 
z
" transform="scale(0.015625)"/>
       <path id="DejaVuSans-Oblique-6f" d="M 1625 -91 
Q 1009 -91 651 289 
Q 294 669 294 1325 
Q 294 1706 417 2101 
Q 541 2497 738 2766 
Q 1047 3184 1428 3384 
Q 1809 3584 2291 3584 
Q 2888 3584 3255 3212 
Q 3622 2841 3622 2241 
Q 3622 1825 3500 1412 
Q 3378 1000 3181 728 
Q 2875 309 2494 109 
Q 2113 -91 1625 -91 
z
M 891 1344 
Q 891 869 1089 633 
Q 1288 397 1691 397 
Q 2269 397 2648 901 
Q 3028 1406 3028 2181 
Q 3028 2634 2825 2865 
Q 2622 3097 2228 3097 
Q 1903 3097 1650 2945 
Q 1397 2794 1197 2484 
Q 1050 2253 970 1956 
Q 891 1659 891 1344 
z
" transform="scale(0.015625)"/>
       <path id="DejaVuSans-Oblique-61" d="M 3438 1997 
L 3047 0 
L 2472 0 
L 2578 531 
Q 2325 219 2001 64 
Q 1678 -91 1281 -91 
Q 834 -91 548 182 
Q 263 456 263 884 
Q 263 1497 752 1853 
Q 1241 2209 2100 2209 
L 2900 2209 
L 2931 2363 
Q 2938 2388 2941 2417 
Q 2944 2447 2944 2509 
Q 2944 2788 2717 2942 
Q 2491 3097 2081 3097 
Q 1800 3097 1504 3025 
Q 1209 2953 897 2809 
L 997 3341 
Q 1322 3463 1633 3523 
Q 1944 3584 2234 3584 
Q 2853 3584 3176 3315 
Q 3500 3047 3500 2534 
Q 3500 2431 3484 2292 
Q 3469 2153 3438 1997 
z
M 2816 1759 
L 2241 1759 
Q 1534 1759 1195 1570 
Q 856 1381 856 984 
Q 856 709 1029 553 
Q 1203 397 1509 397 
Q 1978 397 2328 733 
Q 2678 1069 2791 1631 
L 2816 1759 
z
" transform="scale(0.015625)"/>
      </defs>
      <use xlink:href="#DejaVuSans-Oblique-54" transform="translate(0 0.09375)"/>
      <use xlink:href="#DejaVuSans-Oblique-6f" transform="translate(61.083984 -16.3125) scale(0.7)"/>
      <use xlink:href="#DejaVuSans-Oblique-61" transform="translate(103.911133 -16.3125) scale(0.7)"/>
     </g>
    </g>
    <g id="line2d_63">
     <path d="M 103.520396 24.065589 
L 115.520396 24.065589 
L 127.520396 24.065589 
" style="fill: none; stroke: #180f0d; stroke-width: 0.75; stroke-linecap: square"/>
    </g>
    <g id="text_18">
     <!-- ${T_{os}}$ -->
     <g transform="translate(132.320396 26.165589) scale(0.06 -0.06)">
      <defs>
       <path id="DejaVuSans-Oblique-73" d="M 3200 3397 
L 3091 2853 
Q 2863 2978 2609 3040 
Q 2356 3103 2088 3103 
Q 1634 3103 1373 2948 
Q 1113 2794 1113 2528 
Q 1113 2219 1719 2053 
Q 1766 2041 1788 2034 
L 1972 1978 
Q 2547 1819 2739 1644 
Q 2931 1469 2931 1166 
Q 2931 609 2489 259 
Q 2047 -91 1331 -91 
Q 1053 -91 747 -37 
Q 441 16 72 128 
L 184 722 
Q 500 559 806 475 
Q 1113 391 1394 391 
Q 1816 391 2080 572 
Q 2344 753 2344 1031 
Q 2344 1331 1650 1516 
L 1591 1531 
L 1394 1581 
Q 956 1697 753 1886 
Q 550 2075 550 2369 
Q 550 2928 970 3256 
Q 1391 3584 2113 3584 
Q 2397 3584 2667 3537 
Q 2938 3491 3200 3397 
z
" transform="scale(0.015625)"/>
      </defs>
      <use xlink:href="#DejaVuSans-Oblique-54" transform="translate(0 0.09375)"/>
      <use xlink:href="#DejaVuSans-Oblique-6f" transform="translate(61.083984 -16.3125) scale(0.7)"/>
      <use xlink:href="#DejaVuSans-Oblique-73" transform="translate(103.911133 -16.3125) scale(0.7)"/>
     </g>
    </g>
    <g id="line2d_64">
     <path d="M 147.620396 14.658714 
L 159.620396 14.658714 
L 171.620396 14.658714 
" style="fill: none; stroke: #7a1514; stroke-width: 0.75; stroke-linecap: square"/>
    </g>
    <g id="text_19">
     <!-- x = 2 cm -->
     <g transform="translate(176.420396 16.758714) scale(0.06 -0.06)">
      <defs>
       <path id="DejaVuSans-78" d="M 3513 3500 
L 2247 1797 
L 3578 0 
L 2900 0 
L 1881 1375 
L 863 0 
L 184 0 
L 1544 1831 
L 300 3500 
L 978 3500 
L 1906 2253 
L 2834 3500 
L 3513 3500 
z
" transform="scale(0.015625)"/>
       <path id="DejaVuSans-3d" d="M 678 2906 
L 4684 2906 
L 4684 2381 
L 678 2381 
L 678 2906 
z
M 678 1631 
L 4684 1631 
L 4684 1100 
L 678 1100 
L 678 1631 
z
" transform="scale(0.015625)"/>
       <path id="DejaVuSans-63" d="M 3122 3366 
L 3122 2828 
Q 2878 2963 2633 3030 
Q 2388 3097 2138 3097 
Q 1578 3097 1268 2742 
Q 959 2388 959 1747 
Q 959 1106 1268 751 
Q 1578 397 2138 397 
Q 2388 397 2633 464 
Q 2878 531 3122 666 
L 3122 134 
Q 2881 22 2623 -34 
Q 2366 -91 2075 -91 
Q 1284 -91 818 406 
Q 353 903 353 1747 
Q 353 2603 823 3093 
Q 1294 3584 2113 3584 
Q 2378 3584 2631 3529 
Q 2884 3475 3122 3366 
z
" transform="scale(0.015625)"/>
      </defs>
      <use xlink:href="#DejaVuSans-78"/>
      <use xlink:href="#DejaVuSans-20" x="59.179688"/>
      <use xlink:href="#DejaVuSans-3d" x="90.966797"/>
      <use xlink:href="#DejaVuSans-20" x="174.755859"/>
      <use xlink:href="#DejaVuSans-32" x="206.542969"/>
      <use xlink:href="#DejaVuSans-20" x="270.166016"/>
      <use xlink:href="#DejaVuSans-63" x="301.953125"/>
      <use xlink:href="#DejaVuSans-6d" x="356.933594"/>
     </g>
    </g>
    <g id="line2d_65">
     <path d="M 147.620396 24.065589 
L 159.620396 24.065589 
L 171.620396 24.065589 
" style="fill: none; stroke: #ac2a1a; stroke-width: 0.75; stroke-linecap: square"/>
    </g>
    <g id="text_20">
     <!-- x = 4 cm -->
     <g transform="translate(176.420396 26.165589) scale(0.06 -0.06)">
      <use xlink:href="#DejaVuSans-78"/>
      <use xlink:href="#DejaVuSans-20" x="59.179688"/>
      <use xlink:href="#DejaVuSans-3d" x="90.966797"/>
      <use xlink:href="#DejaVuSans-20" x="174.755859"/>
      <use xlink:href="#DejaVuSans-34" x="206.542969"/>
      <use xlink:href="#DejaVuSans-20" x="270.166016"/>
      <use xlink:href="#DejaVuSans-63" x="301.953125"/>
      <use xlink:href="#DejaVuSans-6d" x="356.933594"/>
     </g>
    </g>
    <g id="line2d_66">
     <path d="M 209.981021 14.658714 
L 221.981021 14.658714 
L 233.981021 14.658714 
" style="fill: none; stroke: #c46d1c; stroke-width: 0.75; stroke-linecap: square"/>
    </g>
    <g id="text_21">
     <!-- x = 8 cm -->
     <g transform="translate(238.781021 16.758714) scale(0.06 -0.06)">
      <use xlink:href="#DejaVuSans-78"/>
      <use xlink:href="#DejaVuSans-20" x="59.179688"/>
      <use xlink:href="#DejaVuSans-3d" x="90.966797"/>
      <use xlink:href="#DejaVuSans-20" x="174.755859"/>
      <use xlink:href="#DejaVuSans-38" x="206.542969"/>
      <use xlink:href="#DejaVuSans-20" x="270.166016"/>
      <use xlink:href="#DejaVuSans-63" x="301.953125"/>
      <use xlink:href="#DejaVuSans-6d" x="356.933594"/>
     </g>
    </g>
    <g id="line2d_67">
     <path d="M 209.981021 24.065589 
L 221.981021 24.065589 
L 233.981021 24.065589 
" style="fill: none; stroke: #ffe100; stroke-width: 0.75; stroke-linecap: square"/>
    </g>
    <g id="text_22">
     <!-- ${T_{is}}$ -->
     <g transform="translate(238.781021 26.165589) scale(0.06 -0.06)">
      <defs>
       <path id="DejaVuSans-Oblique-69" d="M 1172 4863 
L 1747 4863 
L 1606 4134 
L 1031 4134 
L 1172 4863 
z
M 909 3500 
L 1484 3500 
L 800 0 
L 225 0 
L 909 3500 
z
" transform="scale(0.015625)"/>
      </defs>
      <use xlink:href="#DejaVuSans-Oblique-54" transform="translate(0 0.09375)"/>
      <use xlink:href="#DejaVuSans-Oblique-69" transform="translate(61.083984 -16.3125) scale(0.7)"/>
      <use xlink:href="#DejaVuSans-Oblique-73" transform="translate(80.532227 -16.3125) scale(0.7)"/>
     </g>
    </g>
   </g>
  </g>
 </g>
 <defs>
  <clipPath id="pe01bf6cd0f">
   <rect x="34.295" y="5.12" width="239.542067" height="167.965197"/>
  </clipPath>
 </defs>
</svg>
