<?xml version="1.0" encoding="utf-8" standalone="no"?>
<!DOCTYPE svg PUBLIC "-//W3C//DTD SVG 1.1//EN"
  "http://www.w3.org/Graphics/SVG/1.1/DTD/svg11.dtd">
<svg xmlns:xlink="http://www.w3.org/1999/xlink" width="283.464567pt" height="198.425197pt" viewBox="0 0 283.464567 198.425197" xmlns="http://www.w3.org/2000/svg" version="1.1">
 <metadata>
  <rdf:RDF xmlns:dc="http://purl.org/dc/elements/1.1/" xmlns:cc="http://creativecommons.org/ns#" xmlns:rdf="http://www.w3.org/1999/02/22-rdf-syntax-ns#">
   <cc:Work>
    <dc:type rdf:resource="http://purl.org/dc/dcmitype/StillImage"/>
    <dc:date>2023-05-17T10:25:01.507331</dc:date>
    <dc:format>image/svg+xml</dc:format>
    <dc:creator>
     <cc:Agent>
      <dc:title>Matplotlib v3.7.1, https://matplotlib.org/</dc:title>
     </cc:Agent>
    </dc:creator>
   </cc:Work>
  </rdf:RDF>
 </metadata>
 <defs>
  <style type="text/css">*{stroke-linejoin: round; stroke-linecap: butt}</style>
 </defs>
 <g id="figure_1">
  <g id="patch_1">
   <path d="M 0 198.425197 
L 283.464567 198.425197 
L 283.464567 0 
L 0 0 
z
" style="fill: #ffffff"/>
  </g>
  <g id="axes_1">
   <g id="patch_2">
    <path d="M 27.605 173.085197 
L 273.837067 173.085197 
L 273.837067 5.12 
L 27.605 5.12 
z
" style="fill: #ffffff"/>
   </g>
   <g id="matplotlib.axis_1">
    <g id="xtick_1">
     <g id="line2d_1">
      <path d="M 27.605 173.085197 
L 27.605 5.12 
" clip-path="url(#p63fcf4524e)" style="fill: none; stroke-dasharray: 0.925,0.4; stroke-dashoffset: 0; stroke: #404040; stroke-opacity: 0.5; stroke-width: 0.25"/>
     </g>
     <g id="line2d_2">
      <defs>
       <path id="mf2e16f780f" d="M 0 0 
L 0 -3.5 
" style="stroke: #000000; stroke-width: 0.5"/>
      </defs>
      <g>
       <use xlink:href="#mf2e16f780f" x="27.605" y="173.085197" style="stroke: #000000; stroke-width: 0.5"/>
      </g>
     </g>
     <g id="text_1">
      <!-- 120 -->
      <g transform="translate(19.97 182.663947) scale(0.08 -0.08)">
       <defs>
        <path id="DejaVuSans-31" d="M 794 531 
L 1825 531 
L 1825 4091 
L 703 3866 
L 703 4441 
L 1819 4666 
L 2450 4666 
L 2450 531 
L 3481 531 
L 3481 0 
L 794 0 
L 794 531 
z
" transform="scale(0.015625)"/>
        <path id="DejaVuSans-32" d="M 1228 531 
L 3431 531 
L 3431 0 
L 469 0 
L 469 531 
Q 828 903 1448 1529 
Q 2069 2156 2228 2338 
Q 2531 2678 2651 2914 
Q 2772 3150 2772 3378 
Q 2772 3750 2511 3984 
Q 2250 4219 1831 4219 
Q 1534 4219 1204 4116 
Q 875 4013 500 3803 
L 500 4441 
Q 881 4594 1212 4672 
Q 1544 4750 1819 4750 
Q 2544 4750 2975 4387 
Q 3406 4025 3406 3419 
Q 3406 3131 3298 2873 
Q 3191 2616 2906 2266 
Q 2828 2175 2409 1742 
Q 1991 1309 1228 531 
z
" transform="scale(0.015625)"/>
        <path id="DejaVuSans-30" d="M 2034 4250 
Q 1547 4250 1301 3770 
Q 1056 3291 1056 2328 
Q 1056 1369 1301 889 
Q 1547 409 2034 409 
Q 2525 409 2770 889 
Q 3016 1369 3016 2328 
Q 3016 3291 2770 3770 
Q 2525 4250 2034 4250 
z
M 2034 4750 
Q 2819 4750 3233 4129 
Q 3647 3509 3647 2328 
Q 3647 1150 3233 529 
Q 2819 -91 2034 -91 
Q 1250 -91 836 529 
Q 422 1150 422 2328 
Q 422 3509 836 4129 
Q 1250 4750 2034 4750 
z
" transform="scale(0.015625)"/>
       </defs>
       <use xlink:href="#DejaVuSans-31"/>
       <use xlink:href="#DejaVuSans-32" x="63.623047"/>
       <use xlink:href="#DejaVuSans-30" x="127.246094"/>
      </g>
     </g>
    </g>
    <g id="xtick_2">
     <g id="line2d_3">
      <path d="M 89.163017 173.085197 
L 89.163017 5.12 
" clip-path="url(#p63fcf4524e)" style="fill: none; stroke-dasharray: 0.925,0.4; stroke-dashoffset: 0; stroke: #404040; stroke-opacity: 0.5; stroke-width: 0.25"/>
     </g>
     <g id="line2d_4">
      <g>
       <use xlink:href="#mf2e16f780f" x="89.163017" y="173.085197" style="stroke: #000000; stroke-width: 0.5"/>
      </g>
     </g>
     <g id="text_2">
      <!-- 132 -->
      <g transform="translate(81.528017 182.663947) scale(0.08 -0.08)">
       <defs>
        <path id="DejaVuSans-33" d="M 2597 2516 
Q 3050 2419 3304 2112 
Q 3559 1806 3559 1356 
Q 3559 666 3084 287 
Q 2609 -91 1734 -91 
Q 1441 -91 1130 -33 
Q 819 25 488 141 
L 488 750 
Q 750 597 1062 519 
Q 1375 441 1716 441 
Q 2309 441 2620 675 
Q 2931 909 2931 1356 
Q 2931 1769 2642 2001 
Q 2353 2234 1838 2234 
L 1294 2234 
L 1294 2753 
L 1863 2753 
Q 2328 2753 2575 2939 
Q 2822 3125 2822 3475 
Q 2822 3834 2567 4026 
Q 2313 4219 1838 4219 
Q 1578 4219 1281 4162 
Q 984 4106 628 3988 
L 628 4550 
Q 988 4650 1302 4700 
Q 1616 4750 1894 4750 
Q 2613 4750 3031 4423 
Q 3450 4097 3450 3541 
Q 3450 3153 3228 2886 
Q 3006 2619 2597 2516 
z
" transform="scale(0.015625)"/>
       </defs>
       <use xlink:href="#DejaVuSans-31"/>
       <use xlink:href="#DejaVuSans-33" x="63.623047"/>
       <use xlink:href="#DejaVuSans-32" x="127.246094"/>
      </g>
     </g>
    </g>
    <g id="xtick_3">
     <g id="line2d_5">
      <path d="M 150.721033 173.085197 
L 150.721033 5.12 
" clip-path="url(#p63fcf4524e)" style="fill: none; stroke-dasharray: 0.925,0.4; stroke-dashoffset: 0; stroke: #404040; stroke-opacity: 0.5; stroke-width: 0.25"/>
     </g>
     <g id="line2d_6">
      <g>
       <use xlink:href="#mf2e16f780f" x="150.721033" y="173.085197" style="stroke: #000000; stroke-width: 0.5"/>
      </g>
     </g>
     <g id="text_3">
      <!-- 144 -->
      <g transform="translate(143.086033 182.663947) scale(0.08 -0.08)">
       <defs>
        <path id="DejaVuSans-34" d="M 2419 4116 
L 825 1625 
L 2419 1625 
L 2419 4116 
z
M 2253 4666 
L 3047 4666 
L 3047 1625 
L 3713 1625 
L 3713 1100 
L 3047 1100 
L 3047 0 
L 2419 0 
L 2419 1100 
L 313 1100 
L 313 1709 
L 2253 4666 
z
" transform="scale(0.015625)"/>
       </defs>
       <use xlink:href="#DejaVuSans-31"/>
       <use xlink:href="#DejaVuSans-34" x="63.623047"/>
       <use xlink:href="#DejaVuSans-34" x="127.246094"/>
      </g>
     </g>
    </g>
    <g id="xtick_4">
     <g id="line2d_7">
      <path d="M 212.27905 173.085197 
L 212.27905 5.12 
" clip-path="url(#p63fcf4524e)" style="fill: none; stroke-dasharray: 0.925,0.4; stroke-dashoffset: 0; stroke: #404040; stroke-opacity: 0.5; stroke-width: 0.25"/>
     </g>
     <g id="line2d_8">
      <g>
       <use xlink:href="#mf2e16f780f" x="212.27905" y="173.085197" style="stroke: #000000; stroke-width: 0.5"/>
      </g>
     </g>
     <g id="text_4">
      <!-- 156 -->
      <g transform="translate(204.64405 182.663947) scale(0.08 -0.08)">
       <defs>
        <path id="DejaVuSans-35" d="M 691 4666 
L 3169 4666 
L 3169 4134 
L 1269 4134 
L 1269 2991 
Q 1406 3038 1543 3061 
Q 1681 3084 1819 3084 
Q 2600 3084 3056 2656 
Q 3513 2228 3513 1497 
Q 3513 744 3044 326 
Q 2575 -91 1722 -91 
Q 1428 -91 1123 -41 
Q 819 9 494 109 
L 494 744 
Q 775 591 1075 516 
Q 1375 441 1709 441 
Q 2250 441 2565 725 
Q 2881 1009 2881 1497 
Q 2881 1984 2565 2268 
Q 2250 2553 1709 2553 
Q 1456 2553 1204 2497 
Q 953 2441 691 2322 
L 691 4666 
z
" transform="scale(0.015625)"/>
        <path id="DejaVuSans-36" d="M 2113 2584 
Q 1688 2584 1439 2293 
Q 1191 2003 1191 1497 
Q 1191 994 1439 701 
Q 1688 409 2113 409 
Q 2538 409 2786 701 
Q 3034 994 3034 1497 
Q 3034 2003 2786 2293 
Q 2538 2584 2113 2584 
z
M 3366 4563 
L 3366 3988 
Q 3128 4100 2886 4159 
Q 2644 4219 2406 4219 
Q 1781 4219 1451 3797 
Q 1122 3375 1075 2522 
Q 1259 2794 1537 2939 
Q 1816 3084 2150 3084 
Q 2853 3084 3261 2657 
Q 3669 2231 3669 1497 
Q 3669 778 3244 343 
Q 2819 -91 2113 -91 
Q 1303 -91 875 529 
Q 447 1150 447 2328 
Q 447 3434 972 4092 
Q 1497 4750 2381 4750 
Q 2619 4750 2861 4703 
Q 3103 4656 3366 4563 
z
" transform="scale(0.015625)"/>
       </defs>
       <use xlink:href="#DejaVuSans-31"/>
       <use xlink:href="#DejaVuSans-35" x="63.623047"/>
       <use xlink:href="#DejaVuSans-36" x="127.246094"/>
      </g>
     </g>
    </g>
    <g id="xtick_5">
     <g id="line2d_9">
      <path d="M 273.837067 173.085197 
L 273.837067 5.12 
" clip-path="url(#p63fcf4524e)" style="fill: none; stroke-dasharray: 0.925,0.4; stroke-dashoffset: 0; stroke: #404040; stroke-opacity: 0.5; stroke-width: 0.25"/>
     </g>
     <g id="line2d_10">
      <g>
       <use xlink:href="#mf2e16f780f" x="273.837067" y="173.085197" style="stroke: #000000; stroke-width: 0.5"/>
      </g>
     </g>
     <g id="text_5">
      <!-- 168 -->
      <g transform="translate(266.202067 182.663947) scale(0.08 -0.08)">
       <defs>
        <path id="DejaVuSans-38" d="M 2034 2216 
Q 1584 2216 1326 1975 
Q 1069 1734 1069 1313 
Q 1069 891 1326 650 
Q 1584 409 2034 409 
Q 2484 409 2743 651 
Q 3003 894 3003 1313 
Q 3003 1734 2745 1975 
Q 2488 2216 2034 2216 
z
M 1403 2484 
Q 997 2584 770 2862 
Q 544 3141 544 3541 
Q 544 4100 942 4425 
Q 1341 4750 2034 4750 
Q 2731 4750 3128 4425 
Q 3525 4100 3525 3541 
Q 3525 3141 3298 2862 
Q 3072 2584 2669 2484 
Q 3125 2378 3379 2068 
Q 3634 1759 3634 1313 
Q 3634 634 3220 271 
Q 2806 -91 2034 -91 
Q 1263 -91 848 271 
Q 434 634 434 1313 
Q 434 1759 690 2068 
Q 947 2378 1403 2484 
z
M 1172 3481 
Q 1172 3119 1398 2916 
Q 1625 2713 2034 2713 
Q 2441 2713 2670 2916 
Q 2900 3119 2900 3481 
Q 2900 3844 2670 4047 
Q 2441 4250 2034 4250 
Q 1625 4250 1398 4047 
Q 1172 3844 1172 3481 
z
" transform="scale(0.015625)"/>
       </defs>
       <use xlink:href="#DejaVuSans-31"/>
       <use xlink:href="#DejaVuSans-36" x="63.623047"/>
       <use xlink:href="#DejaVuSans-38" x="127.246094"/>
      </g>
     </g>
    </g>
    <g id="xtick_6">
     <g id="line2d_11">
      <defs>
       <path id="m3f23db0dc9" d="M 0 0 
L 0 -2 
" style="stroke: #000000; stroke-width: 0.35"/>
      </defs>
      <g>
       <use xlink:href="#m3f23db0dc9" x="58.384008" y="173.085197" style="stroke: #000000; stroke-width: 0.35"/>
      </g>
     </g>
    </g>
    <g id="xtick_7">
     <g id="line2d_12">
      <g>
       <use xlink:href="#m3f23db0dc9" x="119.942025" y="173.085197" style="stroke: #000000; stroke-width: 0.35"/>
      </g>
     </g>
    </g>
    <g id="xtick_8">
     <g id="line2d_13">
      <g>
       <use xlink:href="#m3f23db0dc9" x="181.500042" y="173.085197" style="stroke: #000000; stroke-width: 0.35"/>
      </g>
     </g>
    </g>
    <g id="xtick_9">
     <g id="line2d_14">
      <g>
       <use xlink:href="#m3f23db0dc9" x="243.058059" y="173.085197" style="stroke: #000000; stroke-width: 0.35"/>
      </g>
     </g>
    </g>
    <g id="text_6">
     <!-- Hour [h] -->
     <g transform="translate(134.158533 194.406447) scale(0.08 -0.08)">
      <defs>
       <path id="DejaVuSans-48" d="M 628 4666 
L 1259 4666 
L 1259 2753 
L 3553 2753 
L 3553 4666 
L 4184 4666 
L 4184 0 
L 3553 0 
L 3553 2222 
L 1259 2222 
L 1259 0 
L 628 0 
L 628 4666 
z
" transform="scale(0.015625)"/>
       <path id="DejaVuSans-6f" d="M 1959 3097 
Q 1497 3097 1228 2736 
Q 959 2375 959 1747 
Q 959 1119 1226 758 
Q 1494 397 1959 397 
Q 2419 397 2687 759 
Q 2956 1122 2956 1747 
Q 2956 2369 2687 2733 
Q 2419 3097 1959 3097 
z
M 1959 3584 
Q 2709 3584 3137 3096 
Q 3566 2609 3566 1747 
Q 3566 888 3137 398 
Q 2709 -91 1959 -91 
Q 1206 -91 779 398 
Q 353 888 353 1747 
Q 353 2609 779 3096 
Q 1206 3584 1959 3584 
z
" transform="scale(0.015625)"/>
       <path id="DejaVuSans-75" d="M 544 1381 
L 544 3500 
L 1119 3500 
L 1119 1403 
Q 1119 906 1312 657 
Q 1506 409 1894 409 
Q 2359 409 2629 706 
Q 2900 1003 2900 1516 
L 2900 3500 
L 3475 3500 
L 3475 0 
L 2900 0 
L 2900 538 
Q 2691 219 2414 64 
Q 2138 -91 1772 -91 
Q 1169 -91 856 284 
Q 544 659 544 1381 
z
M 1991 3584 
L 1991 3584 
z
" transform="scale(0.015625)"/>
       <path id="DejaVuSans-72" d="M 2631 2963 
Q 2534 3019 2420 3045 
Q 2306 3072 2169 3072 
Q 1681 3072 1420 2755 
Q 1159 2438 1159 1844 
L 1159 0 
L 581 0 
L 581 3500 
L 1159 3500 
L 1159 2956 
Q 1341 3275 1631 3429 
Q 1922 3584 2338 3584 
Q 2397 3584 2469 3576 
Q 2541 3569 2628 3553 
L 2631 2963 
z
" transform="scale(0.015625)"/>
       <path id="DejaVuSans-20" transform="scale(0.015625)"/>
       <path id="DejaVuSans-5b" d="M 550 4863 
L 1875 4863 
L 1875 4416 
L 1125 4416 
L 1125 -397 
L 1875 -397 
L 1875 -844 
L 550 -844 
L 550 4863 
z
" transform="scale(0.015625)"/>
       <path id="DejaVuSans-68" d="M 3513 2113 
L 3513 0 
L 2938 0 
L 2938 2094 
Q 2938 2591 2744 2837 
Q 2550 3084 2163 3084 
Q 1697 3084 1428 2787 
Q 1159 2491 1159 1978 
L 1159 0 
L 581 0 
L 581 4863 
L 1159 4863 
L 1159 2956 
Q 1366 3272 1645 3428 
Q 1925 3584 2291 3584 
Q 2894 3584 3203 3211 
Q 3513 2838 3513 2113 
z
" transform="scale(0.015625)"/>
       <path id="DejaVuSans-5d" d="M 1947 4863 
L 1947 -844 
L 622 -844 
L 622 -397 
L 1369 -397 
L 1369 4416 
L 622 4416 
L 622 4863 
L 1947 4863 
z
" transform="scale(0.015625)"/>
      </defs>
      <use xlink:href="#DejaVuSans-48"/>
      <use xlink:href="#DejaVuSans-6f" x="75.195312"/>
      <use xlink:href="#DejaVuSans-75" x="136.376953"/>
      <use xlink:href="#DejaVuSans-72" x="199.755859"/>
      <use xlink:href="#DejaVuSans-20" x="240.869141"/>
      <use xlink:href="#DejaVuSans-5b" x="272.65625"/>
      <use xlink:href="#DejaVuSans-68" x="311.669922"/>
      <use xlink:href="#DejaVuSans-5d" x="375.048828"/>
     </g>
    </g>
   </g>
   <g id="matplotlib.axis_2">
    <g id="ytick_1">
     <g id="line2d_15">
      <path d="M 27.605 173.085197 
L 273.837067 173.085197 
" clip-path="url(#p63fcf4524e)" style="fill: none; stroke-dasharray: 0.925,0.4; stroke-dashoffset: 0; stroke: #404040; stroke-opacity: 0.5; stroke-width: 0.25"/>
     </g>
     <g id="line2d_16">
      <defs>
       <path id="m67ca71a96a" d="M 0 0 
L 3.5 0 
" style="stroke: #000000; stroke-width: 0.5"/>
      </defs>
      <g>
       <use xlink:href="#m67ca71a96a" x="27.605" y="173.085197" style="stroke: #000000; stroke-width: 0.5"/>
      </g>
     </g>
     <g id="text_7">
      <!-- 10 -->
      <g transform="translate(13.925 176.124572) scale(0.08 -0.08)">
       <use xlink:href="#DejaVuSans-31"/>
       <use xlink:href="#DejaVuSans-30" x="63.623047"/>
      </g>
     </g>
    </g>
    <g id="ytick_2">
     <g id="line2d_17">
      <path d="M 27.605 139.492157 
L 273.837067 139.492157 
" clip-path="url(#p63fcf4524e)" style="fill: none; stroke-dasharray: 0.925,0.4; stroke-dashoffset: 0; stroke: #404040; stroke-opacity: 0.5; stroke-width: 0.25"/>
     </g>
     <g id="line2d_18">
      <g>
       <use xlink:href="#m67ca71a96a" x="27.605" y="139.492157" style="stroke: #000000; stroke-width: 0.5"/>
      </g>
     </g>
     <g id="text_8">
      <!-- 20 -->
      <g transform="translate(13.925 142.531532) scale(0.08 -0.08)">
       <use xlink:href="#DejaVuSans-32"/>
       <use xlink:href="#DejaVuSans-30" x="63.623047"/>
      </g>
     </g>
    </g>
    <g id="ytick_3">
     <g id="line2d_19">
      <path d="M 27.605 105.899118 
L 273.837067 105.899118 
" clip-path="url(#p63fcf4524e)" style="fill: none; stroke-dasharray: 0.925,0.4; stroke-dashoffset: 0; stroke: #404040; stroke-opacity: 0.5; stroke-width: 0.25"/>
     </g>
     <g id="line2d_20">
      <g>
       <use xlink:href="#m67ca71a96a" x="27.605" y="105.899118" style="stroke: #000000; stroke-width: 0.5"/>
      </g>
     </g>
     <g id="text_9">
      <!-- 30 -->
      <g transform="translate(13.925 108.938493) scale(0.08 -0.08)">
       <use xlink:href="#DejaVuSans-33"/>
       <use xlink:href="#DejaVuSans-30" x="63.623047"/>
      </g>
     </g>
    </g>
    <g id="ytick_4">
     <g id="line2d_21">
      <path d="M 27.605 72.306079 
L 273.837067 72.306079 
" clip-path="url(#p63fcf4524e)" style="fill: none; stroke-dasharray: 0.925,0.4; stroke-dashoffset: 0; stroke: #404040; stroke-opacity: 0.5; stroke-width: 0.25"/>
     </g>
     <g id="line2d_22">
      <g>
       <use xlink:href="#m67ca71a96a" x="27.605" y="72.306079" style="stroke: #000000; stroke-width: 0.5"/>
      </g>
     </g>
     <g id="text_10">
      <!-- 40 -->
      <g transform="translate(13.925 75.345454) scale(0.08 -0.08)">
       <use xlink:href="#DejaVuSans-34"/>
       <use xlink:href="#DejaVuSans-30" x="63.623047"/>
      </g>
     </g>
    </g>
    <g id="ytick_5">
     <g id="line2d_23">
      <path d="M 27.605 38.713039 
L 273.837067 38.713039 
" clip-path="url(#p63fcf4524e)" style="fill: none; stroke-dasharray: 0.925,0.4; stroke-dashoffset: 0; stroke: #404040; stroke-opacity: 0.5; stroke-width: 0.25"/>
     </g>
     <g id="line2d_24">
      <g>
       <use xlink:href="#m67ca71a96a" x="27.605" y="38.713039" style="stroke: #000000; stroke-width: 0.5"/>
      </g>
     </g>
     <g id="text_11">
      <!-- 50 -->
      <g transform="translate(13.925 41.752414) scale(0.08 -0.08)">
       <use xlink:href="#DejaVuSans-35"/>
       <use xlink:href="#DejaVuSans-30" x="63.623047"/>
      </g>
     </g>
    </g>
    <g id="ytick_6">
     <g id="line2d_25">
      <path d="M 27.605 5.12 
L 273.837067 5.12 
" clip-path="url(#p63fcf4524e)" style="fill: none; stroke-dasharray: 0.925,0.4; stroke-dashoffset: 0; stroke: #404040; stroke-opacity: 0.5; stroke-width: 0.25"/>
     </g>
     <g id="line2d_26">
      <g>
       <use xlink:href="#m67ca71a96a" x="27.605" y="5.12" style="stroke: #000000; stroke-width: 0.5"/>
      </g>
     </g>
     <g id="text_12">
      <!-- 60 -->
      <g transform="translate(13.925 8.159375) scale(0.08 -0.08)">
       <use xlink:href="#DejaVuSans-36"/>
       <use xlink:href="#DejaVuSans-30" x="63.623047"/>
      </g>
     </g>
    </g>
    <g id="ytick_7">
     <g id="line2d_27">
      <defs>
       <path id="m5773aa8655" d="M 0 0 
L 2 0 
" style="stroke: #000000; stroke-width: 0.35"/>
      </defs>
      <g>
       <use xlink:href="#m5773aa8655" x="27.605" y="166.366589" style="stroke: #000000; stroke-width: 0.35"/>
      </g>
     </g>
    </g>
    <g id="ytick_8">
     <g id="line2d_28">
      <g>
       <use xlink:href="#m5773aa8655" x="27.605" y="159.647981" style="stroke: #000000; stroke-width: 0.35"/>
      </g>
     </g>
    </g>
    <g id="ytick_9">
     <g id="line2d_29">
      <g>
       <use xlink:href="#m5773aa8655" x="27.605" y="152.929373" style="stroke: #000000; stroke-width: 0.35"/>
      </g>
     </g>
    </g>
    <g id="ytick_10">
     <g id="line2d_30">
      <g>
       <use xlink:href="#m5773aa8655" x="27.605" y="146.210765" style="stroke: #000000; stroke-width: 0.35"/>
      </g>
     </g>
    </g>
    <g id="ytick_11">
     <g id="line2d_31">
      <g>
       <use xlink:href="#m5773aa8655" x="27.605" y="132.77355" style="stroke: #000000; stroke-width: 0.35"/>
      </g>
     </g>
    </g>
    <g id="ytick_12">
     <g id="line2d_32">
      <g>
       <use xlink:href="#m5773aa8655" x="27.605" y="126.054942" style="stroke: #000000; stroke-width: 0.35"/>
      </g>
     </g>
    </g>
    <g id="ytick_13">
     <g id="line2d_33">
      <g>
       <use xlink:href="#m5773aa8655" x="27.605" y="119.336334" style="stroke: #000000; stroke-width: 0.35"/>
      </g>
     </g>
    </g>
    <g id="ytick_14">
     <g id="line2d_34">
      <g>
       <use xlink:href="#m5773aa8655" x="27.605" y="112.617726" style="stroke: #000000; stroke-width: 0.35"/>
      </g>
     </g>
    </g>
    <g id="ytick_15">
     <g id="line2d_35">
      <g>
       <use xlink:href="#m5773aa8655" x="27.605" y="99.18051" style="stroke: #000000; stroke-width: 0.35"/>
      </g>
     </g>
    </g>
    <g id="ytick_16">
     <g id="line2d_36">
      <g>
       <use xlink:href="#m5773aa8655" x="27.605" y="92.461902" style="stroke: #000000; stroke-width: 0.35"/>
      </g>
     </g>
    </g>
    <g id="ytick_17">
     <g id="line2d_37">
      <g>
       <use xlink:href="#m5773aa8655" x="27.605" y="85.743294" style="stroke: #000000; stroke-width: 0.35"/>
      </g>
     </g>
    </g>
    <g id="ytick_18">
     <g id="line2d_38">
      <g>
       <use xlink:href="#m5773aa8655" x="27.605" y="79.024687" style="stroke: #000000; stroke-width: 0.35"/>
      </g>
     </g>
    </g>
    <g id="ytick_19">
     <g id="line2d_39">
      <g>
       <use xlink:href="#m5773aa8655" x="27.605" y="65.587471" style="stroke: #000000; stroke-width: 0.35"/>
      </g>
     </g>
    </g>
    <g id="ytick_20">
     <g id="line2d_40">
      <g>
       <use xlink:href="#m5773aa8655" x="27.605" y="58.868863" style="stroke: #000000; stroke-width: 0.35"/>
      </g>
     </g>
    </g>
    <g id="ytick_21">
     <g id="line2d_41">
      <g>
       <use xlink:href="#m5773aa8655" x="27.605" y="52.150255" style="stroke: #000000; stroke-width: 0.35"/>
      </g>
     </g>
    </g>
    <g id="ytick_22">
     <g id="line2d_42">
      <g>
       <use xlink:href="#m5773aa8655" x="27.605" y="45.431647" style="stroke: #000000; stroke-width: 0.35"/>
      </g>
     </g>
    </g>
    <g id="ytick_23">
     <g id="line2d_43">
      <g>
       <use xlink:href="#m5773aa8655" x="27.605" y="31.994431" style="stroke: #000000; stroke-width: 0.35"/>
      </g>
     </g>
    </g>
    <g id="ytick_24">
     <g id="line2d_44">
      <g>
       <use xlink:href="#m5773aa8655" x="27.605" y="25.275824" style="stroke: #000000; stroke-width: 0.35"/>
      </g>
     </g>
    </g>
    <g id="ytick_25">
     <g id="line2d_45">
      <g>
       <use xlink:href="#m5773aa8655" x="27.605" y="18.557216" style="stroke: #000000; stroke-width: 0.35"/>
      </g>
     </g>
    </g>
    <g id="ytick_26">
     <g id="line2d_46">
      <g>
       <use xlink:href="#m5773aa8655" x="27.605" y="11.838608" style="stroke: #000000; stroke-width: 0.35"/>
      </g>
     </g>
    </g>
    <g id="text_13">
     <!-- Temperature [°C] -->
     <g transform="translate(8.26125 123.623848) rotate(-90) scale(0.08 -0.08)">
      <defs>
       <path id="DejaVuSans-54" d="M -19 4666 
L 3928 4666 
L 3928 4134 
L 2272 4134 
L 2272 0 
L 1638 0 
L 1638 4134 
L -19 4134 
L -19 4666 
z
" transform="scale(0.015625)"/>
       <path id="DejaVuSans-65" d="M 3597 1894 
L 3597 1613 
L 953 1613 
Q 991 1019 1311 708 
Q 1631 397 2203 397 
Q 2534 397 2845 478 
Q 3156 559 3463 722 
L 3463 178 
Q 3153 47 2828 -22 
Q 2503 -91 2169 -91 
Q 1331 -91 842 396 
Q 353 884 353 1716 
Q 353 2575 817 3079 
Q 1281 3584 2069 3584 
Q 2775 3584 3186 3129 
Q 3597 2675 3597 1894 
z
M 3022 2063 
Q 3016 2534 2758 2815 
Q 2500 3097 2075 3097 
Q 1594 3097 1305 2825 
Q 1016 2553 972 2059 
L 3022 2063 
z
" transform="scale(0.015625)"/>
       <path id="DejaVuSans-6d" d="M 3328 2828 
Q 3544 3216 3844 3400 
Q 4144 3584 4550 3584 
Q 5097 3584 5394 3201 
Q 5691 2819 5691 2113 
L 5691 0 
L 5113 0 
L 5113 2094 
Q 5113 2597 4934 2840 
Q 4756 3084 4391 3084 
Q 3944 3084 3684 2787 
Q 3425 2491 3425 1978 
L 3425 0 
L 2847 0 
L 2847 2094 
Q 2847 2600 2669 2842 
Q 2491 3084 2119 3084 
Q 1678 3084 1418 2786 
Q 1159 2488 1159 1978 
L 1159 0 
L 581 0 
L 581 3500 
L 1159 3500 
L 1159 2956 
Q 1356 3278 1631 3431 
Q 1906 3584 2284 3584 
Q 2666 3584 2933 3390 
Q 3200 3197 3328 2828 
z
" transform="scale(0.015625)"/>
       <path id="DejaVuSans-70" d="M 1159 525 
L 1159 -1331 
L 581 -1331 
L 581 3500 
L 1159 3500 
L 1159 2969 
Q 1341 3281 1617 3432 
Q 1894 3584 2278 3584 
Q 2916 3584 3314 3078 
Q 3713 2572 3713 1747 
Q 3713 922 3314 415 
Q 2916 -91 2278 -91 
Q 1894 -91 1617 61 
Q 1341 213 1159 525 
z
M 3116 1747 
Q 3116 2381 2855 2742 
Q 2594 3103 2138 3103 
Q 1681 3103 1420 2742 
Q 1159 2381 1159 1747 
Q 1159 1113 1420 752 
Q 1681 391 2138 391 
Q 2594 391 2855 752 
Q 3116 1113 3116 1747 
z
" transform="scale(0.015625)"/>
       <path id="DejaVuSans-61" d="M 2194 1759 
Q 1497 1759 1228 1600 
Q 959 1441 959 1056 
Q 959 750 1161 570 
Q 1363 391 1709 391 
Q 2188 391 2477 730 
Q 2766 1069 2766 1631 
L 2766 1759 
L 2194 1759 
z
M 3341 1997 
L 3341 0 
L 2766 0 
L 2766 531 
Q 2569 213 2275 61 
Q 1981 -91 1556 -91 
Q 1019 -91 701 211 
Q 384 513 384 1019 
Q 384 1609 779 1909 
Q 1175 2209 1959 2209 
L 2766 2209 
L 2766 2266 
Q 2766 2663 2505 2880 
Q 2244 3097 1772 3097 
Q 1472 3097 1187 3025 
Q 903 2953 641 2809 
L 641 3341 
Q 956 3463 1253 3523 
Q 1550 3584 1831 3584 
Q 2591 3584 2966 3190 
Q 3341 2797 3341 1997 
z
" transform="scale(0.015625)"/>
       <path id="DejaVuSans-74" d="M 1172 4494 
L 1172 3500 
L 2356 3500 
L 2356 3053 
L 1172 3053 
L 1172 1153 
Q 1172 725 1289 603 
Q 1406 481 1766 481 
L 2356 481 
L 2356 0 
L 1766 0 
Q 1100 0 847 248 
Q 594 497 594 1153 
L 594 3053 
L 172 3053 
L 172 3500 
L 594 3500 
L 594 4494 
L 1172 4494 
z
" transform="scale(0.015625)"/>
       <path id="DejaVuSans-b0" d="M 1600 4347 
Q 1350 4347 1178 4173 
Q 1006 4000 1006 3750 
Q 1006 3503 1178 3333 
Q 1350 3163 1600 3163 
Q 1850 3163 2022 3333 
Q 2194 3503 2194 3750 
Q 2194 3997 2020 4172 
Q 1847 4347 1600 4347 
z
M 1600 4750 
Q 1800 4750 1984 4673 
Q 2169 4597 2303 4453 
Q 2447 4313 2519 4134 
Q 2591 3956 2591 3750 
Q 2591 3338 2302 3052 
Q 2013 2766 1594 2766 
Q 1172 2766 890 3047 
Q 609 3328 609 3750 
Q 609 4169 896 4459 
Q 1184 4750 1600 4750 
z
" transform="scale(0.015625)"/>
       <path id="DejaVuSans-43" d="M 4122 4306 
L 4122 3641 
Q 3803 3938 3442 4084 
Q 3081 4231 2675 4231 
Q 1875 4231 1450 3742 
Q 1025 3253 1025 2328 
Q 1025 1406 1450 917 
Q 1875 428 2675 428 
Q 3081 428 3442 575 
Q 3803 722 4122 1019 
L 4122 359 
Q 3791 134 3420 21 
Q 3050 -91 2638 -91 
Q 1578 -91 968 557 
Q 359 1206 359 2328 
Q 359 3453 968 4101 
Q 1578 4750 2638 4750 
Q 3056 4750 3426 4639 
Q 3797 4528 4122 4306 
z
" transform="scale(0.015625)"/>
      </defs>
      <use xlink:href="#DejaVuSans-54"/>
      <use xlink:href="#DejaVuSans-65" x="44.083984"/>
      <use xlink:href="#DejaVuSans-6d" x="105.607422"/>
      <use xlink:href="#DejaVuSans-70" x="203.019531"/>
      <use xlink:href="#DejaVuSans-65" x="266.496094"/>
      <use xlink:href="#DejaVuSans-72" x="328.019531"/>
      <use xlink:href="#DejaVuSans-61" x="369.132812"/>
      <use xlink:href="#DejaVuSans-74" x="430.412109"/>
      <use xlink:href="#DejaVuSans-75" x="469.621094"/>
      <use xlink:href="#DejaVuSans-72" x="533"/>
      <use xlink:href="#DejaVuSans-65" x="571.863281"/>
      <use xlink:href="#DejaVuSans-20" x="633.386719"/>
      <use xlink:href="#DejaVuSans-5b" x="665.173828"/>
      <use xlink:href="#DejaVuSans-b0" x="704.1875"/>
      <use xlink:href="#DejaVuSans-43" x="754.1875"/>
      <use xlink:href="#DejaVuSans-5d" x="824.011719"/>
     </g>
    </g>
   </g>
   <g id="line2d_47">
    <path d="M 27.59075 173.077778 
L 29.186699 173.023875 
L 30.782648 172.747649 
L 32.407095 172.240076 
L 34.088541 171.477827 
L 35.826985 170.44233 
L 37.665176 169.082803 
L 39.617363 167.354344 
L 41.697796 165.208644 
L 43.963473 162.54333 
L 46.457143 159.255442 
L 49.264302 155.174636 
L 52.598695 149.917122 
L 57.144298 142.295858 
L 65.907766 127.542494 
L 69.327656 122.272208 
L 72.177564 118.273635 
L 74.699733 115.106145 
L 76.979659 112.588774 
L 79.088591 110.583442 
L 81.055028 109.0146 
L 82.893219 107.825153 
L 84.645912 106.950259 
L 86.327358 106.355403 
L 87.966055 106.010285 
L 89.562004 105.899118 
L 91.157952 106.010681 
L 92.768151 106.348206 
L 94.406848 106.921348 
L 96.102543 107.754048 
L 97.869486 108.874342 
L 99.736176 110.327928 
L 101.716862 112.159151 
L 103.840044 114.431443 
L 106.162719 117.252862 
L 108.727636 120.729444 
L 111.648792 125.076293 
L 115.196928 130.776394 
L 120.583254 139.909882 
L 127.024047 150.731062 
L 130.543684 156.20609 
L 133.45059 160.329661 
L 136.001258 163.573653 
L 138.309683 166.159652 
L 140.432865 168.212508 
L 142.413551 169.824295 
L 144.265991 171.051759 
L 146.032935 171.960057 
L 147.71438 172.579497 
L 149.353078 172.948926 
L 150.963276 173.084141 
L 152.559224 172.994445 
L 154.169422 172.678842 
L 155.80812 172.127711 
L 157.489565 171.325124 
L 159.242259 170.239272 
L 161.094699 168.824607 
L 163.061136 167.036567 
L 165.170068 164.811466 
L 167.464244 162.059111 
L 170.000662 158.658151 
L 172.87907 154.413494 
L 176.327458 148.913581 
L 181.300548 140.515607 
L 188.624812 128.184214 
L 192.130199 122.73586 
L 195.037106 118.616352 
L 197.587774 115.376622 
L 199.896199 112.794979 
L 202.019381 110.746494 
L 203.985817 109.149528 
L 205.838258 107.924194 
L 207.605201 107.017996 
L 209.286647 106.400604 
L 210.925344 106.0332 
L 212.535542 105.899989 
L 214.131491 105.991673 
L 215.741689 106.30927 
L 217.380386 106.862403 
L 219.061832 107.667003 
L 220.814525 108.754891 
L 222.666966 110.171623 
L 224.633402 111.96174 
L 226.742334 114.188911 
L 229.03651 116.943306 
L 231.572929 120.346233 
L 234.451336 124.592712 
L 237.913974 130.117643 
L 242.915563 138.566385 
L 250.168579 150.777094 
L 253.673967 156.227277 
L 256.580873 160.348817 
L 259.131541 163.59068 
L 261.439966 166.174501 
L 263.563148 168.225172 
L 265.529585 169.824295 
L 267.382025 171.051759 
L 269.148968 171.960057 
L 270.830414 172.579497 
L 272.469111 172.948926 
L 273.822817 173.077778 
L 273.822817 173.077778 
" clip-path="url(#p63fcf4524e)" style="fill: none; stroke-dasharray: 2.775,1.2; stroke-dashoffset: 0; stroke: #000000; stroke-width: 0.75"/>
   </g>
   <g id="line2d_48">
    <path d="M 27.59075 144.054082 
L 29.514438 145.270705 
L 31.366879 146.182534 
L 33.148071 146.815184 
L 34.886515 147.200011 
L 36.61071 147.354439 
L 38.320655 147.28532 
L 40.059099 146.990926 
L 41.826042 146.464637 
L 43.649983 145.687849 
L 45.559422 144.629839 
L 47.582856 143.248622 
L 49.734537 141.504884 
L 52.071462 139.316636 
L 54.636379 136.601152 
L 57.543285 133.187536 
L 59.110735 131.091453 
L 60.279197 128.808868 
L 62.04614 124.831758 
L 64.568309 118.566325 
L 68.458434 108.238043 
L 75.739949 88.863279 
L 78.81785 81.359603 
L 81.368518 75.703094 
L 83.605696 71.261276 
L 85.614881 67.747289 
L 87.453072 64.966369 
L 89.134518 62.812314 
L 90.687718 61.171144 
L 92.141171 59.950583 
L 93.494877 59.09585 
L 94.777336 58.542314 
L 96.002796 58.249685 
L 97.199758 58.188894 
L 98.396719 58.351585 
L 99.60793 58.743896 
L 100.84764 59.381851 
L 102.144349 60.303104 
L 103.512304 61.552913 
L 104.980007 63.205319 
L 106.547457 65.31687 
L 108.228902 67.966366 
L 110.052844 71.269397 
L 112.03353 75.330911 
L 114.21371 80.326238 
L 116.636132 86.450534 
L 119.414792 94.104749 
L 121.181735 98.828283 
L 123.19092 103.195446 
L 126.425566 109.659459 
L 130.35844 117.034381 
L 133.949324 123.315142 
L 137.126971 128.439054 
L 139.97688 132.625273 
L 142.584546 136.070638 
L 144.992718 138.892339 
L 147.229896 141.180024 
L 149.338828 143.025196 
L 151.333764 144.480447 
L 153.228953 145.593398 
L 155.052894 146.411148 
L 156.819837 146.963236 
L 158.558281 147.274471 
L 160.268226 147.356401 
L 161.99242 147.215607 
L 163.730864 146.849817 
L 165.512057 146.247012 
L 167.364497 145.38267 
L 169.302435 144.229761 
L 171.354369 142.746469 
L 173.563048 140.868829 
L 175.95697 138.534457 
L 178.607385 135.631119 
L 181.642537 131.965144 
L 182.298016 130.965036 
L 183.509227 128.567668 
L 185.333168 124.424829 
L 187.926585 117.940723 
L 192.016203 107.042377 
L 198.684988 89.297737 
L 201.805638 81.658723 
L 204.384805 75.913082 
L 206.636232 71.421163 
L 208.659667 67.863654 
L 210.497858 65.066032 
L 212.193553 62.879003 
L 213.746753 61.225288 
L 215.200206 59.992588 
L 216.553912 59.126271 
L 217.836371 58.561567 
L 219.076081 58.255979 
L 220.273043 58.187221 
L 221.470004 58.341922 
L 222.681215 58.726156 
L 223.920925 59.355887 
L 225.217633 60.268623 
L 226.585589 61.509583 
L 228.039042 63.135222 
L 229.592242 65.21328 
L 231.273688 67.846251 
L 233.08338 71.10496 
L 235.064066 75.145887 
L 237.229996 80.086479 
L 239.638169 86.15002 
L 242.38833 93.698051 
L 244.340517 98.927029 
L 246.378202 103.343313 
L 249.641346 109.852465 
L 253.57422 117.215043 
L 257.165104 123.4826 
L 260.328502 128.570565 
L 263.17841 132.744301 
L 265.771827 136.159232 
L 268.16575 138.954704 
L 270.402928 141.233935 
L 272.49761 143.059376 
L 273.822817 144.054082 
L 273.822817 144.054082 
" clip-path="url(#p63fcf4524e)" style="fill: none; stroke: #180f0d; stroke-width: 0.75; stroke-linecap: square"/>
   </g>
   <g id="line2d_49">
    <path d="M 27.59075 140.396604 
L 29.713932 142.086619 
L 31.737367 143.417036 
L 33.675304 144.42783 
L 35.541994 145.153376 
L 37.365936 145.624843 
L 39.161378 145.859147 
L 40.94257 145.867356 
L 42.738012 145.65224 
L 44.561954 145.208447 
L 46.442893 144.519498 
L 48.39508 143.56527 
L 50.461264 142.302872 
L 52.655693 140.695943 
L 55.021117 138.682397 
L 57.628783 136.162056 
L 59.523972 134.071377 
L 60.720933 132.31158 
L 62.288383 129.588792 
L 64.297568 125.626794 
L 66.833986 120.106231 
L 70.253876 112.088757 
L 80.399549 87.969716 
L 83.220958 82.020874 
L 85.629131 77.444833 
L 87.766562 73.845084 
L 89.704499 71.004058 
L 91.471442 68.795013 
L 93.11014 67.092139 
L 94.63484 65.820648 
L 96.059795 64.914456 
L 97.413501 64.312393 
L 98.710209 63.976356 
L 99.964169 63.878011 
L 101.218128 64.003973 
L 102.472088 64.354711 
L 103.768796 64.953245 
L 105.108253 65.821508 
L 106.518958 67.007236 
L 108.015159 68.563298 
L 109.611108 70.552916 
L 111.321053 73.049084 
L 113.173493 76.158607 
L 115.182678 79.977982 
L 117.391357 84.668237 
L 119.856528 90.442495 
L 122.250451 96.008899 
L 124.943614 101.535646 
L 128.833739 108.99549 
L 132.866359 116.265188 
L 136.457243 122.295951 
L 139.66339 127.258391 
L 142.556047 131.337781 
L 145.206461 134.70226 
L 147.671632 137.479976 
L 149.965808 139.737857 
L 152.131738 141.563594 
L 154.183672 143.007482 
L 156.135859 144.115123 
L 158.016798 144.931782 
L 159.854989 145.489321 
L 161.650431 145.8032 
L 163.431624 145.889808 
L 165.212817 145.754581 
L 167.022508 145.393721 
L 168.874949 144.796701 
L 170.798637 143.941079 
L 172.822071 142.793451 
L 174.959503 141.321352 
L 177.253679 139.466729 
L 179.761598 137.146597 
L 182.298016 134.503758 
L 183.380981 133.021476 
L 184.820185 130.648674 
L 186.672625 127.13859 
L 189.00955 122.207681 
L 192.044702 115.251073 
L 197.274284 102.60056 
L 202.161876 91.006161 
L 205.239777 84.266383 
L 207.790445 79.197304 
L 210.027623 75.228969 
L 212.036808 72.102066 
L 213.874999 69.64035 
L 215.556445 67.746773 
L 217.123894 66.306242 
L 218.591597 65.252534 
L 219.973802 64.528716 
L 221.28476 64.087833 
L 222.552969 63.892094 
L 223.806929 63.92363 
L 225.060888 64.179866 
L 226.329098 64.667449 
L 227.640055 65.411726 
L 229.022261 66.458319 
L 230.475714 67.844227 
L 232.028914 69.641251 
L 233.69611 71.922142 
L 235.491552 74.768953 
L 237.42949 78.270807 
L 239.552671 82.580992 
L 241.903846 87.87448 
L 246.349703 98.079864 
L 249.584348 104.514678 
L 253.688216 112.188121 
L 257.549842 118.953825 
L 260.969731 124.510418 
L 264.033383 129.076167 
L 266.826293 132.849056 
L 269.39121 135.949708 
L 271.770883 138.487417 
L 273.822817 140.396604 
L 273.822817 140.396604 
" clip-path="url(#p63fcf4524e)" style="fill: none; stroke: #7a1514; stroke-width: 0.75; stroke-linecap: square"/>
   </g>
   <g id="line2d_50">
    <path d="M 27.59075 137.519154 
L 29.884927 139.589536 
L 32.065106 141.262904 
L 34.13129 142.573924 
L 36.111976 143.572621 
L 38.035664 144.296351 
L 39.902354 144.764408 
L 41.754794 145.000341 
L 43.592985 145.010586 
L 45.445425 144.798165 
L 47.326365 144.358375 
L 49.264302 143.675988 
L 51.287737 142.724994 
L 53.425168 141.46962 
L 55.705095 139.866016 
L 58.170265 137.852672 
L 60.079704 136.042504 
L 61.476159 134.361889 
L 63.086357 132.060329 
L 64.981546 128.945475 
L 67.204474 124.844316 
L 69.897637 119.383799 
L 73.517021 111.499661 
L 82.55123 91.615986 
L 85.472386 85.843672 
L 87.937556 81.44662 
L 90.117736 77.996134 
L 92.098422 75.266145 
L 93.908114 73.140292 
L 95.57531 71.514208 
L 97.12851 70.300273 
L 98.596213 69.429618 
L 99.978418 68.861769 
L 101.317875 68.549123 
L 102.614583 68.472014 
L 103.911292 68.618333 
L 105.222249 68.993828 
L 106.561706 69.613133 
L 107.958161 70.510362 
L 109.425864 71.726359 
L 110.979064 73.31164 
L 112.632011 75.326146 
L 114.398954 77.838438 
L 116.308392 80.948704 
L 118.388825 84.773006 
L 120.697251 89.496812 
L 123.946146 96.158254 
L 127.936018 103.781283 
L 132.253628 111.565683 
L 136.186502 118.211642 
L 139.677639 123.687149 
L 142.812538 128.202636 
L 145.676696 131.947741 
L 148.312861 135.037016 
L 150.763782 137.57432 
L 153.057958 139.636989 
L 155.223888 141.292769 
L 157.290072 142.598167 
L 159.270758 143.591352 
L 161.194446 144.309656 
L 163.061136 144.772418 
L 164.913576 145.003104 
L 166.751767 145.008191 
L 168.604207 144.790656 
L 170.499396 144.341587 
L 172.451583 143.646576 
L 174.475018 142.687214 
L 176.612449 141.423529 
L 178.892376 139.811754 
L 181.357546 137.790495 
L 183.224236 136.01151 
L 184.620691 134.324329 
L 186.245139 131.994584 
L 188.140328 128.870824 
L 190.363256 124.761434 
L 193.05642 119.293699 
L 196.704302 111.340682 
L 205.596016 91.763125 
L 208.531421 85.950905 
L 211.010841 81.518604 
L 213.20527 78.038328 
L 215.185957 75.30251 
L 216.995648 73.170912 
L 218.662845 71.539232 
L 220.216044 70.319864 
L 221.683747 69.443918 
L 223.065953 68.870975 
L 224.40541 68.553318 
L 225.702118 68.471311 
L 226.998826 68.612711 
L 228.309784 68.983235 
L 229.649241 69.597487 
L 231.045696 70.489505 
L 232.499149 71.687034 
L 234.038099 73.248133 
L 235.691046 75.251191 
L 237.457989 77.751788 
L 239.367427 80.85016 
L 241.44786 84.662515 
L 243.742037 89.345013 
L 247.06218 96.158254 
L 251.052051 103.781283 
L 255.369662 111.565683 
L 259.302535 118.211642 
L 262.793673 123.687149 
L 265.928572 128.202636 
L 268.792729 131.947741 
L 271.428895 135.037016 
L 273.822817 137.519154 
L 273.822817 137.519154 
" clip-path="url(#p63fcf4524e)" style="fill: none; stroke: #ac2a1a; stroke-width: 0.75; stroke-linecap: square"/>
   </g>
   <g id="line2d_51">
    <path d="M 27.59075 134.416637 
L 30.155668 136.896131 
L 32.56384 138.921072 
L 34.843767 140.552374 
L 37.009697 141.833728 
L 39.09013 142.810837 
L 41.113565 143.518001 
L 43.094251 143.975485 
L 45.046438 144.198633 
L 46.998625 144.197022 
L 48.965062 143.971409 
L 50.959998 143.518109 
L 53.026181 142.8182 
L 55.177862 141.851268 
L 57.443539 140.58616 
L 59.851711 138.983528 
L 61.73265 137.485079 
L 63.399847 135.865053 
L 65.124041 133.870234 
L 66.990731 131.36027 
L 69.085414 128.158678 
L 71.522085 124.010529 
L 74.528738 118.42721 
L 79.188338 109.237062 
L 84.888154 98.10634 
L 88.023053 92.474413 
L 90.61647 88.256133 
L 92.896396 84.959353 
L 94.94833 82.371524 
L 96.82927 80.347604 
L 98.567714 78.795046 
L 100.192161 77.635238 
L 101.716862 76.812399 
L 103.170315 76.274385 
L 104.58102 75.98675 
L 105.963225 75.931939 
L 107.331181 76.100478 
L 108.713387 76.49622 
L 110.124091 77.13288 
L 111.591794 78.042445 
L 113.130745 79.262559 
L 114.755192 80.839355 
L 116.493636 82.844735 
L 118.360326 85.347875 
L 120.369511 88.423077 
L 122.806183 92.593658 
L 131.313159 107.412436 
L 135.702017 114.519186 
L 139.620641 120.453641 
L 143.126028 125.369636 
L 146.289426 129.432558 
L 149.182083 132.793998 
L 151.846747 135.558386 
L 154.340417 137.832085 
L 156.691591 139.680052 
L 158.914519 141.149946 
L 161.037701 142.292994 
L 163.089635 143.149291 
L 165.084571 143.744037 
L 167.051007 144.099268 
L 169.003194 144.225349 
L 170.955382 144.127818 
L 172.936068 143.804433 
L 174.959503 143.246987 
L 177.054185 142.43728 
L 179.248614 141.348024 
L 181.585539 139.935025 
L 183.879715 138.294771 
L 185.60391 136.788446 
L 187.285355 135.014748 
L 189.066548 132.801939 
L 191.032985 129.991197 
L 193.270163 126.389369 
L 195.920577 121.680849 
L 199.397465 115.015364 
L 209.571637 95.227534 
L 212.407296 90.35467 
L 214.829718 86.617421 
L 216.995648 83.671961 
L 218.962085 81.362327 
L 220.771777 79.570282 
L 222.453222 78.209868 
L 224.034921 77.21044 
L 225.531123 76.52359 
L 226.956077 76.108805 
L 228.352532 75.932618 
L 229.720488 75.983298 
L 231.088444 76.255915 
L 232.484899 76.7629 
L 233.924103 77.525594 
L 235.420305 78.573745 
L 237.002004 79.95924 
L 238.68345 81.736162 
L 240.478892 83.966403 
L 242.416829 86.739842 
L 244.525761 90.158812 
L 248.401636 97.003071 
L 253.759464 106.290196 
L 258.205321 113.554312 
L 262.195192 119.659471 
L 265.757577 124.714722 
L 268.963724 128.888444 
L 271.88488 132.335983 
L 273.822817 134.416637 
L 273.822817 134.416637 
" clip-path="url(#p63fcf4524e)" style="fill: none; stroke: #c46d1c; stroke-width: 0.75; stroke-linecap: square"/>
   </g>
   <g id="line2d_52">
    <path d="M 27.59075 134.251749 
L 30.226916 136.711407 
L 32.692086 138.713449 
L 35.029011 140.32938 
L 37.251939 141.600406 
L 39.38937 142.570048 
L 41.455554 143.267087 
L 43.478989 143.718147 
L 45.488174 143.938717 
L 47.48311 143.934955 
L 49.506544 143.707722 
L 51.572728 143.2491 
L 53.695909 142.547582 
L 55.918838 141.574854 
L 58.255762 140.305975 
L 60.678184 138.737738 
L 62.502126 137.305841 
L 64.197821 135.686996 
L 65.964764 133.685811 
L 67.902702 131.143978 
L 70.082881 127.905053 
L 72.647799 123.67848 
L 75.896694 117.868843 
L 88.065802 95.672771 
L 90.730466 91.513189 
L 93.067391 88.265022 
L 95.162073 85.722535 
L 97.085761 83.728393 
L 98.866954 82.195408 
L 100.519901 81.057553 
L 102.08735 80.242145 
L 103.583552 79.710241 
L 105.022756 79.43043 
L 106.43346 79.379734 
L 107.844165 79.551952 
L 109.269119 79.952515 
L 110.722572 80.594684 
L 112.233023 81.50939 
L 113.814723 82.732815 
L 115.481919 84.309082 
L 117.263111 86.306915 
L 119.17255 88.791685 
L 121.238733 91.855017 
L 124.074392 96.516523 
L 130.95692 107.877525 
L 135.459775 114.846298 
L 139.492395 120.688008 
L 143.08328 125.509365 
L 146.317925 129.490526 
L 149.26758 132.778133 
L 152.003492 135.501425 
L 154.55416 137.732248 
L 156.948083 139.536839 
L 159.228009 140.981591 
L 161.408189 142.103603 
L 163.517121 142.94109 
L 165.569055 143.518161 
L 167.57824 143.854348 
L 169.573176 143.964458 
L 171.582361 143.852358 
L 173.620046 143.514473 
L 175.714728 142.938642 
L 177.880658 142.109494 
L 180.160585 140.993964 
L 182.583007 139.555572 
L 184.734688 138.035616 
L 186.458882 136.5402 
L 188.183077 134.742052 
L 190.021267 132.495273 
L 192.073201 129.623447 
L 194.424375 125.934815 
L 197.274284 121.027425 
L 201.264155 113.668843 
L 208.787913 99.745422 
L 211.865814 94.563687 
L 214.44498 90.642964 
L 216.710657 87.590519 
L 218.762591 85.188439 
L 220.643531 83.31936 
L 222.381975 81.895168 
L 224.020672 80.83331 
L 225.573872 80.087786 
L 227.055824 79.619666 
L 228.495028 79.396654 
L 229.905732 79.402152 
L 231.316437 79.630758 
L 232.741391 80.088154 
L 234.209094 80.795845 
L 235.733795 81.782193 
L 237.329743 83.083588 
L 239.025438 84.759496 
L 240.83513 86.868756 
L 242.787317 89.496581 
L 244.910499 92.739234 
L 248.629629 98.938828 
L 254.158451 108.013752 
L 258.647056 114.952994 
L 262.665427 120.767515 
L 266.256311 125.582647 
L 269.490957 129.557287 
L 272.440612 132.838178 
L 273.822817 134.251749 
L 273.822817 134.251749 
" clip-path="url(#p63fcf4524e)" style="fill: none; stroke: #ffe100; stroke-width: 0.75; stroke-linecap: square"/>
   </g>
   <g id="patch_3">
    <path d="M 27.605 173.085197 
L 27.605 5.12 
" style="fill: none; stroke: #000000; stroke-width: 0.8; stroke-linejoin: miter; stroke-linecap: square"/>
   </g>
   <g id="patch_4">
    <path d="M 273.837067 173.085197 
L 273.837067 5.12 
" style="fill: none; stroke: #000000; stroke-width: 0.8; stroke-linejoin: miter; stroke-linecap: square"/>
   </g>
   <g id="patch_5">
    <path d="M 27.605 173.085197 
L 273.837067 173.085197 
" style="fill: none; stroke: #000000; stroke-width: 0.8; stroke-linejoin: miter; stroke-linecap: square"/>
   </g>
   <g id="patch_6">
    <path d="M 27.605 5.12 
L 273.837067 5.12 
" style="fill: none; stroke: #000000; stroke-width: 0.8; stroke-linejoin: miter; stroke-linecap: square"/>
   </g>
   <g id="legend_1">
    <g id="line2d_53">
     <path d="M 103.453496 14.658714 
L 115.453496 14.658714 
L 127.453496 14.658714 
" style="fill: none; stroke-dasharray: 2.775,1.2; stroke-dashoffset: 0; stroke: #000000; stroke-width: 0.75"/>
    </g>
    <g id="text_14">
     <!-- ${T_{oa}}$ -->
     <g transform="translate(132.253496 16.758714) scale(0.06 -0.06)">
      <defs>
       <path id="DejaVuSans-Oblique-54" d="M 378 4666 
L 4325 4666 
L 4225 4134 
L 2559 4134 
L 1759 0 
L 1125 0 
L 1925 4134 
L 275 4134 
L 378 4666 
z
" transform="scale(0.015625)"/>
       <path id="DejaVuSans-Oblique-6f" d="M 1625 -91 
Q 1009 -91 651 289 
Q 294 669 294 1325 
Q 294 1706 417 2101 
Q 541 2497 738 2766 
Q 1047 3184 1428 3384 
Q 1809 3584 2291 3584 
Q 2888 3584 3255 3212 
Q 3622 2841 3622 2241 
Q 3622 1825 3500 1412 
Q 3378 1000 3181 728 
Q 2875 309 2494 109 
Q 2113 -91 1625 -91 
z
M 891 1344 
Q 891 869 1089 633 
Q 1288 397 1691 397 
Q 2269 397 2648 901 
Q 3028 1406 3028 2181 
Q 3028 2634 2825 2865 
Q 2622 3097 2228 3097 
Q 1903 3097 1650 2945 
Q 1397 2794 1197 2484 
Q 1050 2253 970 1956 
Q 891 1659 891 1344 
z
" transform="scale(0.015625)"/>
       <path id="DejaVuSans-Oblique-61" d="M 3438 1997 
L 3047 0 
L 2472 0 
L 2578 531 
Q 2325 219 2001 64 
Q 1678 -91 1281 -91 
Q 834 -91 548 182 
Q 263 456 263 884 
Q 263 1497 752 1853 
Q 1241 2209 2100 2209 
L 2900 2209 
L 2931 2363 
Q 2938 2388 2941 2417 
Q 2944 2447 2944 2509 
Q 2944 2788 2717 2942 
Q 2491 3097 2081 3097 
Q 1800 3097 1504 3025 
Q 1209 2953 897 2809 
L 997 3341 
Q 1322 3463 1633 3523 
Q 1944 3584 2234 3584 
Q 2853 3584 3176 3315 
Q 3500 3047 3500 2534 
Q 3500 2431 3484 2292 
Q 3469 2153 3438 1997 
z
M 2816 1759 
L 2241 1759 
Q 1534 1759 1195 1570 
Q 856 1381 856 984 
Q 856 709 1029 553 
Q 1203 397 1509 397 
Q 1978 397 2328 733 
Q 2678 1069 2791 1631 
L 2816 1759 
z
" transform="scale(0.015625)"/>
      </defs>
      <use xlink:href="#DejaVuSans-Oblique-54" transform="translate(0 0.09375)"/>
      <use xlink:href="#DejaVuSans-Oblique-6f" transform="translate(61.083984 -16.3125) scale(0.7)"/>
      <use xlink:href="#DejaVuSans-Oblique-61" transform="translate(103.911133 -16.3125) scale(0.7)"/>
     </g>
    </g>
    <g id="line2d_54">
     <path d="M 103.453496 24.065589 
L 115.453496 24.065589 
L 127.453496 24.065589 
" style="fill: none; stroke: #180f0d; stroke-width: 0.75; stroke-linecap: square"/>
    </g>
    <g id="text_15">
     <!-- ${T_{os}}$ -->
     <g transform="translate(132.253496 26.165589) scale(0.06 -0.06)">
      <defs>
       <path id="DejaVuSans-Oblique-73" d="M 3200 3397 
L 3091 2853 
Q 2863 2978 2609 3040 
Q 2356 3103 2088 3103 
Q 1634 3103 1373 2948 
Q 1113 2794 1113 2528 
Q 1113 2219 1719 2053 
Q 1766 2041 1788 2034 
L 1972 1978 
Q 2547 1819 2739 1644 
Q 2931 1469 2931 1166 
Q 2931 609 2489 259 
Q 2047 -91 1331 -91 
Q 1053 -91 747 -37 
Q 441 16 72 128 
L 184 722 
Q 500 559 806 475 
Q 1113 391 1394 391 
Q 1816 391 2080 572 
Q 2344 753 2344 1031 
Q 2344 1331 1650 1516 
L 1591 1531 
L 1394 1581 
Q 956 1697 753 1886 
Q 550 2075 550 2369 
Q 550 2928 970 3256 
Q 1391 3584 2113 3584 
Q 2397 3584 2667 3537 
Q 2938 3491 3200 3397 
z
" transform="scale(0.015625)"/>
      </defs>
      <use xlink:href="#DejaVuSans-Oblique-54" transform="translate(0 0.09375)"/>
      <use xlink:href="#DejaVuSans-Oblique-6f" transform="translate(61.083984 -16.3125) scale(0.7)"/>
      <use xlink:href="#DejaVuSans-Oblique-73" transform="translate(103.911133 -16.3125) scale(0.7)"/>
     </g>
    </g>
    <g id="line2d_55">
     <path d="M 147.553496 14.658714 
L 159.553496 14.658714 
L 171.553496 14.658714 
" style="fill: none; stroke: #7a1514; stroke-width: 0.75; stroke-linecap: square"/>
    </g>
    <g id="text_16">
     <!-- x = 2 cm -->
     <g transform="translate(176.353496 16.758714) scale(0.06 -0.06)">
      <defs>
       <path id="DejaVuSans-78" d="M 3513 3500 
L 2247 1797 
L 3578 0 
L 2900 0 
L 1881 1375 
L 863 0 
L 184 0 
L 1544 1831 
L 300 3500 
L 978 3500 
L 1906 2253 
L 2834 3500 
L 3513 3500 
z
" transform="scale(0.015625)"/>
       <path id="DejaVuSans-3d" d="M 678 2906 
L 4684 2906 
L 4684 2381 
L 678 2381 
L 678 2906 
z
M 678 1631 
L 4684 1631 
L 4684 1100 
L 678 1100 
L 678 1631 
z
" transform="scale(0.015625)"/>
       <path id="DejaVuSans-63" d="M 3122 3366 
L 3122 2828 
Q 2878 2963 2633 3030 
Q 2388 3097 2138 3097 
Q 1578 3097 1268 2742 
Q 959 2388 959 1747 
Q 959 1106 1268 751 
Q 1578 397 2138 397 
Q 2388 397 2633 464 
Q 2878 531 3122 666 
L 3122 134 
Q 2881 22 2623 -34 
Q 2366 -91 2075 -91 
Q 1284 -91 818 406 
Q 353 903 353 1747 
Q 353 2603 823 3093 
Q 1294 3584 2113 3584 
Q 2378 3584 2631 3529 
Q 2884 3475 3122 3366 
z
" transform="scale(0.015625)"/>
      </defs>
      <use xlink:href="#DejaVuSans-78"/>
      <use xlink:href="#DejaVuSans-20" x="59.179688"/>
      <use xlink:href="#DejaVuSans-3d" x="90.966797"/>
      <use xlink:href="#DejaVuSans-20" x="174.755859"/>
      <use xlink:href="#DejaVuSans-32" x="206.542969"/>
      <use xlink:href="#DejaVuSans-20" x="270.166016"/>
      <use xlink:href="#DejaVuSans-63" x="301.953125"/>
      <use xlink:href="#DejaVuSans-6d" x="356.933594"/>
     </g>
    </g>
    <g id="line2d_56">
     <path d="M 147.553496 24.065589 
L 159.553496 24.065589 
L 171.553496 24.065589 
" style="fill: none; stroke: #ac2a1a; stroke-width: 0.75; stroke-linecap: square"/>
    </g>
    <g id="text_17">
     <!-- x = 4 cm -->
     <g transform="translate(176.353496 26.165589) scale(0.06 -0.06)">
      <use xlink:href="#DejaVuSans-78"/>
      <use xlink:href="#DejaVuSans-20" x="59.179688"/>
      <use xlink:href="#DejaVuSans-3d" x="90.966797"/>
      <use xlink:href="#DejaVuSans-20" x="174.755859"/>
      <use xlink:href="#DejaVuSans-34" x="206.542969"/>
      <use xlink:href="#DejaVuSans-20" x="270.166016"/>
      <use xlink:href="#DejaVuSans-63" x="301.953125"/>
      <use xlink:href="#DejaVuSans-6d" x="356.933594"/>
     </g>
    </g>
    <g id="line2d_57">
     <path d="M 209.914121 14.658714 
L 221.914121 14.658714 
L 233.914121 14.658714 
" style="fill: none; stroke: #c46d1c; stroke-width: 0.75; stroke-linecap: square"/>
    </g>
    <g id="text_18">
     <!-- x = 8 cm -->
     <g transform="translate(238.714121 16.758714) scale(0.06 -0.06)">
      <use xlink:href="#DejaVuSans-78"/>
      <use xlink:href="#DejaVuSans-20" x="59.179688"/>
      <use xlink:href="#DejaVuSans-3d" x="90.966797"/>
      <use xlink:href="#DejaVuSans-20" x="174.755859"/>
      <use xlink:href="#DejaVuSans-38" x="206.542969"/>
      <use xlink:href="#DejaVuSans-20" x="270.166016"/>
      <use xlink:href="#DejaVuSans-63" x="301.953125"/>
      <use xlink:href="#DejaVuSans-6d" x="356.933594"/>
     </g>
    </g>
    <g id="line2d_58">
     <path d="M 209.914121 24.065589 
L 221.914121 24.065589 
L 233.914121 24.065589 
" style="fill: none; stroke: #ffe100; stroke-width: 0.75; stroke-linecap: square"/>
    </g>
    <g id="text_19">
     <!-- ${T_{is}}$ -->
     <g transform="translate(238.714121 26.165589) scale(0.06 -0.06)">
      <defs>
       <path id="DejaVuSans-Oblique-69" d="M 1172 4863 
L 1747 4863 
L 1606 4134 
L 1031 4134 
L 1172 4863 
z
M 909 3500 
L 1484 3500 
L 800 0 
L 225 0 
L 909 3500 
z
" transform="scale(0.015625)"/>
      </defs>
      <use xlink:href="#DejaVuSans-Oblique-54" transform="translate(0 0.09375)"/>
      <use xlink:href="#DejaVuSans-Oblique-69" transform="translate(61.083984 -16.3125) scale(0.7)"/>
      <use xlink:href="#DejaVuSans-Oblique-73" transform="translate(80.532227 -16.3125) scale(0.7)"/>
     </g>
    </g>
   </g>
  </g>
 </g>
 <defs>
  <clipPath id="p63fcf4524e">
   <rect x="27.605" y="5.12" width="246.232067" height="167.965197"/>
  </clipPath>
 </defs>
</svg>
