<?xml version="1.0" encoding="utf-8" standalone="no"?>
<!DOCTYPE svg PUBLIC "-//W3C//DTD SVG 1.1//EN"
  "http://www.w3.org/Graphics/SVG/1.1/DTD/svg11.dtd">
<svg xmlns:xlink="http://www.w3.org/1999/xlink" width="283.464567pt" height="198.425197pt" viewBox="0 0 283.464567 198.425197" xmlns="http://www.w3.org/2000/svg" version="1.1">
 <metadata>
  <rdf:RDF xmlns:dc="http://purl.org/dc/elements/1.1/" xmlns:cc="http://creativecommons.org/ns#" xmlns:rdf="http://www.w3.org/1999/02/22-rdf-syntax-ns#">
   <cc:Work>
    <dc:type rdf:resource="http://purl.org/dc/dcmitype/StillImage"/>
    <dc:date>2023-10-06T15:57:52.961568</dc:date>
    <dc:format>image/svg+xml</dc:format>
    <dc:creator>
     <cc:Agent>
      <dc:title>Matplotlib v3.7.1, https://matplotlib.org/</dc:title>
     </cc:Agent>
    </dc:creator>
   </cc:Work>
  </rdf:RDF>
 </metadata>
 <defs>
  <style type="text/css">*{stroke-linejoin: round; stroke-linecap: butt}</style>
 </defs>
 <g id="figure_1">
  <g id="patch_1">
   <path d="M 0 198.425197 
L 283.464567 198.425197 
L 283.464567 0 
L 0 0 
z
" style="fill: #ffffff"/>
  </g>
  <g id="axes_1">
   <g id="patch_2">
    <path d="M 34.295 173.085197 
L 273.837067 173.085197 
L 273.837067 5.12 
L 34.295 5.12 
z
" style="fill: #ffffff"/>
   </g>
   <g id="matplotlib.axis_1">
    <g id="xtick_1">
     <g id="line2d_1">
      <path d="M 34.295 173.085197 
L 34.295 5.12 
" clip-path="url(#p5d46d483fa)" style="fill: none; stroke-dasharray: 0.925,0.4; stroke-dashoffset: 0; stroke: #404040; stroke-opacity: 0.5; stroke-width: 0.25"/>
     </g>
     <g id="line2d_2">
      <defs>
       <path id="mbdc94fd5a5" d="M 0 0 
L 0 -3.5 
" style="stroke: #000000; stroke-width: 0.5"/>
      </defs>
      <g>
       <use xlink:href="#mbdc94fd5a5" x="34.295" y="173.085197" style="stroke: #000000; stroke-width: 0.5"/>
      </g>
     </g>
     <g id="text_1">
      <!-- 120 -->
      <g transform="translate(26.66 182.663947) scale(0.08 -0.08)">
       <defs>
        <path id="DejaVuSans-31" d="M 794 531 
L 1825 531 
L 1825 4091 
L 703 3866 
L 703 4441 
L 1819 4666 
L 2450 4666 
L 2450 531 
L 3481 531 
L 3481 0 
L 794 0 
L 794 531 
z
" transform="scale(0.015625)"/>
        <path id="DejaVuSans-32" d="M 1228 531 
L 3431 531 
L 3431 0 
L 469 0 
L 469 531 
Q 828 903 1448 1529 
Q 2069 2156 2228 2338 
Q 2531 2678 2651 2914 
Q 2772 3150 2772 3378 
Q 2772 3750 2511 3984 
Q 2250 4219 1831 4219 
Q 1534 4219 1204 4116 
Q 875 4013 500 3803 
L 500 4441 
Q 881 4594 1212 4672 
Q 1544 4750 1819 4750 
Q 2544 4750 2975 4387 
Q 3406 4025 3406 3419 
Q 3406 3131 3298 2873 
Q 3191 2616 2906 2266 
Q 2828 2175 2409 1742 
Q 1991 1309 1228 531 
z
" transform="scale(0.015625)"/>
        <path id="DejaVuSans-30" d="M 2034 4250 
Q 1547 4250 1301 3770 
Q 1056 3291 1056 2328 
Q 1056 1369 1301 889 
Q 1547 409 2034 409 
Q 2525 409 2770 889 
Q 3016 1369 3016 2328 
Q 3016 3291 2770 3770 
Q 2525 4250 2034 4250 
z
M 2034 4750 
Q 2819 4750 3233 4129 
Q 3647 3509 3647 2328 
Q 3647 1150 3233 529 
Q 2819 -91 2034 -91 
Q 1250 -91 836 529 
Q 422 1150 422 2328 
Q 422 3509 836 4129 
Q 1250 4750 2034 4750 
z
" transform="scale(0.015625)"/>
       </defs>
       <use xlink:href="#DejaVuSans-31"/>
       <use xlink:href="#DejaVuSans-32" x="63.623047"/>
       <use xlink:href="#DejaVuSans-30" x="127.246094"/>
      </g>
     </g>
    </g>
    <g id="xtick_2">
     <g id="line2d_3">
      <path d="M 94.180517 173.085197 
L 94.180517 5.12 
" clip-path="url(#p5d46d483fa)" style="fill: none; stroke-dasharray: 0.925,0.4; stroke-dashoffset: 0; stroke: #404040; stroke-opacity: 0.5; stroke-width: 0.25"/>
     </g>
     <g id="line2d_4">
      <g>
       <use xlink:href="#mbdc94fd5a5" x="94.180517" y="173.085197" style="stroke: #000000; stroke-width: 0.5"/>
      </g>
     </g>
     <g id="text_2">
      <!-- 132 -->
      <g transform="translate(86.545517 182.663947) scale(0.08 -0.08)">
       <defs>
        <path id="DejaVuSans-33" d="M 2597 2516 
Q 3050 2419 3304 2112 
Q 3559 1806 3559 1356 
Q 3559 666 3084 287 
Q 2609 -91 1734 -91 
Q 1441 -91 1130 -33 
Q 819 25 488 141 
L 488 750 
Q 750 597 1062 519 
Q 1375 441 1716 441 
Q 2309 441 2620 675 
Q 2931 909 2931 1356 
Q 2931 1769 2642 2001 
Q 2353 2234 1838 2234 
L 1294 2234 
L 1294 2753 
L 1863 2753 
Q 2328 2753 2575 2939 
Q 2822 3125 2822 3475 
Q 2822 3834 2567 4026 
Q 2313 4219 1838 4219 
Q 1578 4219 1281 4162 
Q 984 4106 628 3988 
L 628 4550 
Q 988 4650 1302 4700 
Q 1616 4750 1894 4750 
Q 2613 4750 3031 4423 
Q 3450 4097 3450 3541 
Q 3450 3153 3228 2886 
Q 3006 2619 2597 2516 
z
" transform="scale(0.015625)"/>
       </defs>
       <use xlink:href="#DejaVuSans-31"/>
       <use xlink:href="#DejaVuSans-33" x="63.623047"/>
       <use xlink:href="#DejaVuSans-32" x="127.246094"/>
      </g>
     </g>
    </g>
    <g id="xtick_3">
     <g id="line2d_5">
      <path d="M 154.066033 173.085197 
L 154.066033 5.12 
" clip-path="url(#p5d46d483fa)" style="fill: none; stroke-dasharray: 0.925,0.4; stroke-dashoffset: 0; stroke: #404040; stroke-opacity: 0.5; stroke-width: 0.25"/>
     </g>
     <g id="line2d_6">
      <g>
       <use xlink:href="#mbdc94fd5a5" x="154.066033" y="173.085197" style="stroke: #000000; stroke-width: 0.5"/>
      </g>
     </g>
     <g id="text_3">
      <!-- 144 -->
      <g transform="translate(146.431033 182.663947) scale(0.08 -0.08)">
       <defs>
        <path id="DejaVuSans-34" d="M 2419 4116 
L 825 1625 
L 2419 1625 
L 2419 4116 
z
M 2253 4666 
L 3047 4666 
L 3047 1625 
L 3713 1625 
L 3713 1100 
L 3047 1100 
L 3047 0 
L 2419 0 
L 2419 1100 
L 313 1100 
L 313 1709 
L 2253 4666 
z
" transform="scale(0.015625)"/>
       </defs>
       <use xlink:href="#DejaVuSans-31"/>
       <use xlink:href="#DejaVuSans-34" x="63.623047"/>
       <use xlink:href="#DejaVuSans-34" x="127.246094"/>
      </g>
     </g>
    </g>
    <g id="xtick_4">
     <g id="line2d_7">
      <path d="M 213.95155 173.085197 
L 213.95155 5.12 
" clip-path="url(#p5d46d483fa)" style="fill: none; stroke-dasharray: 0.925,0.4; stroke-dashoffset: 0; stroke: #404040; stroke-opacity: 0.5; stroke-width: 0.25"/>
     </g>
     <g id="line2d_8">
      <g>
       <use xlink:href="#mbdc94fd5a5" x="213.95155" y="173.085197" style="stroke: #000000; stroke-width: 0.5"/>
      </g>
     </g>
     <g id="text_4">
      <!-- 156 -->
      <g transform="translate(206.31655 182.663947) scale(0.08 -0.08)">
       <defs>
        <path id="DejaVuSans-35" d="M 691 4666 
L 3169 4666 
L 3169 4134 
L 1269 4134 
L 1269 2991 
Q 1406 3038 1543 3061 
Q 1681 3084 1819 3084 
Q 2600 3084 3056 2656 
Q 3513 2228 3513 1497 
Q 3513 744 3044 326 
Q 2575 -91 1722 -91 
Q 1428 -91 1123 -41 
Q 819 9 494 109 
L 494 744 
Q 775 591 1075 516 
Q 1375 441 1709 441 
Q 2250 441 2565 725 
Q 2881 1009 2881 1497 
Q 2881 1984 2565 2268 
Q 2250 2553 1709 2553 
Q 1456 2553 1204 2497 
Q 953 2441 691 2322 
L 691 4666 
z
" transform="scale(0.015625)"/>
        <path id="DejaVuSans-36" d="M 2113 2584 
Q 1688 2584 1439 2293 
Q 1191 2003 1191 1497 
Q 1191 994 1439 701 
Q 1688 409 2113 409 
Q 2538 409 2786 701 
Q 3034 994 3034 1497 
Q 3034 2003 2786 2293 
Q 2538 2584 2113 2584 
z
M 3366 4563 
L 3366 3988 
Q 3128 4100 2886 4159 
Q 2644 4219 2406 4219 
Q 1781 4219 1451 3797 
Q 1122 3375 1075 2522 
Q 1259 2794 1537 2939 
Q 1816 3084 2150 3084 
Q 2853 3084 3261 2657 
Q 3669 2231 3669 1497 
Q 3669 778 3244 343 
Q 2819 -91 2113 -91 
Q 1303 -91 875 529 
Q 447 1150 447 2328 
Q 447 3434 972 4092 
Q 1497 4750 2381 4750 
Q 2619 4750 2861 4703 
Q 3103 4656 3366 4563 
z
" transform="scale(0.015625)"/>
       </defs>
       <use xlink:href="#DejaVuSans-31"/>
       <use xlink:href="#DejaVuSans-35" x="63.623047"/>
       <use xlink:href="#DejaVuSans-36" x="127.246094"/>
      </g>
     </g>
    </g>
    <g id="xtick_5">
     <g id="line2d_9">
      <path d="M 273.837067 173.085197 
L 273.837067 5.12 
" clip-path="url(#p5d46d483fa)" style="fill: none; stroke-dasharray: 0.925,0.4; stroke-dashoffset: 0; stroke: #404040; stroke-opacity: 0.5; stroke-width: 0.25"/>
     </g>
     <g id="line2d_10">
      <g>
       <use xlink:href="#mbdc94fd5a5" x="273.837067" y="173.085197" style="stroke: #000000; stroke-width: 0.5"/>
      </g>
     </g>
     <g id="text_5">
      <!-- 168 -->
      <g transform="translate(266.202067 182.663947) scale(0.08 -0.08)">
       <defs>
        <path id="DejaVuSans-38" d="M 2034 2216 
Q 1584 2216 1326 1975 
Q 1069 1734 1069 1313 
Q 1069 891 1326 650 
Q 1584 409 2034 409 
Q 2484 409 2743 651 
Q 3003 894 3003 1313 
Q 3003 1734 2745 1975 
Q 2488 2216 2034 2216 
z
M 1403 2484 
Q 997 2584 770 2862 
Q 544 3141 544 3541 
Q 544 4100 942 4425 
Q 1341 4750 2034 4750 
Q 2731 4750 3128 4425 
Q 3525 4100 3525 3541 
Q 3525 3141 3298 2862 
Q 3072 2584 2669 2484 
Q 3125 2378 3379 2068 
Q 3634 1759 3634 1313 
Q 3634 634 3220 271 
Q 2806 -91 2034 -91 
Q 1263 -91 848 271 
Q 434 634 434 1313 
Q 434 1759 690 2068 
Q 947 2378 1403 2484 
z
M 1172 3481 
Q 1172 3119 1398 2916 
Q 1625 2713 2034 2713 
Q 2441 2713 2670 2916 
Q 2900 3119 2900 3481 
Q 2900 3844 2670 4047 
Q 2441 4250 2034 4250 
Q 1625 4250 1398 4047 
Q 1172 3844 1172 3481 
z
" transform="scale(0.015625)"/>
       </defs>
       <use xlink:href="#DejaVuSans-31"/>
       <use xlink:href="#DejaVuSans-36" x="63.623047"/>
       <use xlink:href="#DejaVuSans-38" x="127.246094"/>
      </g>
     </g>
    </g>
    <g id="xtick_6">
     <g id="line2d_11">
      <defs>
       <path id="m3415909681" d="M 0 0 
L 0 -2 
" style="stroke: #000000; stroke-width: 0.35"/>
      </defs>
      <g>
       <use xlink:href="#m3415909681" x="64.237758" y="173.085197" style="stroke: #000000; stroke-width: 0.35"/>
      </g>
     </g>
    </g>
    <g id="xtick_7">
     <g id="line2d_12">
      <g>
       <use xlink:href="#m3415909681" x="124.123275" y="173.085197" style="stroke: #000000; stroke-width: 0.35"/>
      </g>
     </g>
    </g>
    <g id="xtick_8">
     <g id="line2d_13">
      <g>
       <use xlink:href="#m3415909681" x="184.008792" y="173.085197" style="stroke: #000000; stroke-width: 0.35"/>
      </g>
     </g>
    </g>
    <g id="xtick_9">
     <g id="line2d_14">
      <g>
       <use xlink:href="#m3415909681" x="243.894309" y="173.085197" style="stroke: #000000; stroke-width: 0.35"/>
      </g>
     </g>
    </g>
    <g id="text_6">
     <!-- Hour [h] -->
     <g transform="translate(137.503533 194.406447) scale(0.08 -0.08)">
      <defs>
       <path id="DejaVuSans-48" d="M 628 4666 
L 1259 4666 
L 1259 2753 
L 3553 2753 
L 3553 4666 
L 4184 4666 
L 4184 0 
L 3553 0 
L 3553 2222 
L 1259 2222 
L 1259 0 
L 628 0 
L 628 4666 
z
" transform="scale(0.015625)"/>
       <path id="DejaVuSans-6f" d="M 1959 3097 
Q 1497 3097 1228 2736 
Q 959 2375 959 1747 
Q 959 1119 1226 758 
Q 1494 397 1959 397 
Q 2419 397 2687 759 
Q 2956 1122 2956 1747 
Q 2956 2369 2687 2733 
Q 2419 3097 1959 3097 
z
M 1959 3584 
Q 2709 3584 3137 3096 
Q 3566 2609 3566 1747 
Q 3566 888 3137 398 
Q 2709 -91 1959 -91 
Q 1206 -91 779 398 
Q 353 888 353 1747 
Q 353 2609 779 3096 
Q 1206 3584 1959 3584 
z
" transform="scale(0.015625)"/>
       <path id="DejaVuSans-75" d="M 544 1381 
L 544 3500 
L 1119 3500 
L 1119 1403 
Q 1119 906 1312 657 
Q 1506 409 1894 409 
Q 2359 409 2629 706 
Q 2900 1003 2900 1516 
L 2900 3500 
L 3475 3500 
L 3475 0 
L 2900 0 
L 2900 538 
Q 2691 219 2414 64 
Q 2138 -91 1772 -91 
Q 1169 -91 856 284 
Q 544 659 544 1381 
z
M 1991 3584 
L 1991 3584 
z
" transform="scale(0.015625)"/>
       <path id="DejaVuSans-72" d="M 2631 2963 
Q 2534 3019 2420 3045 
Q 2306 3072 2169 3072 
Q 1681 3072 1420 2755 
Q 1159 2438 1159 1844 
L 1159 0 
L 581 0 
L 581 3500 
L 1159 3500 
L 1159 2956 
Q 1341 3275 1631 3429 
Q 1922 3584 2338 3584 
Q 2397 3584 2469 3576 
Q 2541 3569 2628 3553 
L 2631 2963 
z
" transform="scale(0.015625)"/>
       <path id="DejaVuSans-20" transform="scale(0.015625)"/>
       <path id="DejaVuSans-5b" d="M 550 4863 
L 1875 4863 
L 1875 4416 
L 1125 4416 
L 1125 -397 
L 1875 -397 
L 1875 -844 
L 550 -844 
L 550 4863 
z
" transform="scale(0.015625)"/>
       <path id="DejaVuSans-68" d="M 3513 2113 
L 3513 0 
L 2938 0 
L 2938 2094 
Q 2938 2591 2744 2837 
Q 2550 3084 2163 3084 
Q 1697 3084 1428 2787 
Q 1159 2491 1159 1978 
L 1159 0 
L 581 0 
L 581 4863 
L 1159 4863 
L 1159 2956 
Q 1366 3272 1645 3428 
Q 1925 3584 2291 3584 
Q 2894 3584 3203 3211 
Q 3513 2838 3513 2113 
z
" transform="scale(0.015625)"/>
       <path id="DejaVuSans-5d" d="M 1947 4863 
L 1947 -844 
L 622 -844 
L 622 -397 
L 1369 -397 
L 1369 4416 
L 622 4416 
L 622 4863 
L 1947 4863 
z
" transform="scale(0.015625)"/>
      </defs>
      <use xlink:href="#DejaVuSans-48"/>
      <use xlink:href="#DejaVuSans-6f" x="75.195312"/>
      <use xlink:href="#DejaVuSans-75" x="136.376953"/>
      <use xlink:href="#DejaVuSans-72" x="199.755859"/>
      <use xlink:href="#DejaVuSans-20" x="240.869141"/>
      <use xlink:href="#DejaVuSans-5b" x="272.65625"/>
      <use xlink:href="#DejaVuSans-68" x="311.669922"/>
      <use xlink:href="#DejaVuSans-5d" x="375.048828"/>
     </g>
    </g>
   </g>
   <g id="matplotlib.axis_2">
    <g id="ytick_1">
     <g id="line2d_15">
      <path d="M 34.295 173.085197 
L 273.837067 173.085197 
" clip-path="url(#p5d46d483fa)" style="fill: none; stroke-dasharray: 0.925,0.4; stroke-dashoffset: 0; stroke: #404040; stroke-opacity: 0.5; stroke-width: 0.25"/>
     </g>
     <g id="line2d_16">
      <defs>
       <path id="m9f792ff41c" d="M 0 0 
L 3.5 0 
" style="stroke: #000000; stroke-width: 0.5"/>
      </defs>
      <g>
       <use xlink:href="#m9f792ff41c" x="34.295" y="173.085197" style="stroke: #000000; stroke-width: 0.5"/>
      </g>
     </g>
     <g id="text_7">
      <!-- −20 -->
      <g transform="translate(13.91125 176.124572) scale(0.08 -0.08)">
       <defs>
        <path id="DejaVuSans-2212" d="M 678 2272 
L 4684 2272 
L 4684 1741 
L 678 1741 
L 678 2272 
z
" transform="scale(0.015625)"/>
       </defs>
       <use xlink:href="#DejaVuSans-2212"/>
       <use xlink:href="#DejaVuSans-32" x="83.789062"/>
       <use xlink:href="#DejaVuSans-30" x="147.412109"/>
      </g>
     </g>
    </g>
    <g id="ytick_2">
     <g id="line2d_17">
      <path d="M 34.295 139.492157 
L 273.837067 139.492157 
" clip-path="url(#p5d46d483fa)" style="fill: none; stroke-dasharray: 0.925,0.4; stroke-dashoffset: 0; stroke: #404040; stroke-opacity: 0.5; stroke-width: 0.25"/>
     </g>
     <g id="line2d_18">
      <g>
       <use xlink:href="#m9f792ff41c" x="34.295" y="139.492157" style="stroke: #000000; stroke-width: 0.5"/>
      </g>
     </g>
     <g id="text_8">
      <!-- −10 -->
      <g transform="translate(13.91125 142.531532) scale(0.08 -0.08)">
       <use xlink:href="#DejaVuSans-2212"/>
       <use xlink:href="#DejaVuSans-31" x="83.789062"/>
       <use xlink:href="#DejaVuSans-30" x="147.412109"/>
      </g>
     </g>
    </g>
    <g id="ytick_3">
     <g id="line2d_19">
      <path d="M 34.295 105.899118 
L 273.837067 105.899118 
" clip-path="url(#p5d46d483fa)" style="fill: none; stroke-dasharray: 0.925,0.4; stroke-dashoffset: 0; stroke: #404040; stroke-opacity: 0.5; stroke-width: 0.25"/>
     </g>
     <g id="line2d_20">
      <g>
       <use xlink:href="#m9f792ff41c" x="34.295" y="105.899118" style="stroke: #000000; stroke-width: 0.5"/>
      </g>
     </g>
     <g id="text_9">
      <!-- 0 -->
      <g transform="translate(25.705 108.938493) scale(0.08 -0.08)">
       <use xlink:href="#DejaVuSans-30"/>
      </g>
     </g>
    </g>
    <g id="ytick_4">
     <g id="line2d_21">
      <path d="M 34.295 72.306079 
L 273.837067 72.306079 
" clip-path="url(#p5d46d483fa)" style="fill: none; stroke-dasharray: 0.925,0.4; stroke-dashoffset: 0; stroke: #404040; stroke-opacity: 0.5; stroke-width: 0.25"/>
     </g>
     <g id="line2d_22">
      <g>
       <use xlink:href="#m9f792ff41c" x="34.295" y="72.306079" style="stroke: #000000; stroke-width: 0.5"/>
      </g>
     </g>
     <g id="text_10">
      <!-- 10 -->
      <g transform="translate(20.615 75.345454) scale(0.08 -0.08)">
       <use xlink:href="#DejaVuSans-31"/>
       <use xlink:href="#DejaVuSans-30" x="63.623047"/>
      </g>
     </g>
    </g>
    <g id="ytick_5">
     <g id="line2d_23">
      <path d="M 34.295 38.713039 
L 273.837067 38.713039 
" clip-path="url(#p5d46d483fa)" style="fill: none; stroke-dasharray: 0.925,0.4; stroke-dashoffset: 0; stroke: #404040; stroke-opacity: 0.5; stroke-width: 0.25"/>
     </g>
     <g id="line2d_24">
      <g>
       <use xlink:href="#m9f792ff41c" x="34.295" y="38.713039" style="stroke: #000000; stroke-width: 0.5"/>
      </g>
     </g>
     <g id="text_11">
      <!-- 20 -->
      <g transform="translate(20.615 41.752414) scale(0.08 -0.08)">
       <use xlink:href="#DejaVuSans-32"/>
       <use xlink:href="#DejaVuSans-30" x="63.623047"/>
      </g>
     </g>
    </g>
    <g id="ytick_6">
     <g id="line2d_25">
      <path d="M 34.295 5.12 
L 273.837067 5.12 
" clip-path="url(#p5d46d483fa)" style="fill: none; stroke-dasharray: 0.925,0.4; stroke-dashoffset: 0; stroke: #404040; stroke-opacity: 0.5; stroke-width: 0.25"/>
     </g>
     <g id="line2d_26">
      <g>
       <use xlink:href="#m9f792ff41c" x="34.295" y="5.12" style="stroke: #000000; stroke-width: 0.5"/>
      </g>
     </g>
     <g id="text_12">
      <!-- 30 -->
      <g transform="translate(20.615 8.159375) scale(0.08 -0.08)">
       <use xlink:href="#DejaVuSans-33"/>
       <use xlink:href="#DejaVuSans-30" x="63.623047"/>
      </g>
     </g>
    </g>
    <g id="ytick_7">
     <g id="line2d_27">
      <defs>
       <path id="mdd039277b0" d="M 0 0 
L 2 0 
" style="stroke: #000000; stroke-width: 0.35"/>
      </defs>
      <g>
       <use xlink:href="#mdd039277b0" x="34.295" y="166.366589" style="stroke: #000000; stroke-width: 0.35"/>
      </g>
     </g>
    </g>
    <g id="ytick_8">
     <g id="line2d_28">
      <g>
       <use xlink:href="#mdd039277b0" x="34.295" y="159.647981" style="stroke: #000000; stroke-width: 0.35"/>
      </g>
     </g>
    </g>
    <g id="ytick_9">
     <g id="line2d_29">
      <g>
       <use xlink:href="#mdd039277b0" x="34.295" y="152.929373" style="stroke: #000000; stroke-width: 0.35"/>
      </g>
     </g>
    </g>
    <g id="ytick_10">
     <g id="line2d_30">
      <g>
       <use xlink:href="#mdd039277b0" x="34.295" y="146.210765" style="stroke: #000000; stroke-width: 0.35"/>
      </g>
     </g>
    </g>
    <g id="ytick_11">
     <g id="line2d_31">
      <g>
       <use xlink:href="#mdd039277b0" x="34.295" y="132.77355" style="stroke: #000000; stroke-width: 0.35"/>
      </g>
     </g>
    </g>
    <g id="ytick_12">
     <g id="line2d_32">
      <g>
       <use xlink:href="#mdd039277b0" x="34.295" y="126.054942" style="stroke: #000000; stroke-width: 0.35"/>
      </g>
     </g>
    </g>
    <g id="ytick_13">
     <g id="line2d_33">
      <g>
       <use xlink:href="#mdd039277b0" x="34.295" y="119.336334" style="stroke: #000000; stroke-width: 0.35"/>
      </g>
     </g>
    </g>
    <g id="ytick_14">
     <g id="line2d_34">
      <g>
       <use xlink:href="#mdd039277b0" x="34.295" y="112.617726" style="stroke: #000000; stroke-width: 0.35"/>
      </g>
     </g>
    </g>
    <g id="ytick_15">
     <g id="line2d_35">
      <g>
       <use xlink:href="#mdd039277b0" x="34.295" y="99.18051" style="stroke: #000000; stroke-width: 0.35"/>
      </g>
     </g>
    </g>
    <g id="ytick_16">
     <g id="line2d_36">
      <g>
       <use xlink:href="#mdd039277b0" x="34.295" y="92.461902" style="stroke: #000000; stroke-width: 0.35"/>
      </g>
     </g>
    </g>
    <g id="ytick_17">
     <g id="line2d_37">
      <g>
       <use xlink:href="#mdd039277b0" x="34.295" y="85.743294" style="stroke: #000000; stroke-width: 0.35"/>
      </g>
     </g>
    </g>
    <g id="ytick_18">
     <g id="line2d_38">
      <g>
       <use xlink:href="#mdd039277b0" x="34.295" y="79.024687" style="stroke: #000000; stroke-width: 0.35"/>
      </g>
     </g>
    </g>
    <g id="ytick_19">
     <g id="line2d_39">
      <g>
       <use xlink:href="#mdd039277b0" x="34.295" y="65.587471" style="stroke: #000000; stroke-width: 0.35"/>
      </g>
     </g>
    </g>
    <g id="ytick_20">
     <g id="line2d_40">
      <g>
       <use xlink:href="#mdd039277b0" x="34.295" y="58.868863" style="stroke: #000000; stroke-width: 0.35"/>
      </g>
     </g>
    </g>
    <g id="ytick_21">
     <g id="line2d_41">
      <g>
       <use xlink:href="#mdd039277b0" x="34.295" y="52.150255" style="stroke: #000000; stroke-width: 0.35"/>
      </g>
     </g>
    </g>
    <g id="ytick_22">
     <g id="line2d_42">
      <g>
       <use xlink:href="#mdd039277b0" x="34.295" y="45.431647" style="stroke: #000000; stroke-width: 0.35"/>
      </g>
     </g>
    </g>
    <g id="ytick_23">
     <g id="line2d_43">
      <g>
       <use xlink:href="#mdd039277b0" x="34.295" y="31.994431" style="stroke: #000000; stroke-width: 0.35"/>
      </g>
     </g>
    </g>
    <g id="ytick_24">
     <g id="line2d_44">
      <g>
       <use xlink:href="#mdd039277b0" x="34.295" y="25.275824" style="stroke: #000000; stroke-width: 0.35"/>
      </g>
     </g>
    </g>
    <g id="ytick_25">
     <g id="line2d_45">
      <g>
       <use xlink:href="#mdd039277b0" x="34.295" y="18.557216" style="stroke: #000000; stroke-width: 0.35"/>
      </g>
     </g>
    </g>
    <g id="ytick_26">
     <g id="line2d_46">
      <g>
       <use xlink:href="#mdd039277b0" x="34.295" y="11.838608" style="stroke: #000000; stroke-width: 0.35"/>
      </g>
     </g>
    </g>
    <g id="text_13">
     <!-- Temperature [°C] -->
     <g transform="translate(8.2475 123.623848) rotate(-90) scale(0.08 -0.08)">
      <defs>
       <path id="DejaVuSans-54" d="M -19 4666 
L 3928 4666 
L 3928 4134 
L 2272 4134 
L 2272 0 
L 1638 0 
L 1638 4134 
L -19 4134 
L -19 4666 
z
" transform="scale(0.015625)"/>
       <path id="DejaVuSans-65" d="M 3597 1894 
L 3597 1613 
L 953 1613 
Q 991 1019 1311 708 
Q 1631 397 2203 397 
Q 2534 397 2845 478 
Q 3156 559 3463 722 
L 3463 178 
Q 3153 47 2828 -22 
Q 2503 -91 2169 -91 
Q 1331 -91 842 396 
Q 353 884 353 1716 
Q 353 2575 817 3079 
Q 1281 3584 2069 3584 
Q 2775 3584 3186 3129 
Q 3597 2675 3597 1894 
z
M 3022 2063 
Q 3016 2534 2758 2815 
Q 2500 3097 2075 3097 
Q 1594 3097 1305 2825 
Q 1016 2553 972 2059 
L 3022 2063 
z
" transform="scale(0.015625)"/>
       <path id="DejaVuSans-6d" d="M 3328 2828 
Q 3544 3216 3844 3400 
Q 4144 3584 4550 3584 
Q 5097 3584 5394 3201 
Q 5691 2819 5691 2113 
L 5691 0 
L 5113 0 
L 5113 2094 
Q 5113 2597 4934 2840 
Q 4756 3084 4391 3084 
Q 3944 3084 3684 2787 
Q 3425 2491 3425 1978 
L 3425 0 
L 2847 0 
L 2847 2094 
Q 2847 2600 2669 2842 
Q 2491 3084 2119 3084 
Q 1678 3084 1418 2786 
Q 1159 2488 1159 1978 
L 1159 0 
L 581 0 
L 581 3500 
L 1159 3500 
L 1159 2956 
Q 1356 3278 1631 3431 
Q 1906 3584 2284 3584 
Q 2666 3584 2933 3390 
Q 3200 3197 3328 2828 
z
" transform="scale(0.015625)"/>
       <path id="DejaVuSans-70" d="M 1159 525 
L 1159 -1331 
L 581 -1331 
L 581 3500 
L 1159 3500 
L 1159 2969 
Q 1341 3281 1617 3432 
Q 1894 3584 2278 3584 
Q 2916 3584 3314 3078 
Q 3713 2572 3713 1747 
Q 3713 922 3314 415 
Q 2916 -91 2278 -91 
Q 1894 -91 1617 61 
Q 1341 213 1159 525 
z
M 3116 1747 
Q 3116 2381 2855 2742 
Q 2594 3103 2138 3103 
Q 1681 3103 1420 2742 
Q 1159 2381 1159 1747 
Q 1159 1113 1420 752 
Q 1681 391 2138 391 
Q 2594 391 2855 752 
Q 3116 1113 3116 1747 
z
" transform="scale(0.015625)"/>
       <path id="DejaVuSans-61" d="M 2194 1759 
Q 1497 1759 1228 1600 
Q 959 1441 959 1056 
Q 959 750 1161 570 
Q 1363 391 1709 391 
Q 2188 391 2477 730 
Q 2766 1069 2766 1631 
L 2766 1759 
L 2194 1759 
z
M 3341 1997 
L 3341 0 
L 2766 0 
L 2766 531 
Q 2569 213 2275 61 
Q 1981 -91 1556 -91 
Q 1019 -91 701 211 
Q 384 513 384 1019 
Q 384 1609 779 1909 
Q 1175 2209 1959 2209 
L 2766 2209 
L 2766 2266 
Q 2766 2663 2505 2880 
Q 2244 3097 1772 3097 
Q 1472 3097 1187 3025 
Q 903 2953 641 2809 
L 641 3341 
Q 956 3463 1253 3523 
Q 1550 3584 1831 3584 
Q 2591 3584 2966 3190 
Q 3341 2797 3341 1997 
z
" transform="scale(0.015625)"/>
       <path id="DejaVuSans-74" d="M 1172 4494 
L 1172 3500 
L 2356 3500 
L 2356 3053 
L 1172 3053 
L 1172 1153 
Q 1172 725 1289 603 
Q 1406 481 1766 481 
L 2356 481 
L 2356 0 
L 1766 0 
Q 1100 0 847 248 
Q 594 497 594 1153 
L 594 3053 
L 172 3053 
L 172 3500 
L 594 3500 
L 594 4494 
L 1172 4494 
z
" transform="scale(0.015625)"/>
       <path id="DejaVuSans-b0" d="M 1600 4347 
Q 1350 4347 1178 4173 
Q 1006 4000 1006 3750 
Q 1006 3503 1178 3333 
Q 1350 3163 1600 3163 
Q 1850 3163 2022 3333 
Q 2194 3503 2194 3750 
Q 2194 3997 2020 4172 
Q 1847 4347 1600 4347 
z
M 1600 4750 
Q 1800 4750 1984 4673 
Q 2169 4597 2303 4453 
Q 2447 4313 2519 4134 
Q 2591 3956 2591 3750 
Q 2591 3338 2302 3052 
Q 2013 2766 1594 2766 
Q 1172 2766 890 3047 
Q 609 3328 609 3750 
Q 609 4169 896 4459 
Q 1184 4750 1600 4750 
z
" transform="scale(0.015625)"/>
       <path id="DejaVuSans-43" d="M 4122 4306 
L 4122 3641 
Q 3803 3938 3442 4084 
Q 3081 4231 2675 4231 
Q 1875 4231 1450 3742 
Q 1025 3253 1025 2328 
Q 1025 1406 1450 917 
Q 1875 428 2675 428 
Q 3081 428 3442 575 
Q 3803 722 4122 1019 
L 4122 359 
Q 3791 134 3420 21 
Q 3050 -91 2638 -91 
Q 1578 -91 968 557 
Q 359 1206 359 2328 
Q 359 3453 968 4101 
Q 1578 4750 2638 4750 
Q 3056 4750 3426 4639 
Q 3797 4528 4122 4306 
z
" transform="scale(0.015625)"/>
      </defs>
      <use xlink:href="#DejaVuSans-54"/>
      <use xlink:href="#DejaVuSans-65" x="44.083984"/>
      <use xlink:href="#DejaVuSans-6d" x="105.607422"/>
      <use xlink:href="#DejaVuSans-70" x="203.019531"/>
      <use xlink:href="#DejaVuSans-65" x="266.496094"/>
      <use xlink:href="#DejaVuSans-72" x="328.019531"/>
      <use xlink:href="#DejaVuSans-61" x="369.132812"/>
      <use xlink:href="#DejaVuSans-74" x="430.412109"/>
      <use xlink:href="#DejaVuSans-75" x="469.621094"/>
      <use xlink:href="#DejaVuSans-72" x="533"/>
      <use xlink:href="#DejaVuSans-65" x="571.863281"/>
      <use xlink:href="#DejaVuSans-20" x="633.386719"/>
      <use xlink:href="#DejaVuSans-5b" x="665.173828"/>
      <use xlink:href="#DejaVuSans-b0" x="704.1875"/>
      <use xlink:href="#DejaVuSans-43" x="754.1875"/>
      <use xlink:href="#DejaVuSans-5d" x="824.011719"/>
     </g>
    </g>
   </g>
   <g id="line2d_47">
    <path d="M 33.463257 105.899118 
L 49.266379 108.97848 
L 63.406015 109.930283 
L 70.059961 107.130863 
L 75.050421 104.891327 
L 78.377394 103.547605 
L 93.348773 92.461902 
L 108.320153 85.407364 
L 114.974099 89.998413 
L 119.964559 93.58167 
L 124.123275 96.269113 
L 129.945478 99.292487 
L 134.935938 101.755977 
L 138.262911 103.547605 
L 153.23429 106.570979 
L 159.888236 109.146445 
L 164.878696 110.938074 
L 168.205669 112.281796 
L 174.859616 113.737494 
L 179.850075 114.969239 
L 183.177049 115.6411 
L 189.830995 114.633308 
L 194.821455 113.737494 
L 198.148428 113.289587 
L 205.634117 103.04371 
L 210.624577 96.157137 
L 213.119807 92.797833 
L 228.091186 87.758877 
L 234.745132 91.678065 
L 239.735592 94.477485 
L 244.726052 97.388881 
L 249.716512 100.188301 
L 254.706971 103.099698 
L 258.033944 104.891327 
L 274.66881 108.250631 
L 274.66881 108.250631 
" clip-path="url(#p5d46d483fa)" style="fill: none; stroke-dasharray: 2.775,1.2; stroke-dashoffset: 0; stroke: #000000; stroke-width: 0.75"/>
   </g>
   <g id="line2d_48">
    <path d="M 33.463257 90.733199 
L 36.79023 92.104669 
L 40.948946 93.545953 
L 46.771149 95.298182 
L 53.425096 97.038152 
L 60.910785 98.769708 
L 64.237758 99.400288 
L 66.732988 99.520516 
L 70.059961 99.375675 
L 71.723448 99.214596 
L 72.555191 97.709967 
L 74.218678 92.82691 
L 76.713908 85.179438 
L 79.209138 77.306377 
L 85.031341 57.357181 
L 87.52657 49.053948 
L 90.0218 41.792185 
L 91.685287 37.488922 
L 93.348773 34.122204 
L 94.180517 32.743136 
L 95.01226 31.614617 
L 96.675747 29.839521 
L 98.339233 28.261867 
L 100.00272 26.892632 
L 101.666206 25.63982 
L 103.329693 24.090583 
L 104.993179 22.467485 
L 105.824923 21.755744 
L 106.656666 21.311875 
L 107.488409 21.175642 
L 108.320153 21.267908 
L 109.151896 21.606667 
L 109.983639 22.177897 
L 110.815382 22.946317 
L 111.647126 24.267466 
L 112.478869 26.181526 
L 114.142356 31.111401 
L 116.637586 40.003815 
L 121.628045 57.737087 
L 123.291532 62.083988 
L 124.955018 65.441979 
L 126.618505 68.133216 
L 128.281992 70.389219 
L 129.945478 72.332287 
L 132.440708 74.837961 
L 134.935938 77.019641 
L 138.262911 79.610726 
L 141.589884 81.888115 
L 144.916857 83.903639 
L 149.075574 86.127819 
L 154.066033 88.480149 
L 169.869156 95.967544 
L 172.364386 96.752276 
L 177.354846 98.008042 
L 180.681819 98.685556 
L 184.008792 99.186594 
L 187.335765 99.442738 
L 190.662738 99.491332 
L 191.494481 99.470781 
L 192.326225 97.491 
L 193.157968 94.939201 
L 194.821455 91.047774 
L 196.484941 88.048184 
L 199.811914 82.323196 
L 202.307144 77.59076 
L 203.138887 75.885285 
L 205.634117 69.726487 
L 208.129347 63.036491 
L 209.792834 57.986707 
L 212.288064 49.91094 
L 213.95155 45.012129 
L 215.615037 40.606828 
L 216.44678 38.657136 
L 217.278523 37.021895 
L 218.110267 35.683075 
L 218.94201 34.596563 
L 219.773753 33.73555 
L 220.605497 33.071833 
L 221.43724 32.662217 
L 222.268983 32.503547 
L 223.100726 32.547558 
L 223.93247 32.755437 
L 224.764213 33.101832 
L 225.595956 33.573928 
L 226.4277 34.205092 
L 228.091186 35.902538 
L 229.754673 37.978158 
L 230.586416 39.152026 
L 231.418159 40.550155 
L 233.081646 44.126156 
L 234.745132 48.323031 
L 237.240362 54.872809 
L 239.735592 61.191095 
L 241.399079 65.178805 
L 243.062565 68.122065 
L 244.726052 70.48889 
L 246.389538 72.521376 
L 248.884768 75.14766 
L 251.379998 77.460176 
L 254.706971 80.225039 
L 258.033944 82.716893 
L 260.529174 84.346076 
L 263.856147 86.215117 
L 268.014864 88.23489 
L 272.17358 89.994001 
L 274.66881 90.915032 
L 274.66881 90.915032 
" clip-path="url(#p5d46d483fa)" style="fill: none; stroke: #180f0d; stroke-width: 0.75; stroke-linecap: square"/>
   </g>
   <g id="line2d_49">
    <path d="M 33.463257 89.348516 
L 35.958487 90.45918 
L 40.117203 92.015268 
L 45.107663 93.627005 
L 50.929866 95.275714 
L 58.415555 97.135372 
L 64.237758 98.395303 
L 66.732988 98.625363 
L 69.228218 98.630414 
L 72.555191 98.412576 
L 74.218678 94.386109 
L 79.209138 80.063154 
L 81.704367 72.047867 
L 88.358314 50.462017 
L 90.853544 43.417297 
L 92.51703 39.24839 
L 94.180517 35.938369 
L 95.844003 33.459947 
L 98.339233 30.72666 
L 100.834463 28.464215 
L 102.49795 27.091649 
L 104.161436 25.436752 
L 105.824923 23.811549 
L 106.656666 23.088237 
L 107.488409 22.689152 
L 108.320153 22.529608 
L 109.151896 22.576856 
L 109.983639 22.868276 
L 110.815382 23.36611 
L 111.647126 24.048144 
L 112.478869 25.393336 
L 113.310612 27.192761 
L 114.974099 31.781837 
L 117.469329 40.014429 
L 120.796302 51.257933 
L 121.628045 54.143672 
L 123.291532 58.767564 
L 124.955018 62.39981 
L 126.618505 65.301649 
L 128.281992 67.726674 
L 129.945478 69.816781 
L 132.440708 72.503808 
L 134.935938 74.829385 
L 138.262911 77.57758 
L 141.589884 80.002169 
L 144.916857 82.144706 
L 148.24383 84.057302 
L 152.402547 86.187372 
L 159.888236 89.873794 
L 167.373926 93.479118 
L 169.869156 94.604087 
L 172.364386 95.470146 
L 176.523102 96.614648 
L 180.681819 97.57107 
L 184.840535 98.258441 
L 188.167508 98.551106 
L 191.494481 98.638773 
L 192.326225 98.629283 
L 193.157968 96.037965 
L 194.821455 92.208367 
L 196.484941 89.1551 
L 200.643658 82.322042 
L 203.138887 77.766291 
L 203.970631 76.120757 
L 207.297604 68.091215 
L 209.792834 61.435574 
L 213.119807 51.098137 
L 214.783293 46.392146 
L 216.44678 42.122339 
L 217.278523 40.254206 
L 218.110267 38.692517 
L 218.94201 37.37792 
L 219.773753 36.295552 
L 220.605497 35.416159 
L 221.43724 34.719557 
L 222.268983 34.289473 
L 223.100726 34.075022 
L 223.93247 34.048498 
L 224.764213 34.169998 
L 225.595956 34.426554 
L 226.4277 34.804029 
L 227.259443 35.352691 
L 228.922929 36.842705 
L 229.754673 37.679706 
L 231.418159 39.745727 
L 232.249903 41.106891 
L 233.913389 44.442735 
L 235.576876 48.357451 
L 238.072106 54.431204 
L 239.735592 58.407333 
L 241.399079 62.421447 
L 243.062565 65.605402 
L 244.726052 68.107583 
L 246.389538 70.248415 
L 248.884768 73.000067 
L 251.379998 75.406481 
L 254.706971 78.276626 
L 258.033944 80.857614 
L 260.529174 82.59231 
L 263.856147 84.577287 
L 267.183121 86.312869 
L 271.341837 88.222614 
L 274.66881 89.567999 
L 274.66881 89.567999 
" clip-path="url(#p5d46d483fa)" style="fill: none; stroke: #7a1514; stroke-width: 0.75; stroke-linecap: square"/>
   </g>
   <g id="line2d_50">
    <path d="M 33.463257 152.169977 
L 40.117203 152.865106 
L 45.107663 153.517118 
L 48.434636 153.807207 
L 55.088582 152.645949 
L 59.247299 151.813557 
L 63.406015 151.203635 
L 75.882164 151.744251 
L 78.377394 151.803699 
L 82.536111 152.52956 
L 85.031341 152.942189 
L 89.190057 153.683856 
L 93.348773 154.648703 
L 96.675747 156.278619 
L 98.339233 157.176863 
L 102.49795 158.746331 
L 106.656666 160.580372 
L 108.320153 161.401256 
L 113.310612 160.611128 
L 119.964559 159.81387 
L 124.123275 158.993342 
L 129.113735 157.650298 
L 138.262911 155.352091 
L 144.916857 154.333106 
L 149.075574 153.591843 
L 154.066033 153.097878 
L 159.888236 153.062689 
L 167.373926 153.135045 
L 169.037413 153.211937 
L 176.523102 153.788765 
L 181.513562 154.001204 
L 184.008792 154.007017 
L 191.494481 153.458916 
L 196.484941 153.108808 
L 198.148428 153.008594 
L 200.643658 154.082858 
L 203.970631 155.735186 
L 206.465861 156.618032 
L 208.96109 157.608054 
L 211.45632 158.466972 
L 213.119807 159.188732 
L 218.94201 159.035424 
L 223.93247 158.537004 
L 228.091186 158.514323 
L 232.249903 157.151742 
L 243.062565 154.068887 
L 251.379998 154.391267 
L 254.706971 154.550032 
L 258.033944 154.806837 
L 266.351377 153.226479 
L 269.67835 152.54417 
L 273.005324 151.794609 
L 274.66881 151.739707 
L 274.66881 151.739707 
" clip-path="url(#p5d46d483fa)" style="fill: none; stroke: #ff9c97; stroke-width: 0.75; stroke-linecap: square"/>
   </g>
   <g id="line2d_51">
    <path d="M 33.463257 62.228167 
L 274.66881 62.228167 
L 274.66881 62.228167 
" clip-path="url(#p5d46d483fa)" style="fill: none; stroke-dasharray: 2.775,1.2; stroke-dashoffset: 0; stroke: #ff6969; stroke-width: 0.75"/>
   </g>
   <g id="patch_3">
    <path d="M 34.295 173.085197 
L 34.295 5.12 
" style="fill: none; stroke: #000000; stroke-width: 0.8; stroke-linejoin: miter; stroke-linecap: square"/>
   </g>
   <g id="patch_4">
    <path d="M 273.837067 173.085197 
L 273.837067 5.12 
" style="fill: none; stroke: #000000; stroke-width: 0.8; stroke-linejoin: miter; stroke-linecap: square"/>
   </g>
   <g id="patch_5">
    <path d="M 34.295 173.085197 
L 273.837067 173.085197 
" style="fill: none; stroke: #000000; stroke-width: 0.8; stroke-linejoin: miter; stroke-linecap: square"/>
   </g>
   <g id="patch_6">
    <path d="M 34.295 5.12 
L 273.837067 5.12 
" style="fill: none; stroke: #000000; stroke-width: 0.8; stroke-linejoin: miter; stroke-linecap: square"/>
   </g>
   <g id="legend_1">
    <g id="line2d_52">
     <path d="M 171.915709 14.658714 
L 183.915709 14.658714 
L 195.915709 14.658714 
" style="fill: none; stroke-dasharray: 2.775,1.2; stroke-dashoffset: 0; stroke: #000000; stroke-width: 0.75"/>
    </g>
    <g id="text_14">
     <!-- ${T_{oa}}$ -->
     <g transform="translate(200.715709 16.758714) scale(0.06 -0.06)">
      <defs>
       <path id="DejaVuSans-Oblique-54" d="M 378 4666 
L 4325 4666 
L 4225 4134 
L 2559 4134 
L 1759 0 
L 1125 0 
L 1925 4134 
L 275 4134 
L 378 4666 
z
" transform="scale(0.015625)"/>
       <path id="DejaVuSans-Oblique-6f" d="M 1625 -91 
Q 1009 -91 651 289 
Q 294 669 294 1325 
Q 294 1706 417 2101 
Q 541 2497 738 2766 
Q 1047 3184 1428 3384 
Q 1809 3584 2291 3584 
Q 2888 3584 3255 3212 
Q 3622 2841 3622 2241 
Q 3622 1825 3500 1412 
Q 3378 1000 3181 728 
Q 2875 309 2494 109 
Q 2113 -91 1625 -91 
z
M 891 1344 
Q 891 869 1089 633 
Q 1288 397 1691 397 
Q 2269 397 2648 901 
Q 3028 1406 3028 2181 
Q 3028 2634 2825 2865 
Q 2622 3097 2228 3097 
Q 1903 3097 1650 2945 
Q 1397 2794 1197 2484 
Q 1050 2253 970 1956 
Q 891 1659 891 1344 
z
" transform="scale(0.015625)"/>
       <path id="DejaVuSans-Oblique-61" d="M 3438 1997 
L 3047 0 
L 2472 0 
L 2578 531 
Q 2325 219 2001 64 
Q 1678 -91 1281 -91 
Q 834 -91 548 182 
Q 263 456 263 884 
Q 263 1497 752 1853 
Q 1241 2209 2100 2209 
L 2900 2209 
L 2931 2363 
Q 2938 2388 2941 2417 
Q 2944 2447 2944 2509 
Q 2944 2788 2717 2942 
Q 2491 3097 2081 3097 
Q 1800 3097 1504 3025 
Q 1209 2953 897 2809 
L 997 3341 
Q 1322 3463 1633 3523 
Q 1944 3584 2234 3584 
Q 2853 3584 3176 3315 
Q 3500 3047 3500 2534 
Q 3500 2431 3484 2292 
Q 3469 2153 3438 1997 
z
M 2816 1759 
L 2241 1759 
Q 1534 1759 1195 1570 
Q 856 1381 856 984 
Q 856 709 1029 553 
Q 1203 397 1509 397 
Q 1978 397 2328 733 
Q 2678 1069 2791 1631 
L 2816 1759 
z
" transform="scale(0.015625)"/>
      </defs>
      <use xlink:href="#DejaVuSans-Oblique-54" transform="translate(0 0.09375)"/>
      <use xlink:href="#DejaVuSans-Oblique-6f" transform="translate(61.083984 -16.3125) scale(0.7)"/>
      <use xlink:href="#DejaVuSans-Oblique-61" transform="translate(103.911133 -16.3125) scale(0.7)"/>
     </g>
    </g>
    <g id="line2d_53">
     <path d="M 171.915709 24.065589 
L 183.915709 24.065589 
L 195.915709 24.065589 
" style="fill: none; stroke: #180f0d; stroke-width: 0.75; stroke-linecap: square"/>
    </g>
    <g id="text_15">
     <!-- ${T_{os}}$ -->
     <g transform="translate(200.715709 26.165589) scale(0.06 -0.06)">
      <defs>
       <path id="DejaVuSans-Oblique-73" d="M 3200 3397 
L 3091 2853 
Q 2863 2978 2609 3040 
Q 2356 3103 2088 3103 
Q 1634 3103 1373 2948 
Q 1113 2794 1113 2528 
Q 1113 2219 1719 2053 
Q 1766 2041 1788 2034 
L 1972 1978 
Q 2547 1819 2739 1644 
Q 2931 1469 2931 1166 
Q 2931 609 2489 259 
Q 2047 -91 1331 -91 
Q 1053 -91 747 -37 
Q 441 16 72 128 
L 184 722 
Q 500 559 806 475 
Q 1113 391 1394 391 
Q 1816 391 2080 572 
Q 2344 753 2344 1031 
Q 2344 1331 1650 1516 
L 1591 1531 
L 1394 1581 
Q 956 1697 753 1886 
Q 550 2075 550 2369 
Q 550 2928 970 3256 
Q 1391 3584 2113 3584 
Q 2397 3584 2667 3537 
Q 2938 3491 3200 3397 
z
" transform="scale(0.015625)"/>
      </defs>
      <use xlink:href="#DejaVuSans-Oblique-54" transform="translate(0 0.09375)"/>
      <use xlink:href="#DejaVuSans-Oblique-6f" transform="translate(61.083984 -16.3125) scale(0.7)"/>
      <use xlink:href="#DejaVuSans-Oblique-73" transform="translate(103.911133 -16.3125) scale(0.7)"/>
     </g>
    </g>
    <g id="line2d_54">
     <path d="M 171.915709 33.472464 
L 183.915709 33.472464 
L 195.915709 33.472464 
" style="fill: none; stroke: #7a1514; stroke-width: 0.75; stroke-linecap: square"/>
    </g>
    <g id="text_16">
     <!-- ${T_{1}}$ -->
     <g transform="translate(200.715709 35.572464) scale(0.06 -0.06)">
      <use xlink:href="#DejaVuSans-Oblique-54" transform="translate(0 0.09375)"/>
      <use xlink:href="#DejaVuSans-31" transform="translate(61.083984 -16.3125) scale(0.7)"/>
     </g>
    </g>
    <g id="line2d_55">
     <path d="M 216.015709 14.658714 
L 228.015709 14.658714 
L 240.015709 14.658714 
" style="fill: none; stroke: #ff9c97; stroke-width: 0.75; stroke-linecap: square"/>
    </g>
    <g id="text_17">
     <!-- sky -->
     <g transform="translate(244.815709 16.758714) scale(0.06 -0.06)">
      <defs>
       <path id="DejaVuSans-73" d="M 2834 3397 
L 2834 2853 
Q 2591 2978 2328 3040 
Q 2066 3103 1784 3103 
Q 1356 3103 1142 2972 
Q 928 2841 928 2578 
Q 928 2378 1081 2264 
Q 1234 2150 1697 2047 
L 1894 2003 
Q 2506 1872 2764 1633 
Q 3022 1394 3022 966 
Q 3022 478 2636 193 
Q 2250 -91 1575 -91 
Q 1294 -91 989 -36 
Q 684 19 347 128 
L 347 722 
Q 666 556 975 473 
Q 1284 391 1588 391 
Q 1994 391 2212 530 
Q 2431 669 2431 922 
Q 2431 1156 2273 1281 
Q 2116 1406 1581 1522 
L 1381 1569 
Q 847 1681 609 1914 
Q 372 2147 372 2553 
Q 372 3047 722 3315 
Q 1072 3584 1716 3584 
Q 2034 3584 2315 3537 
Q 2597 3491 2834 3397 
z
" transform="scale(0.015625)"/>
       <path id="DejaVuSans-6b" d="M 581 4863 
L 1159 4863 
L 1159 1991 
L 2875 3500 
L 3609 3500 
L 1753 1863 
L 3688 0 
L 2938 0 
L 1159 1709 
L 1159 0 
L 581 0 
L 581 4863 
z
" transform="scale(0.015625)"/>
       <path id="DejaVuSans-79" d="M 2059 -325 
Q 1816 -950 1584 -1140 
Q 1353 -1331 966 -1331 
L 506 -1331 
L 506 -850 
L 844 -850 
Q 1081 -850 1212 -737 
Q 1344 -625 1503 -206 
L 1606 56 
L 191 3500 
L 800 3500 
L 1894 763 
L 2988 3500 
L 3597 3500 
L 2059 -325 
z
" transform="scale(0.015625)"/>
      </defs>
      <use xlink:href="#DejaVuSans-73"/>
      <use xlink:href="#DejaVuSans-6b" x="52.099609"/>
      <use xlink:href="#DejaVuSans-79" x="106.384766"/>
     </g>
    </g>
    <g id="line2d_56">
     <path d="M 216.015709 24.065589 
L 228.015709 24.065589 
L 240.015709 24.065589 
" style="fill: none; stroke-dasharray: 2.775,1.2; stroke-dashoffset: 0; stroke: #ff6969; stroke-width: 0.75"/>
    </g>
    <g id="text_18">
     <!-- ground -->
     <g transform="translate(244.815709 26.165589) scale(0.06 -0.06)">
      <defs>
       <path id="DejaVuSans-67" d="M 2906 1791 
Q 2906 2416 2648 2759 
Q 2391 3103 1925 3103 
Q 1463 3103 1205 2759 
Q 947 2416 947 1791 
Q 947 1169 1205 825 
Q 1463 481 1925 481 
Q 2391 481 2648 825 
Q 2906 1169 2906 1791 
z
M 3481 434 
Q 3481 -459 3084 -895 
Q 2688 -1331 1869 -1331 
Q 1566 -1331 1297 -1286 
Q 1028 -1241 775 -1147 
L 775 -588 
Q 1028 -725 1275 -790 
Q 1522 -856 1778 -856 
Q 2344 -856 2625 -561 
Q 2906 -266 2906 331 
L 2906 616 
Q 2728 306 2450 153 
Q 2172 0 1784 0 
Q 1141 0 747 490 
Q 353 981 353 1791 
Q 353 2603 747 3093 
Q 1141 3584 1784 3584 
Q 2172 3584 2450 3431 
Q 2728 3278 2906 2969 
L 2906 3500 
L 3481 3500 
L 3481 434 
z
" transform="scale(0.015625)"/>
       <path id="DejaVuSans-6e" d="M 3513 2113 
L 3513 0 
L 2938 0 
L 2938 2094 
Q 2938 2591 2744 2837 
Q 2550 3084 2163 3084 
Q 1697 3084 1428 2787 
Q 1159 2491 1159 1978 
L 1159 0 
L 581 0 
L 581 3500 
L 1159 3500 
L 1159 2956 
Q 1366 3272 1645 3428 
Q 1925 3584 2291 3584 
Q 2894 3584 3203 3211 
Q 3513 2838 3513 2113 
z
" transform="scale(0.015625)"/>
       <path id="DejaVuSans-64" d="M 2906 2969 
L 2906 4863 
L 3481 4863 
L 3481 0 
L 2906 0 
L 2906 525 
Q 2725 213 2448 61 
Q 2172 -91 1784 -91 
Q 1150 -91 751 415 
Q 353 922 353 1747 
Q 353 2572 751 3078 
Q 1150 3584 1784 3584 
Q 2172 3584 2448 3432 
Q 2725 3281 2906 2969 
z
M 947 1747 
Q 947 1113 1208 752 
Q 1469 391 1925 391 
Q 2381 391 2643 752 
Q 2906 1113 2906 1747 
Q 2906 2381 2643 2742 
Q 2381 3103 1925 3103 
Q 1469 3103 1208 2742 
Q 947 2381 947 1747 
z
" transform="scale(0.015625)"/>
      </defs>
      <use xlink:href="#DejaVuSans-67"/>
      <use xlink:href="#DejaVuSans-72" x="63.476562"/>
      <use xlink:href="#DejaVuSans-6f" x="102.339844"/>
      <use xlink:href="#DejaVuSans-75" x="163.521484"/>
      <use xlink:href="#DejaVuSans-6e" x="226.900391"/>
      <use xlink:href="#DejaVuSans-64" x="290.279297"/>
     </g>
    </g>
   </g>
  </g>
 </g>
 <defs>
  <clipPath id="p5d46d483fa">
   <rect x="34.295" y="5.12" width="239.542067" height="167.965197"/>
  </clipPath>
 </defs>
</svg>
